<svg width="158" height="158" viewBox="0 0 158 158" fill="none" xmlns="http://www.w3.org/2000/svg">
<circle cx="79" cy="79" r="79" fill="#236CFF"/>
<path fill-rule="evenodd" clip-rule="evenodd" d="M74.7328 68.2813C73.3543 68.2807 71.9604 67.9865 70.6358 67.3986L43.9648 55.4677L47.7264 46.9821L74.3975 58.913C74.6673 59.0369 74.9294 59.006 75.1683 58.8356C75.4073 58.6576 75.5152 58.4253 75.4844 58.1311L72.4241 28.9502L81.6203 27.9824L84.6728 57.1478C85.0505 60.7635 83.5242 64.2011 80.595 66.3457C78.8386 67.6301 76.7974 68.2805 74.7328 68.2813ZM74.7328 68.2813C74.7315 68.2813 74.7303 68.2813 74.729 68.2813H74.7367C74.7354 68.2813 74.7341 68.2813 74.7328 68.2813ZM93.4666 78.0644C95.2133 79.3566 97.2505 80.0319 99.3162 80.0493L99.3164 80.0338C100.696 80.0455 102.094 79.7708 103.425 79.1858L130.195 67.4799L126.505 58.9629L99.7344 70.6688C99.4636 70.7904 99.2018 70.7572 98.9642 70.5849C98.7267 70.4126 98.6208 70.1716 98.6542 69.8777L101.952 40.7391L92.7645 39.6939L89.4665 68.8325C89.0583 72.4526 90.5556 75.9029 93.4666 78.0644ZM107.698 125.352L88.3581 103.386C85.9616 100.662 85.208 96.9701 86.3639 93.5194C87.5122 90.0686 90.3171 87.577 93.8695 86.8496L122.482 81.0013L124.321 90.1074L95.7085 95.9557C95.415 96.0151 95.2285 96.1838 95.1335 96.4694C95.0385 96.755 95.0902 97.0033 95.2887 97.2295L114.628 119.196L107.698 125.352ZM53.6351 126.901L45.6436 122.226L60.3388 96.886C62.1621 93.7418 65.4144 91.8726 69.0373 91.8862C72.6602 91.8999 75.8984 93.7934 77.698 96.9514L92.202 122.401L84.1756 127.016L69.6715 101.567C69.3805 101.055 68.6329 101.044 68.338 101.562L53.6428 126.901L53.6351 126.901ZM36.9288 100.236L43.7381 106.526L43.7379 106.541L63.502 84.9559C65.9512 82.272 66.7688 78.6029 65.6881 75.1303C64.6073 71.6578 61.8515 69.112 58.3139 68.3156L29.8209 61.9108L27.8048 70.9793L56.298 77.3686C56.5825 77.4336 56.7733 77.6137 56.8628 77.8934C56.9523 78.1809 56.8956 78.4358 56.6929 78.6504L36.9288 100.236Z" fill="white"/>
</svg>
