<svg width="126" height="32" viewBox="0 0 126 32" fill="none" xmlns="http://www.w3.org/2000/svg">
<rect x="1" y="1" width="124" height="30" rx="15" stroke="#236CFF" stroke-width="2"/>
<path fill-rule="evenodd" clip-rule="evenodd" d="M20.6168 6.48672L21.1342 11.4087C21.2791 12.8037 19.8618 13.8381 18.5768 13.2656L14.0564 11.2527L14.7969 9.58978L19.3173 11.6027L19.3196 11.6037L19.3214 11.6026L19.3239 11.6005L19.3236 11.5971L18.8064 6.67701L20.6168 6.48672ZM24.9009 9.28189L23.0905 9.0917L22.5641 14.1021C22.4173 15.5104 23.8482 16.5527 25.1441 15.9768L29.7465 13.9274L29.006 12.2645L24.4041 14.3137C24.3978 14.3165 24.3944 14.3169 24.3942 14.3169C24.3936 14.3169 24.3892 14.316 24.3832 14.3117C24.3772 14.3073 24.3748 14.3027 24.3744 14.302C24.3744 14.3017 24.3739 14.2985 24.3746 14.2916L24.9009 9.28189ZM23.032 18.1339L27.9571 17.0873L28.3355 18.8679L23.4101 19.9145C23.4065 19.9153 23.404 19.9161 23.4027 19.9165L23.4009 19.9173C23.4002 19.918 23.3974 19.9213 23.3953 19.9278C23.3932 19.9341 23.3935 19.9384 23.3936 19.9395L23.3945 19.941L23.3957 19.9427L23.3989 19.9464L23.3997 19.9474L26.7688 23.6897L25.416 24.9076L22.0478 21.1663C21.0991 20.1148 21.6456 18.4282 23.032 18.1339ZM16.1527 19.8241C16.8611 18.5968 18.6336 18.5969 19.3418 19.8243L21.8598 24.1853L20.2833 25.0955L17.7652 20.7343L17.7632 20.7309L17.7611 20.728L17.7597 20.7263C17.7592 20.7261 17.7549 20.724 17.7472 20.724C17.7397 20.724 17.7354 20.7259 17.7347 20.7263L17.7333 20.728C17.7325 20.729 17.7311 20.731 17.7293 20.7341L15.2111 25.0955L13.6346 24.1853L16.1527 19.8241ZM15.5565 13.815L10.7328 12.7078L10.3256 14.482L15.1474 15.5888L15.1507 15.5896L15.1518 15.5927L15.1523 15.5947L15.1507 15.5965L11.7802 19.2196L13.113 20.4595L16.4834 16.8364C17.4418 15.8067 16.923 14.1304 15.5565 13.815Z" fill="#236CFF"/>
<path d="M41.1848 21V11.088H42.9488V21H41.1848ZM45.0519 21V14.28H46.6479V15.358H46.6759C46.9699 14.686 47.7679 14.084 48.7619 14.084C50.5119 14.084 51.2399 15.428 51.2399 16.8V21H49.5599V17.276C49.5599 16.478 49.3779 15.484 48.2999 15.484C47.2359 15.484 46.7319 16.408 46.7319 17.304V21H45.0519ZM53.4104 15.624H52.2344V14.28H53.4104V12.334H55.0624V14.28H56.7424V15.624H55.0624V18.746C55.0624 19.348 55.2024 19.782 55.9444 19.782C56.1684 19.782 56.4624 19.74 56.6584 19.642L56.7144 20.958C56.4204 21.07 55.9724 21.14 55.5944 21.14C53.8164 21.14 53.4104 20.048 53.4104 18.76V15.624ZM64.0902 14.28V21H62.4942V19.922H62.4662C62.1722 20.594 61.3742 21.196 60.3802 21.196C58.6302 21.196 57.9022 19.852 57.9022 18.48V14.28H59.5822V18.004C59.5822 18.802 59.7642 19.796 60.8422 19.796C61.9062 19.796 62.4102 18.872 62.4102 17.976V14.28H64.0902ZM66.1346 21V14.28H67.8146V21H66.1346ZM65.8966 11.998C65.8966 11.466 66.3446 10.99 66.9606 10.99C67.5766 10.99 68.0526 11.424 68.0526 11.998C68.0526 12.572 67.5766 13.006 66.9606 13.006C66.3446 13.006 65.8966 12.53 65.8966 11.998ZM70.0627 15.624H68.8867V14.28H70.0627V12.334H71.7147V14.28H73.3947V15.624H71.7147V18.746C71.7147 19.348 71.8547 19.782 72.5967 19.782C72.8207 19.782 73.1147 19.74 73.3107 19.642L73.3667 20.958C73.0727 21.07 72.6247 21.14 72.2467 21.14C70.4687 21.14 70.0627 20.048 70.0627 18.76V15.624ZM76.7444 21L81.0564 11.088H82.5824L86.8524 21H84.8364L83.9124 18.732H79.6144L78.7184 21H76.7444ZM80.2164 17.22H83.2964L81.7704 13.188L80.2164 17.22ZM92.5232 15.106L91.4312 16.072C91.1372 15.68 90.5772 15.344 89.9612 15.344C89.4292 15.344 88.8832 15.54 88.8832 16.072C88.8832 16.59 89.4012 16.73 90.3392 16.954C91.3332 17.192 92.5092 17.64 92.5092 18.956C92.5092 20.594 91.1792 21.196 89.7092 21.196C88.6732 21.196 87.5952 20.804 86.9512 20.09L88.0572 19.054C88.4212 19.53 89.0512 19.894 89.7792 19.894C90.2692 19.894 90.8572 19.698 90.8572 19.096C90.8572 18.536 90.3392 18.368 89.3172 18.13C88.3232 17.892 87.3292 17.486 87.3292 16.226C87.3292 14.728 88.6732 14.084 90.0032 14.084C90.9692 14.084 91.9772 14.42 92.5232 15.106ZM98.7439 15.106L97.6519 16.072C97.3579 15.68 96.7979 15.344 96.1819 15.344C95.6499 15.344 95.1039 15.54 95.1039 16.072C95.1039 16.59 95.6219 16.73 96.5599 16.954C97.5539 17.192 98.7299 17.64 98.7299 18.956C98.7299 20.594 97.3999 21.196 95.9299 21.196C94.8939 21.196 93.8159 20.804 93.1719 20.09L94.2779 19.054C94.6419 19.53 95.2719 19.894 95.9999 19.894C96.4899 19.894 97.0779 19.698 97.0779 19.096C97.0779 18.536 96.5599 18.368 95.5379 18.13C94.5439 17.892 93.5499 17.486 93.5499 16.226C93.5499 14.728 94.8939 14.084 96.2239 14.084C97.1899 14.084 98.1979 14.42 98.7439 15.106ZM100.219 21V14.28H101.899V21H100.219ZM99.9806 11.998C99.9806 11.466 100.429 10.99 101.045 10.99C101.661 10.99 102.137 11.424 102.137 11.998C102.137 12.572 101.661 13.006 101.045 13.006C100.429 13.006 99.9806 12.53 99.9806 11.998ZM108.711 15.106L107.619 16.072C107.325 15.68 106.765 15.344 106.149 15.344C105.617 15.344 105.071 15.54 105.071 16.072C105.071 16.59 105.589 16.73 106.527 16.954C107.521 17.192 108.697 17.64 108.697 18.956C108.697 20.594 107.367 21.196 105.897 21.196C104.861 21.196 103.783 20.804 103.139 20.09L104.245 19.054C104.609 19.53 105.239 19.894 105.967 19.894C106.457 19.894 107.045 19.698 107.045 19.096C107.045 18.536 106.527 18.368 105.505 18.13C104.511 17.892 103.517 17.486 103.517 16.226C103.517 14.728 104.861 14.084 106.191 14.084C107.157 14.084 108.165 14.42 108.711 15.106ZM110.367 15.624H109.191V14.28H110.367V12.334H112.019V14.28H113.699V15.624H112.019V18.746C112.019 19.348 112.159 19.782 112.901 19.782C113.125 19.782 113.419 19.74 113.615 19.642L113.671 20.958C113.377 21.07 112.929 21.14 112.551 21.14C110.773 21.14 110.367 20.048 110.367 18.76V15.624Z" fill="#393A3D"/>
</svg>
