<svg width="375" height="228" viewBox="0 0 375 228" fill="none" xmlns="http://www.w3.org/2000/svg">
<path d="M24.378 42H17.782L8.092 26.258H7.99L8.126 42H2.482V17.928H9.112L18.768 33.636H18.87L18.734 17.928H24.378V42ZM35.0893 19.662C35.0893 21.396 33.6613 22.722 31.8933 22.722C30.0913 22.722 28.6973 21.328 28.6973 19.662C28.6973 18.03 30.0913 16.602 31.8933 16.602C33.6613 16.602 35.0893 17.962 35.0893 19.662ZM34.6813 42H29.1053V25.068H34.6813V42ZM53.9899 26.802L50.7599 30.542C50.1479 29.726 48.9239 29.182 47.8019 29.182C45.4559 29.182 43.8919 31.188 43.8919 33.534C43.8919 35.88 45.4219 37.852 47.8699 37.852C48.9919 37.852 50.2159 37.41 50.8959 36.594L53.9899 40.368C52.5959 41.728 50.2159 42.544 47.7339 42.544C42.3959 42.544 38.2479 39.144 38.2479 33.534C38.2479 28.026 42.4299 24.524 47.6999 24.524C50.1139 24.524 52.6639 25.442 53.9899 26.802ZM60.6855 31.596H67.8595C67.8595 29.828 66.7375 28.366 64.5275 28.366C62.3855 28.366 60.8215 29.862 60.6855 31.596ZM72.9935 33.738C72.9935 34.18 72.9935 34.656 72.9595 35.064H60.6855C60.8555 36.934 62.7255 38.26 64.7315 38.26C66.4995 38.26 67.7235 37.512 68.4715 36.492L72.3475 38.94C70.7495 41.252 68.0975 42.544 64.6635 42.544C59.5635 42.544 55.3475 39.314 55.3475 33.602C55.3475 28.06 59.3595 24.524 64.4935 24.524C69.4915 24.524 72.9935 27.958 72.9935 33.738ZM94.9814 29.25H91.0034V35.71C91.0034 37.274 91.5134 38.09 93.1114 38.09C93.6554 38.09 94.3354 37.988 94.7434 37.818L94.8114 41.898C94.0634 42.17 92.7714 42.408 91.5814 42.408C87.0594 42.408 85.5634 39.994 85.5634 36.39V29.25H82.8434V25.068H85.5294V20.614H91.0034V25.068H94.9814V29.25ZM115.554 33.466C115.554 39.008 111.27 42.544 106.136 42.544C101.036 42.544 96.7518 39.008 96.7518 33.466C96.7518 27.924 101.036 24.524 106.136 24.524C111.27 24.524 115.554 27.924 115.554 33.466ZM110.182 33.466C110.182 31.29 108.754 29.148 106.136 29.148C103.518 29.148 102.158 31.29 102.158 33.466C102.158 35.642 103.552 37.852 106.17 37.852C108.788 37.852 110.182 35.642 110.182 33.466ZM154.784 42H149.208V32.752C149.208 30.814 148.766 29.182 146.794 29.182C144.89 29.182 143.972 30.95 143.972 32.854V42H138.396V32.344C138.396 30.406 137.648 29.182 135.982 29.182C134.214 29.182 133.194 30.78 133.194 32.82V42H127.584V25.068H132.99V27.414H133.058C133.84 25.986 135.574 24.592 138.124 24.592C140.572 24.592 142.272 25.646 143.224 27.482C144.346 25.714 146.114 24.592 148.63 24.592C153.22 24.592 154.784 28.332 154.784 31.528V42ZM163.482 31.596H170.656C170.656 29.828 169.534 28.366 167.324 28.366C165.182 28.366 163.618 29.862 163.482 31.596ZM175.79 33.738C175.79 34.18 175.79 34.656 175.756 35.064H163.482C163.652 36.934 165.522 38.26 167.528 38.26C169.296 38.26 170.52 37.512 171.268 36.492L175.144 38.94C173.546 41.252 170.894 42.544 167.46 42.544C162.36 42.544 158.144 39.314 158.144 33.602C158.144 28.06 162.156 24.524 167.29 24.524C172.288 24.524 175.79 27.958 175.79 33.738ZM183.736 31.596H190.91C190.91 29.828 189.788 28.366 187.578 28.366C185.436 28.366 183.872 29.862 183.736 31.596ZM196.044 33.738C196.044 34.18 196.044 34.656 196.01 35.064H183.736C183.906 36.934 185.776 38.26 187.782 38.26C189.55 38.26 190.774 37.512 191.522 36.492L195.398 38.94C193.8 41.252 191.148 42.544 187.714 42.544C182.614 42.544 178.398 39.314 178.398 33.602C178.398 28.06 182.41 24.524 187.544 24.524C192.542 24.524 196.044 27.958 196.044 33.738ZM209.532 29.25H205.554V35.71C205.554 37.274 206.064 38.09 207.662 38.09C208.206 38.09 208.886 37.988 209.294 37.818L209.362 41.898C208.614 42.17 207.322 42.408 206.132 42.408C201.61 42.408 200.114 39.994 200.114 36.39V29.25H197.394V25.068H200.08V20.614H205.554V25.068H209.532V29.25ZM237.789 25.068L230.207 44.55C228.847 48.086 227.011 50.16 222.761 50.16C221.707 50.16 220.517 49.99 219.701 49.786L220.313 45.094C220.857 45.264 221.571 45.4 222.115 45.4C223.849 45.4 224.427 44.584 224.971 43.122L225.515 41.728L218.443 25.068H224.631L228.405 35.948H228.507L231.873 25.068H237.789ZM257.896 33.466C257.896 39.008 253.612 42.544 248.478 42.544C243.378 42.544 239.094 39.008 239.094 33.466C239.094 27.924 243.378 24.524 248.478 24.524C253.612 24.524 257.896 27.924 257.896 33.466ZM252.524 33.466C252.524 31.29 251.096 29.148 248.478 29.148C245.86 29.148 244.5 31.29 244.5 33.466C244.5 35.642 245.894 37.852 248.512 37.852C251.13 37.852 252.524 35.642 252.524 33.466ZM277.95 42H272.578V39.654H272.51C271.728 41.15 269.79 42.476 267.41 42.476C262.854 42.476 261.256 38.94 261.256 35.54V25.068H266.866V34.248C266.866 36.152 267.342 37.852 269.382 37.852C271.32 37.852 272.374 36.152 272.374 34.214V25.068H277.95V42ZM289.043 33.942H283.331V17.928H289.043V33.942ZM289.519 39.11C289.519 40.912 288.023 42.34 286.187 42.34C284.419 42.34 282.889 40.946 282.889 39.144C282.889 37.376 284.351 35.914 286.187 35.914C288.023 35.914 289.519 37.342 289.519 39.11Z" fill="#393A3D"/>
<path d="M2.96 66.672V78H1.376V66.672H2.96ZM5.78375 70.672V66.672H7.09575V70.672H5.78375ZM11.2993 71.664C11.6833 70.864 12.5633 70.208 13.7153 70.208C14.7233 70.208 15.6033 70.656 16.0673 71.728C16.5793 70.752 17.5712 70.208 18.6433 70.208C20.5953 70.208 21.4753 71.6 21.4753 73.296V78H19.9713V73.792C19.9713 72.56 19.6033 71.472 18.2913 71.472C16.9153 71.472 16.3713 72.72 16.3713 73.904V78H14.8673V73.488C14.8673 72.304 14.4673 71.472 13.2673 71.472C12.1633 71.472 11.3313 72.464 11.3313 73.968V78H9.82725V72.048C9.82725 71.648 9.81125 70.912 9.76325 70.416H11.1873C11.2193 70.8 11.2513 71.344 11.2513 71.664H11.2993ZM28.5428 70.416L30.8948 76.368H30.9268L33.0228 70.416H34.6228L30.9427 79.792C30.4468 81.056 29.8068 81.84 28.3188 81.84C27.9988 81.84 27.6628 81.808 27.3268 81.728L27.4708 80.4C27.7108 80.48 27.9828 80.528 28.2228 80.528C29.0068 80.528 29.3108 80.08 29.6308 79.264L30.1108 78L26.8628 70.416H28.5428ZM43.7573 74.192C43.7573 76.528 41.9813 78.208 39.6613 78.208C37.3413 78.208 35.5813 76.528 35.5813 74.192C35.5813 71.856 37.3413 70.208 39.6613 70.208C41.9813 70.208 43.7573 71.856 43.7573 74.192ZM42.1893 74.192C42.1893 72.752 41.2933 71.456 39.6613 71.456C38.0453 71.456 37.1332 72.752 37.1332 74.192C37.1332 75.632 38.0453 76.944 39.6613 76.944C41.2933 76.944 42.1893 75.632 42.1893 74.192ZM52.6109 78H51.1869C51.1549 77.616 51.1229 77.072 51.1229 76.752H51.0909C50.7069 77.552 49.7149 78.208 48.6109 78.208C46.6589 78.208 45.7789 76.816 45.7789 75.12V70.416H47.2829V74.608C47.2829 75.856 47.6189 76.944 49.0109 76.944C50.2109 76.944 51.0429 75.952 51.0429 74.448V70.416H52.5469V76.368C52.5469 76.768 52.5629 77.504 52.6109 78ZM55.1554 72.048C55.1554 71.648 55.1394 70.912 55.0914 70.416H56.5154C56.5474 70.8 56.5794 71.376 56.5794 71.696H56.6274C57.0434 70.816 57.9234 70.208 58.9474 70.208C59.1554 70.208 59.3634 70.224 59.5394 70.272L59.4754 71.664C59.2834 71.616 59.0274 71.584 58.7874 71.584C57.3474 71.584 56.6594 72.752 56.6594 74.016V78H55.1554V72.048ZM66.351 75.216L65.215 78H63.455L68.367 66.672H69.807L74.671 78H72.879L71.727 75.216H66.351ZM69.039 68.512L66.911 73.824H71.151L69.039 68.512ZM77.71 66.672V78H76.126V66.672H77.71ZM83.5098 73.456V74.736H79.7978V73.456H83.5098ZM87.0188 76.864V81.84H85.5148V70.416H86.9868V71.6H87.0348C87.5308 70.8 88.5228 70.208 89.7708 70.208C92.0268 70.208 93.5628 71.952 93.5628 74.192C93.5628 76.416 92.0748 78.208 89.7388 78.208C88.6668 78.208 87.6268 77.712 87.0668 76.864H87.0188ZM92.0108 74.192C92.0108 72.768 91.1308 71.456 89.4828 71.456C87.9468 71.456 86.9228 72.752 86.9228 74.208C86.9228 75.664 87.9468 76.944 89.4828 76.944C91.1308 76.944 92.0108 75.616 92.0108 74.192ZM103.335 74.192C103.335 76.528 101.559 78.208 99.2394 78.208C96.9194 78.208 95.1594 76.528 95.1594 74.192C95.1594 71.856 96.9194 70.208 99.2394 70.208C101.559 70.208 103.335 71.856 103.335 74.192ZM101.767 74.192C101.767 72.752 100.871 71.456 99.2394 71.456C97.6234 71.456 96.7114 72.752 96.7114 74.192C96.7114 75.632 97.6234 76.944 99.2394 76.944C100.871 76.944 101.767 75.632 101.767 74.192ZM104.349 70.416H105.981L107.693 76.208H107.725L109.533 70.416H111.117L112.957 76.208H112.989L114.701 70.416H116.285L113.773 78H112.205L110.333 72.304H110.301L108.445 78H106.877L104.349 70.416ZM118.836 73.536H123.348C123.316 72.336 122.612 71.392 121.22 71.392C119.924 71.392 118.932 72.352 118.836 73.536ZM124.868 74.144C124.868 74.304 124.868 74.48 124.852 74.656H118.836C118.884 75.952 119.972 76.96 121.3 76.96C122.324 76.96 123.076 76.448 123.508 75.808L124.564 76.656C123.748 77.712 122.644 78.208 121.3 78.208C118.996 78.208 117.3 76.608 117.3 74.224C117.3 71.856 118.996 70.208 121.22 70.208C123.46 70.208 124.868 71.728 124.868 74.144ZM126.968 72.048C126.968 71.648 126.952 70.912 126.904 70.416H128.328C128.36 70.8 128.392 71.376 128.392 71.696H128.44C128.856 70.816 129.736 70.208 130.76 70.208C130.968 70.208 131.176 70.224 131.352 70.272L131.288 71.664C131.096 71.616 130.84 71.584 130.6 71.584C129.16 71.584 128.472 72.752 128.472 74.016V78H126.968V72.048ZM133.524 73.536H138.036C138.004 72.336 137.3 71.392 135.908 71.392C134.612 71.392 133.62 72.352 133.524 73.536ZM139.556 74.144C139.556 74.304 139.556 74.48 139.54 74.656H133.524C133.572 75.952 134.66 76.96 135.988 76.96C137.012 76.96 137.764 76.448 138.196 75.808L139.252 76.656C138.436 77.712 137.332 78.208 135.988 78.208C133.684 78.208 131.988 76.608 131.988 74.224C131.988 71.856 133.684 70.208 135.908 70.208C138.148 70.208 139.556 71.728 139.556 74.144ZM147.703 76.8C147.127 77.712 146.039 78.208 144.967 78.208C142.631 78.208 141.143 76.416 141.143 74.192C141.143 71.952 142.679 70.208 144.951 70.208C146.183 70.208 147.127 70.816 147.655 71.552H147.687V65.904H149.191V78H147.735V76.8H147.703ZM142.711 74.192C142.711 75.616 143.575 76.944 145.223 76.944C146.759 76.944 147.783 75.664 147.783 74.208C147.783 72.752 146.759 71.456 145.223 71.456C143.575 71.456 142.711 72.768 142.711 74.192ZM160.532 73.296V73.088C160.532 71.968 159.78 71.424 158.66 71.424C157.812 71.424 157.012 71.792 156.5 72.304L155.7 71.344C156.436 70.64 157.572 70.208 158.804 70.208C160.98 70.208 161.972 71.504 161.972 73.184V76.496C161.972 77.008 162.004 77.632 162.084 78H160.724C160.644 77.664 160.596 77.264 160.596 76.912H160.548C160.004 77.728 159.14 78.192 158.004 78.192C156.804 78.192 155.252 77.6 155.252 75.856C155.252 73.568 157.972 73.296 160.532 73.296ZM160.532 74.384H160.164C158.676 74.384 156.788 74.544 156.788 75.824C156.788 76.72 157.588 77.008 158.34 77.008C159.748 77.008 160.532 76.064 160.532 74.784V74.384ZM169.62 71.456L168.58 72.336C168.244 71.792 167.588 71.392 166.82 71.392C166.132 71.392 165.412 71.664 165.412 72.384C165.412 73.024 165.988 73.264 167.14 73.52C168.58 73.84 169.684 74.432 169.684 75.76C169.684 77.552 168.196 78.208 166.66 78.208C165.508 78.208 164.324 77.76 163.604 76.848L164.676 75.936C165.076 76.528 165.844 76.992 166.692 76.992C167.444 76.992 168.196 76.72 168.196 75.888C168.196 75.184 167.508 74.928 166.212 74.624C165.204 74.384 164.004 73.952 164.004 72.528C164.004 70.896 165.428 70.208 166.868 70.208C167.94 70.208 169.076 70.64 169.62 71.456ZM176.729 71.456L175.689 72.336C175.353 71.792 174.697 71.392 173.929 71.392C173.241 71.392 172.521 71.664 172.521 72.384C172.521 73.024 173.097 73.264 174.249 73.52C175.689 73.84 176.793 74.432 176.793 75.76C176.793 77.552 175.305 78.208 173.769 78.208C172.617 78.208 171.433 77.76 170.713 76.848L171.785 75.936C172.185 76.528 172.953 76.992 173.801 76.992C174.553 76.992 175.305 76.72 175.305 75.888C175.305 75.184 174.617 74.928 173.321 74.624C172.313 74.384 171.113 73.952 171.113 72.528C171.113 70.896 172.537 70.208 173.977 70.208C175.049 70.208 176.185 70.64 176.729 71.456ZM180.222 70.416V78H178.718V70.416H180.222ZM180.478 67.68C180.478 68.224 180.014 68.64 179.47 68.64C178.926 68.64 178.478 68.208 178.478 67.68C178.478 67.136 178.926 66.704 179.47 66.704C180.014 66.704 180.478 67.12 180.478 67.68ZM187.979 71.456L186.939 72.336C186.603 71.792 185.947 71.392 185.179 71.392C184.491 71.392 183.771 71.664 183.771 72.384C183.771 73.024 184.347 73.264 185.499 73.52C186.939 73.84 188.043 74.432 188.043 75.76C188.043 77.552 186.555 78.208 185.019 78.208C183.867 78.208 182.683 77.76 181.963 76.848L183.035 75.936C183.435 76.528 184.203 76.992 185.051 76.992C185.803 76.992 186.555 76.72 186.555 75.888C186.555 75.184 185.867 74.928 184.571 74.624C183.563 74.384 182.363 73.952 182.363 72.528C182.363 70.896 183.787 70.208 185.227 70.208C186.299 70.208 187.435 70.64 187.979 71.456ZM193.664 70.416V71.648H191.648V75.6C191.648 76.512 191.968 76.88 192.72 76.88C192.992 76.88 193.344 76.816 193.6 76.688L193.648 77.92C193.296 78.048 192.832 78.128 192.368 78.128C190.944 78.128 190.16 77.328 190.16 75.76V71.648H188.704V70.416H190.16V68.24H191.648V70.416H193.664ZM199.938 73.296V73.088C199.938 71.968 199.186 71.424 198.066 71.424C197.218 71.424 196.418 71.792 195.906 72.304L195.106 71.344C195.842 70.64 196.978 70.208 198.21 70.208C200.386 70.208 201.378 71.504 201.378 73.184V76.496C201.378 77.008 201.41 77.632 201.49 78H200.13C200.05 77.664 200.002 77.264 200.002 76.912H199.954C199.41 77.728 198.546 78.192 197.41 78.192C196.21 78.192 194.658 77.6 194.658 75.856C194.658 73.568 197.378 73.296 199.938 73.296ZM199.938 74.384H199.57C198.082 74.384 196.194 74.544 196.194 75.824C196.194 76.72 196.994 77.008 197.746 77.008C199.154 77.008 199.938 76.064 199.938 74.784V74.384ZM203.826 70.416H205.25C205.282 70.8 205.314 71.344 205.314 71.664H205.362C205.73 70.848 206.738 70.208 207.826 70.208C209.778 70.208 210.658 71.6 210.658 73.296V78H209.154V73.792C209.154 72.56 208.818 71.472 207.426 71.472C206.242 71.472 205.394 72.464 205.394 73.968V78H203.89V72.048C203.89 71.648 203.874 70.912 203.826 70.416ZM216.914 70.416V71.648H214.898V75.6C214.898 76.512 215.218 76.88 215.97 76.88C216.242 76.88 216.594 76.816 216.85 76.688L216.898 77.92C216.546 78.048 216.082 78.128 215.618 78.128C214.194 78.128 213.41 77.328 213.41 75.76V71.648H211.954V70.416H213.41V68.24H214.898V70.416H216.914ZM220.324 77.04C220.324 77.6 219.86 78.096 219.252 78.096C218.66 78.096 218.18 77.616 218.18 77.056C218.18 76.48 218.644 76 219.252 76C219.86 76 220.324 76.464 220.324 77.04ZM227.804 66.672V78H226.22V66.672H227.804ZM240.884 71.456L239.796 72.336C239.476 71.84 238.772 71.472 238.052 71.472C236.484 71.472 235.572 72.752 235.572 74.208C235.572 75.648 236.484 76.944 238.068 76.944C238.836 76.944 239.492 76.624 239.892 76.112L240.9 77.024C240.26 77.76 239.284 78.208 238.068 78.208C235.732 78.208 233.988 76.624 233.988 74.208C233.988 71.824 235.716 70.208 238.036 70.208C239.108 70.208 240.26 70.64 240.884 71.456ZM247.11 73.296V73.088C247.11 71.968 246.358 71.424 245.238 71.424C244.39 71.424 243.59 71.792 243.078 72.304L242.278 71.344C243.014 70.64 244.15 70.208 245.382 70.208C247.558 70.208 248.55 71.504 248.55 73.184V76.496C248.55 77.008 248.582 77.632 248.662 78H247.302C247.222 77.664 247.174 77.264 247.174 76.912H247.126C246.582 77.728 245.718 78.192 244.582 78.192C243.382 78.192 241.83 77.6 241.83 75.856C241.83 73.568 244.55 73.296 247.11 73.296ZM247.11 74.384H246.742C245.254 74.384 243.366 74.544 243.366 75.824C243.366 76.72 244.166 77.008 244.918 77.008C246.326 77.008 247.11 76.064 247.11 74.784V74.384ZM250.998 70.416H252.422C252.454 70.8 252.486 71.344 252.486 71.664H252.534C252.902 70.848 253.91 70.208 254.998 70.208C256.95 70.208 257.83 71.6 257.83 73.296V78H256.326V73.792C256.326 72.56 255.99 71.472 254.598 71.472C253.414 71.472 252.566 72.464 252.566 73.968V78H251.062V72.048C251.062 71.648 251.046 70.912 250.998 70.416ZM269.094 73.296V73.088C269.094 71.968 268.342 71.424 267.222 71.424C266.374 71.424 265.574 71.792 265.062 72.304L264.262 71.344C264.998 70.64 266.134 70.208 267.366 70.208C269.542 70.208 270.534 71.504 270.534 73.184V76.496C270.534 77.008 270.566 77.632 270.646 78H269.286C269.206 77.664 269.158 77.264 269.158 76.912H269.11C268.566 77.728 267.702 78.192 266.566 78.192C265.366 78.192 263.814 77.6 263.814 75.856C263.814 73.568 266.534 73.296 269.094 73.296ZM269.094 74.384H268.726C267.238 74.384 265.35 74.544 265.35 75.824C265.35 76.72 266.15 77.008 266.902 77.008C268.31 77.008 269.094 76.064 269.094 74.784V74.384ZM272.982 70.416H274.406C274.438 70.8 274.47 71.344 274.47 71.664H274.518C274.886 70.848 275.894 70.208 276.982 70.208C278.934 70.208 279.814 71.6 279.814 73.296V78H278.31V73.792C278.31 72.56 277.974 71.472 276.582 71.472C275.398 71.472 274.55 72.464 274.55 73.968V78H273.046V72.048C273.046 71.648 273.03 70.912 272.982 70.416ZM287.495 71.456L286.455 72.336C286.119 71.792 285.463 71.392 284.695 71.392C284.007 71.392 283.287 71.664 283.287 72.384C283.287 73.024 283.863 73.264 285.015 73.52C286.455 73.84 287.559 74.432 287.559 75.76C287.559 77.552 286.071 78.208 284.535 78.208C283.383 78.208 282.199 77.76 281.479 76.848L282.551 75.936C282.951 76.528 283.719 76.992 284.567 76.992C285.319 76.992 286.071 76.72 286.071 75.888C286.071 75.184 285.383 74.928 284.087 74.624C283.079 74.384 281.879 73.952 281.879 72.528C281.879 70.896 283.303 70.208 284.743 70.208C285.815 70.208 286.951 70.64 287.495 71.456ZM288.396 70.416H290.028L291.74 76.208H291.772L293.58 70.416H295.164L297.004 76.208H297.036L298.748 70.416H300.332L297.82 78H296.252L294.38 72.304H294.348L292.492 78H290.924L288.396 70.416ZM302.883 73.536H307.395C307.363 72.336 306.659 71.392 305.267 71.392C303.971 71.392 302.979 72.352 302.883 73.536ZM308.915 74.144C308.915 74.304 308.915 74.48 308.899 74.656H302.883C302.931 75.952 304.019 76.96 305.347 76.96C306.371 76.96 307.123 76.448 307.555 75.808L308.611 76.656C307.795 77.712 306.691 78.208 305.347 78.208C303.043 78.208 301.347 76.608 301.347 74.224C301.347 71.856 303.043 70.208 305.267 70.208C307.507 70.208 308.915 71.728 308.915 74.144ZM311.015 72.048C311.015 71.648 310.999 70.912 310.951 70.416H312.375C312.407 70.8 312.439 71.376 312.439 71.696H312.487C312.903 70.816 313.783 70.208 314.807 70.208C315.015 70.208 315.223 70.224 315.399 70.272L315.335 71.664C315.143 71.616 314.887 71.584 314.647 71.584C313.207 71.584 312.519 72.752 312.519 74.016V78H311.015V72.048ZM7.328 100.864H7.296C6.736 101.712 5.68 102.208 4.608 102.208C2.272 102.208 0.784 100.416 0.784 98.192C0.784 95.952 2.32 94.208 4.592 94.208C5.824 94.208 6.816 94.8 7.328 95.6H7.376V94.416H8.832V105.84H7.328V100.864ZM2.352 98.192C2.352 99.616 3.216 100.944 4.864 100.944C6.4 100.944 7.424 99.664 7.424 98.208C7.424 96.752 6.4 95.456 4.864 95.456C3.216 95.456 2.352 96.768 2.352 98.192ZM18.189 102H16.765C16.733 101.616 16.701 101.072 16.701 100.752H16.669C16.285 101.552 15.293 102.208 14.189 102.208C12.237 102.208 11.357 100.816 11.357 99.12V94.416H12.861V98.608C12.861 99.856 13.197 100.944 14.589 100.944C15.789 100.944 16.621 99.952 16.621 98.448V94.416H18.125V100.368C18.125 100.768 18.141 101.504 18.189 102ZM21.7735 97.536H26.2855C26.2535 96.336 25.5495 95.392 24.1575 95.392C22.8615 95.392 21.8695 96.352 21.7735 97.536ZM27.8055 98.144C27.8055 98.304 27.8055 98.48 27.7895 98.656H21.7735C21.8215 99.952 22.9095 100.96 24.2375 100.96C25.2615 100.96 26.0135 100.448 26.4455 99.808L27.5015 100.656C26.6855 101.712 25.5815 102.208 24.2375 102.208C21.9335 102.208 20.2375 100.608 20.2375 98.224C20.2375 95.856 21.9335 94.208 24.1575 94.208C26.3975 94.208 27.8055 95.728 27.8055 98.144ZM35.0414 95.456L34.0014 96.336C33.6654 95.792 33.0094 95.392 32.2414 95.392C31.5534 95.392 30.8334 95.664 30.8334 96.384C30.8334 97.024 31.4094 97.264 32.5614 97.52C34.0014 97.84 35.1054 98.432 35.1054 99.76C35.1054 101.552 33.6174 102.208 32.0814 102.208C30.9294 102.208 29.7454 101.76 29.0254 100.848L30.0974 99.936C30.4974 100.528 31.2654 100.992 32.1134 100.992C32.8654 100.992 33.6174 100.72 33.6174 99.888C33.6174 99.184 32.9294 98.928 31.6334 98.624C30.6254 98.384 29.4254 97.952 29.4254 96.528C29.4254 94.896 30.8494 94.208 32.2894 94.208C33.3614 94.208 34.4974 94.64 35.0414 95.456ZM40.7268 94.416V95.648H38.7108V99.6C38.7108 100.512 39.0308 100.88 39.7828 100.88C40.0548 100.88 40.4068 100.816 40.6628 100.688L40.7108 101.92C40.3588 102.048 39.8948 102.128 39.4308 102.128C38.0068 102.128 37.2228 101.328 37.2228 99.76V95.648H35.7668V94.416H37.2228V92.24H38.7108V94.416H40.7268ZM43.8004 94.416V102H42.2964V94.416H43.8004ZM44.0564 91.68C44.0564 92.224 43.5924 92.64 43.0484 92.64C42.5044 92.64 42.0564 92.208 42.0564 91.68C42.0564 91.136 42.5044 90.704 43.0484 90.704C43.5924 90.704 44.0564 91.12 44.0564 91.68ZM54.101 98.192C54.101 100.528 52.325 102.208 50.005 102.208C47.685 102.208 45.925 100.528 45.925 98.192C45.925 95.856 47.685 94.208 50.005 94.208C52.325 94.208 54.101 95.856 54.101 98.192ZM52.533 98.192C52.533 96.752 51.637 95.456 50.005 95.456C48.389 95.456 47.477 96.752 47.477 98.192C47.477 99.632 48.389 100.944 50.005 100.944C51.637 100.944 52.533 99.632 52.533 98.192ZM56.1226 94.416H57.5466C57.5786 94.8 57.6106 95.344 57.6106 95.664H57.6586C58.0266 94.848 59.0346 94.208 60.1226 94.208C62.0746 94.208 62.9546 95.6 62.9546 97.296V102H61.4506V97.792C61.4506 96.56 61.1146 95.472 59.7226 95.472C58.5386 95.472 57.6906 96.464 57.6906 97.968V102H56.1866V96.048C56.1866 95.648 56.1706 94.912 56.1226 94.416ZM70.6351 95.456L69.5951 96.336C69.2591 95.792 68.6031 95.392 67.8351 95.392C67.1471 95.392 66.4271 95.664 66.4271 96.384C66.4271 97.024 67.0031 97.264 68.1551 97.52C69.5951 97.84 70.6991 98.432 70.6991 99.76C70.6991 101.552 69.2111 102.208 67.6751 102.208C66.5231 102.208 65.3391 101.76 64.6191 100.848L65.6911 99.936C66.0911 100.528 66.8591 100.992 67.7071 100.992C68.4591 100.992 69.2111 100.72 69.2111 99.888C69.2111 99.184 68.5231 98.928 67.2271 98.624C66.2191 98.384 65.0191 97.952 65.0191 96.528C65.0191 94.896 66.4431 94.208 67.8831 94.208C68.9551 94.208 70.0911 94.64 70.6351 95.456ZM81.0405 98.8V98.528H80.7045C79.5525 98.528 78.2565 98.672 78.2565 99.616C78.2565 100.224 78.8645 100.432 79.3925 100.432C80.4485 100.432 81.0405 99.792 81.0405 98.8ZM77.5525 96.544L76.2245 95.12C77.1525 94.24 78.4805 93.776 79.7765 93.776C82.4485 93.776 83.4405 95.088 83.4405 97.984V102H81.0405V101.152H80.9925C80.5925 101.808 79.6805 102.192 78.7365 102.192C77.4725 102.192 75.8405 101.568 75.8405 99.696C75.8405 97.392 78.6405 97.008 80.9605 97.008V96.88C80.9605 96.096 80.3365 95.728 79.5205 95.728C78.7685 95.728 78.0325 96.096 77.5525 96.544ZM94.279 97.984C94.279 100.208 92.887 102.224 90.487 102.224C89.431 102.224 88.391 101.76 87.879 100.96H87.847V102H85.431V89.904H88.055V94.88H88.087C88.535 94.352 89.351 93.808 90.519 93.808C92.839 93.808 94.279 95.76 94.279 97.984ZM91.751 97.984C91.751 96.96 91.111 95.952 89.863 95.952C88.679 95.952 87.943 96.992 87.943 98C87.943 99.04 88.679 100.048 89.863 100.048C91.111 100.048 91.751 99.024 91.751 97.984ZM104.394 97.984C104.394 100.592 102.378 102.256 99.9619 102.256C97.5619 102.256 95.5459 100.592 95.5459 97.984C95.5459 95.376 97.5619 93.776 99.9619 93.776C102.378 93.776 104.394 95.376 104.394 97.984ZM101.866 97.984C101.866 96.96 101.194 95.952 99.9619 95.952C98.7299 95.952 98.0899 96.96 98.0899 97.984C98.0899 99.008 98.7459 100.048 99.9779 100.048C101.21 100.048 101.866 99.008 101.866 97.984ZM113.831 102H111.303V100.896H111.271C110.903 101.6 109.991 102.224 108.871 102.224C106.727 102.224 105.975 100.56 105.975 98.96V94.032H108.615V98.352C108.615 99.248 108.839 100.048 109.799 100.048C110.711 100.048 111.207 99.248 111.207 98.336V94.032H113.831V102ZM120.603 96H118.731V99.04C118.731 99.776 118.971 100.16 119.723 100.16C119.979 100.16 120.299 100.112 120.491 100.032L120.523 101.952C120.171 102.08 119.563 102.192 119.003 102.192C116.875 102.192 116.171 101.056 116.171 99.36V96H114.891V94.032H116.155V91.936H118.731V94.032H120.603V96ZM130.557 96H128.685V99.04C128.685 99.776 128.924 100.16 129.677 100.16C129.933 100.16 130.253 100.112 130.445 100.032L130.477 101.952C130.125 102.08 129.516 102.192 128.957 102.192C126.829 102.192 126.125 101.056 126.125 99.36V96H124.845V94.032H126.109V91.936H128.685V94.032H130.557V96ZM136.494 98.8V98.528H136.158C135.006 98.528 133.71 98.672 133.71 99.616C133.71 100.224 134.318 100.432 134.846 100.432C135.902 100.432 136.494 99.792 136.494 98.8ZM133.006 96.544L131.678 95.12C132.606 94.24 133.934 93.776 135.23 93.776C137.902 93.776 138.894 95.088 138.894 97.984V102H136.494V101.152H136.446C136.046 101.808 135.134 102.192 134.19 102.192C132.926 102.192 131.294 101.568 131.294 99.696C131.294 97.392 134.094 97.008 136.414 97.008V96.88C136.414 96.096 135.79 95.728 134.974 95.728C134.222 95.728 133.486 96.096 133.006 96.544ZM149.38 102H146.292L144.58 99.552L142.82 102H139.78L142.964 97.824L140.084 94.032H143.14L144.628 96.16L146.132 94.032H149.092L146.228 97.824L149.38 102ZM152.105 97.104H155.481C155.481 96.272 154.953 95.584 153.913 95.584C152.905 95.584 152.169 96.288 152.105 97.104ZM157.897 98.112C157.897 98.32 157.897 98.544 157.881 98.736H152.105C152.185 99.616 153.065 100.24 154.009 100.24C154.841 100.24 155.417 99.888 155.769 99.408L157.593 100.56C156.841 101.648 155.593 102.256 153.977 102.256C151.577 102.256 149.593 100.736 149.593 98.048C149.593 95.44 151.481 93.776 153.897 93.776C156.249 93.776 157.897 95.392 157.897 98.112ZM165.652 94.896L164.212 96.384C163.796 95.984 163.188 95.664 162.548 95.664C162.052 95.664 161.556 95.84 161.556 96.304C161.556 96.752 161.988 96.88 163.012 97.104C164.228 97.376 165.556 97.984 165.556 99.536C165.556 101.552 163.78 102.256 162.148 102.256C160.852 102.256 159.508 101.824 158.676 101.024L160.148 99.472C160.612 99.984 161.332 100.368 162.1 100.368C162.532 100.368 163.044 100.192 163.044 99.68C163.044 99.184 162.548 99.024 161.46 98.768C160.356 98.512 159.14 97.952 159.14 96.448C159.14 94.544 160.932 93.776 162.452 93.776C163.636 93.776 164.868 94.16 165.652 94.896ZM169.199 100.128L167.871 104.128H166.591L167.695 100.128H169.199ZM181.415 95.456L180.327 96.336C180.007 95.84 179.303 95.472 178.583 95.472C177.015 95.472 176.103 96.752 176.103 98.208C176.103 99.648 177.015 100.944 178.599 100.944C179.367 100.944 180.023 100.624 180.423 100.112L181.431 101.024C180.791 101.76 179.815 102.208 178.599 102.208C176.263 102.208 174.519 100.624 174.519 98.208C174.519 95.824 176.247 94.208 178.567 94.208C179.639 94.208 180.791 94.64 181.415 95.456ZM190.601 98.192C190.601 100.528 188.825 102.208 186.505 102.208C184.185 102.208 182.425 100.528 182.425 98.192C182.425 95.856 184.185 94.208 186.505 94.208C188.825 94.208 190.601 95.856 190.601 98.192ZM189.033 98.192C189.033 96.752 188.137 95.456 186.505 95.456C184.889 95.456 183.977 96.752 183.977 98.192C183.977 99.632 184.889 100.944 186.505 100.944C188.137 100.944 189.033 99.632 189.033 98.192ZM192.623 94.416H194.047C194.079 94.8 194.111 95.344 194.111 95.664H194.159C194.527 94.848 195.535 94.208 196.623 94.208C198.575 94.208 199.455 95.6 199.455 97.296V102H197.951V97.792C197.951 96.56 197.615 95.472 196.223 95.472C195.039 95.472 194.191 96.464 194.191 97.968V102H192.687V96.048C192.687 95.648 192.671 94.912 192.623 94.416ZM201.935 94.416H203.359C203.391 94.8 203.423 95.344 203.423 95.664H203.471C203.839 94.848 204.847 94.208 205.935 94.208C207.887 94.208 208.767 95.6 208.767 97.296V102H207.263V97.792C207.263 96.56 206.927 95.472 205.535 95.472C204.351 95.472 203.503 96.464 203.503 97.968V102H201.999V96.048C201.999 95.648 201.983 94.912 201.935 94.416ZM212.352 97.536H216.864C216.832 96.336 216.128 95.392 214.736 95.392C213.44 95.392 212.448 96.352 212.352 97.536ZM218.384 98.144C218.384 98.304 218.384 98.48 218.368 98.656H212.352C212.4 99.952 213.488 100.96 214.816 100.96C215.84 100.96 216.592 100.448 217.024 99.808L218.08 100.656C217.264 101.712 216.16 102.208 214.816 102.208C212.512 102.208 210.816 100.608 210.816 98.224C210.816 95.856 212.512 94.208 214.736 94.208C216.976 94.208 218.384 95.728 218.384 98.144ZM226.884 95.456L225.796 96.336C225.476 95.84 224.772 95.472 224.052 95.472C222.484 95.472 221.572 96.752 221.572 98.208C221.572 99.648 222.484 100.944 224.068 100.944C224.836 100.944 225.492 100.624 225.892 100.112L226.9 101.024C226.26 101.76 225.284 102.208 224.068 102.208C221.732 102.208 219.988 100.624 219.988 98.208C219.988 95.824 221.716 94.208 224.036 94.208C225.108 94.208 226.26 94.64 226.884 95.456ZM232.102 94.416V95.648H230.086V99.6C230.086 100.512 230.406 100.88 231.158 100.88C231.43 100.88 231.782 100.816 232.038 100.688L232.086 101.92C231.734 102.048 231.27 102.128 230.806 102.128C229.382 102.128 228.598 101.328 228.598 99.76V95.648H227.142V94.416H228.598V92.24H230.086V94.416H232.102ZM238.183 94.416L240.535 100.368H240.567L242.663 94.416H244.263L240.583 103.792C240.087 105.056 239.447 105.84 237.959 105.84C237.639 105.84 237.303 105.808 236.967 105.728L237.111 104.4C237.351 104.48 237.623 104.528 237.863 104.528C238.647 104.528 238.951 104.08 239.271 103.264L239.751 102L236.503 94.416H238.183ZM253.398 98.192C253.398 100.528 251.622 102.208 249.302 102.208C246.982 102.208 245.222 100.528 245.222 98.192C245.222 95.856 246.982 94.208 249.302 94.208C251.622 94.208 253.398 95.856 253.398 98.192ZM251.83 98.192C251.83 96.752 250.934 95.456 249.302 95.456C247.686 95.456 246.774 96.752 246.774 98.192C246.774 99.632 247.686 100.944 249.302 100.944C250.934 100.944 251.83 99.632 251.83 98.192ZM262.252 102H260.828C260.796 101.616 260.764 101.072 260.764 100.752H260.732C260.348 101.552 259.356 102.208 258.252 102.208C256.299 102.208 255.42 100.816 255.42 99.12V94.416H256.924V98.608C256.924 99.856 257.26 100.944 258.652 100.944C259.852 100.944 260.684 99.952 260.684 98.448V94.416H262.188V100.368C262.188 100.768 262.204 101.504 262.252 102ZM272.508 94.416V95.648H270.492V99.6C270.492 100.512 270.812 100.88 271.564 100.88C271.836 100.88 272.188 100.816 272.444 100.688L272.492 101.92C272.14 102.048 271.676 102.128 271.212 102.128C269.788 102.128 269.004 101.328 269.004 99.76V95.648H267.548V94.416H269.004V92.24H270.492V94.416H272.508ZM281.742 98.192C281.742 100.528 279.966 102.208 277.646 102.208C275.326 102.208 273.566 100.528 273.566 98.192C273.566 95.856 275.326 94.208 277.646 94.208C279.966 94.208 281.742 95.856 281.742 98.192ZM280.174 98.192C280.174 96.752 279.278 95.456 277.646 95.456C276.03 95.456 275.118 96.752 275.118 98.192C275.118 99.632 276.03 100.944 277.646 100.944C279.278 100.944 280.174 99.632 280.174 98.192ZM288.867 97.536H293.379C293.347 96.336 292.643 95.392 291.251 95.392C289.955 95.392 288.963 96.352 288.867 97.536ZM294.899 98.144C294.899 98.304 294.899 98.48 294.883 98.656H288.867C288.915 99.952 290.003 100.96 291.331 100.96C292.355 100.96 293.107 100.448 293.539 99.808L294.595 100.656C293.779 101.712 292.675 102.208 291.331 102.208C289.027 102.208 287.331 100.608 287.331 98.224C287.331 95.856 289.027 94.208 291.251 94.208C293.491 94.208 294.899 95.728 294.899 98.144ZM295.659 102L298.699 98.016L295.931 94.416H297.787L299.643 97.024L301.515 94.416H303.275L300.539 98L303.595 102H301.723L299.611 99.04L297.467 102H295.659ZM306.519 100.864V105.84H305.015V94.416H306.487V95.6H306.535C307.031 94.8 308.023 94.208 309.271 94.208C311.527 94.208 313.063 95.952 313.063 98.192C313.063 100.416 311.575 102.208 309.239 102.208C308.167 102.208 307.127 101.712 306.567 100.864H306.519ZM311.511 98.192C311.511 96.768 310.631 95.456 308.983 95.456C307.447 95.456 306.423 96.752 306.423 98.208C306.423 99.664 307.447 100.944 308.983 100.944C310.631 100.944 311.511 99.616 311.511 98.192ZM316.195 97.536H320.707C320.675 96.336 319.971 95.392 318.579 95.392C317.283 95.392 316.291 96.352 316.195 97.536ZM322.227 98.144C322.227 98.304 322.227 98.48 322.211 98.656H316.195C316.243 99.952 317.331 100.96 318.659 100.96C319.683 100.96 320.435 100.448 320.867 99.808L321.923 100.656C321.107 101.712 320.003 102.208 318.659 102.208C316.355 102.208 314.659 100.608 314.659 98.224C314.659 95.856 316.355 94.208 318.579 94.208C320.819 94.208 322.227 95.728 322.227 98.144ZM324.327 96.048C324.327 95.648 324.311 94.912 324.263 94.416H325.687C325.719 94.8 325.751 95.376 325.751 95.696H325.799C326.215 94.816 327.095 94.208 328.119 94.208C328.327 94.208 328.535 94.224 328.711 94.272L328.647 95.664C328.455 95.616 328.199 95.584 327.959 95.584C326.519 95.584 325.831 96.752 325.831 98.016V102H324.327V96.048ZM333.649 94.416V95.648H331.633V99.6C331.633 100.512 331.953 100.88 332.705 100.88C332.977 100.88 333.329 100.816 333.585 100.688L333.633 101.92C333.281 102.048 332.817 102.128 332.353 102.128C330.929 102.128 330.145 101.328 330.145 99.76V95.648H328.689V94.416H330.145V92.24H331.633V94.416H333.649ZM340.338 95.456L339.298 96.336C338.962 95.792 338.306 95.392 337.538 95.392C336.85 95.392 336.13 95.664 336.13 96.384C336.13 97.024 336.706 97.264 337.858 97.52C339.298 97.84 340.402 98.432 340.402 99.76C340.402 101.552 338.914 102.208 337.378 102.208C336.226 102.208 335.042 101.76 334.322 100.848L335.394 99.936C335.794 100.528 336.562 100.992 337.41 100.992C338.162 100.992 338.914 100.72 338.914 99.888C338.914 99.184 338.226 98.928 336.93 98.624C335.922 98.384 334.722 97.952 334.722 96.528C334.722 94.896 336.146 94.208 337.586 94.208C338.658 94.208 339.794 94.64 340.338 95.456ZM344.168 100.128L342.84 104.128H341.56L342.664 100.128H344.168ZM6.016 121.296V121.088C6.016 119.968 5.264 119.424 4.144 119.424C3.296 119.424 2.496 119.792 1.984 120.304L1.184 119.344C1.92 118.64 3.056 118.208 4.288 118.208C6.464 118.208 7.456 119.504 7.456 121.184V124.496C7.456 125.008 7.488 125.632 7.568 126H6.208C6.128 125.664 6.08 125.264 6.08 124.912H6.032C5.488 125.728 4.624 126.192 3.488 126.192C2.288 126.192 0.736 125.6 0.736 123.856C0.736 121.568 3.456 121.296 6.016 121.296ZM6.016 122.384H5.648C4.16 122.384 2.272 122.544 2.272 123.824C2.272 124.72 3.072 125.008 3.824 125.008C5.232 125.008 6.016 124.064 6.016 122.784V122.384ZM9.90388 118.416H11.3279C11.3599 118.8 11.3919 119.344 11.3919 119.664H11.4399C11.8079 118.848 12.8159 118.208 13.9039 118.208C15.8559 118.208 16.7359 119.6 16.7359 121.296V126H15.2319V121.792C15.2319 120.56 14.8959 119.472 13.5039 119.472C12.3199 119.472 11.4719 120.464 11.4719 121.968V126H9.96788V120.048C9.96788 119.648 9.95188 118.912 9.90388 118.416ZM25.3284 124.8C24.7524 125.712 23.6644 126.208 22.5924 126.208C20.2564 126.208 18.7684 124.416 18.7684 122.192C18.7684 119.952 20.3044 118.208 22.5764 118.208C23.8084 118.208 24.7524 118.816 25.2804 119.552H25.3124V113.904H26.8164V126H25.3604V124.8H25.3284ZM20.3364 122.192C20.3364 123.616 21.2004 124.944 22.8484 124.944C24.3844 124.944 25.4084 123.664 25.4084 122.208C25.4084 120.752 24.3844 119.456 22.8484 119.456C21.2004 119.456 20.3364 120.768 20.3364 122.192ZM34.9726 119.568H35.0046C35.3566 118.816 36.3166 118.208 37.4046 118.208C39.3566 118.208 40.2366 119.6 40.2366 121.296V126H38.7326V121.808C38.7326 120.576 38.4126 119.488 37.0206 119.488C35.8366 119.488 34.9726 120.48 34.9726 121.984V126H33.4686V113.904H34.9726V119.568ZM43.8204 121.536H48.3324C48.3004 120.336 47.5964 119.392 46.2044 119.392C44.9084 119.392 43.9164 120.352 43.8204 121.536ZM49.8524 122.144C49.8524 122.304 49.8524 122.48 49.8364 122.656H43.8204C43.8684 123.952 44.9564 124.96 46.2844 124.96C47.3084 124.96 48.0604 124.448 48.4924 123.808L49.5484 124.656C48.7324 125.712 47.6284 126.208 46.2844 126.208C43.9804 126.208 42.2844 124.608 42.2844 122.224C42.2844 119.856 43.9804 118.208 46.2044 118.208C48.4444 118.208 49.8524 119.728 49.8524 122.144ZM53.4883 113.904V126H51.9843V113.904H53.4883ZM57.6125 124.864V129.84H56.1085V118.416H57.5805V119.6H57.6285C58.1245 118.8 59.1165 118.208 60.3645 118.208C62.6205 118.208 64.1565 119.952 64.1565 122.192C64.1565 124.416 62.6685 126.208 60.3325 126.208C59.2605 126.208 58.2205 125.712 57.6605 124.864H57.6125ZM62.6045 122.192C62.6045 120.768 61.7245 119.456 60.0765 119.456C58.5405 119.456 57.5165 120.752 57.5165 122.208C57.5165 123.664 58.5405 124.944 60.0765 124.944C61.7245 124.944 62.6045 123.616 62.6045 122.192ZM69.1771 118.416H70.8091L72.5211 124.208H72.5531L74.3611 118.416H75.9451L77.7851 124.208H77.8171L79.5291 118.416H81.1131L78.6011 126H77.0331L75.1611 120.304H75.1291L73.2731 126H71.7051L69.1771 118.416ZM84.1441 118.416V126H82.6401V118.416H84.1441ZM84.4001 115.68C84.4001 116.224 83.9361 116.64 83.3921 116.64C82.8481 116.64 82.4001 116.208 82.4001 115.68C82.4001 115.136 82.8481 114.704 83.3921 114.704C83.9361 114.704 84.4001 115.12 84.4001 115.68ZM90.4768 118.416V119.648H88.4608V123.6C88.4608 124.512 88.7808 124.88 89.5328 124.88C89.8048 124.88 90.1568 124.816 90.4128 124.688L90.4608 125.92C90.1088 126.048 89.6448 126.128 89.1808 126.128C87.7568 126.128 86.9728 125.328 86.9728 123.76V119.648H85.5168V118.416H86.9728V116.24H88.4608V118.416H90.4768ZM93.5664 119.568H93.5984C93.9504 118.816 94.9104 118.208 95.9984 118.208C97.9504 118.208 98.8304 119.6 98.8304 121.296V126H97.3264V121.808C97.3264 120.576 97.0064 119.488 95.6144 119.488C94.4304 119.488 93.5664 120.48 93.5664 121.984V126H92.0624V113.904H93.5664V119.568ZM109.086 118.416V119.648H107.07V123.6C107.07 124.512 107.39 124.88 108.142 124.88C108.414 124.88 108.766 124.816 109.022 124.688L109.07 125.92C108.718 126.048 108.254 126.128 107.79 126.128C106.366 126.128 105.582 125.328 105.582 123.76V119.648H104.126V118.416H105.582V116.24H107.07V118.416H109.086ZM115.36 121.296V121.088C115.36 119.968 114.608 119.424 113.488 119.424C112.64 119.424 111.84 119.792 111.328 120.304L110.528 119.344C111.264 118.64 112.4 118.208 113.632 118.208C115.808 118.208 116.8 119.504 116.8 121.184V124.496C116.8 125.008 116.832 125.632 116.912 126H115.552C115.472 125.664 115.424 125.264 115.424 124.912H115.376C114.832 125.728 113.968 126.192 112.832 126.192C111.632 126.192 110.08 125.6 110.08 123.856C110.08 121.568 112.8 121.296 115.36 121.296ZM115.36 122.384H114.992C113.504 122.384 111.616 122.544 111.616 123.824C111.616 124.72 112.416 125.008 113.168 125.008C114.576 125.008 115.36 124.064 115.36 122.784V122.384ZM124.448 119.456L123.408 120.336C123.072 119.792 122.416 119.392 121.648 119.392C120.96 119.392 120.24 119.664 120.24 120.384C120.24 121.024 120.816 121.264 121.968 121.52C123.408 121.84 124.512 122.432 124.512 123.76C124.512 125.552 123.024 126.208 121.488 126.208C120.336 126.208 119.152 125.76 118.432 124.848L119.504 123.936C119.904 124.528 120.672 124.992 121.52 124.992C122.272 124.992 123.024 124.72 123.024 123.888C123.024 123.184 122.336 122.928 121.04 122.624C120.032 122.384 118.832 121.952 118.832 120.528C118.832 118.896 120.256 118.208 121.696 118.208C122.768 118.208 123.904 118.64 124.448 119.456ZM127.957 113.904V121.712H128.005L131.189 118.416H133.205L129.653 121.856L133.509 126H131.429L128.005 122.064H127.957V126H126.453V113.904H127.957ZM139.901 119.456L138.861 120.336C138.525 119.792 137.869 119.392 137.101 119.392C136.413 119.392 135.693 119.664 135.693 120.384C135.693 121.024 136.269 121.264 137.421 121.52C138.861 121.84 139.965 122.432 139.965 123.76C139.965 125.552 138.477 126.208 136.941 126.208C135.789 126.208 134.605 125.76 133.885 124.848L134.957 123.936C135.357 124.528 136.125 124.992 136.973 124.992C137.725 124.992 138.477 124.72 138.477 123.888C138.477 123.184 137.789 122.928 136.493 122.624C135.485 122.384 134.285 121.952 134.285 120.528C134.285 118.896 135.709 118.208 137.149 118.208C138.221 118.208 139.357 118.64 139.901 119.456ZM143.73 125.04C143.73 125.6 143.266 126.096 142.658 126.096C142.066 126.096 141.586 125.616 141.586 125.056C141.586 124.48 142.05 124 142.658 124C143.266 124 143.73 124.464 143.73 125.04ZM156.378 115.68L155.258 116.768C154.81 116.144 153.994 115.712 153.05 115.712C152.026 115.712 150.842 116.272 150.842 117.552C150.842 118.784 151.882 119.12 153.162 119.536C154.682 120.016 156.49 120.592 156.49 122.848C156.49 125.2 154.586 126.288 152.57 126.288C151.146 126.288 149.706 125.728 148.842 124.64L150.074 123.6C150.602 124.384 151.562 124.928 152.602 124.928C153.658 124.928 154.874 124.336 154.874 122.992C154.874 121.616 153.626 121.248 152.186 120.8C150.746 120.352 149.242 119.696 149.242 117.616C149.242 115.36 151.258 114.384 153.13 114.384C154.442 114.384 155.674 114.896 156.378 115.68ZM166.335 122.192C166.335 124.528 164.559 126.208 162.239 126.208C159.919 126.208 158.159 124.528 158.159 122.192C158.159 119.856 159.919 118.208 162.239 118.208C164.559 118.208 166.335 119.856 166.335 122.192ZM164.767 122.192C164.767 120.752 163.871 119.456 162.239 119.456C160.623 119.456 159.711 120.752 159.711 122.192C159.711 123.632 160.623 124.944 162.239 124.944C163.871 124.944 164.767 123.632 164.767 122.192ZM169.893 119.664C170.277 118.864 171.157 118.208 172.309 118.208C173.317 118.208 174.197 118.656 174.661 119.728C175.173 118.752 176.165 118.208 177.237 118.208C179.189 118.208 180.069 119.6 180.069 121.296V126H178.565V121.792C178.565 120.56 178.197 119.472 176.885 119.472C175.509 119.472 174.965 120.72 174.965 121.904V126H173.461V121.488C173.461 120.304 173.061 119.472 171.861 119.472C170.757 119.472 169.925 120.464 169.925 121.968V126H168.421V120.048C168.421 119.648 168.405 118.912 168.357 118.416H169.781C169.813 118.8 169.845 119.344 169.845 119.664H169.893ZM183.649 121.536H188.161C188.129 120.336 187.425 119.392 186.033 119.392C184.737 119.392 183.745 120.352 183.649 121.536ZM189.681 122.144C189.681 122.304 189.681 122.48 189.665 122.656H183.649C183.697 123.952 184.785 124.96 186.113 124.96C187.137 124.96 187.889 124.448 188.321 123.808L189.377 124.656C188.561 125.712 187.457 126.208 186.113 126.208C183.809 126.208 182.113 124.608 182.113 122.224C182.113 119.856 183.809 118.208 186.033 118.208C188.273 118.208 189.681 119.728 189.681 122.144ZM195.492 118.416V119.648H193.476V123.6C193.476 124.512 193.796 124.88 194.548 124.88C194.82 124.88 195.172 124.816 195.428 124.688L195.476 125.92C195.124 126.048 194.66 126.128 194.196 126.128C192.772 126.128 191.988 125.328 191.988 123.76V119.648H190.532V118.416H191.988V116.24H193.476V118.416H195.492ZM198.566 118.416V126H197.062V118.416H198.566ZM198.822 115.68C198.822 116.224 198.358 116.64 197.814 116.64C197.27 116.64 196.822 116.208 196.822 115.68C196.822 115.136 197.27 114.704 197.814 114.704C198.358 114.704 198.822 115.12 198.822 115.68ZM202.659 119.664C203.043 118.864 203.923 118.208 205.075 118.208C206.083 118.208 206.963 118.656 207.427 119.728C207.939 118.752 208.931 118.208 210.003 118.208C211.955 118.208 212.835 119.6 212.835 121.296V126H211.331V121.792C211.331 120.56 210.963 119.472 209.651 119.472C208.275 119.472 207.731 120.72 207.731 121.904V126H206.227V121.488C206.227 120.304 205.827 119.472 204.627 119.472C203.523 119.472 202.691 120.464 202.691 121.968V126H201.187V120.048C201.187 119.648 201.171 118.912 201.123 118.416H202.547C202.579 118.8 202.611 119.344 202.611 119.664H202.659ZM216.414 121.536H220.926C220.894 120.336 220.19 119.392 218.798 119.392C217.502 119.392 216.51 120.352 216.414 121.536ZM222.446 122.144C222.446 122.304 222.446 122.48 222.43 122.656H216.414C216.462 123.952 217.55 124.96 218.878 124.96C219.902 124.96 220.654 124.448 221.086 123.808L222.142 124.656C221.326 125.712 220.222 126.208 218.878 126.208C216.574 126.208 214.878 124.608 214.878 122.224C214.878 119.856 216.574 118.208 218.798 118.208C221.038 118.208 222.446 119.728 222.446 122.144ZM229.682 119.456L228.642 120.336C228.306 119.792 227.65 119.392 226.882 119.392C226.194 119.392 225.474 119.664 225.474 120.384C225.474 121.024 226.05 121.264 227.202 121.52C228.642 121.84 229.746 122.432 229.746 123.76C229.746 125.552 228.258 126.208 226.722 126.208C225.57 126.208 224.386 125.76 223.666 124.848L224.738 123.936C225.138 124.528 225.906 124.992 226.754 124.992C227.506 124.992 228.258 124.72 228.258 123.888C228.258 123.184 227.57 122.928 226.274 122.624C225.266 122.384 224.066 121.952 224.066 120.528C224.066 118.896 225.49 118.208 226.93 118.208C228.002 118.208 229.138 118.64 229.682 119.456ZM237.319 114.672V126H235.735V114.672H237.319ZM245.471 119.664C245.855 118.864 246.735 118.208 247.887 118.208C248.895 118.208 249.775 118.656 250.239 119.728C250.751 118.752 251.743 118.208 252.815 118.208C254.767 118.208 255.647 119.6 255.647 121.296V126H254.143V121.792C254.143 120.56 253.775 119.472 252.463 119.472C251.087 119.472 250.543 120.72 250.543 121.904V126H249.039V121.488C249.039 120.304 248.639 119.472 247.439 119.472C246.335 119.472 245.503 120.464 245.503 121.968V126H243.999V120.048C243.999 119.648 243.983 118.912 243.935 118.416H245.359C245.391 118.8 245.423 119.344 245.423 119.664H245.471ZM262.907 121.296V121.088C262.907 119.968 262.155 119.424 261.035 119.424C260.187 119.424 259.387 119.792 258.875 120.304L258.075 119.344C258.811 118.64 259.947 118.208 261.179 118.208C263.355 118.208 264.347 119.504 264.347 121.184V124.496C264.347 125.008 264.379 125.632 264.459 126H263.099C263.019 125.664 262.971 125.264 262.971 124.912H262.923C262.379 125.728 261.515 126.192 260.379 126.192C259.179 126.192 257.627 125.6 257.627 123.856C257.627 121.568 260.347 121.296 262.907 121.296ZM262.907 122.384H262.539C261.051 122.384 259.163 122.544 259.163 123.824C259.163 124.72 259.963 125.008 260.715 125.008C262.123 125.008 262.907 124.064 262.907 122.784V122.384ZM268.395 113.904V121.712H268.443L271.627 118.416H273.642L270.091 121.856L273.947 126H271.867L268.443 122.064H268.395V126H266.891V113.904H268.395ZM276.055 121.536H280.567C280.535 120.336 279.831 119.392 278.439 119.392C277.143 119.392 276.151 120.352 276.055 121.536ZM282.087 122.144C282.087 122.304 282.087 122.48 282.071 122.656H276.055C276.103 123.952 277.191 124.96 278.519 124.96C279.543 124.96 280.295 124.448 280.727 123.808L281.783 124.656C280.967 125.712 279.863 126.208 278.519 126.208C276.215 126.208 274.519 124.608 274.519 122.224C274.519 119.856 276.215 118.208 278.439 118.208C280.679 118.208 282.087 119.728 282.087 122.144ZM289.659 119.664C290.043 118.864 290.923 118.208 292.075 118.208C293.083 118.208 293.963 118.656 294.427 119.728C294.939 118.752 295.931 118.208 297.003 118.208C298.955 118.208 299.835 119.6 299.835 121.296V126H298.331V121.792C298.331 120.56 297.963 119.472 296.651 119.472C295.275 119.472 294.731 120.72 294.731 121.904V126H293.227V121.488C293.227 120.304 292.827 119.472 291.627 119.472C290.523 119.472 289.691 120.464 289.691 121.968V126H288.187V120.048C288.187 119.648 288.171 118.912 288.123 118.416H289.547C289.579 118.8 289.611 119.344 289.611 119.664H289.659ZM303.894 118.416V126H302.39V118.416H303.894ZM304.15 115.68C304.15 116.224 303.686 116.64 303.142 116.64C302.598 116.64 302.15 116.208 302.15 115.68C302.15 115.136 302.598 114.704 303.142 114.704C303.686 114.704 304.15 115.12 304.15 115.68ZM311.651 119.456L310.611 120.336C310.275 119.792 309.619 119.392 308.851 119.392C308.163 119.392 307.443 119.664 307.443 120.384C307.443 121.024 308.019 121.264 309.171 121.52C310.611 121.84 311.715 122.432 311.715 123.76C311.715 125.552 310.227 126.208 308.691 126.208C307.539 126.208 306.355 125.76 305.635 124.848L306.707 123.936C307.107 124.528 307.875 124.992 308.723 124.992C309.475 124.992 310.227 124.72 310.227 123.888C310.227 123.184 309.539 122.928 308.243 122.624C307.235 122.384 306.035 121.952 306.035 120.528C306.035 118.896 307.459 118.208 308.899 118.208C309.971 118.208 311.107 118.64 311.651 119.456ZM317.336 118.416V119.648H315.32V123.6C315.32 124.512 315.64 124.88 316.392 124.88C316.664 124.88 317.016 124.816 317.272 124.688L317.32 125.92C316.968 126.048 316.504 126.128 316.04 126.128C314.616 126.128 313.832 125.328 313.832 123.76V119.648H312.376V118.416H313.832V116.24H315.32V118.416H317.336ZM323.61 121.296V121.088C323.61 119.968 322.858 119.424 321.738 119.424C320.89 119.424 320.09 119.792 319.578 120.304L318.778 119.344C319.514 118.64 320.65 118.208 321.882 118.208C324.058 118.208 325.05 119.504 325.05 121.184V124.496C325.05 125.008 325.082 125.632 325.162 126H323.802C323.722 125.664 323.674 125.264 323.674 124.912H323.626C323.082 125.728 322.218 126.192 321.082 126.192C319.882 126.192 318.33 125.6 318.33 123.856C318.33 121.568 321.05 121.296 323.61 121.296ZM323.61 122.384H323.242C321.754 122.384 319.866 122.544 319.866 123.824C319.866 124.72 320.666 125.008 321.418 125.008C322.826 125.008 323.61 124.064 323.61 122.784V122.384ZM329.098 113.904V121.712H329.146L332.33 118.416H334.346L330.794 121.856L334.65 126H332.57L329.146 122.064H329.098V126H327.594V113.904H329.098ZM336.758 121.536H341.27C341.238 120.336 340.534 119.392 339.142 119.392C337.846 119.392 336.854 120.352 336.758 121.536ZM342.79 122.144C342.79 122.304 342.79 122.48 342.774 122.656H336.758C336.806 123.952 337.894 124.96 339.222 124.96C340.246 124.96 340.998 124.448 341.43 123.808L342.486 124.656C341.67 125.712 340.566 126.208 339.222 126.208C336.918 126.208 335.222 124.608 335.222 122.224C335.222 119.856 336.918 118.208 339.142 118.208C341.382 118.208 342.79 119.728 342.79 122.144ZM350.026 119.456L348.986 120.336C348.65 119.792 347.994 119.392 347.226 119.392C346.538 119.392 345.818 119.664 345.818 120.384C345.818 121.024 346.394 121.264 347.546 121.52C348.986 121.84 350.09 122.432 350.09 123.76C350.09 125.552 348.602 126.208 347.066 126.208C345.914 126.208 344.73 125.76 344.01 124.848L345.082 123.936C345.482 124.528 346.25 124.992 347.098 124.992C347.85 124.992 348.602 124.72 348.602 123.888C348.602 123.184 347.914 122.928 346.618 122.624C345.61 122.384 344.41 121.952 344.41 120.528C344.41 118.896 345.834 118.208 347.274 118.208C348.346 118.208 349.482 118.64 350.026 119.456ZM353.855 124.128L352.527 128.128H351.247L352.351 124.128H353.855ZM2.816 148.8H2.784V150H1.328V137.904H2.832V143.552H2.88C3.392 142.816 4.336 142.208 5.584 142.208C7.84 142.208 9.376 143.952 9.376 146.192C9.376 148.416 7.888 150.208 5.552 150.208C4.48 150.208 3.408 149.712 2.816 148.8ZM7.824 146.192C7.824 144.768 6.944 143.456 5.296 143.456C3.76 143.456 2.736 144.752 2.736 146.208C2.736 147.664 3.76 148.944 5.296 148.944C6.944 148.944 7.824 147.616 7.824 146.192ZM18.2359 150H16.8119C16.7799 149.616 16.7479 149.072 16.7479 148.752H16.7159C16.3319 149.552 15.3399 150.208 14.2359 150.208C12.2839 150.208 11.4039 148.816 11.4039 147.12V142.416H12.9079V146.608C12.9079 147.856 13.2439 148.944 14.6359 148.944C15.8359 148.944 16.6679 147.952 16.6679 146.448V142.416H18.1719V148.368C18.1719 148.768 18.1879 149.504 18.2359 150ZM24.4924 142.416V143.648H22.4764V147.6C22.4764 148.512 22.7964 148.88 23.5484 148.88C23.8204 148.88 24.1724 148.816 24.4284 148.688L24.4764 149.92C24.1244 150.048 23.6604 150.128 23.1964 150.128C21.7724 150.128 20.9884 149.328 20.9884 147.76V143.648H19.5324V142.416H20.9884V140.24H22.4764V142.416H24.4924ZM31.71 138.672V150H30.126V138.672H31.71ZM34.5338 142.672V138.672H35.8458V142.672H34.5338ZM40.1133 137.904V150H38.6093V137.904H40.1133ZM44.2695 137.904V150H42.7655V137.904H44.2695ZM50.5218 152.464L51.4818 151.296C52.1378 152.032 53.2098 152.528 54.2498 152.528C56.2498 152.528 56.9218 151.296 56.9218 149.728V148.752H56.8898C56.3298 149.6 55.2898 150.064 54.2178 150.064C51.8978 150.064 50.3938 148.336 50.3938 146.16C50.3938 143.984 51.8818 142.208 54.2018 142.208C55.2898 142.208 56.3618 142.688 56.9378 143.632H56.9698V142.416H58.4258V149.616C58.4258 151.824 57.3858 153.84 54.2338 153.84C52.9218 153.84 51.4658 153.328 50.5218 152.464ZM51.9457 146.128C51.9457 147.52 52.8738 148.8 54.4578 148.8C56.0098 148.8 57.0338 147.632 57.0338 146.128C57.0338 144.688 55.9938 143.456 54.4578 143.456C52.8738 143.456 51.9457 144.672 51.9457 146.128ZM62.0391 145.536H66.5511C66.5191 144.336 65.8151 143.392 64.4231 143.392C63.1271 143.392 62.1351 144.352 62.0391 145.536ZM68.0711 146.144C68.0711 146.304 68.0711 146.48 68.0551 146.656H62.0391C62.0871 147.952 63.1751 148.96 64.5031 148.96C65.5271 148.96 66.2791 148.448 66.7111 147.808L67.7671 148.656C66.9511 149.712 65.8471 150.208 64.5031 150.208C62.1991 150.208 60.5031 148.608 60.5031 146.224C60.5031 143.856 62.1991 142.208 64.4231 142.208C66.6631 142.208 68.0711 143.728 68.0711 146.144ZM73.883 142.416V143.648H71.867V147.6C71.867 148.512 72.187 148.88 72.939 148.88C73.211 148.88 73.563 148.816 73.819 148.688L73.867 149.92C73.515 150.048 73.051 150.128 72.587 150.128C71.163 150.128 70.379 149.328 70.379 147.76V143.648H68.923V142.416H70.379V140.24H71.867V142.416H73.883ZM80.9566 148.8H80.9246V150H79.4686V137.904H80.9726V143.552H81.0206C81.5326 142.816 82.4766 142.208 83.7246 142.208C85.9806 142.208 87.5166 143.952 87.5166 146.192C87.5166 148.416 86.0286 150.208 83.6926 150.208C82.6206 150.208 81.5486 149.712 80.9566 148.8ZM85.9646 146.192C85.9646 144.768 85.0846 143.456 83.4366 143.456C81.9006 143.456 80.8766 144.752 80.8766 146.208C80.8766 147.664 81.9006 148.944 83.4366 148.944C85.0846 148.944 85.9646 147.616 85.9646 146.192ZM90.6485 145.536H95.1605C95.1285 144.336 94.4245 143.392 93.0325 143.392C91.7365 143.392 90.7445 144.352 90.6485 145.536ZM96.6805 146.144C96.6805 146.304 96.6805 146.48 96.6645 146.656H90.6485C90.6965 147.952 91.7845 148.96 93.1125 148.96C94.1365 148.96 94.8885 148.448 95.3205 147.808L96.3765 148.656C95.5605 149.712 94.4565 150.208 93.1125 150.208C90.8085 150.208 89.1125 148.608 89.1125 146.224C89.1125 143.856 90.8085 142.208 93.0325 142.208C95.2725 142.208 96.6805 143.728 96.6805 146.144ZM102.492 142.416V143.648H100.476V147.6C100.476 148.512 100.796 148.88 101.548 148.88C101.82 148.88 102.172 148.816 102.428 148.688L102.476 149.92C102.124 150.048 101.66 150.128 101.196 150.128C99.7724 150.128 98.9884 149.328 98.9884 147.76V143.648H97.5324V142.416H98.9884V140.24H100.476V142.416H102.492ZM107.524 142.416V143.648H105.508V147.6C105.508 148.512 105.828 148.88 106.58 148.88C106.852 148.88 107.204 148.816 107.46 148.688L107.508 149.92C107.156 150.048 106.692 150.128 106.228 150.128C104.804 150.128 104.02 149.328 104.02 147.76V143.648H102.564V142.416H104.02V140.24H105.508V142.416H107.524ZM110.117 145.536H114.629C114.597 144.336 113.893 143.392 112.501 143.392C111.205 143.392 110.213 144.352 110.117 145.536ZM116.149 146.144C116.149 146.304 116.149 146.48 116.133 146.656H110.117C110.165 147.952 111.253 148.96 112.581 148.96C113.605 148.96 114.357 148.448 114.789 147.808L115.845 148.656C115.029 149.712 113.925 150.208 112.581 150.208C110.277 150.208 108.581 148.608 108.581 146.224C108.581 143.856 110.277 142.208 112.501 142.208C114.741 142.208 116.149 143.728 116.149 146.144ZM118.249 144.048C118.249 143.648 118.233 142.912 118.185 142.416H119.609C119.641 142.8 119.673 143.376 119.673 143.696H119.721C120.137 142.816 121.017 142.208 122.041 142.208C122.249 142.208 122.457 142.224 122.633 142.272L122.569 143.664C122.377 143.616 122.121 143.584 121.881 143.584C120.441 143.584 119.753 144.752 119.753 146.016V150H118.249V144.048ZM126.974 142.416H128.606L130.318 148.208H130.35L132.158 142.416H133.742L135.582 148.208H135.614L137.326 142.416H138.91L136.398 150H134.83L132.958 144.304H132.926L131.07 150H129.502L126.974 142.416ZM141.941 142.416V150H140.437V142.416H141.941ZM142.197 139.68C142.197 140.224 141.733 140.64 141.189 140.64C140.645 140.64 140.197 140.208 140.197 139.68C140.197 139.136 140.645 138.704 141.189 138.704C141.733 138.704 142.197 139.12 142.197 139.68ZM148.274 142.416V143.648H146.258V147.6C146.258 148.512 146.578 148.88 147.33 148.88C147.602 148.88 147.954 148.816 148.21 148.688L148.258 149.92C147.906 150.048 147.442 150.128 146.978 150.128C145.554 150.128 144.77 149.328 144.77 147.76V143.648H143.314V142.416H144.77V140.24H146.258V142.416H148.274ZM151.363 143.568H151.395C151.747 142.816 152.707 142.208 153.795 142.208C155.747 142.208 156.627 143.6 156.627 145.296V150H155.123V145.808C155.123 144.576 154.803 143.488 153.411 143.488C152.227 143.488 151.363 144.48 151.363 145.984V150H149.859V137.904H151.363V143.568ZM163.699 142.416L166.051 148.368H166.083L168.179 142.416H169.779L166.099 151.792C165.603 153.056 164.963 153.84 163.475 153.84C163.155 153.84 162.819 153.808 162.483 153.728L162.627 152.4C162.867 152.48 163.139 152.528 163.379 152.528C164.163 152.528 164.467 152.08 164.787 151.264L165.267 150L162.019 142.416H163.699ZM178.914 146.192C178.914 148.528 177.138 150.208 174.818 150.208C172.498 150.208 170.738 148.528 170.738 146.192C170.738 143.856 172.498 142.208 174.818 142.208C177.138 142.208 178.914 143.856 178.914 146.192ZM177.346 146.192C177.346 144.752 176.45 143.456 174.818 143.456C173.202 143.456 172.289 144.752 172.289 146.192C172.289 147.632 173.202 148.944 174.818 148.944C176.45 148.944 177.346 147.632 177.346 146.192ZM187.767 150H186.343C186.311 149.616 186.279 149.072 186.279 148.752H186.247C185.863 149.552 184.871 150.208 183.767 150.208C181.815 150.208 180.935 148.816 180.935 147.12V142.416H182.439V146.608C182.439 147.856 182.775 148.944 184.167 148.944C185.367 148.944 186.199 147.952 186.199 146.448V142.416H187.703V148.368C187.703 148.768 187.719 149.504 187.767 150ZM190.312 144.048C190.312 143.648 190.296 142.912 190.248 142.416H191.672C191.704 142.8 191.736 143.376 191.736 143.696H191.784C192.2 142.816 193.08 142.208 194.104 142.208C194.312 142.208 194.52 142.224 194.696 142.272L194.632 143.664C194.44 143.616 194.184 143.584 193.944 143.584C192.504 143.584 191.816 144.752 191.816 146.016V150H190.312V144.048ZM203.677 142.416V143.648H201.917V150H200.413V143.648H198.909V142.416H200.413V140.832C200.413 139.056 201.197 137.712 203.245 137.712C203.597 137.712 203.901 137.744 204.189 137.824L204.013 139.12C203.789 139.056 203.549 139.008 203.261 139.008C202.125 139.008 201.917 139.904 201.917 140.832V142.416H203.677ZM206.102 145.536H210.614C210.582 144.336 209.878 143.392 208.486 143.392C207.19 143.392 206.198 144.352 206.102 145.536ZM212.134 146.144C212.134 146.304 212.134 146.48 212.118 146.656H206.102C206.15 147.952 207.238 148.96 208.566 148.96C209.59 148.96 210.342 148.448 210.774 147.808L211.83 148.656C211.014 149.712 209.91 150.208 208.566 150.208C206.262 150.208 204.566 148.608 204.566 146.224C204.566 143.856 206.262 142.208 208.486 142.208C210.726 142.208 212.134 143.728 212.134 146.144ZM215.274 145.536H219.786C219.754 144.336 219.05 143.392 217.658 143.392C216.362 143.392 215.37 144.352 215.274 145.536ZM221.306 146.144C221.306 146.304 221.306 146.48 221.29 146.656H215.274C215.322 147.952 216.41 148.96 217.738 148.96C218.762 148.96 219.514 148.448 219.946 147.808L221.002 148.656C220.186 149.712 219.082 150.208 217.738 150.208C215.434 150.208 213.738 148.608 213.738 146.224C213.738 143.856 215.434 142.208 217.658 142.208C219.898 142.208 221.306 143.728 221.306 146.144ZM229.453 148.8C228.877 149.712 227.789 150.208 226.717 150.208C224.381 150.208 222.893 148.416 222.893 146.192C222.893 143.952 224.429 142.208 226.701 142.208C227.933 142.208 228.877 142.816 229.405 143.552H229.437V137.904H230.941V150H229.485V148.8H229.453ZM224.461 146.192C224.461 147.616 225.325 148.944 226.973 148.944C228.509 148.944 229.533 147.664 229.533 146.208C229.533 144.752 228.509 143.456 226.973 143.456C225.325 143.456 224.461 144.768 224.461 146.192ZM235.082 148.8H235.05V150H233.594V137.904H235.098V143.552H235.146C235.658 142.816 236.602 142.208 237.85 142.208C240.106 142.208 241.642 143.952 241.642 146.192C241.642 148.416 240.154 150.208 237.818 150.208C236.746 150.208 235.674 149.712 235.082 148.8ZM240.09 146.192C240.09 144.768 239.21 143.456 237.562 143.456C236.026 143.456 235.002 144.752 235.002 146.208C235.002 147.664 236.026 148.944 237.562 148.944C239.21 148.944 240.09 147.616 240.09 146.192ZM248.454 145.296V145.088C248.454 143.968 247.702 143.424 246.582 143.424C245.734 143.424 244.934 143.792 244.422 144.304L243.622 143.344C244.358 142.64 245.494 142.208 246.726 142.208C248.902 142.208 249.894 143.504 249.894 145.184V148.496C249.894 149.008 249.926 149.632 250.006 150H248.646C248.566 149.664 248.518 149.264 248.518 148.912H248.47C247.926 149.728 247.062 150.192 245.926 150.192C244.726 150.192 243.174 149.6 243.174 147.856C243.174 145.568 245.894 145.296 248.454 145.296ZM248.454 146.384H248.086C246.598 146.384 244.71 146.544 244.71 147.824C244.71 148.72 245.51 149.008 246.262 149.008C247.67 149.008 248.454 148.064 248.454 146.784V146.384ZM258.805 143.456L257.717 144.336C257.397 143.84 256.693 143.472 255.973 143.472C254.405 143.472 253.493 144.752 253.493 146.208C253.493 147.648 254.405 148.944 255.989 148.944C256.757 148.944 257.413 148.624 257.813 148.112L258.821 149.024C258.181 149.76 257.205 150.208 255.989 150.208C253.653 150.208 251.909 148.624 251.909 146.208C251.909 143.824 253.637 142.208 255.957 142.208C257.029 142.208 258.181 142.64 258.805 143.456ZM261.848 137.904V145.712H261.896L265.08 142.416H267.096L263.544 145.856L267.4 150H265.32L261.896 146.064H261.848V150H260.344V137.904H261.848ZM270.605 149.04C270.605 149.6 270.141 150.096 269.533 150.096C268.941 150.096 268.461 149.616 268.461 149.056C268.461 148.48 268.925 148 269.533 148C270.141 148 270.605 148.464 270.605 149.04Z" fill="#393A3D"/>
<path d="M8.128 179.68L7.008 180.768C6.56 180.144 5.744 179.712 4.8 179.712C3.776 179.712 2.592 180.272 2.592 181.552C2.592 182.784 3.632 183.12 4.912 183.536C6.432 184.016 8.24 184.592 8.24 186.848C8.24 189.2 6.336 190.288 4.32 190.288C2.896 190.288 1.456 189.728 0.592 188.64L1.824 187.6C2.352 188.384 3.312 188.928 4.352 188.928C5.408 188.928 6.624 188.336 6.624 186.992C6.624 185.616 5.376 185.248 3.936 184.8C2.496 184.352 0.992 183.696 0.992 181.616C0.992 179.36 3.008 178.384 4.88 178.384C6.192 178.384 7.424 178.896 8.128 179.68ZM11.4454 185.536H15.9574C15.9254 184.336 15.2214 183.392 13.8294 183.392C12.5334 183.392 11.5414 184.352 11.4454 185.536ZM17.4774 186.144C17.4774 186.304 17.4774 186.48 17.4614 186.656H11.4454C11.4934 187.952 12.5814 188.96 13.9094 188.96C14.9334 188.96 15.6854 188.448 16.1174 187.808L17.1734 188.656C16.3574 189.712 15.2534 190.208 13.9094 190.208C11.6054 190.208 9.90938 188.608 9.90938 186.224C9.90938 183.856 11.6054 182.208 13.8294 182.208C16.0694 182.208 17.4774 183.728 17.4774 186.144ZM21.1133 177.904V190H19.6093V177.904H21.1133ZM24.7735 185.536H29.2855C29.2535 184.336 28.5495 183.392 27.1575 183.392C25.8615 183.392 24.8695 184.352 24.7735 185.536ZM30.8055 186.144C30.8055 186.304 30.8055 186.48 30.7895 186.656H24.7735C24.8215 187.952 25.9095 188.96 27.2375 188.96C28.2615 188.96 29.0135 188.448 29.4455 187.808L30.5015 188.656C29.6855 189.712 28.5815 190.208 27.2375 190.208C24.9335 190.208 23.2375 188.608 23.2375 186.224C23.2375 183.856 24.9335 182.208 27.1575 182.208C29.3975 182.208 30.8055 183.728 30.8055 186.144ZM39.3054 183.456L38.2174 184.336C37.8974 183.84 37.1934 183.472 36.4734 183.472C34.9054 183.472 33.9934 184.752 33.9934 186.208C33.9934 187.648 34.9054 188.944 36.4894 188.944C37.2574 188.944 37.9134 188.624 38.3134 188.112L39.3214 189.024C38.6814 189.76 37.7054 190.208 36.4894 190.208C34.1534 190.208 32.4094 188.624 32.4094 186.208C32.4094 183.824 34.1374 182.208 36.4574 182.208C37.5294 182.208 38.6814 182.64 39.3054 183.456ZM44.5236 182.416V183.648H42.5076V187.6C42.5076 188.512 42.8276 188.88 43.5796 188.88C43.8516 188.88 44.2036 188.816 44.4596 188.688L44.5076 189.92C44.1556 190.048 43.6916 190.128 43.2276 190.128C41.8036 190.128 41.0196 189.328 41.0196 187.76V183.648H39.5636V182.416H41.0196V180.24H42.5076V182.416H44.5236ZM54.7973 185.296V185.088C54.7973 183.968 54.0453 183.424 52.9253 183.424C52.0773 183.424 51.2773 183.792 50.7653 184.304L49.9653 183.344C50.7013 182.64 51.8373 182.208 53.0693 182.208C55.2453 182.208 56.2373 183.504 56.2373 185.184V188.496C56.2373 189.008 56.2693 189.632 56.3493 190H54.9893C54.9093 189.664 54.8613 189.264 54.8613 188.912H54.8133C54.2693 189.728 53.4053 190.192 52.2693 190.192C51.0693 190.192 49.5173 189.6 49.5173 187.856C49.5173 185.568 52.2373 185.296 54.7973 185.296ZM54.7973 186.384H54.4293C52.9413 186.384 51.0533 186.544 51.0533 187.824C51.0533 188.72 51.8533 189.008 52.6053 189.008C54.0133 189.008 54.7973 188.064 54.7973 186.784V186.384ZM58.6851 182.416H60.1091C60.1411 182.8 60.1731 183.344 60.1731 183.664H60.2211C60.5891 182.848 61.5971 182.208 62.6851 182.208C64.6371 182.208 65.5171 183.6 65.5171 185.296V190H64.0131V185.792C64.0131 184.56 63.6771 183.472 62.2851 183.472C61.1011 183.472 60.2531 184.464 60.2531 185.968V190H58.7491V184.048C58.7491 183.648 58.7331 182.912 58.6851 182.416ZM79.7416 186.192C79.7416 188.528 77.9656 190.208 75.6456 190.208C73.3256 190.208 71.5656 188.528 71.5656 186.192C71.5656 183.856 73.3256 182.208 75.6456 182.208C77.9656 182.208 79.7416 183.856 79.7416 186.192ZM78.1736 186.192C78.1736 184.752 77.2776 183.456 75.6456 183.456C74.0296 183.456 73.1176 184.752 73.1176 186.192C73.1176 187.632 74.0296 188.944 75.6456 188.944C77.2776 188.944 78.1736 187.632 78.1736 186.192ZM83.3313 188.864V193.84H81.8273V182.416H83.2993V183.6H83.3473C83.8433 182.8 84.8353 182.208 86.0833 182.208C88.3393 182.208 89.8753 183.952 89.8753 186.192C89.8753 188.416 88.3873 190.208 86.0513 190.208C84.9793 190.208 83.9393 189.712 83.3793 188.864H83.3313ZM88.3233 186.192C88.3233 184.768 87.4433 183.456 85.7953 183.456C84.2593 183.456 83.2353 184.752 83.2353 186.208C83.2353 187.664 84.2593 188.944 85.7953 188.944C87.4433 188.944 88.3233 187.616 88.3233 186.192ZM95.6799 182.416V183.648H93.6639V187.6C93.6639 188.512 93.9839 188.88 94.7359 188.88C95.0079 188.88 95.3599 188.816 95.6159 188.688L95.6639 189.92C95.3119 190.048 94.8479 190.128 94.3839 190.128C92.9599 190.128 92.1759 189.328 92.1759 187.76V183.648H90.7199V182.416H92.1759V180.24H93.6639V182.416H95.6799ZM98.7535 182.416V190H97.2495V182.416H98.7535ZM99.0095 179.68C99.0095 180.224 98.5455 180.64 98.0015 180.64C97.4575 180.64 97.0095 180.208 97.0095 179.68C97.0095 179.136 97.4575 178.704 98.0015 178.704C98.5455 178.704 99.0095 179.12 99.0095 179.68ZM109.054 186.192C109.054 188.528 107.278 190.208 104.958 190.208C102.638 190.208 100.878 188.528 100.878 186.192C100.878 183.856 102.638 182.208 104.958 182.208C107.278 182.208 109.054 183.856 109.054 186.192ZM107.486 186.192C107.486 184.752 106.59 183.456 104.958 183.456C103.342 183.456 102.43 184.752 102.43 186.192C102.43 187.632 103.342 188.944 104.958 188.944C106.59 188.944 107.486 187.632 107.486 186.192ZM111.076 182.416H112.5C112.532 182.8 112.564 183.344 112.564 183.664H112.612C112.98 182.848 113.988 182.208 115.076 182.208C117.028 182.208 117.908 183.6 117.908 185.296V190H116.404V185.792C116.404 184.56 116.068 183.472 114.676 183.472C113.492 183.472 112.644 184.464 112.644 185.968V190H111.14V184.048C111.14 183.648 111.124 182.912 111.076 182.416ZM132.132 186.192C132.132 188.528 130.356 190.208 128.036 190.208C125.716 190.208 123.956 188.528 123.956 186.192C123.956 183.856 125.716 182.208 128.036 182.208C130.356 182.208 132.132 183.856 132.132 186.192ZM130.564 186.192C130.564 184.752 129.668 183.456 128.036 183.456C126.42 183.456 125.508 184.752 125.508 186.192C125.508 187.632 126.42 188.944 128.036 188.944C129.668 188.944 130.564 187.632 130.564 186.192ZM134.218 184.048C134.218 183.648 134.202 182.912 134.154 182.416H135.578C135.61 182.8 135.642 183.376 135.642 183.696H135.69C136.106 182.816 136.986 182.208 138.01 182.208C138.218 182.208 138.426 182.224 138.602 182.272L138.538 183.664C138.346 183.616 138.09 183.584 137.85 183.584C136.41 183.584 135.722 184.752 135.722 186.016V190H134.218V184.048ZM148.735 185.296V185.088C148.735 183.968 147.983 183.424 146.863 183.424C146.015 183.424 145.215 183.792 144.703 184.304L143.903 183.344C144.639 182.64 145.775 182.208 147.007 182.208C149.183 182.208 150.175 183.504 150.175 185.184V188.496C150.175 189.008 150.207 189.632 150.287 190H148.927C148.847 189.664 148.799 189.264 148.799 188.912H148.751C148.207 189.728 147.343 190.192 146.207 190.192C145.007 190.192 143.455 189.6 143.455 187.856C143.455 185.568 146.175 185.296 148.735 185.296ZM148.735 186.384H148.367C146.879 186.384 144.991 186.544 144.991 187.824C144.991 188.72 145.791 189.008 146.543 189.008C147.951 189.008 148.735 188.064 148.735 186.784V186.384ZM157.823 183.456L156.783 184.336C156.447 183.792 155.791 183.392 155.023 183.392C154.335 183.392 153.615 183.664 153.615 184.384C153.615 185.024 154.191 185.264 155.343 185.52C156.783 185.84 157.887 186.432 157.887 187.76C157.887 189.552 156.399 190.208 154.863 190.208C153.711 190.208 152.527 189.76 151.807 188.848L152.879 187.936C153.279 188.528 154.047 188.992 154.895 188.992C155.647 188.992 156.399 188.72 156.399 187.888C156.399 187.184 155.711 186.928 154.415 186.624C153.407 186.384 152.207 185.952 152.207 184.528C152.207 182.896 153.631 182.208 155.071 182.208C156.143 182.208 157.279 182.64 157.823 183.456ZM161.332 177.904V185.712H161.38L164.564 182.416H166.58L163.028 185.856L166.884 190H164.804L161.38 186.064H161.332V190H159.828V177.904H161.332ZM176.954 185.296V185.088C176.954 183.968 176.202 183.424 175.082 183.424C174.234 183.424 173.434 183.792 172.922 184.304L172.122 183.344C172.858 182.64 173.994 182.208 175.226 182.208C177.402 182.208 178.394 183.504 178.394 185.184V188.496C178.394 189.008 178.426 189.632 178.506 190H177.146C177.066 189.664 177.018 189.264 177.018 188.912H176.97C176.426 189.728 175.562 190.192 174.426 190.192C173.226 190.192 171.674 189.6 171.674 187.856C171.674 185.568 174.394 185.296 176.954 185.296ZM176.954 186.384H176.586C175.098 186.384 173.21 186.544 173.21 187.824C173.21 188.72 174.01 189.008 174.762 189.008C176.17 189.008 176.954 188.064 176.954 186.784V186.384ZM190.937 188.864H190.905C190.345 189.712 189.289 190.208 188.217 190.208C185.881 190.208 184.393 188.416 184.393 186.192C184.393 183.952 185.929 182.208 188.201 182.208C189.433 182.208 190.425 182.8 190.937 183.6H190.985V182.416H192.441V193.84H190.937V188.864ZM185.961 186.192C185.961 187.616 186.825 188.944 188.473 188.944C190.009 188.944 191.033 187.664 191.033 186.208C191.033 184.752 190.009 183.456 188.473 183.456C186.825 183.456 185.961 184.768 185.961 186.192ZM201.798 190H200.374C200.342 189.616 200.31 189.072 200.31 188.752H200.278C199.894 189.552 198.902 190.208 197.798 190.208C195.846 190.208 194.966 188.816 194.966 187.12V182.416H196.47V186.608C196.47 187.856 196.806 188.944 198.198 188.944C199.398 188.944 200.23 187.952 200.23 186.448V182.416H201.734V188.368C201.734 188.768 201.75 189.504 201.798 190ZM205.383 185.536H209.895C209.863 184.336 209.159 183.392 207.767 183.392C206.471 183.392 205.479 184.352 205.383 185.536ZM211.415 186.144C211.415 186.304 211.415 186.48 211.399 186.656H205.383C205.431 187.952 206.519 188.96 207.847 188.96C208.871 188.96 209.623 188.448 210.055 187.808L211.111 188.656C210.295 189.712 209.191 190.208 207.847 190.208C205.543 190.208 203.847 188.608 203.847 186.224C203.847 183.856 205.543 182.208 207.767 182.208C210.007 182.208 211.415 183.728 211.415 186.144ZM218.651 183.456L217.611 184.336C217.275 183.792 216.619 183.392 215.851 183.392C215.163 183.392 214.443 183.664 214.443 184.384C214.443 185.024 215.019 185.264 216.171 185.52C217.611 185.84 218.715 186.432 218.715 187.76C218.715 189.552 217.227 190.208 215.691 190.208C214.539 190.208 213.355 189.76 212.635 188.848L213.707 187.936C214.107 188.528 214.875 188.992 215.723 188.992C216.475 188.992 217.227 188.72 217.227 187.888C217.227 187.184 216.539 186.928 215.243 186.624C214.235 186.384 213.035 185.952 213.035 184.528C213.035 182.896 214.459 182.208 215.899 182.208C216.971 182.208 218.107 182.64 218.651 183.456ZM224.336 182.416V183.648H222.32V187.6C222.32 188.512 222.64 188.88 223.392 188.88C223.664 188.88 224.016 188.816 224.272 188.688L224.32 189.92C223.968 190.048 223.504 190.128 223.04 190.128C221.616 190.128 220.832 189.328 220.832 187.76V183.648H219.376V182.416H220.832V180.24H222.32V182.416H224.336ZM227.41 182.416V190H225.906V182.416H227.41ZM227.666 179.68C227.666 180.224 227.202 180.64 226.658 180.64C226.114 180.64 225.666 180.208 225.666 179.68C225.666 179.136 226.114 178.704 226.658 178.704C227.202 178.704 227.666 179.12 227.666 179.68ZM237.71 186.192C237.71 188.528 235.934 190.208 233.614 190.208C231.294 190.208 229.534 188.528 229.534 186.192C229.534 183.856 231.294 182.208 233.614 182.208C235.934 182.208 237.71 183.856 237.71 186.192ZM236.142 186.192C236.142 184.752 235.246 183.456 233.614 183.456C231.998 183.456 231.086 184.752 231.086 186.192C231.086 187.632 231.998 188.944 233.614 188.944C235.246 188.944 236.142 187.632 236.142 186.192ZM239.732 182.416H241.156C241.188 182.8 241.22 183.344 241.22 183.664H241.268C241.636 182.848 242.644 182.208 243.732 182.208C245.684 182.208 246.564 183.6 246.564 185.296V190H245.06V185.792C245.06 184.56 244.724 183.472 243.332 183.472C242.148 183.472 241.3 184.464 241.3 185.968V190H239.796V184.048C239.796 183.648 239.78 182.912 239.732 182.416ZM256.821 182.416V183.648H254.805V187.6C254.805 188.512 255.125 188.88 255.877 188.88C256.149 188.88 256.501 188.816 256.757 188.688L256.805 189.92C256.453 190.048 255.989 190.128 255.525 190.128C254.101 190.128 253.317 189.328 253.317 187.76V183.648H251.861V182.416H253.317V180.24H254.805V182.416H256.821ZM266.054 186.192C266.054 188.528 264.278 190.208 261.958 190.208C259.638 190.208 257.878 188.528 257.878 186.192C257.878 183.856 259.638 182.208 261.958 182.208C264.278 182.208 266.054 183.856 266.054 186.192ZM264.486 186.192C264.486 184.752 263.59 183.456 261.958 183.456C260.342 183.456 259.43 184.752 259.43 186.192C259.43 187.632 260.342 188.944 261.958 188.944C263.59 188.944 264.486 187.632 264.486 186.192ZM277.276 183.456L276.236 184.336C275.9 183.792 275.244 183.392 274.476 183.392C273.788 183.392 273.068 183.664 273.068 184.384C273.068 185.024 273.644 185.264 274.796 185.52C276.236 185.84 277.34 186.432 277.34 187.76C277.34 189.552 275.852 190.208 274.316 190.208C273.164 190.208 271.98 189.76 271.26 188.848L272.332 187.936C272.732 188.528 273.5 188.992 274.348 188.992C275.1 188.992 275.852 188.72 275.852 187.888C275.852 187.184 275.164 186.928 273.868 186.624C272.86 186.384 271.66 185.952 271.66 184.528C271.66 182.896 273.084 182.208 274.524 182.208C275.596 182.208 276.732 182.64 277.276 183.456ZM282.961 182.416V183.648H280.945V187.6C280.945 188.512 281.265 188.88 282.017 188.88C282.289 188.88 282.641 188.816 282.897 188.688L282.945 189.92C282.593 190.048 282.129 190.128 281.665 190.128C280.241 190.128 279.457 189.328 279.457 187.76V183.648H278.001V182.416H279.457V180.24H280.945V182.416H282.961ZM289.235 185.296V185.088C289.235 183.968 288.483 183.424 287.363 183.424C286.515 183.424 285.715 183.792 285.203 184.304L284.403 183.344C285.139 182.64 286.275 182.208 287.507 182.208C289.683 182.208 290.675 183.504 290.675 185.184V188.496C290.675 189.008 290.707 189.632 290.787 190H289.427C289.347 189.664 289.299 189.264 289.299 188.912H289.251C288.707 189.728 287.843 190.192 286.707 190.192C285.507 190.192 283.955 189.6 283.955 187.856C283.955 185.568 286.675 185.296 289.235 185.296ZM289.235 186.384H288.867C287.379 186.384 285.491 186.544 285.491 187.824C285.491 188.72 286.291 189.008 287.043 189.008C288.451 189.008 289.235 188.064 289.235 186.784V186.384ZM293.187 184.048C293.187 183.648 293.171 182.912 293.123 182.416H294.547C294.579 182.8 294.611 183.376 294.611 183.696H294.659C295.075 182.816 295.955 182.208 296.979 182.208C297.187 182.208 297.395 182.224 297.571 182.272L297.507 183.664C297.315 183.616 297.059 183.584 296.819 183.584C295.379 183.584 294.691 184.752 294.691 186.016V190H293.187V184.048ZM302.508 182.416V183.648H300.492V187.6C300.492 188.512 300.812 188.88 301.564 188.88C301.836 188.88 302.188 188.816 302.444 188.688L302.492 189.92C302.14 190.048 301.676 190.128 301.212 190.128C299.788 190.128 299.004 189.328 299.004 187.76V183.648H297.548V182.416H299.004V180.24H300.492V182.416H302.508ZM305.918 189.04C305.918 189.6 305.454 190.096 304.846 190.096C304.254 190.096 303.774 189.616 303.774 189.056C303.774 188.48 304.238 188 304.846 188C305.454 188 305.918 188.464 305.918 189.04Z" fill="#393A3D"/>
</svg>
