<svg width="44" height="43" viewBox="0 0 44 43" fill="none" xmlns="http://www.w3.org/2000/svg">
<path fill-rule="evenodd" clip-rule="evenodd" d="M20.201 17.5114C19.6193 17.5112 19.0312 17.387 18.4723 17.139L7.21879 12.1049L8.80599 8.52449L20.0595 13.5586C20.1733 13.6109 20.2839 13.5978 20.3847 13.5259C20.4856 13.4508 20.5311 13.3528 20.5181 13.2286L19.2269 0.91616L23.107 0.507812L24.395 12.8138C24.5544 14.3394 23.9104 15.7898 22.6745 16.6947C21.9334 17.2366 21.0721 17.5111 20.201 17.5114ZM20.201 17.5114C20.2004 17.5114 20.1999 17.5114 20.1993 17.5114H20.2026C20.2021 17.5114 20.2015 17.5114 20.201 17.5114ZM28.1045 21.6405C28.8414 22.1858 29.701 22.4707 30.5726 22.478L30.5727 22.4715C31.1548 22.4764 31.7445 22.3605 32.306 22.1137L43.6015 17.1745L42.0446 13.5809L30.7491 18.5201C30.6348 18.5714 30.5243 18.5574 30.4241 18.4847C30.3239 18.4119 30.2792 18.3103 30.2933 18.1863L31.6848 5.89159L27.8082 5.45058L26.4167 17.7453C26.2444 19.2727 26.8762 20.7285 28.1045 21.6405ZM34.1097 41.59L25.9496 32.3216C24.9385 31.1725 24.6205 29.6146 25.1082 28.1586C25.5927 26.7026 26.7762 25.6513 28.2751 25.3444L40.3477 22.8768L41.1237 26.719L29.051 29.1866C28.9272 29.2116 28.8485 29.2828 28.8084 29.4033C28.7683 29.5239 28.7902 29.6286 28.8739 29.7241L37.034 38.9925L34.1097 41.59ZM11.2986 42.2451L7.92668 40.2723L14.1271 29.5806C14.8964 28.2539 16.2687 27.4652 17.7974 27.4709C19.326 27.4767 20.6923 28.2757 21.4516 29.6081L27.5714 40.3463L24.1847 42.2936L18.0649 31.5555C17.9422 31.3394 17.6267 31.3349 17.5023 31.5533L11.3018 42.2451L11.2986 42.2451ZM4.24975 30.993L7.12284 33.6469L7.12277 33.6535L15.462 24.5458C16.4954 23.4134 16.8404 21.8652 16.3843 20.4C15.9283 18.9348 14.7656 17.8607 13.2729 17.5246L1.25066 14.8222L0.399994 18.6486L12.4223 21.3445C12.5424 21.3719 12.6229 21.4479 12.6607 21.5659C12.6984 21.6872 12.6745 21.7947 12.589 21.8853L4.24975 30.993Z" fill="#236CFF"/>
</svg>
