<svg width="343" height="301" viewBox="0 0 343 301" fill="none" xmlns="http://www.w3.org/2000/svg">
<rect x="0.5" y="15.5" width="342" height="270" rx="7.5" stroke="#BABEC5" stroke-opacity="0.5"/>
<g clip-path="url(#clip0_14_6115)">
<path d="M78.1543 53V41.672H81.8503C84.4423 41.672 86.1223 42.584 86.1223 44.952C86.1223 47.448 84.1223 48.312 81.7223 48.312H80.1703V53H78.1543ZM80.1703 46.616H81.5783C82.8903 46.616 84.0903 46.296 84.0903 44.952C84.0903 43.608 82.8903 43.368 81.6423 43.368H80.1703V46.616ZM87.0895 53V45.32H88.9295V46.6H88.9615C89.3775 45.72 90.1935 45.096 91.2015 45.096C91.3455 45.096 91.5375 45.112 91.6655 45.144V46.904C91.4095 46.84 91.2495 46.824 91.0735 46.824C89.3455 46.824 89.0095 48.328 89.0095 48.888V53H87.0895ZM92.9496 53V45.32H94.8696V53H92.9496ZM92.6776 42.712C92.6776 42.104 93.1896 41.56 93.8936 41.56C94.5976 41.56 95.1416 42.056 95.1416 42.712C95.1416 43.368 94.5976 43.864 93.8936 43.864C93.1896 43.864 92.6776 43.32 92.6776 42.712ZM103.759 46.296L102.447 47.448C102.143 47.016 101.487 46.696 100.863 46.696C99.4549 46.696 98.7509 47.96 98.7509 49.16C98.7509 50.36 99.4709 51.624 100.927 51.624C101.519 51.624 102.175 51.384 102.543 50.936L103.743 52.152C103.103 52.84 102.047 53.224 100.911 53.224C98.6389 53.224 96.7509 51.72 96.7509 49.16C96.7509 46.664 98.6069 45.096 100.863 45.096C101.983 45.096 103.151 45.544 103.759 46.296ZM106.483 48.392H110.419C110.419 47.4 109.859 46.536 108.611 46.536C107.475 46.536 106.563 47.32 106.483 48.392ZM112.339 49.256C112.339 49.432 112.339 49.592 112.323 49.768H106.483C106.563 50.856 107.555 51.656 108.675 51.656C109.635 51.656 110.275 51.272 110.707 50.664L111.987 51.688C111.235 52.712 110.147 53.224 108.691 53.224C106.323 53.224 104.563 51.704 104.563 49.208C104.563 46.728 106.307 45.096 108.627 45.096C110.771 45.096 112.339 46.488 112.339 49.256ZM124.759 46.296L123.447 47.448C123.143 47.016 122.487 46.696 121.863 46.696C120.455 46.696 119.751 47.96 119.751 49.16C119.751 50.36 120.471 51.624 121.927 51.624C122.519 51.624 123.175 51.384 123.543 50.936L124.743 52.152C124.103 52.84 123.047 53.224 121.911 53.224C119.639 53.224 117.751 51.72 117.751 49.16C117.751 46.664 119.607 45.096 121.863 45.096C122.983 45.096 124.151 45.544 124.759 46.296ZM125.563 49.128C125.563 46.712 127.419 45.096 129.739 45.096C132.059 45.096 133.915 46.712 133.915 49.128C133.915 51.544 132.059 53.224 129.739 53.224C127.419 53.224 125.563 51.544 125.563 49.128ZM127.515 49.128C127.515 50.328 128.219 51.624 129.739 51.624C131.259 51.624 131.963 50.328 131.963 49.128C131.963 47.928 131.259 46.664 129.739 46.664C128.219 46.664 127.515 47.928 127.515 49.128ZM144.945 45.096C146.945 45.096 147.777 46.632 147.777 48.2V53H145.857V48.744C145.857 47.832 145.649 46.696 144.417 46.696C143.217 46.696 142.721 47.816 142.721 48.808V53H140.801V48.36C140.801 47.416 140.353 46.696 139.377 46.696C138.225 46.696 137.697 47.752 137.697 48.776V53H135.777V45.32H137.601V46.552H137.633C137.969 45.8 138.785 45.096 140.017 45.096C141.201 45.096 141.985 45.688 142.417 46.552C142.929 45.624 143.793 45.096 144.945 45.096ZM150.011 45.32H151.851V46.392H151.899C152.283 45.784 153.147 45.096 154.555 45.096C156.747 45.096 158.283 46.856 158.283 49.128C158.283 51.368 156.843 53.224 154.507 53.224C153.435 53.224 152.459 52.744 151.963 51.976H151.931V56.84H150.011V45.32ZM156.331 49.128C156.331 47.928 155.611 46.664 154.123 46.664C152.715 46.664 151.867 47.96 151.867 49.16C151.867 50.36 152.715 51.624 154.123 51.624C155.611 51.624 156.331 50.328 156.331 49.128ZM164.904 53V52.024H164.856C164.472 52.696 163.56 53.192 162.472 53.192C161.24 53.192 159.592 52.6 159.592 50.808C159.592 48.52 162.472 48.2 164.872 48.2V48.008C164.872 47.064 164.072 46.6 163.112 46.6C162.296 46.6 161.512 46.984 161.016 47.48L160.024 46.312C160.888 45.512 162.104 45.096 163.272 45.096C166.024 45.096 166.696 46.792 166.696 48.328V53H164.904ZM164.872 49.768V49.496H164.44C163.224 49.496 161.512 49.64 161.512 50.776C161.512 51.512 162.2 51.736 162.856 51.736C164.168 51.736 164.872 50.984 164.872 49.768ZM168.933 53V45.32H170.773V46.6H170.805C171.221 45.72 172.037 45.096 173.045 45.096C173.189 45.096 173.381 45.112 173.509 45.144V46.904C173.253 46.84 173.093 46.824 172.917 46.824C171.189 46.824 170.853 48.328 170.853 48.888V53H168.933ZM175.952 48.392H179.888C179.888 47.4 179.328 46.536 178.08 46.536C176.944 46.536 176.032 47.32 175.952 48.392ZM181.808 49.256C181.808 49.432 181.808 49.592 181.792 49.768H175.952C176.032 50.856 177.024 51.656 178.144 51.656C179.104 51.656 179.744 51.272 180.176 50.664L181.456 51.688C180.704 52.712 179.616 53.224 178.16 53.224C175.792 53.224 174.032 51.704 174.032 49.208C174.032 46.728 175.776 45.096 178.096 45.096C180.24 45.096 181.808 46.488 181.808 49.256ZM191.476 40.904V53H189.652V51.848H189.62C189.092 52.728 188.052 53.224 186.98 53.224C184.644 53.224 183.204 51.368 183.204 49.128C183.204 46.856 184.74 45.096 186.932 45.096C188.34 45.096 189.108 45.8 189.508 46.296H189.556V40.904H191.476ZM185.156 49.128C185.156 50.328 185.876 51.624 187.364 51.624C188.772 51.624 189.62 50.36 189.62 49.16C189.62 47.96 188.772 46.664 187.364 46.664C185.876 46.664 185.156 47.928 185.156 49.128ZM198.048 46.856H196.704V45.32H198.048V43.096H199.936V45.32H201.856V46.856H199.936V50.424C199.936 51.112 200.096 51.608 200.944 51.608C201.2 51.608 201.536 51.56 201.76 51.448L201.824 52.952C201.488 53.08 200.976 53.16 200.544 53.16C198.512 53.16 198.048 51.912 198.048 50.44V46.856ZM202.798 49.128C202.798 46.712 204.654 45.096 206.974 45.096C209.294 45.096 211.15 46.712 211.15 49.128C211.15 51.544 209.294 53.224 206.974 53.224C204.654 53.224 202.798 51.544 202.798 49.128ZM204.75 49.128C204.75 50.328 205.454 51.624 206.974 51.624C208.494 51.624 209.198 50.328 209.198 49.128C209.198 47.928 208.494 46.664 206.974 46.664C205.454 46.664 204.75 47.928 204.75 49.128ZM217.011 45.32H218.851V46.392H218.899C219.283 45.784 220.147 45.096 221.555 45.096C223.747 45.096 225.283 46.856 225.283 49.128C225.283 51.368 223.843 53.224 221.507 53.224C220.435 53.224 219.459 52.744 218.963 51.976H218.931V56.84H217.011V45.32ZM223.331 49.128C223.331 47.928 222.611 46.664 221.123 46.664C219.715 46.664 218.867 47.96 218.867 49.16C218.867 50.36 219.715 51.624 221.123 51.624C222.611 51.624 223.331 50.328 223.331 49.128ZM228.608 48.392H232.544C232.544 47.4 231.984 46.536 230.736 46.536C229.6 46.536 228.688 47.32 228.608 48.392ZM234.464 49.256C234.464 49.432 234.464 49.592 234.448 49.768H228.608C228.688 50.856 229.68 51.656 230.8 51.656C231.76 51.656 232.4 51.272 232.832 50.664L234.112 51.688C233.36 52.712 232.272 53.224 230.816 53.224C228.448 53.224 226.688 51.704 226.688 49.208C226.688 46.728 228.432 45.096 230.752 45.096C232.896 45.096 234.464 46.488 234.464 49.256ZM237.796 48.392H241.732C241.732 47.4 241.172 46.536 239.924 46.536C238.788 46.536 237.876 47.32 237.796 48.392ZM243.652 49.256C243.652 49.432 243.652 49.592 243.636 49.768H237.796C237.876 50.856 238.868 51.656 239.988 51.656C240.948 51.656 241.588 51.272 242.02 50.664L243.3 51.688C242.548 52.712 241.46 53.224 240.004 53.224C237.636 53.224 235.876 51.704 235.876 49.208C235.876 46.728 237.62 45.096 239.94 45.096C242.084 45.096 243.652 46.488 243.652 49.256ZM245.511 53V45.32H247.351V46.6H247.383C247.799 45.72 248.615 45.096 249.623 45.096C249.767 45.096 249.959 45.112 250.087 45.144V46.904C249.831 46.84 249.671 46.824 249.495 46.824C247.767 46.824 247.431 48.328 247.431 48.888V53H245.511ZM256.796 46.264L255.548 47.368C255.212 46.92 254.572 46.536 253.868 46.536C253.26 46.536 252.636 46.76 252.636 47.368C252.636 47.96 253.228 48.12 254.299 48.376C255.436 48.648 256.78 49.16 256.78 50.664C256.78 52.536 255.26 53.224 253.58 53.224C252.396 53.224 251.164 52.776 250.428 51.96L251.692 50.776C252.108 51.32 252.828 51.736 253.66 51.736C254.22 51.736 254.891 51.512 254.891 50.824C254.891 50.184 254.299 49.992 253.132 49.72C251.996 49.448 250.86 48.984 250.86 47.544C250.86 45.832 252.396 45.096 253.916 45.096C255.02 45.096 256.172 45.48 256.796 46.264ZM258.417 51.88C258.417 51.192 258.993 50.632 259.697 50.632C260.385 50.632 260.977 51.16 260.977 51.848C260.977 52.536 260.401 53.096 259.697 53.096C259.025 53.096 258.417 52.568 258.417 51.88ZM258.417 46.472C258.417 45.784 258.993 45.224 259.697 45.224C260.385 45.224 260.977 45.752 260.977 46.44C260.977 47.128 260.401 47.688 259.697 47.688C259.025 47.688 258.417 47.16 258.417 46.472Z" fill="black"/>
<path d="M157.49 77V65.672H159.506V75.208H164.322V77H157.49ZM164.837 73.128C164.837 70.712 166.693 69.096 169.013 69.096C171.333 69.096 173.189 70.712 173.189 73.128C173.189 75.544 171.333 77.224 169.013 77.224C166.693 77.224 164.837 75.544 164.837 73.128ZM166.789 73.128C166.789 74.328 167.493 75.624 169.013 75.624C170.533 75.624 171.237 74.328 171.237 73.128C171.237 71.928 170.533 70.664 169.013 70.664C167.493 70.664 166.789 71.928 166.789 73.128ZM176.634 77L173.962 69.32H176.042L177.642 74.824H177.674L179.322 69.32H181.37L183.034 74.824H183.066L184.698 69.32H186.698L184.042 77H182.09L180.346 71.624H180.314L178.586 77H176.634Z" fill="#FF6A00"/>
<g style="mix-blend-mode:multiply" opacity="0.4">
<path fill-rule="evenodd" clip-rule="evenodd" d="M45.5 167V161.975C45.5 160.332 46.832 159 48.475 159V159C50.118 159 51.45 160.332 51.45 161.975V167H45.5Z" fill="#FF9331"/>
</g>
<g style="mix-blend-mode:multiply" opacity="0.4">
<path fill-rule="evenodd" clip-rule="evenodd" d="M58.45 167V159.975C58.45 158.332 59.7819 157 61.425 157V157C63.068 157 64.4 158.332 64.4 159.975V167H58.45Z" fill="#FF9331"/>
</g>
<g style="mix-blend-mode:multiply" opacity="0.4">
<path fill-rule="evenodd" clip-rule="evenodd" d="M71.4 167V157.975C71.4 156.332 72.732 155 74.375 155V155C76.0181 155 77.35 156.332 77.35 157.975V167H71.4Z" fill="#FF9331"/>
</g>
<g style="mix-blend-mode:multiply" opacity="0.4">
<path fill-rule="evenodd" clip-rule="evenodd" d="M84.35 167V155.975C84.35 154.332 85.6819 153 87.325 153V153C88.968 153 90.3 154.332 90.3 155.975V167H84.35Z" fill="#FF9331"/>
</g>
<g style="mix-blend-mode:multiply">
<path fill-rule="evenodd" clip-rule="evenodd" d="M97.3 167V153.975C97.3 152.332 98.632 151 100.275 151V151C101.918 151 103.25 152.332 103.25 153.975V167H97.3Z" fill="#FF6A00"/>
</g>
<g style="mix-blend-mode:multiply" opacity="0.4">
<path fill-rule="evenodd" clip-rule="evenodd" d="M110.25 167V151.975C110.25 150.332 111.582 149 113.225 149V149C114.868 149 116.2 150.332 116.2 151.975V167H110.25Z" fill="#BABEC5"/>
</g>
<g style="mix-blend-mode:multiply" opacity="0.4">
<path fill-rule="evenodd" clip-rule="evenodd" d="M123.2 167V149.975C123.2 148.332 124.532 147 126.175 147V147C127.818 147 129.15 148.332 129.15 149.975V167H123.2Z" fill="#BABEC5"/>
</g>
<g style="mix-blend-mode:multiply" opacity="0.4">
<path fill-rule="evenodd" clip-rule="evenodd" d="M136.15 167V147.975C136.15 146.332 137.482 145 139.125 145V145C140.768 145 142.1 146.332 142.1 147.975V167H136.15Z" fill="#BABEC5"/>
</g>
<g style="mix-blend-mode:multiply" opacity="0.4">
<path fill-rule="evenodd" clip-rule="evenodd" d="M149.1 167V145.975C149.1 144.332 150.432 143 152.075 143V143C153.718 143 155.05 144.332 155.05 145.975V167H149.1Z" fill="#BABEC5"/>
</g>
<g style="mix-blend-mode:multiply" opacity="0.4">
<path fill-rule="evenodd" clip-rule="evenodd" d="M162.05 167V141.975C162.05 140.332 163.382 139 165.025 139V139C166.668 139 168 140.332 168 141.975V167H162.05Z" fill="#BABEC5"/>
</g>
<g style="mix-blend-mode:multiply" opacity="0.4">
<path fill-rule="evenodd" clip-rule="evenodd" d="M175 167V137.975C175 136.332 176.332 135 177.975 135V135C179.618 135 180.95 136.332 180.95 137.975V167H175Z" fill="#BABEC5"/>
</g>
<g style="mix-blend-mode:multiply" opacity="0.4">
<path fill-rule="evenodd" clip-rule="evenodd" d="M187.95 167V133.975C187.95 132.332 189.282 131 190.925 131V131C192.568 131 193.9 132.332 193.9 133.975V167H187.95Z" fill="#BABEC5"/>
</g>
<g style="mix-blend-mode:multiply" opacity="0.4">
<path fill-rule="evenodd" clip-rule="evenodd" d="M200.9 167V129.975C200.9 128.332 202.232 127 203.875 127V127C205.518 127 206.85 128.332 206.85 129.975V167H200.9Z" fill="#BABEC5"/>
</g>
<g style="mix-blend-mode:multiply" opacity="0.4">
<path fill-rule="evenodd" clip-rule="evenodd" d="M213.85 167V125.975C213.85 124.332 215.182 123 216.825 123V123C218.468 123 219.8 124.332 219.8 125.975V167H213.85Z" fill="#979797" fill-opacity="0.4"/>
</g>
<g style="mix-blend-mode:multiply" opacity="0.4">
<path fill-rule="evenodd" clip-rule="evenodd" d="M226.8 167V121.975C226.8 120.332 228.132 119 229.775 119V119C231.418 119 232.75 120.332 232.75 121.975V167H226.8Z" fill="#BABEC5"/>
<path fill-rule="evenodd" clip-rule="evenodd" d="M226.8 167V121.975C226.8 120.332 228.132 119 229.775 119V119C231.418 119 232.75 120.332 232.75 121.975V167H226.8Z" stroke="#979797"/>
</g>
<g style="mix-blend-mode:multiply" opacity="0.7">
<path fill-rule="evenodd" clip-rule="evenodd" d="M239.75 167V117.975C239.75 116.332 241.082 115 242.725 115V115C244.368 115 245.7 116.332 245.7 117.975V167H239.75Z" fill="#979797" fill-opacity="0.4"/>
</g>
<path opacity="0.25" fill-rule="evenodd" clip-rule="evenodd" d="M252.7 167V113.975C252.7 112.332 254.032 111 255.675 111V111C257.318 111 258.65 112.332 258.65 113.975V167H252.7Z" fill="#BABEC5"/>
<path opacity="0.25" fill-rule="evenodd" clip-rule="evenodd" d="M265.65 167V109.975C265.65 108.332 266.982 107 268.625 107V107C270.268 107 271.6 108.332 271.6 109.975V167H265.65Z" fill="#BABEC5"/>
<path opacity="0.25" fill-rule="evenodd" clip-rule="evenodd" d="M278.6 167V105.975C278.6 104.332 279.932 103 281.575 103V103C283.218 103 284.55 104.332 284.55 105.975V167H278.6Z" fill="#BABEC5"/>
<path opacity="0.25" fill-rule="evenodd" clip-rule="evenodd" d="M291.55 167V101.975C291.55 100.332 292.882 99 294.525 99V99C296.168 99 297.5 100.332 297.5 101.975V167H291.55Z" fill="#BABEC5"/>
<path d="M100.5 109.081L100.5 158.919" stroke="black" stroke-dasharray="2 2"/>
<path d="M27.7953 195L30.0753 191.568L30.0633 191.556C29.9433 191.628 29.7633 191.688 29.5713 191.724C29.3793 191.76 29.1753 191.784 28.9953 191.784C27.5073 191.784 26.3433 190.668 26.3433 189.12C26.3433 187.428 27.6153 186.288 29.2833 186.288C30.9633 186.288 32.2113 187.476 32.2113 189.084C32.2113 190.008 31.8753 190.716 31.3953 191.496L29.1753 195H27.7953ZM31.0473 189.072C31.0473 188.076 30.3393 187.26 29.2833 187.26C28.2393 187.26 27.5193 188.028 27.5193 189.084C27.5193 190.104 28.2153 190.86 29.2713 190.86C30.3393 190.86 31.0473 190.116 31.0473 189.072ZM36.408 186.288C38.424 186.288 39.3 188.28 39.3 190.752C39.3 193.236 38.424 195.216 36.408 195.216C34.38 195.216 33.504 193.236 33.504 190.752C33.504 188.28 34.38 186.288 36.408 186.288ZM36.408 187.26C35.004 187.26 34.692 189.324 34.692 190.752C34.692 192.192 35.004 194.232 36.408 194.232C37.788 194.232 38.112 192.192 38.112 190.752C38.112 189.324 37.788 187.26 36.408 187.26ZM45.6688 193.02C45.6688 191.844 46.6168 190.896 47.7928 190.896C48.9688 190.896 49.9168 191.844 49.9168 193.02C49.9168 194.196 48.9688 195.144 47.7928 195.144C46.6168 195.144 45.6688 194.196 45.6688 193.02ZM48.9208 193.02C48.9208 192.396 48.4168 191.892 47.7928 191.892C47.1688 191.892 46.6648 192.396 46.6648 193.02C46.6648 193.644 47.1688 194.148 47.7928 194.148C48.4168 194.148 48.9208 193.644 48.9208 193.02ZM40.4608 188.484C40.4608 187.308 41.4088 186.36 42.5848 186.36C43.7608 186.36 44.7088 187.308 44.7088 188.484C44.7088 189.66 43.7608 190.608 42.5848 190.608C41.4088 190.608 40.4608 189.66 40.4608 188.484ZM43.7128 188.484C43.7128 187.86 43.2088 187.356 42.5848 187.356C41.9608 187.356 41.4568 187.86 41.4568 188.484C41.4568 189.108 41.9608 189.612 42.5848 189.612C43.2088 189.612 43.7128 189.108 43.7128 188.484ZM48.2008 186.516L43.0048 195.384L42.1888 194.988L47.3968 186.12L48.2008 186.516ZM60.1422 192.144C60.1422 193.896 58.8102 195.156 57.0702 195.156C55.3302 195.156 54.0102 193.896 54.0102 192.144C54.0102 190.392 55.3302 189.156 57.0702 189.156C58.8102 189.156 60.1422 190.392 60.1422 192.144ZM58.9662 192.144C58.9662 191.064 58.2942 190.092 57.0702 190.092C55.8582 190.092 55.1742 191.064 55.1742 192.144C55.1742 193.224 55.8582 194.208 57.0702 194.208C58.2942 194.208 58.9662 193.224 58.9662 192.144ZM64.3824 189.312V190.236H63.0624V195H61.9344V190.236H60.8064V189.312H61.9344V188.124C61.9344 186.792 62.5224 185.784 64.0584 185.784C64.3224 185.784 64.5504 185.808 64.7664 185.868L64.6344 186.84C64.4664 186.792 64.2864 186.756 64.0704 186.756C63.2184 186.756 63.0624 187.428 63.0624 188.124V189.312H64.3824ZM73.5142 190.092L72.6982 190.752C72.4582 190.38 71.9302 190.104 71.3902 190.104C70.2142 190.104 69.5302 191.064 69.5302 192.156C69.5302 193.236 70.2142 194.208 71.4022 194.208C71.9782 194.208 72.4702 193.968 72.7702 193.584L73.5262 194.268C73.0462 194.82 72.3142 195.156 71.4022 195.156C69.6502 195.156 68.3422 193.968 68.3422 192.156C68.3422 190.368 69.6382 189.156 71.3782 189.156C72.1822 189.156 73.0462 189.48 73.5142 190.092ZM79.7199 195H78.6519C78.6279 194.712 78.6039 194.304 78.6039 194.064H78.5799C78.2919 194.664 77.5479 195.156 76.7199 195.156C75.2559 195.156 74.5959 194.112 74.5959 192.84V189.312H75.7239V192.456C75.7239 193.392 75.9759 194.208 77.0199 194.208C77.9199 194.208 78.5439 193.464 78.5439 192.336V189.312H79.6719V193.776C79.6719 194.076 79.6839 194.628 79.7199 195ZM85.4803 190.092L84.7003 190.752C84.4483 190.344 83.9563 190.044 83.3803 190.044C82.8643 190.044 82.3243 190.248 82.3243 190.788C82.3243 191.268 82.7563 191.448 83.6203 191.64C84.7003 191.88 85.5283 192.324 85.5283 193.32C85.5283 194.664 84.4123 195.156 83.2603 195.156C82.3963 195.156 81.5083 194.82 80.9683 194.136L81.7723 193.452C82.0723 193.896 82.6483 194.244 83.2843 194.244C83.8483 194.244 84.4123 194.04 84.4123 193.416C84.4123 192.888 83.8963 192.696 82.9243 192.468C82.1683 192.288 81.2683 191.964 81.2683 190.896C81.2683 189.672 82.3363 189.156 83.4163 189.156C84.2203 189.156 85.0723 189.48 85.4803 190.092ZM89.7443 189.312V190.236H88.2323V193.2C88.2323 193.884 88.4723 194.16 89.0363 194.16C89.2403 194.16 89.5043 194.112 89.6963 194.016L89.7323 194.94C89.4683 195.036 89.1203 195.096 88.7723 195.096C87.7043 195.096 87.1163 194.496 87.1163 193.32V190.236H86.0243V189.312H87.1163V187.68H88.2323V189.312H89.7443ZM96.6695 192.144C96.6695 193.896 95.3375 195.156 93.5975 195.156C91.8575 195.156 90.5375 193.896 90.5375 192.144C90.5375 190.392 91.8575 189.156 93.5975 189.156C95.3375 189.156 96.6695 190.392 96.6695 192.144ZM95.4935 192.144C95.4935 191.064 94.8215 190.092 93.5975 190.092C92.3855 190.092 91.7015 191.064 91.7015 192.144C91.7015 193.224 92.3855 194.208 93.5975 194.208C94.8215 194.208 95.4935 193.224 95.4935 192.144ZM99.3377 190.248C99.6257 189.648 100.286 189.156 101.15 189.156C101.906 189.156 102.566 189.492 102.914 190.296C103.298 189.564 104.042 189.156 104.846 189.156C106.31 189.156 106.97 190.2 106.97 191.472V195H105.842V191.844C105.842 190.92 105.566 190.104 104.582 190.104C103.55 190.104 103.142 191.04 103.142 191.928V195H102.014V191.616C102.014 190.728 101.714 190.104 100.814 190.104C99.9857 190.104 99.3617 190.848 99.3617 191.976V195H98.2337V190.536C98.2337 190.236 98.2217 189.684 98.1857 189.312H99.2537C99.2777 189.6 99.3017 190.008 99.3017 190.248H99.3377ZM109.654 191.652H113.038C113.014 190.752 112.486 190.044 111.442 190.044C110.47 190.044 109.726 190.764 109.654 191.652ZM114.178 192.108C114.178 192.228 114.178 192.36 114.166 192.492H109.654C109.69 193.464 110.506 194.22 111.502 194.22C112.27 194.22 112.834 193.836 113.158 193.356L113.95 193.992C113.338 194.784 112.51 195.156 111.502 195.156C109.774 195.156 108.502 193.956 108.502 192.168C108.502 190.392 109.774 189.156 111.442 189.156C113.122 189.156 114.178 190.296 114.178 192.108ZM115.753 190.536C115.753 190.236 115.741 189.684 115.705 189.312H116.773C116.797 189.6 116.821 190.032 116.821 190.272H116.857C117.169 189.612 117.829 189.156 118.597 189.156C118.753 189.156 118.909 189.168 119.041 189.204L118.993 190.248C118.849 190.212 118.657 190.188 118.477 190.188C117.397 190.188 116.881 191.064 116.881 192.012V195H115.753V190.536ZM123.953 190.092L123.173 190.752C122.921 190.344 122.429 190.044 121.853 190.044C121.337 190.044 120.797 190.248 120.797 190.788C120.797 191.268 121.229 191.448 122.093 191.64C123.173 191.88 124.001 192.324 124.001 193.32C124.001 194.664 122.885 195.156 121.733 195.156C120.869 195.156 119.981 194.82 119.441 194.136L120.245 193.452C120.545 193.896 121.121 194.244 121.757 194.244C122.321 194.244 122.885 194.04 122.885 193.416C122.885 192.888 122.369 192.696 121.397 192.468C120.641 192.288 119.741 191.964 119.741 190.896C119.741 189.672 120.809 189.156 121.889 189.156C122.693 189.156 123.545 189.48 123.953 190.092ZM131.109 189.312V190.236H129.789V195H128.661V190.236H127.533V189.312H128.661V188.124C128.661 186.792 129.249 185.784 130.785 185.784C131.049 185.784 131.277 185.808 131.493 185.868L131.361 186.84C131.193 186.792 131.013 186.756 130.797 186.756C129.945 186.756 129.789 187.428 129.789 188.124V189.312H131.109ZM132.148 190.536C132.148 190.236 132.136 189.684 132.1 189.312H133.168C133.192 189.6 133.216 190.032 133.216 190.272H133.252C133.564 189.612 134.224 189.156 134.992 189.156C135.148 189.156 135.304 189.168 135.436 189.204L135.388 190.248C135.244 190.212 135.052 190.188 134.872 190.188C133.792 190.188 133.276 191.064 133.276 192.012V195H132.148V190.536ZM142.045 192.144C142.045 193.896 140.713 195.156 138.973 195.156C137.233 195.156 135.913 193.896 135.913 192.144C135.913 190.392 137.233 189.156 138.973 189.156C140.713 189.156 142.045 190.392 142.045 192.144ZM140.869 192.144C140.869 191.064 140.197 190.092 138.973 190.092C137.761 190.092 137.076 191.064 137.076 192.144C137.076 193.224 137.761 194.208 138.973 194.208C140.197 194.208 140.869 193.224 140.869 192.144ZM144.713 190.248C145.001 189.648 145.661 189.156 146.525 189.156C147.281 189.156 147.941 189.492 148.289 190.296C148.673 189.564 149.417 189.156 150.221 189.156C151.685 189.156 152.345 190.2 152.345 191.472V195H151.217V191.844C151.217 190.92 150.941 190.104 149.957 190.104C148.925 190.104 148.517 191.04 148.517 191.928V195H147.389V191.616C147.389 190.728 147.089 190.104 146.189 190.104C145.361 190.104 144.737 190.848 144.737 191.976V195H143.609V190.536C143.609 190.236 143.597 189.684 143.561 189.312H144.629C144.653 189.6 144.677 190.008 144.677 190.248H144.713ZM163.009 192.144C163.009 193.896 161.677 195.156 159.937 195.156C158.197 195.156 156.877 193.896 156.877 192.144C156.877 190.392 158.197 189.156 159.937 189.156C161.677 189.156 163.009 190.392 163.009 192.144ZM161.833 192.144C161.833 191.064 161.161 190.092 159.937 190.092C158.725 190.092 158.041 191.064 158.041 192.144C158.041 193.224 158.725 194.208 159.937 194.208C161.161 194.208 161.833 193.224 161.833 192.144ZM167.358 189.312V190.236H165.846V193.2C165.846 193.884 166.086 194.16 166.65 194.16C166.854 194.16 167.118 194.112 167.31 194.016L167.346 194.94C167.082 195.036 166.734 195.096 166.386 195.096C165.318 195.096 164.73 194.496 164.73 193.32V190.236H163.638V189.312H164.73V187.68H165.846V189.312H167.358ZM169.675 190.176H169.699C169.963 189.612 170.683 189.156 171.499 189.156C172.963 189.156 173.623 190.2 173.623 191.472V195H172.495V191.856C172.495 190.932 172.255 190.116 171.211 190.116C170.323 190.116 169.675 190.86 169.675 191.988V195H168.547V185.928H169.675V190.176ZM176.311 191.652H179.695C179.671 190.752 179.143 190.044 178.099 190.044C177.127 190.044 176.383 190.764 176.311 191.652ZM180.835 192.108C180.835 192.228 180.835 192.36 180.823 192.492H176.311C176.347 193.464 177.163 194.22 178.159 194.22C178.927 194.22 179.491 193.836 179.815 193.356L180.607 193.992C179.995 194.784 179.167 195.156 178.159 195.156C176.431 195.156 175.159 193.956 175.159 192.168C175.159 190.392 176.431 189.156 178.099 189.156C179.779 189.156 180.835 190.296 180.835 192.108ZM182.41 190.536C182.41 190.236 182.398 189.684 182.362 189.312H183.43C183.454 189.6 183.478 190.032 183.478 190.272H183.514C183.826 189.612 184.486 189.156 185.254 189.156C185.41 189.156 185.566 189.168 185.698 189.204L185.65 190.248C185.506 190.212 185.314 190.188 185.134 190.188C184.054 190.188 183.538 191.064 183.538 192.012V195H182.41V190.536ZM190.897 194.1H190.873V195H189.781V185.928H190.909V190.164H190.945C191.329 189.612 192.037 189.156 192.973 189.156C194.665 189.156 195.817 190.464 195.817 192.144C195.817 193.812 194.701 195.156 192.949 195.156C192.145 195.156 191.341 194.784 190.897 194.1ZM194.653 192.144C194.653 191.076 193.993 190.092 192.757 190.092C191.605 190.092 190.837 191.064 190.837 192.156C190.837 193.248 191.605 194.208 192.757 194.208C193.993 194.208 194.653 193.212 194.653 192.144ZM202.462 195H201.394C201.37 194.712 201.346 194.304 201.346 194.064H201.322C201.034 194.664 200.29 195.156 199.462 195.156C197.998 195.156 197.338 194.112 197.338 192.84V189.312H198.466V192.456C198.466 193.392 198.718 194.208 199.762 194.208C200.662 194.208 201.286 193.464 201.286 192.336V189.312H202.414V193.776C202.414 194.076 202.426 194.628 202.462 195ZM208.222 190.092L207.442 190.752C207.19 190.344 206.698 190.044 206.122 190.044C205.606 190.044 205.066 190.248 205.066 190.788C205.066 191.268 205.498 191.448 206.362 191.64C207.442 191.88 208.27 192.324 208.27 193.32C208.27 194.664 207.154 195.156 206.002 195.156C205.138 195.156 204.25 194.82 203.71 194.136L204.514 193.452C204.814 193.896 205.39 194.244 206.026 194.244C206.59 194.244 207.154 194.04 207.154 193.416C207.154 192.888 206.638 192.696 205.666 192.468C204.91 192.288 204.01 191.964 204.01 190.896C204.01 189.672 205.078 189.156 206.158 189.156C206.962 189.156 207.814 189.48 208.222 190.092ZM210.842 189.312V195H209.714V189.312H210.842ZM211.034 187.26C211.034 187.668 210.686 187.98 210.278 187.98C209.87 187.98 209.534 187.656 209.534 187.26C209.534 186.852 209.87 186.528 210.278 186.528C210.686 186.528 211.034 186.84 211.034 187.26ZM212.76 189.312H213.828C213.852 189.6 213.876 190.008 213.876 190.248H213.912C214.188 189.636 214.944 189.156 215.76 189.156C217.224 189.156 217.884 190.2 217.884 191.472V195H216.756V191.844C216.756 190.92 216.504 190.104 215.46 190.104C214.572 190.104 213.936 190.848 213.936 191.976V195H212.808V190.536C212.808 190.236 212.796 189.684 212.76 189.312ZM220.572 191.652H223.956C223.932 190.752 223.404 190.044 222.36 190.044C221.388 190.044 220.644 190.764 220.572 191.652ZM225.096 192.108C225.096 192.228 225.096 192.36 225.084 192.492H220.572C220.608 193.464 221.424 194.22 222.42 194.22C223.188 194.22 223.752 193.836 224.076 193.356L224.868 193.992C224.256 194.784 223.428 195.156 222.42 195.156C220.692 195.156 219.42 193.956 219.42 192.168C219.42 190.392 220.692 189.156 222.36 189.156C224.04 189.156 225.096 190.296 225.096 192.108ZM230.523 190.092L229.743 190.752C229.491 190.344 228.999 190.044 228.423 190.044C227.907 190.044 227.367 190.248 227.367 190.788C227.367 191.268 227.799 191.448 228.663 191.64C229.743 191.88 230.571 192.324 230.571 193.32C230.571 194.664 229.455 195.156 228.303 195.156C227.439 195.156 226.551 194.82 226.011 194.136L226.815 193.452C227.115 193.896 227.691 194.244 228.327 194.244C228.891 194.244 229.455 194.04 229.455 193.416C229.455 192.888 228.939 192.696 227.967 192.468C227.211 192.288 226.311 191.964 226.311 190.896C226.311 189.672 227.379 189.156 228.459 189.156C229.263 189.156 230.115 189.48 230.523 190.092ZM235.855 190.092L235.075 190.752C234.823 190.344 234.331 190.044 233.755 190.044C233.239 190.044 232.699 190.248 232.699 190.788C232.699 191.268 233.131 191.448 233.995 191.64C235.075 191.88 235.903 192.324 235.903 193.32C235.903 194.664 234.787 195.156 233.635 195.156C232.771 195.156 231.883 194.82 231.343 194.136L232.147 193.452C232.447 193.896 233.023 194.244 233.659 194.244C234.223 194.244 234.787 194.04 234.787 193.416C234.787 192.888 234.271 192.696 233.299 192.468C232.543 192.288 231.643 191.964 231.643 190.896C231.643 189.672 232.711 189.156 233.791 189.156C234.595 189.156 235.447 189.48 235.855 190.092ZM238.115 191.652H241.499C241.475 190.752 240.947 190.044 239.903 190.044C238.931 190.044 238.187 190.764 238.115 191.652ZM242.639 192.108C242.639 192.228 242.639 192.36 242.627 192.492H238.115C238.151 193.464 238.967 194.22 239.963 194.22C240.731 194.22 241.295 193.836 241.619 193.356L242.411 193.992C241.799 194.784 240.971 195.156 239.963 195.156C238.235 195.156 236.963 193.956 236.963 192.168C236.963 190.392 238.235 189.156 239.903 189.156C241.583 189.156 242.639 190.296 242.639 192.108ZM248.066 190.092L247.286 190.752C247.034 190.344 246.542 190.044 245.966 190.044C245.45 190.044 244.91 190.248 244.91 190.788C244.91 191.268 245.342 191.448 246.206 191.64C247.286 191.88 248.114 192.324 248.114 193.32C248.114 194.664 246.998 195.156 245.846 195.156C244.982 195.156 244.094 194.82 243.554 194.136L244.358 193.452C244.658 193.896 245.234 194.244 245.87 194.244C246.434 194.244 246.998 194.04 246.998 193.416C246.998 192.888 246.482 192.696 245.51 192.468C244.754 192.288 243.854 191.964 243.854 190.896C243.854 189.672 244.922 189.156 246.002 189.156C246.806 189.156 247.658 189.48 248.066 190.092ZM253.698 185.928V195H252.57V185.928H253.698ZM256.803 189.312V195H255.675V189.312H256.803ZM256.995 187.26C256.995 187.668 256.647 187.98 256.239 187.98C255.831 187.98 255.495 187.656 255.495 187.26C255.495 186.852 255.831 186.528 256.239 186.528C256.647 186.528 256.995 186.84 256.995 187.26ZM259.921 185.928V191.784H259.957L262.345 189.312H263.857L261.193 191.892L264.085 195H262.525L259.957 192.048H259.921V195H258.793V185.928H259.921ZM265.666 191.652H269.05C269.026 190.752 268.498 190.044 267.454 190.044C266.482 190.044 265.738 190.764 265.666 191.652ZM270.19 192.108C270.19 192.228 270.19 192.36 270.178 192.492H265.666C265.702 193.464 266.518 194.22 267.514 194.22C268.282 194.22 268.846 193.836 269.17 193.356L269.962 193.992C269.35 194.784 268.522 195.156 267.514 195.156C265.786 195.156 264.514 193.956 264.514 192.168C264.514 190.392 265.786 189.156 267.454 189.156C269.134 189.156 270.19 190.296 270.19 192.108ZM275.161 189.312L276.925 193.776H276.949L278.521 189.312H279.721L276.961 196.344C276.589 197.292 276.109 197.88 274.993 197.88C274.753 197.88 274.501 197.856 274.249 197.796L274.357 196.8C274.537 196.86 274.741 196.896 274.921 196.896C275.509 196.896 275.737 196.56 275.977 195.948L276.337 195L273.901 189.312H275.161ZM286.572 192.144C286.572 193.896 285.24 195.156 283.5 195.156C281.76 195.156 280.44 193.896 280.44 192.144C280.44 190.392 281.76 189.156 283.5 189.156C285.24 189.156 286.572 190.392 286.572 192.144ZM285.396 192.144C285.396 191.064 284.724 190.092 283.5 190.092C282.288 190.092 281.604 191.064 281.604 192.144C281.604 193.224 282.288 194.208 283.5 194.208C284.724 194.208 285.396 193.224 285.396 192.144ZM293.212 195H292.144C292.12 194.712 292.096 194.304 292.096 194.064H292.072C291.784 194.664 291.04 195.156 290.212 195.156C288.748 195.156 288.088 194.112 288.088 192.84V189.312H289.216V192.456C289.216 193.392 289.468 194.208 290.512 194.208C291.412 194.208 292.036 193.464 292.036 192.336V189.312H293.164V193.776C293.164 194.076 293.176 194.628 293.212 195ZM299.248 194.148V197.88H298.12V189.312H299.224V190.2H299.26C299.632 189.6 300.376 189.156 301.312 189.156C303.004 189.156 304.156 190.464 304.156 192.144C304.156 193.812 303.04 195.156 301.288 195.156C300.484 195.156 299.704 194.784 299.284 194.148H299.248ZM302.992 192.144C302.992 191.076 302.332 190.092 301.096 190.092C299.944 190.092 299.176 191.064 299.176 192.156C299.176 193.248 299.944 194.208 301.096 194.208C302.332 194.208 302.992 193.212 302.992 192.144ZM309.266 191.472V191.316C309.266 190.476 308.702 190.068 307.862 190.068C307.226 190.068 306.626 190.344 306.242 190.728L305.642 190.008C306.194 189.48 307.046 189.156 307.97 189.156C309.602 189.156 310.346 190.128 310.346 191.388V193.872C310.346 194.256 310.37 194.724 310.43 195H309.41C309.35 194.748 309.314 194.448 309.314 194.184H309.278C308.87 194.796 308.222 195.144 307.37 195.144C306.47 195.144 305.306 194.7 305.306 193.392C305.306 191.676 307.346 191.472 309.266 191.472ZM309.266 192.288H308.99C307.874 192.288 306.458 192.408 306.458 193.368C306.458 194.04 307.058 194.256 307.622 194.256C308.678 194.256 309.266 193.548 309.266 192.588V192.288ZM312.626 189.312L314.39 193.776H314.414L315.986 189.312H317.186L314.426 196.344C314.054 197.292 313.574 197.88 312.458 197.88C312.218 197.88 311.966 197.856 311.714 197.796L311.822 196.8C312.002 196.86 312.206 196.896 312.386 196.896C312.974 196.896 313.202 196.56 313.442 195.948L313.802 195L311.366 189.312H312.626ZM92.1856 210.172V207.124C90.9376 206.764 89.7736 206.2 89.7736 204.7C89.7736 203.296 90.9136 202.444 92.1856 202.372V201.532H92.7976V202.36C93.6256 202.372 94.5616 202.672 95.1616 203.272L94.3456 204.028C93.9736 203.56 93.3616 203.32 92.7976 203.308V206.164C94.0216 206.572 95.2936 207.136 95.2936 208.72C95.2936 210.232 94.1536 211.108 92.7976 211.132V211.996H92.1856V211.132C91.1176 211.108 90.1696 210.676 89.5096 209.944L90.3856 209.2C90.8176 209.812 91.6216 210.16 92.1856 210.172ZM92.7976 207.292V210.172C93.4936 210.136 94.1416 209.68 94.1416 208.732C94.1416 207.976 93.5656 207.544 92.7976 207.292ZM92.1856 205.984V203.308C91.4896 203.356 90.9136 203.836 90.9136 204.628C90.9136 205.384 91.4416 205.768 92.1856 205.984ZM101.566 202.504V208.096H102.79V209.092H101.566V211H100.438V209.092H96.5263V208.036L100.138 202.504H101.566ZM100.438 208.096V203.836H100.414L97.7263 208.096H100.438ZM105.391 211L107.671 207.568L107.659 207.556C107.539 207.628 107.359 207.688 107.167 207.724C106.975 207.76 106.771 207.784 106.591 207.784C105.103 207.784 103.939 206.668 103.939 205.12C103.939 203.428 105.211 202.288 106.879 202.288C108.559 202.288 109.807 203.476 109.807 205.084C109.807 206.008 109.471 206.716 108.991 207.496L106.771 211H105.391ZM108.643 205.072C108.643 204.076 107.935 203.26 106.879 203.26C105.835 203.26 105.115 204.028 105.115 205.084C105.115 206.104 105.811 206.86 106.867 206.86C107.935 206.86 108.643 206.116 108.643 205.072ZM112.792 210.28C112.792 210.7 112.444 211.072 111.988 211.072C111.544 211.072 111.184 210.712 111.184 210.292C111.184 209.86 111.532 209.5 111.988 209.5C112.444 209.5 112.792 209.848 112.792 210.28ZM115.645 211L117.925 207.568L117.913 207.556C117.793 207.628 117.613 207.688 117.421 207.724C117.229 207.76 117.025 207.784 116.845 207.784C115.357 207.784 114.193 206.668 114.193 205.12C114.193 203.428 115.465 202.288 117.133 202.288C118.813 202.288 120.061 203.476 120.061 205.084C120.061 206.008 119.725 206.716 119.245 207.496L117.025 211H115.645ZM118.897 205.072C118.897 204.076 118.189 203.26 117.133 203.26C116.089 203.26 115.369 204.028 115.369 205.084C115.369 206.104 116.065 206.86 117.121 206.86C118.189 206.86 118.897 206.116 118.897 205.072ZM122.782 211L125.062 207.568L125.05 207.556C124.93 207.628 124.75 207.688 124.558 207.724C124.366 207.76 124.162 207.784 123.982 207.784C122.494 207.784 121.33 206.668 121.33 205.12C121.33 203.428 122.602 202.288 124.27 202.288C125.95 202.288 127.198 203.476 127.198 205.084C127.198 206.008 126.862 206.716 126.382 207.496L124.162 211H122.782ZM126.034 205.072C126.034 204.076 125.326 203.26 124.27 203.26C123.226 203.26 122.506 204.028 122.506 205.084C122.506 206.104 123.202 206.86 124.258 206.86C125.326 206.86 126.034 206.116 126.034 205.072ZM134.466 205.312V206.236H133.146V211H132.018V206.236H130.89V205.312H132.018V204.124C132.018 202.792 132.606 201.784 134.142 201.784C134.406 201.784 134.634 201.808 134.85 201.868L134.718 202.84C134.55 202.792 134.37 202.756 134.154 202.756C133.302 202.756 133.146 203.428 133.146 204.124V205.312H134.466ZM141.265 208.144C141.265 209.896 139.933 211.156 138.193 211.156C136.453 211.156 135.133 209.896 135.133 208.144C135.133 206.392 136.453 205.156 138.193 205.156C139.933 205.156 141.265 206.392 141.265 208.144ZM140.089 208.144C140.089 207.064 139.417 206.092 138.193 206.092C136.981 206.092 136.297 207.064 136.297 208.144C136.297 209.224 136.981 210.208 138.193 210.208C139.417 210.208 140.089 209.224 140.089 208.144ZM142.829 206.536C142.829 206.236 142.817 205.684 142.781 205.312H143.849C143.873 205.6 143.897 206.032 143.897 206.272H143.933C144.245 205.612 144.905 205.156 145.673 205.156C145.829 205.156 145.985 205.168 146.117 205.204L146.069 206.248C145.925 206.212 145.733 206.188 145.553 206.188C144.473 206.188 143.957 207.064 143.957 208.012V211H142.829V206.536ZM156.573 209.032L157.521 209.68C156.861 210.58 155.769 211.216 154.281 211.216C151.677 211.216 149.805 209.356 149.805 206.74C149.805 204.088 151.749 202.288 154.329 202.288C155.493 202.288 156.753 202.744 157.377 203.608L156.441 204.328C156.033 203.752 155.205 203.332 154.329 203.332C152.361 203.332 151.101 204.88 151.101 206.74C151.101 208.648 152.337 210.16 154.293 210.16C155.241 210.16 156.069 209.764 156.573 209.032ZM159.825 206.176H159.849C160.113 205.612 160.833 205.156 161.649 205.156C163.113 205.156 163.773 206.2 163.773 207.472V211H162.645V207.856C162.645 206.932 162.405 206.116 161.361 206.116C160.473 206.116 159.825 206.86 159.825 207.988V211H158.697V201.928H159.825V206.176ZM169.221 207.472V207.316C169.221 206.476 168.657 206.068 167.817 206.068C167.181 206.068 166.581 206.344 166.197 206.728L165.597 206.008C166.149 205.48 167.001 205.156 167.925 205.156C169.557 205.156 170.301 206.128 170.301 207.388V209.872C170.301 210.256 170.325 210.724 170.385 211H169.365C169.305 210.748 169.269 210.448 169.269 210.184H169.233C168.825 210.796 168.177 211.144 167.325 211.144C166.425 211.144 165.261 210.7 165.261 209.392C165.261 207.676 167.301 207.472 169.221 207.472ZM169.221 208.288H168.945C167.829 208.288 166.413 208.408 166.413 209.368C166.413 210.04 167.013 210.256 167.577 210.256C168.633 210.256 169.221 209.548 169.221 208.588V208.288ZM173.289 206.248C173.577 205.648 174.237 205.156 175.101 205.156C175.857 205.156 176.517 205.492 176.865 206.296C177.249 205.564 177.993 205.156 178.797 205.156C180.261 205.156 180.921 206.2 180.921 207.472V211H179.793V207.844C179.793 206.92 179.517 206.104 178.533 206.104C177.501 206.104 177.093 207.04 177.093 207.928V211H175.965V207.616C175.965 206.728 175.665 206.104 174.765 206.104C173.937 206.104 173.313 206.848 173.313 207.976V211H172.185V206.536C172.185 206.236 172.173 205.684 172.137 205.312H173.205C173.229 205.6 173.253 206.008 173.253 206.248H173.289ZM183.954 210.148V213.88H182.826V205.312H183.93V206.2H183.966C184.338 205.6 185.082 205.156 186.018 205.156C187.71 205.156 188.862 206.464 188.862 208.144C188.862 209.812 187.746 211.156 185.994 211.156C185.19 211.156 184.41 210.784 183.99 210.148H183.954ZM187.698 208.144C187.698 207.076 187.038 206.092 185.802 206.092C184.65 206.092 183.882 207.064 183.882 208.156C183.882 209.248 184.65 210.208 185.802 210.208C187.038 210.208 187.698 209.212 187.698 208.144ZM191.571 205.312V211H190.443V205.312H191.571ZM191.763 203.26C191.763 203.668 191.415 203.98 191.007 203.98C190.599 203.98 190.263 203.656 190.263 203.26C190.263 202.852 190.599 202.528 191.007 202.528C191.415 202.528 191.763 202.84 191.763 203.26ZM199.296 208.144C199.296 209.896 197.964 211.156 196.224 211.156C194.484 211.156 193.164 209.896 193.164 208.144C193.164 206.392 194.484 205.156 196.224 205.156C197.964 205.156 199.296 206.392 199.296 208.144ZM198.12 208.144C198.12 207.064 197.448 206.092 196.224 206.092C195.012 206.092 194.328 207.064 194.328 208.144C194.328 209.224 195.012 210.208 196.224 210.208C197.448 210.208 198.12 209.224 198.12 208.144ZM200.813 205.312H201.881C201.905 205.6 201.929 206.008 201.929 206.248H201.965C202.241 205.636 202.997 205.156 203.813 205.156C205.277 205.156 205.937 206.2 205.937 207.472V211H204.809V207.844C204.809 206.92 204.557 206.104 203.513 206.104C202.625 206.104 201.989 206.848 201.989 207.976V211H200.861V206.536C200.861 206.236 200.849 205.684 200.813 205.312ZM210.905 211V202.504H212.093V206.056H216.389V202.504H217.589V211H216.389V207.112H212.093V211H210.905ZM225.347 208.144C225.347 209.896 224.015 211.156 222.275 211.156C220.535 211.156 219.215 209.896 219.215 208.144C219.215 206.392 220.535 205.156 222.275 205.156C224.015 205.156 225.347 206.392 225.347 208.144ZM224.171 208.144C224.171 207.064 223.499 206.092 222.275 206.092C221.063 206.092 220.379 207.064 220.379 208.144C220.379 209.224 221.063 210.208 222.275 210.208C223.499 210.208 224.171 209.224 224.171 208.144ZM232.671 208.144C232.671 209.896 231.339 211.156 229.599 211.156C227.859 211.156 226.539 209.896 226.539 208.144C226.539 206.392 227.859 205.156 229.599 205.156C231.339 205.156 232.671 206.392 232.671 208.144ZM231.495 208.144C231.495 207.064 230.823 206.092 229.599 206.092C228.387 206.092 227.703 207.064 227.703 208.144C227.703 209.224 228.387 210.208 229.599 210.208C230.823 210.208 231.495 209.224 231.495 208.144ZM238.772 210.1C238.34 210.784 237.524 211.156 236.72 211.156C234.968 211.156 233.852 209.812 233.852 208.144C233.852 206.464 235.004 205.156 236.708 205.156C237.632 205.156 238.34 205.612 238.736 206.164H238.76V201.928H239.888V211H238.796V210.1H238.772ZM235.028 208.144C235.028 209.212 235.676 210.208 236.912 210.208C238.064 210.208 238.832 209.248 238.832 208.156C238.832 207.064 238.064 206.092 236.912 206.092C235.676 206.092 235.028 207.076 235.028 208.144ZM242.993 205.312V211H241.865V205.312H242.993ZM243.185 203.26C243.185 203.668 242.837 203.98 242.429 203.98C242.021 203.98 241.685 203.656 241.685 203.26C241.685 202.852 242.021 202.528 242.429 202.528C242.837 202.528 243.185 202.84 243.185 203.26ZM245.738 207.652H249.122C249.098 206.752 248.57 206.044 247.526 206.044C246.554 206.044 245.81 206.764 245.738 207.652ZM250.262 208.108C250.262 208.228 250.262 208.36 250.25 208.492H245.738C245.774 209.464 246.59 210.22 247.586 210.22C248.354 210.22 248.918 209.836 249.242 209.356L250.034 209.992C249.422 210.784 248.594 211.156 247.586 211.156C245.858 211.156 244.586 209.956 244.586 208.168C244.586 206.392 245.858 205.156 247.526 205.156C249.206 205.156 250.262 206.296 250.262 208.108ZM253.229 210.28C253.229 210.7 252.881 211.072 252.425 211.072C251.981 211.072 251.621 210.712 251.621 210.292C251.621 209.86 251.969 209.5 252.425 209.5C252.881 209.5 253.229 209.848 253.229 210.28Z" fill="#6B6C72"/>
<path d="M33.2277 246V236.088H36.6717C38.5337 236.088 40.3257 236.83 40.3257 238.93C40.3257 240.358 39.4437 241.296 38.0577 241.604L40.7037 246H38.5757L36.2797 241.8H34.9917V246H33.2277ZM34.9917 240.358H36.4337C37.4277 240.358 38.5617 240.12 38.5617 238.916C38.5617 237.838 37.4977 237.572 36.5877 237.572H34.9917V240.358ZM43.0724 241.968H46.5164C46.5164 241.1 46.0264 240.344 44.9344 240.344C43.9404 240.344 43.1424 241.03 43.0724 241.968ZM48.1964 242.724C48.1964 242.878 48.1964 243.018 48.1824 243.172H43.0724C43.1424 244.124 44.0104 244.824 44.9904 244.824C45.8304 244.824 46.3904 244.488 46.7684 243.956L47.8884 244.852C47.2304 245.748 46.2784 246.196 45.0044 246.196C42.9324 246.196 41.3924 244.866 41.3924 242.682C41.3924 240.512 42.9184 239.084 44.9484 239.084C46.8244 239.084 48.1964 240.302 48.1964 242.724ZM55.5634 240.134L54.4154 241.142C54.1494 240.764 53.5754 240.484 53.0294 240.484C51.7974 240.484 51.1814 241.59 51.1814 242.64C51.1814 243.69 51.8114 244.796 53.0854 244.796C53.6034 244.796 54.1774 244.586 54.4994 244.194L55.5494 245.258C54.9894 245.86 54.0654 246.196 53.0714 246.196C51.0834 246.196 49.4314 244.88 49.4314 242.64C49.4314 240.456 51.0554 239.084 53.0294 239.084C54.0094 239.084 55.0314 239.476 55.5634 240.134ZM56.2674 242.612C56.2674 240.498 57.8914 239.084 59.9214 239.084C61.9514 239.084 63.5754 240.498 63.5754 242.612C63.5754 244.726 61.9514 246.196 59.9214 246.196C57.8914 246.196 56.2674 244.726 56.2674 242.612ZM57.9754 242.612C57.9754 243.662 58.5914 244.796 59.9214 244.796C61.2514 244.796 61.8674 243.662 61.8674 242.612C61.8674 241.562 61.2514 240.456 59.9214 240.456C58.5914 240.456 57.9754 241.562 57.9754 242.612ZM73.2263 239.084C74.9763 239.084 75.7043 240.428 75.7043 241.8V246H74.0243V242.276C74.0243 241.478 73.8423 240.484 72.7643 240.484C71.7143 240.484 71.2803 241.464 71.2803 242.332V246H69.6003V241.94C69.6003 241.114 69.2083 240.484 68.3543 240.484C67.3463 240.484 66.8843 241.408 66.8843 242.304V246H65.2043V239.28H66.8003V240.358H66.8283C67.1223 239.7 67.8363 239.084 68.9143 239.084C69.9503 239.084 70.6363 239.602 71.0143 240.358C71.4623 239.546 72.2183 239.084 73.2263 239.084ZM85.6814 239.084C87.4314 239.084 88.1594 240.428 88.1594 241.8V246H86.4794V242.276C86.4794 241.478 86.2974 240.484 85.2194 240.484C84.1694 240.484 83.7354 241.464 83.7354 242.332V246H82.0554V241.94C82.0554 241.114 81.6634 240.484 80.8094 240.484C79.8014 240.484 79.3394 241.408 79.3394 242.304V246H77.6594V239.28H79.2554V240.358H79.2834C79.5774 239.7 80.2914 239.084 81.3694 239.084C82.4054 239.084 83.0914 239.602 83.4694 240.358C83.9174 239.546 84.6734 239.084 85.6814 239.084ZM91.4024 241.968H94.8464C94.8464 241.1 94.3564 240.344 93.2644 240.344C92.2704 240.344 91.4724 241.03 91.4024 241.968ZM96.5264 242.724C96.5264 242.878 96.5264 243.018 96.5124 243.172H91.4024C91.4724 244.124 92.3404 244.824 93.3204 244.824C94.1604 244.824 94.7204 244.488 95.0984 243.956L96.2184 244.852C95.5604 245.748 94.6084 246.196 93.3344 246.196C91.2624 246.196 89.7224 244.866 89.7224 242.682C89.7224 240.512 91.2484 239.084 93.2784 239.084C95.1544 239.084 96.5264 240.302 96.5264 242.724ZM98.1535 246V239.28H99.7495V240.358H99.7775C100.072 239.686 100.87 239.084 101.864 239.084C103.614 239.084 104.342 240.428 104.342 241.8V246H102.662V242.276C102.662 241.478 102.48 240.484 101.402 240.484C100.338 240.484 99.8335 241.408 99.8335 242.304V246H98.1535ZM113.134 235.416V246H111.538V244.992H111.51C111.048 245.762 110.138 246.196 109.2 246.196C107.156 246.196 105.896 244.572 105.896 242.612C105.896 240.624 107.24 239.084 109.158 239.084C110.39 239.084 111.062 239.7 111.412 240.134H111.454V235.416H113.134ZM107.604 242.612C107.604 243.662 108.234 244.796 109.536 244.796C110.768 244.796 111.51 243.69 111.51 242.64C111.51 241.59 110.768 240.456 109.536 240.456C108.234 240.456 107.604 241.562 107.604 242.612ZM119.347 246V245.146H119.305C118.969 245.734 118.171 246.168 117.219 246.168C116.141 246.168 114.699 245.65 114.699 244.082C114.699 242.08 117.219 241.8 119.319 241.8V241.632C119.319 240.806 118.619 240.4 117.779 240.4C117.065 240.4 116.379 240.736 115.945 241.17L115.077 240.148C115.833 239.448 116.897 239.084 117.919 239.084C120.327 239.084 120.915 240.568 120.915 241.912V246H119.347ZM119.319 243.172V242.934H118.941C117.877 242.934 116.379 243.06 116.379 244.054C116.379 244.698 116.981 244.894 117.555 244.894C118.703 244.894 119.319 244.236 119.319 243.172ZM122.946 240.624H121.77V239.28H122.946V237.334H124.598V239.28H126.278V240.624H124.598V243.746C124.598 244.348 124.738 244.782 125.48 244.782C125.704 244.782 125.998 244.74 126.194 244.642L126.25 245.958C125.956 246.07 125.508 246.14 125.13 246.14C123.352 246.14 122.946 245.048 122.946 243.76V240.624ZM127.521 246V239.28H129.201V246H127.521ZM127.283 236.998C127.283 236.466 127.731 235.99 128.347 235.99C128.963 235.99 129.439 236.424 129.439 236.998C129.439 237.572 128.963 238.006 128.347 238.006C127.731 238.006 127.283 237.53 127.283 236.998ZM130.847 242.612C130.847 240.498 132.471 239.084 134.501 239.084C136.531 239.084 138.155 240.498 138.155 242.612C138.155 244.726 136.531 246.196 134.501 246.196C132.471 246.196 130.847 244.726 130.847 242.612ZM132.555 242.612C132.555 243.662 133.171 244.796 134.501 244.796C135.831 244.796 136.447 243.662 136.447 242.612C136.447 241.562 135.831 240.456 134.501 240.456C133.171 240.456 132.555 241.562 132.555 242.612ZM139.784 246V239.28H141.38V240.358H141.408C141.702 239.686 142.5 239.084 143.494 239.084C145.244 239.084 145.972 240.428 145.972 241.8V246H144.292V242.276C144.292 241.478 144.11 240.484 143.032 240.484C141.968 240.484 141.464 241.408 141.464 242.304V246H139.784ZM147.905 245.02C147.905 244.418 148.409 243.928 149.025 243.928C149.627 243.928 150.145 244.39 150.145 244.992C150.145 245.594 149.641 246.084 149.025 246.084C148.437 246.084 147.905 245.622 147.905 245.02ZM147.905 240.288C147.905 239.686 148.409 239.196 149.025 239.196C149.627 239.196 150.145 239.658 150.145 240.26C150.145 240.862 149.641 241.352 149.025 241.352C148.437 241.352 147.905 240.89 147.905 240.288ZM155.658 246V239.28H157.338V246H155.658ZM155.42 236.998C155.42 236.466 155.868 235.99 156.484 235.99C157.1 235.99 157.576 236.424 157.576 236.998C157.576 237.572 157.1 238.006 156.484 238.006C155.868 238.006 155.42 237.53 155.42 236.998ZM159.376 246V239.28H160.972V240.358H161C161.294 239.686 162.092 239.084 163.086 239.084C164.836 239.084 165.564 240.428 165.564 241.8V246H163.884V242.276C163.884 241.478 163.702 240.484 162.624 240.484C161.56 240.484 161.056 241.408 161.056 242.304V246H159.376ZM173.265 240.134L172.117 241.142C171.851 240.764 171.277 240.484 170.731 240.484C169.499 240.484 168.883 241.59 168.883 242.64C168.883 243.69 169.513 244.796 170.787 244.796C171.305 244.796 171.879 244.586 172.201 244.194L173.251 245.258C172.691 245.86 171.767 246.196 170.773 246.196C168.785 246.196 167.133 244.88 167.133 242.64C167.133 240.456 168.757 239.084 170.731 239.084C171.711 239.084 172.733 239.476 173.265 240.134ZM174.361 246V239.28H175.971V240.4H175.999C176.363 239.63 177.077 239.084 177.959 239.084C178.085 239.084 178.253 239.098 178.365 239.126V240.666C178.141 240.61 178.001 240.596 177.847 240.596C176.335 240.596 176.041 241.912 176.041 242.402V246H174.361ZM180.502 241.968H183.946C183.946 241.1 183.456 240.344 182.364 240.344C181.37 240.344 180.572 241.03 180.502 241.968ZM185.626 242.724C185.626 242.878 185.626 243.018 185.612 243.172H180.502C180.572 244.124 181.44 244.824 182.42 244.824C183.26 244.824 183.82 244.488 184.198 243.956L185.318 244.852C184.66 245.748 183.708 246.196 182.434 246.196C180.362 246.196 178.822 244.866 178.822 242.682C178.822 240.512 180.348 239.084 182.378 239.084C184.254 239.084 185.626 240.302 185.626 242.724ZM191.343 246V245.146H191.301C190.965 245.734 190.167 246.168 189.215 246.168C188.137 246.168 186.695 245.65 186.695 244.082C186.695 242.08 189.215 241.8 191.315 241.8V241.632C191.315 240.806 190.615 240.4 189.775 240.4C189.061 240.4 188.375 240.736 187.941 241.17L187.073 240.148C187.829 239.448 188.893 239.084 189.915 239.084C192.323 239.084 192.911 240.568 192.911 241.912V246H191.343ZM191.315 243.172V242.934H190.937C189.873 242.934 188.375 243.06 188.375 244.054C188.375 244.698 188.977 244.894 189.551 244.894C190.699 244.894 191.315 244.236 191.315 243.172ZM199.642 240.106L198.55 241.072C198.256 240.68 197.696 240.344 197.08 240.344C196.548 240.344 196.002 240.54 196.002 241.072C196.002 241.59 196.52 241.73 197.458 241.954C198.452 242.192 199.628 242.64 199.628 243.956C199.628 245.594 198.298 246.196 196.828 246.196C195.792 246.196 194.714 245.804 194.07 245.09L195.176 244.054C195.54 244.53 196.17 244.894 196.898 244.894C197.388 244.894 197.976 244.698 197.976 244.096C197.976 243.536 197.458 243.368 196.436 243.13C195.442 242.892 194.448 242.486 194.448 241.226C194.448 239.728 195.792 239.084 197.122 239.084C198.088 239.084 199.096 239.42 199.642 240.106ZM202.377 241.968H205.821C205.821 241.1 205.331 240.344 204.239 240.344C203.245 240.344 202.447 241.03 202.377 241.968ZM207.501 242.724C207.501 242.878 207.501 243.018 207.487 243.172H202.377C202.447 244.124 203.315 244.824 204.295 244.824C205.135 244.824 205.695 244.488 206.073 243.956L207.193 244.852C206.535 245.748 205.583 246.196 204.309 246.196C202.237 246.196 200.697 244.866 200.697 242.682C200.697 240.512 202.223 239.084 204.253 239.084C206.129 239.084 207.501 240.302 207.501 242.724ZM212.628 239.28H214.238V240.218H214.28C214.616 239.686 215.372 239.084 216.604 239.084C218.522 239.084 219.866 240.624 219.866 242.612C219.866 244.572 218.606 246.196 216.562 246.196C215.624 246.196 214.77 245.776 214.336 245.104H214.308V249.36H212.628V239.28ZM218.158 242.612C218.158 241.562 217.528 240.456 216.226 240.456C214.994 240.456 214.252 241.59 214.252 242.64C214.252 243.69 214.994 244.796 216.226 244.796C217.528 244.796 218.158 243.662 218.158 242.612ZM221.487 246V239.28H223.097V240.4H223.125C223.489 239.63 224.203 239.084 225.085 239.084C225.211 239.084 225.379 239.098 225.491 239.126V240.666C225.267 240.61 225.127 240.596 224.973 240.596C223.461 240.596 223.167 241.912 223.167 242.402V246H221.487ZM226.615 246V239.28H228.295V246H226.615ZM226.377 236.998C226.377 236.466 226.825 235.99 227.441 235.99C228.057 235.99 228.533 236.424 228.533 236.998C228.533 237.572 228.057 238.006 227.441 238.006C226.825 238.006 226.377 237.53 226.377 236.998ZM236.073 240.134L234.925 241.142C234.659 240.764 234.085 240.484 233.539 240.484C232.307 240.484 231.691 241.59 231.691 242.64C231.691 243.69 232.321 244.796 233.595 244.796C234.113 244.796 234.687 244.586 235.009 244.194L236.059 245.258C235.499 245.86 234.575 246.196 233.581 246.196C231.593 246.196 229.941 244.88 229.941 242.64C229.941 240.456 231.565 239.084 233.539 239.084C234.519 239.084 235.541 239.476 236.073 240.134ZM238.457 241.968H241.901C241.901 241.1 241.411 240.344 240.319 240.344C239.325 240.344 238.527 241.03 238.457 241.968ZM243.581 242.724C243.581 242.878 243.581 243.018 243.567 243.172H238.457C238.527 244.124 239.395 244.824 240.375 244.824C241.215 244.824 241.775 244.488 242.153 243.956L243.273 244.852C242.615 245.748 241.663 246.196 240.389 246.196C238.317 246.196 236.777 244.866 236.777 242.682C236.777 240.512 238.303 239.084 240.333 239.084C242.209 239.084 243.581 240.302 243.581 242.724ZM248.918 240.624H247.742V239.28H248.918V237.334H250.57V239.28H252.25V240.624H250.57V243.746C250.57 244.348 250.71 244.782 251.452 244.782C251.676 244.782 251.97 244.74 252.166 244.642L252.222 245.958C251.928 246.07 251.48 246.14 251.102 246.14C249.324 246.14 248.918 245.048 248.918 243.76V240.624ZM253.074 242.612C253.074 240.498 254.698 239.084 256.728 239.084C258.758 239.084 260.382 240.498 260.382 242.612C260.382 244.726 258.758 246.196 256.728 246.196C254.698 246.196 253.074 244.726 253.074 242.612ZM254.782 242.612C254.782 243.662 255.398 244.796 256.728 244.796C258.058 244.796 258.674 243.662 258.674 242.612C258.674 241.562 258.058 240.456 256.728 240.456C255.398 240.456 254.782 241.562 254.782 242.612ZM269.123 234.996V235.92C270.145 235.934 271.279 236.256 272.035 236.914L270.901 238.09C270.467 237.614 269.767 237.348 269.123 237.348V240.176C270.551 240.624 272.105 241.282 272.105 243.172C272.105 245.118 270.677 246.112 269.123 246.154V247.162H268.367V246.154C267.135 246.112 265.959 245.706 265.077 244.852L266.309 243.676C266.813 244.264 267.653 244.698 268.367 244.712V241.604C266.729 241.156 265.441 240.512 265.441 238.72C265.441 237.054 266.869 236.046 268.367 235.948V234.996H269.123ZM268.367 239.98V237.348C267.709 237.418 267.121 237.824 267.121 238.636C267.121 239.406 267.653 239.77 268.367 239.98ZM269.123 241.828V244.712C269.907 244.67 270.425 244.096 270.425 243.27C270.425 242.444 269.865 242.08 269.123 241.828ZM277.92 246V243.942H273.342V242.458L277.556 236.088H279.572V242.5H280.958V243.942H279.572V246H277.92ZM277.92 242.5V238.062H277.892L275.078 242.5H277.92ZM285.989 246H283.945L286.493 242.318L286.479 242.304C286.199 242.43 285.751 242.486 285.415 242.486C283.665 242.486 282.251 241.114 282.251 239.308C282.251 237.208 283.833 235.836 285.863 235.836C287.935 235.836 289.489 237.32 289.489 239.238C289.489 240.372 289.111 241.142 288.467 242.164L285.989 246ZM287.781 239.196C287.781 238.16 287.039 237.236 285.877 237.236C284.743 237.236 283.973 238.048 283.973 239.224C283.973 240.344 284.729 241.156 285.849 241.156C286.983 241.156 287.781 240.358 287.781 239.196ZM290.838 245.02C290.838 244.418 291.342 243.928 291.958 243.928C292.56 243.928 293.078 244.39 293.078 244.992C293.078 245.594 292.574 246.084 291.958 246.084C291.37 246.084 290.838 245.622 290.838 245.02ZM298.17 246H296.126L298.674 242.318L298.66 242.304C298.38 242.43 297.932 242.486 297.596 242.486C295.846 242.486 294.432 241.114 294.432 239.308C294.432 237.208 296.014 235.836 298.044 235.836C300.116 235.836 301.67 237.32 301.67 239.238C301.67 240.372 301.292 241.142 300.648 242.164L298.17 246ZM299.962 239.196C299.962 238.16 299.22 237.236 298.058 237.236C296.924 237.236 296.154 238.048 296.154 239.224C296.154 240.344 296.91 241.156 298.03 241.156C299.164 241.156 299.962 240.358 299.962 239.196ZM306.715 246H304.671L307.219 242.318L307.205 242.304C306.925 242.43 306.477 242.486 306.141 242.486C304.391 242.486 302.977 241.114 302.977 239.308C302.977 237.208 304.559 235.836 306.589 235.836C308.661 235.836 310.215 237.32 310.215 239.238C310.215 240.372 309.837 241.142 309.193 242.164L306.715 246ZM308.507 239.196C308.507 238.16 307.765 237.236 306.603 237.236C305.469 237.236 304.699 238.048 304.699 239.224C304.699 240.344 305.455 241.156 306.575 241.156C307.709 241.156 308.507 240.358 308.507 239.196Z" fill="#393A3D"/>
<path d="M112.818 255.208V257.872H115.482V258.856H112.818V261.52H111.834V258.856H109.17V257.872H111.834V255.208H112.818ZM119.49 261.172V258.124C118.242 257.764 117.078 257.2 117.078 255.7C117.078 254.296 118.218 253.444 119.49 253.372V252.532H120.102V253.36C120.93 253.372 121.866 253.672 122.466 254.272L121.65 255.028C121.278 254.56 120.666 254.32 120.102 254.308V257.164C121.326 257.572 122.598 258.136 122.598 259.72C122.598 261.232 121.458 262.108 120.102 262.132V262.996H119.49V262.132C118.422 262.108 117.474 261.676 116.814 260.944L117.69 260.2C118.122 260.812 118.926 261.16 119.49 261.172ZM120.102 258.292V261.172C120.798 261.136 121.446 260.68 121.446 259.732C121.446 258.976 120.87 258.544 120.102 258.292ZM119.49 256.984V254.308C118.794 254.356 118.218 254.836 118.218 255.628C118.218 256.384 118.746 256.768 119.49 256.984ZM128.007 253.504V262H126.843V254.92L125.235 256.264L124.551 255.46L126.963 253.504H128.007ZM134.172 253.288C136.188 253.288 137.064 255.28 137.064 257.752C137.064 260.236 136.188 262.216 134.172 262.216C132.144 262.216 131.268 260.236 131.268 257.752C131.268 255.28 132.144 253.288 134.172 253.288ZM134.172 254.26C132.768 254.26 132.456 256.324 132.456 257.752C132.456 259.192 132.768 261.232 134.172 261.232C135.552 261.232 135.876 259.192 135.876 257.752C135.876 256.324 135.552 254.26 134.172 254.26ZM140.096 261.28C140.096 261.7 139.748 262.072 139.292 262.072C138.848 262.072 138.488 261.712 138.488 261.292C138.488 260.86 138.836 260.5 139.292 260.5C139.748 260.5 140.096 260.848 140.096 261.28ZM144.426 253.288C146.442 253.288 147.318 255.28 147.318 257.752C147.318 260.236 146.442 262.216 144.426 262.216C142.398 262.216 141.522 260.236 141.522 257.752C141.522 255.28 142.398 253.288 144.426 253.288ZM144.426 254.26C143.022 254.26 142.71 256.324 142.71 257.752C142.71 259.192 143.022 261.232 144.426 261.232C145.806 261.232 146.13 259.192 146.13 257.752C146.13 256.324 145.806 254.26 144.426 254.26ZM151.562 253.288C153.578 253.288 154.454 255.28 154.454 257.752C154.454 260.236 153.578 262.216 151.562 262.216C149.534 262.216 148.658 260.236 148.658 257.752C148.658 255.28 149.534 253.288 151.562 253.288ZM151.562 254.26C150.158 254.26 149.846 256.324 149.846 257.752C149.846 259.192 150.158 261.232 151.562 261.232C152.942 261.232 153.266 259.192 153.266 257.752C153.266 256.324 152.942 254.26 151.562 254.26ZM160.223 261.148V264.88H159.095V256.312H160.199V257.2H160.235C160.607 256.6 161.351 256.156 162.287 256.156C163.979 256.156 165.131 257.464 165.131 259.144C165.131 260.812 164.015 262.156 162.263 262.156C161.459 262.156 160.679 261.784 160.259 261.148H160.223ZM163.967 259.144C163.967 258.076 163.307 257.092 162.071 257.092C160.919 257.092 160.151 258.064 160.151 259.156C160.151 260.248 160.919 261.208 162.071 261.208C163.307 261.208 163.967 260.212 163.967 259.144ZM166.701 257.536C166.701 257.236 166.689 256.684 166.653 256.312H167.721C167.745 256.6 167.769 257.032 167.769 257.272H167.805C168.117 256.612 168.777 256.156 169.545 256.156C169.701 256.156 169.857 256.168 169.989 256.204L169.941 257.248C169.797 257.212 169.605 257.188 169.425 257.188C168.345 257.188 167.829 258.064 167.829 259.012V262H166.701V257.536ZM172.188 256.312V262H171.06V256.312H172.188ZM172.38 254.26C172.38 254.668 172.032 254.98 171.624 254.98C171.216 254.98 170.88 254.656 170.88 254.26C170.88 253.852 171.216 253.528 171.624 253.528C172.032 253.528 172.38 253.84 172.38 254.26ZM178.954 257.092L178.138 257.752C177.898 257.38 177.37 257.104 176.83 257.104C175.654 257.104 174.97 258.064 174.97 259.156C174.97 260.236 175.654 261.208 176.842 261.208C177.418 261.208 177.91 260.968 178.21 260.584L178.966 261.268C178.486 261.82 177.754 262.156 176.842 262.156C175.09 262.156 173.782 260.968 173.782 259.156C173.782 257.368 175.078 256.156 176.818 256.156C177.622 256.156 178.486 256.48 178.954 257.092ZM180.863 258.652H184.247C184.223 257.752 183.695 257.044 182.651 257.044C181.679 257.044 180.935 257.764 180.863 258.652ZM185.387 259.108C185.387 259.228 185.387 259.36 185.375 259.492H180.863C180.899 260.464 181.715 261.22 182.711 261.22C183.479 261.22 184.043 260.836 184.367 260.356L185.159 260.992C184.547 261.784 183.719 262.156 182.711 262.156C180.983 262.156 179.711 260.956 179.711 259.168C179.711 257.392 180.983 256.156 182.651 256.156C184.331 256.156 185.387 257.296 185.387 259.108ZM191.102 256.312V262H189.974V256.312H191.102ZM191.294 254.26C191.294 254.668 190.946 254.98 190.538 254.98C190.13 254.98 189.794 254.656 189.794 254.26C189.794 253.852 190.13 253.528 190.538 253.528C190.946 253.528 191.294 253.84 191.294 254.26ZM193.02 256.312H194.088C194.112 256.6 194.136 257.008 194.136 257.248H194.172C194.448 256.636 195.204 256.156 196.02 256.156C197.484 256.156 198.144 257.2 198.144 258.472V262H197.016V258.844C197.016 257.92 196.764 257.104 195.72 257.104C194.832 257.104 194.196 257.848 194.196 258.976V262H193.068V257.536C193.068 257.236 193.056 256.684 193.02 256.312ZM204.852 257.092L204.036 257.752C203.796 257.38 203.268 257.104 202.728 257.104C201.552 257.104 200.868 258.064 200.868 259.156C200.868 260.236 201.552 261.208 202.74 261.208C203.316 261.208 203.808 260.968 204.108 260.584L204.864 261.268C204.384 261.82 203.652 262.156 202.74 262.156C200.988 262.156 199.68 260.968 199.68 259.156C199.68 257.368 200.976 256.156 202.716 256.156C203.52 256.156 204.384 256.48 204.852 257.092ZM205.982 257.536C205.982 257.236 205.97 256.684 205.934 256.312H207.002C207.026 256.6 207.05 257.032 207.05 257.272H207.086C207.398 256.612 208.058 256.156 208.826 256.156C208.982 256.156 209.138 256.168 209.27 256.204L209.222 257.248C209.078 257.212 208.886 257.188 208.706 257.188C207.626 257.188 207.11 258.064 207.11 259.012V262H205.982V257.536ZM210.898 258.652H214.282C214.258 257.752 213.73 257.044 212.686 257.044C211.714 257.044 210.97 257.764 210.898 258.652ZM215.422 259.108C215.422 259.228 215.422 259.36 215.41 259.492H210.898C210.934 260.464 211.75 261.22 212.746 261.22C213.514 261.22 214.078 260.836 214.402 260.356L215.194 260.992C214.582 261.784 213.754 262.156 212.746 262.156C211.018 262.156 209.746 260.956 209.746 259.168C209.746 257.392 211.018 256.156 212.686 256.156C214.366 256.156 215.422 257.296 215.422 259.108ZM220.467 258.472V258.316C220.467 257.476 219.903 257.068 219.063 257.068C218.427 257.068 217.827 257.344 217.443 257.728L216.843 257.008C217.395 256.48 218.247 256.156 219.171 256.156C220.803 256.156 221.547 257.128 221.547 258.388V260.872C221.547 261.256 221.571 261.724 221.631 262H220.611C220.551 261.748 220.515 261.448 220.515 261.184H220.479C220.071 261.796 219.423 262.144 218.571 262.144C217.671 262.144 216.507 261.7 216.507 260.392C216.507 258.676 218.547 258.472 220.467 258.472ZM220.467 259.288H220.191C219.075 259.288 217.659 259.408 217.659 260.368C217.659 261.04 218.259 261.256 218.823 261.256C219.879 261.256 220.467 260.548 220.467 259.588V259.288ZM227.283 257.092L226.503 257.752C226.251 257.344 225.759 257.044 225.183 257.044C224.667 257.044 224.127 257.248 224.127 257.788C224.127 258.268 224.559 258.448 225.423 258.64C226.503 258.88 227.331 259.324 227.331 260.32C227.331 261.664 226.215 262.156 225.063 262.156C224.199 262.156 223.311 261.82 222.771 261.136L223.575 260.452C223.875 260.896 224.451 261.244 225.087 261.244C225.651 261.244 226.215 261.04 226.215 260.416C226.215 259.888 225.699 259.696 224.727 259.468C223.971 259.288 223.071 258.964 223.071 257.896C223.071 256.672 224.139 256.156 225.219 256.156C226.023 256.156 226.875 256.48 227.283 257.092ZM229.543 258.652H232.927C232.903 257.752 232.375 257.044 231.331 257.044C230.359 257.044 229.615 257.764 229.543 258.652ZM234.067 259.108C234.067 259.228 234.067 259.36 234.055 259.492H229.543C229.579 260.464 230.395 261.22 231.391 261.22C232.159 261.22 232.723 260.836 233.047 260.356L233.839 260.992C233.227 261.784 232.399 262.156 231.391 262.156C229.663 262.156 228.391 260.956 228.391 259.168C228.391 257.392 229.663 256.156 231.331 256.156C233.011 256.156 234.067 257.296 234.067 259.108Z" fill="#12C050"/>
</g>
<defs>
<clipPath id="clip0_14_6115">
<rect x="20" y="35" width="303" height="231" rx="4" fill="white"/>
</clipPath>
</defs>
</svg>
