<svg width="196" height="221" viewBox="0 0 196 221" fill="none" xmlns="http://www.w3.org/2000/svg">
<g filter="url(#filter0_d_599_267288)">
<rect x="8" y="6" width="180" height="205" rx="4" fill="white"/>
<rect x="8.5" y="6.5" width="179" height="204" rx="3.5" stroke="#ADBAC2"/>
<path d="M36.6666 25.999H34.2066L34.3933 24.919C34.4933 24.3541 34.4085 23.7721 34.1515 23.2593C33.8945 22.7465 33.4789 22.3302 32.9666 22.0723C32.8321 22.004 32.6785 21.9833 32.5308 22.0136C32.3831 22.0438 32.25 22.1233 32.1533 22.239L29.0199 25.999H25.9999C25.8231 25.999 25.6535 26.0692 25.5285 26.1942C25.4035 26.3193 25.3333 26.4888 25.3333 26.6656V33.3323C25.3333 33.5091 25.4035 33.6787 25.5285 33.8037C25.6535 33.9287 25.8231 33.999 25.9999 33.999H35.1199C35.5117 33.9992 35.8951 33.8844 36.2221 33.6686C36.5493 33.4529 36.8058 33.1459 36.9599 32.7856L38.4799 29.239C38.6049 28.9508 38.6685 28.6398 38.6666 28.3256V27.999C38.6666 27.4685 38.4559 26.9598 38.0808 26.5848C37.7057 26.2097 37.197 25.999 36.6666 25.999ZM28.6666 32.6656H26.6666V27.3323H28.6666V32.6656ZM37.3333 28.3256C37.3331 28.4608 37.3059 28.5945 37.2533 28.719L35.7333 32.259C35.6822 32.3794 35.5969 32.4823 35.4878 32.5546C35.3787 32.6269 35.2508 32.6655 35.1199 32.6656H29.9999V26.9056L32.7733 23.5723C32.9029 23.7202 32.9982 23.8949 33.0523 24.0839C33.1065 24.2729 33.1182 24.4716 33.0866 24.6656L32.7533 26.5323C32.7366 26.6288 32.7414 26.7278 32.7674 26.8223C32.7933 26.9168 32.8398 27.0044 32.9035 27.0788C32.9671 27.1533 33.0464 27.2128 33.1357 27.2532C33.2249 27.2936 33.322 27.3137 33.4199 27.3123H36.6666C36.8434 27.3123 37.013 27.3826 37.138 27.5076C37.263 27.6326 37.3333 27.8022 37.3333 27.979V28.3256Z" fill="#3C4348"/>
<path d="M50.59 23.088V31.768H55.014V33H49.204V23.088H50.59ZM57.6144 26.364V33H56.2984V26.364H57.6144ZM57.8384 23.97C57.8384 24.446 57.4324 24.81 56.9564 24.81C56.4804 24.81 56.0884 24.432 56.0884 23.97C56.0884 23.494 56.4804 23.116 56.9564 23.116C57.4324 23.116 57.8384 23.48 57.8384 23.97ZM61.2514 22.416V29.248H61.2934L64.0794 26.364H65.8434L62.7354 29.374L66.1094 33H64.2894L61.2934 29.556H61.2514V33H59.9354V22.416H61.2514ZM67.9542 29.094H71.9022C71.8742 28.044 71.2582 27.218 70.0402 27.218C68.9062 27.218 68.0382 28.058 67.9542 29.094ZM73.2322 29.626C73.2322 29.766 73.2322 29.92 73.2182 30.074H67.9542C67.9962 31.208 68.9482 32.09 70.1102 32.09C71.0062 32.09 71.6642 31.642 72.0422 31.082L72.9662 31.824C72.2522 32.748 71.2862 33.182 70.1102 33.182C68.0942 33.182 66.6102 31.782 66.6102 29.696C66.6102 27.624 68.0942 26.182 70.0402 26.182C72.0002 26.182 73.2322 27.512 73.2322 29.626Z" fill="#21262A"/>
<path d="M36.9599 59.2133C36.8058 58.8531 36.5493 58.546 36.2221 58.3303C35.8951 58.1146 35.5117 57.9998 35.1199 58H25.9999C25.8231 58 25.6535 58.0702 25.5285 58.1953C25.4035 58.3203 25.3333 58.4899 25.3333 58.6667V65.3333C25.3333 65.5101 25.4035 65.6797 25.5285 65.8047C25.6535 65.9297 25.8231 66 25.9999 66H29.0199L32.1533 69.76C32.2159 69.8353 32.2945 69.8958 32.3831 69.9373C32.4719 69.9787 32.5687 70.0001 32.6666 70C32.7712 70.0013 32.8744 69.976 32.9666 69.9267C33.4789 69.6687 33.8945 69.2525 34.1515 68.7397C34.4085 68.2269 34.4933 67.6448 34.3933 67.08L34.2066 66H36.6666C37.197 66 37.7057 65.7893 38.0808 65.4142C38.4559 65.0391 38.6666 64.5305 38.6666 64V63.6733C38.6685 63.3592 38.6049 63.0481 38.4799 62.76L36.9599 59.2133ZM28.6666 64.6667H26.6666V59.3333H28.6666V64.6667ZM37.3333 64C37.3333 64.1768 37.263 64.3464 37.138 64.4714C37.013 64.5964 36.8434 64.6667 36.6666 64.6667H33.4133C33.3153 64.6653 33.2183 64.6854 33.129 64.7258C33.0397 64.7661 32.9604 64.8257 32.8968 64.9001C32.8331 64.9746 32.7867 65.0622 32.7607 65.1567C32.7347 65.2511 32.7299 65.3501 32.7466 65.4467L33.0799 67.3133C33.1136 67.5095 33.1029 67.7107 33.0487 67.9022C32.9945 68.0937 32.8981 68.2706 32.7666 68.42L29.9999 65.0933V59.3333H35.1199C35.2508 59.3334 35.3787 59.3721 35.4878 59.4444C35.5969 59.5167 35.6822 59.6195 35.7333 59.74L37.2533 63.28C37.3059 63.4045 37.3331 63.5382 37.3333 63.6733V64Z" fill="#3C4348"/>
<path d="M49.204 69V59.088H52.606C55.14 59.088 57.954 60.53 57.954 64.044C57.954 67.432 55.14 69 52.606 69H49.204ZM50.59 60.292V67.782H52.326C54.72 67.782 56.47 66.41 56.47 64.044C56.47 61.594 54.72 60.292 52.326 60.292H50.59ZM61.1144 62.364V69H59.7984V62.364H61.1144ZM61.3384 59.97C61.3384 60.446 60.9324 60.81 60.4564 60.81C59.9804 60.81 59.5884 60.432 59.5884 59.97C59.5884 59.494 59.9804 59.116 60.4564 59.116C60.9324 59.116 61.3384 59.48 61.3384 59.97ZM67.9014 63.274L66.9914 64.044C66.6974 63.568 66.1234 63.218 65.4514 63.218C64.8494 63.218 64.2194 63.456 64.2194 64.086C64.2194 64.646 64.7234 64.856 65.7314 65.08C66.9914 65.36 67.9574 65.878 67.9574 67.04C67.9574 68.608 66.6554 69.182 65.3114 69.182C64.3034 69.182 63.2674 68.79 62.6374 67.992L63.5754 67.194C63.9254 67.712 64.5974 68.118 65.3394 68.118C65.9974 68.118 66.6554 67.88 66.6554 67.152C66.6554 66.536 66.0534 66.312 64.9194 66.046C64.0374 65.836 62.9874 65.458 62.9874 64.212C62.9874 62.784 64.2334 62.182 65.4934 62.182C66.4314 62.182 67.4254 62.56 67.9014 63.274ZM70.9721 58.416V69H69.6561V58.416H70.9721ZM74.5949 62.364V69H73.2789V62.364H74.5949ZM74.8189 59.97C74.8189 60.446 74.4129 60.81 73.9369 60.81C73.4609 60.81 73.0689 60.432 73.0689 59.97C73.0689 59.494 73.4609 59.116 73.9369 59.116C74.4129 59.116 74.8189 59.48 74.8189 59.97ZM78.2319 58.416V65.248H78.2739L81.0599 62.364H82.8239L79.7159 65.374L83.0899 69H81.2699L78.2739 65.556H78.2319V69H76.9159V58.416H78.2319ZM84.9346 65.094H88.8826C88.8546 64.044 88.2386 63.218 87.0206 63.218C85.8866 63.218 85.0186 64.058 84.9346 65.094ZM90.2126 65.626C90.2126 65.766 90.2126 65.92 90.1986 66.074H84.9346C84.9766 67.208 85.9286 68.09 87.0906 68.09C87.9866 68.09 88.6446 67.642 89.0226 67.082L89.9466 67.824C89.2326 68.748 88.2666 69.182 87.0906 69.182C85.0746 69.182 83.5906 67.782 83.5906 65.696C83.5906 63.624 85.0746 62.182 87.0206 62.182C88.9806 62.182 90.2126 63.512 90.2126 65.626Z" fill="#21262A"/>
<rect x="12" y="90" width="172" height="1" fill="#859299"/>
<path d="M36.3333 114.334C36.5101 114.334 36.6796 114.264 36.8047 114.139C36.9297 114.014 36.9999 113.844 36.9999 113.667C36.9999 113.491 36.9297 113.321 36.8047 113.196C36.6796 113.071 36.5101 113.001 36.3333 113.001H35.9999V112.334C35.9999 111.804 35.7892 111.295 35.4141 110.92C35.0391 110.545 34.5304 110.334 33.9999 110.334H27.3333C26.8028 110.334 26.2941 110.545 25.919 110.92C25.544 111.295 25.3333 111.804 25.3333 112.334V119.001C25.3333 119.531 25.544 120.04 25.919 120.415C26.2941 120.79 26.8028 121.001 27.3333 121.001H27.9999V121.334C27.9999 121.511 28.0702 121.68 28.1952 121.805C28.3202 121.93 28.4898 122.001 28.6666 122.001C28.8434 122.001 29.013 121.93 29.138 121.805C29.263 121.68 29.3333 121.511 29.3333 121.334V121.001H33.9999C34.5304 121.001 35.0391 120.79 35.4141 120.415C35.7892 120.04 35.9999 119.531 35.9999 119.001V114.334H36.3333ZM34.6666 119.001C34.6666 119.177 34.5963 119.347 34.4713 119.472C34.3463 119.597 34.1767 119.667 33.9999 119.667H27.3333C27.1564 119.667 26.9869 119.597 26.8618 119.472C26.7368 119.347 26.6666 119.177 26.6666 119.001V112.334C26.6666 112.157 26.7368 111.988 26.8618 111.863C26.9869 111.738 27.1564 111.667 27.3333 111.667H33.9999C34.1767 111.667 34.3463 111.738 34.4713 111.863C34.5963 111.988 34.6666 112.157 34.6666 112.334V119.001Z" fill="#3C4348"/>
<path d="M31.2666 122.334H29.9999C29.9035 122.334 29.8082 122.313 29.7206 122.273C29.6407 122.233 29.5537 122.21 29.4647 122.205C29.3756 122.199 29.2864 122.211 29.2022 122.241C29.118 122.271 29.0407 122.317 28.9747 122.377C28.9087 122.437 28.8554 122.51 28.818 122.59C28.7806 122.671 28.7598 122.759 28.7569 122.848C28.7541 122.938 28.7691 123.026 28.8012 123.11C28.8332 123.193 28.8817 123.269 28.9436 123.333C29.0056 123.397 29.0798 123.448 29.1619 123.483C29.4245 123.605 29.7105 123.668 29.9999 123.667H31.2666C31.4434 123.667 31.613 123.597 31.738 123.472C31.863 123.347 31.9332 123.177 31.9332 123.001C31.9332 122.824 31.863 122.654 31.738 122.529C31.613 122.404 31.4434 122.334 31.2666 122.334Z" fill="#3C4348"/>
<path d="M38.4793 114.154C38.4045 113.994 38.2691 113.87 38.1029 113.809C37.9367 113.749 37.7533 113.757 37.593 113.832C37.4327 113.906 37.3087 114.042 37.2482 114.208C37.1878 114.374 37.1959 114.558 37.2706 114.718C37.312 114.806 37.3334 114.903 37.3333 115.001V116.261C37.3333 116.437 37.4036 116.607 37.5286 116.732C37.6536 116.857 37.8232 116.927 38 116.927C38.1768 116.927 38.3464 116.857 38.4714 116.732C38.5964 116.607 38.6666 116.437 38.6666 116.261V115.001C38.6671 114.708 38.6031 114.419 38.4793 114.154Z" fill="#3C4348"/>
<path d="M34.9526 122.334H33.1099C32.9331 122.334 32.7636 122.404 32.6385 122.529C32.5135 122.654 32.4433 122.824 32.4433 123.001C32.4433 123.177 32.5135 123.347 32.6385 123.472C32.7636 123.597 32.9331 123.667 33.1099 123.667H34.9526C35.1294 123.667 35.299 123.597 35.424 123.472C35.549 123.347 35.6193 123.177 35.6193 123.001C35.6193 122.824 35.549 122.654 35.424 122.529C35.299 122.404 35.1294 122.334 34.9526 122.334Z" fill="#3C4348"/>
<path d="M37.9999 117.437C37.8231 117.437 37.6535 117.508 37.5285 117.633C37.4035 117.758 37.3333 117.927 37.3333 118.104V119.947C37.3333 120.124 37.4035 120.294 37.5285 120.419C37.6535 120.544 37.8231 120.614 37.9999 120.614C38.1767 120.614 38.3463 120.544 38.4713 120.419C38.5963 120.294 38.6666 120.124 38.6666 119.947V118.104C38.6666 117.927 38.5963 117.758 38.4713 117.633C38.3463 117.508 38.1767 117.437 37.9999 117.437Z" fill="#3C4348"/>
<path d="M38.0553 121.126C37.8796 121.111 37.705 121.165 37.5697 121.278C37.4344 121.392 37.3494 121.554 37.3333 121.729C37.3185 121.883 37.2506 122.028 37.1411 122.137C37.0316 122.247 36.8874 122.314 36.7333 122.329C36.6458 122.333 36.5599 122.355 36.4806 122.392C36.4013 122.429 36.3301 122.482 36.2711 122.547C36.2121 122.611 36.1664 122.687 36.1367 122.77C36.107 122.852 36.0939 122.94 36.098 123.027C36.1021 123.115 36.1234 123.201 36.1607 123.28C36.198 123.359 36.2506 123.43 36.3154 123.489C36.3802 123.548 36.456 123.594 36.5385 123.624C36.6209 123.654 36.7084 123.667 36.796 123.663C36.8173 123.663 36.8387 123.663 36.8627 123.663C37.3262 123.618 37.7596 123.413 38.0882 123.083C38.4168 122.753 38.6199 122.319 38.6627 121.855C38.6713 121.767 38.6623 121.679 38.6364 121.594C38.6104 121.51 38.568 121.431 38.5115 121.364C38.455 121.296 38.3855 121.24 38.3072 121.199C38.2289 121.158 38.1433 121.133 38.0553 121.126Z" fill="#3C4348"/>
<path d="M56.596 119.704L57.702 120.46C56.932 121.51 55.658 122.252 53.922 122.252C50.884 122.252 48.7 120.082 48.7 117.03C48.7 113.936 50.968 111.836 53.978 111.836C55.336 111.836 56.806 112.368 57.534 113.376L56.442 114.216C55.966 113.544 55 113.054 53.978 113.054C51.682 113.054 50.212 114.86 50.212 117.03C50.212 119.256 51.654 121.02 53.936 121.02C55.042 121.02 56.008 120.558 56.596 119.704ZM65.602 118.668C65.602 120.712 64.048 122.182 62.018 122.182C59.988 122.182 58.448 120.712 58.448 118.668C58.448 116.624 59.988 115.182 62.018 115.182C64.048 115.182 65.602 116.624 65.602 118.668ZM64.23 118.668C64.23 117.408 63.446 116.274 62.018 116.274C60.604 116.274 59.806 117.408 59.806 118.668C59.806 119.928 60.604 121.076 62.018 121.076C63.446 121.076 64.23 119.928 64.23 118.668ZM68.743 121.006V125.36H67.427V115.364H68.715V116.4H68.757C69.191 115.7 70.059 115.182 71.151 115.182C73.125 115.182 74.469 116.708 74.469 118.668C74.469 120.614 73.167 122.182 71.123 122.182C70.185 122.182 69.275 121.748 68.785 121.006H68.743ZM73.111 118.668C73.111 117.422 72.341 116.274 70.899 116.274C69.555 116.274 68.659 117.408 68.659 118.682C68.659 119.956 69.555 121.076 70.899 121.076C72.341 121.076 73.111 119.914 73.111 118.668ZM76.762 115.364L78.82 120.572H78.848L80.682 115.364H82.082L78.862 123.568C78.428 124.674 77.868 125.36 76.566 125.36C76.286 125.36 75.992 125.332 75.698 125.262L75.824 124.1C76.034 124.17 76.272 124.212 76.482 124.212C77.168 124.212 77.434 123.82 77.714 123.106L78.134 122L75.292 115.364H76.762Z" fill="#21262A"/>
<path d="M29.8047 150.805L31.3333 149.276V155.667C31.3333 155.843 31.4036 156.013 31.5286 156.138C31.6536 156.263 31.8232 156.333 32 156.333C32.1768 156.333 32.3464 156.263 32.4714 156.138C32.5964 156.013 32.6667 155.843 32.6667 155.667V149.276L34.1953 150.805C34.3211 150.926 34.4895 150.993 34.6643 150.992C34.8391 150.99 35.0063 150.92 35.1299 150.796C35.2535 150.673 35.3236 150.506 35.3251 150.331C35.3266 150.156 35.2594 149.988 35.138 149.862L32.4713 147.195C32.3463 147.07 32.1768 147 32 147C31.8232 147 31.6537 147.07 31.5287 147.195L28.862 149.862C28.7406 149.988 28.6734 150.156 28.6749 150.331C28.6764 150.506 28.7465 150.673 28.8701 150.796C28.9937 150.92 29.1609 150.99 29.3357 150.992C29.5105 150.993 29.6789 150.926 29.8047 150.805Z" fill="#3C4348"/>
<path d="M36 152.333H34.6667C34.4899 152.333 34.3203 152.403 34.1953 152.528C34.0702 152.653 34 152.823 34 153C34 153.177 34.0702 153.346 34.1953 153.471C34.3203 153.596 34.4899 153.667 34.6667 153.667H36C36.1768 153.667 36.3464 153.737 36.4714 153.862C36.5964 153.987 36.6667 154.156 36.6667 154.333V157C36.6667 157.177 36.5964 157.346 36.4714 157.471C36.3464 157.596 36.1768 157.667 36 157.667H28C27.8232 157.667 27.6536 157.596 27.5286 157.471C27.4036 157.346 27.3333 157.177 27.3333 157V154.333C27.3333 154.156 27.4036 153.987 27.5286 153.862C27.6536 153.737 27.8232 153.667 28 153.667H29.3333C29.5101 153.667 29.6797 153.596 29.8047 153.471C29.9298 153.346 30 153.177 30 153C30 152.823 29.9298 152.653 29.8047 152.528C29.6797 152.403 29.5101 152.333 29.3333 152.333H28C27.4696 152.333 26.9609 152.544 26.5858 152.919C26.2107 153.294 26 153.803 26 154.333V157C26 157.53 26.2107 158.039 26.5858 158.414C26.9609 158.789 27.4696 159 28 159H36C36.5304 159 37.0391 158.789 37.4142 158.414C37.7893 158.039 38 157.53 38 157V154.333C38 153.803 37.7893 153.294 37.4142 152.919C37.0391 152.544 36.5304 152.333 36 152.333Z" fill="#3C4348"/>
<path d="M55.112 148.97L54.132 149.922C53.74 149.376 53.026 148.998 52.2 148.998C51.304 148.998 50.268 149.488 50.268 150.608C50.268 151.686 51.178 151.98 52.298 152.344C53.628 152.764 55.21 153.268 55.21 155.242C55.21 157.3 53.544 158.252 51.78 158.252C50.534 158.252 49.274 157.762 48.518 156.81L49.596 155.9C50.058 156.586 50.898 157.062 51.808 157.062C52.732 157.062 53.796 156.544 53.796 155.368C53.796 154.164 52.704 153.842 51.444 153.45C50.184 153.058 48.868 152.484 48.868 150.664C48.868 148.69 50.632 147.836 52.27 147.836C53.418 147.836 54.496 148.284 55.112 148.97ZM58.4487 152.372H58.4767C58.7847 151.714 59.6247 151.182 60.5767 151.182C62.2847 151.182 63.0547 152.4 63.0547 153.884V158H61.7387V154.332C61.7387 153.254 61.4587 152.302 60.2407 152.302C59.2047 152.302 58.4487 153.17 58.4487 154.486V158H57.1327V147.416H58.4487V152.372ZM69.4105 153.884V153.702C69.4105 152.722 68.7525 152.246 67.7725 152.246C67.0305 152.246 66.3305 152.568 65.8825 153.016L65.1825 152.176C65.8265 151.56 66.8205 151.182 67.8985 151.182C69.8025 151.182 70.6705 152.316 70.6705 153.786V156.684C70.6705 157.132 70.6985 157.678 70.7685 158H69.5785C69.5085 157.706 69.4665 157.356 69.4665 157.048H69.4245C68.9485 157.762 68.1925 158.168 67.1985 158.168C66.1485 158.168 64.7905 157.65 64.7905 156.124C64.7905 154.122 67.1705 153.884 69.4105 153.884ZM69.4105 154.836H69.0885C67.7865 154.836 66.1345 154.976 66.1345 156.096C66.1345 156.88 66.8345 157.132 67.4925 157.132C68.7245 157.132 69.4105 156.306 69.4105 155.186V154.836ZM72.8684 152.792C72.8684 152.442 72.8544 151.798 72.8124 151.364H74.0584C74.0864 151.7 74.1144 152.204 74.1144 152.484H74.1564C74.5204 151.714 75.2904 151.182 76.1864 151.182C76.3684 151.182 76.5504 151.196 76.7044 151.238L76.6484 152.456C76.4804 152.414 76.2564 152.386 76.0464 152.386C74.7864 152.386 74.1844 153.408 74.1844 154.514V158H72.8684V152.792ZM78.6045 154.094H82.5525C82.5245 153.044 81.9085 152.218 80.6905 152.218C79.5565 152.218 78.6885 153.058 78.6045 154.094ZM83.8825 154.626C83.8825 154.766 83.8825 154.92 83.8685 155.074H78.6045C78.6465 156.208 79.5985 157.09 80.7605 157.09C81.6565 157.09 82.3145 156.642 82.6925 156.082L83.6165 156.824C82.9025 157.748 81.9365 158.182 80.7605 158.182C78.7445 158.182 77.2605 156.782 77.2605 154.696C77.2605 152.624 78.7445 151.182 80.6905 151.182C82.6505 151.182 83.8825 152.512 83.8825 154.626Z" fill="#21262A"/>
<path d="M37.0174 183.099C36.9206 183.04 36.8103 183.006 36.6969 183.001C36.5834 182.996 36.4705 183.019 36.3687 183.07L32.5087 185H28.6667C28.1363 185 27.6276 185.21 27.2525 185.586C26.8775 185.961 26.6667 186.469 26.6667 187V189.666C26.6667 190.197 26.8775 190.706 27.2525 191.081C27.6276 191.456 28.1363 191.666 28.6667 191.666H29.5481L30.7141 194.581C30.7466 194.662 30.7949 194.737 30.8561 194.799C30.9173 194.862 30.9903 194.912 31.0708 194.946C31.1514 194.981 31.2379 194.999 31.3255 195C31.4131 195.001 31.5001 194.985 31.5814 194.952C31.6627 194.92 31.7369 194.872 31.7995 194.81C31.8622 194.749 31.9122 194.676 31.9467 194.596C31.9812 194.515 31.9995 194.429 32.0005 194.341C32.0015 194.253 31.9853 194.166 31.9527 194.085L30.9847 191.666H32.5087L36.3687 193.596C36.4704 193.647 36.5834 193.671 36.6969 193.666C36.8104 193.661 36.9208 193.627 37.0174 193.567C37.1141 193.507 37.1939 193.424 37.2492 193.324C37.3045 193.225 37.3335 193.113 37.3334 193V183.666C37.3335 183.553 37.3045 183.441 37.2492 183.342C37.1939 183.242 37.1141 183.159 37.0174 183.099ZM28.0001 189.666V187C28.0001 186.823 28.0703 186.653 28.1953 186.528C28.3204 186.403 28.4899 186.333 28.6667 186.333H32.0001V190.333H28.6667C28.4899 190.333 28.3204 190.263 28.1953 190.138C28.0703 190.013 28.0001 189.843 28.0001 189.666ZM36.0001 191.921L33.3334 190.588V186.078L36.0001 184.745V191.921Z" fill="#3C4348"/>
<path d="M50.59 189.576V194H49.204V184.088H55.392V185.306H50.59V188.386H55.084V189.576H50.59ZM57.3311 190.094H61.2791C61.2511 189.044 60.6351 188.218 59.4171 188.218C58.2831 188.218 57.4151 189.058 57.3311 190.094ZM62.6091 190.626C62.6091 190.766 62.6091 190.92 62.5951 191.074H57.3311C57.3731 192.208 58.3251 193.09 59.4871 193.09C60.3831 193.09 61.0411 192.642 61.4191 192.082L62.3431 192.824C61.6291 193.748 60.6631 194.182 59.4871 194.182C57.4711 194.182 55.9871 192.782 55.9871 190.696C55.9871 188.624 57.4711 187.182 59.4171 187.182C61.3771 187.182 62.6091 188.512 62.6091 190.626ZM65.3565 190.094H69.3045C69.2765 189.044 68.6605 188.218 67.4425 188.218C66.3085 188.218 65.4405 189.058 65.3565 190.094ZM70.6345 190.626C70.6345 190.766 70.6345 190.92 70.6205 191.074H65.3565C65.3985 192.208 66.3505 193.09 67.5125 193.09C68.4085 193.09 69.0665 192.642 69.4445 192.082L70.3685 192.824C69.6545 193.748 68.6885 194.182 67.5125 194.182C65.4965 194.182 64.0125 192.782 64.0125 190.696C64.0125 188.624 65.4965 187.182 67.4425 187.182C69.4025 187.182 70.6345 188.512 70.6345 190.626ZM77.7639 192.95C77.2599 193.748 76.3079 194.182 75.3699 194.182C73.3259 194.182 72.0239 192.614 72.0239 190.668C72.0239 188.708 73.3679 187.182 75.3559 187.182C76.4339 187.182 77.2599 187.714 77.7219 188.358H77.7499V183.416H79.0659V194H77.7919V192.95H77.7639ZM73.3959 190.668C73.3959 191.914 74.1519 193.076 75.5939 193.076C76.9379 193.076 77.8339 191.956 77.8339 190.682C77.8339 189.408 76.9379 188.274 75.5939 188.274C74.1519 188.274 73.3959 189.422 73.3959 190.668ZM82.6886 192.95H82.6606V194H81.3866V183.416H82.7026V188.358H82.7446C83.1926 187.714 84.0186 187.182 85.1106 187.182C87.0846 187.182 88.4286 188.708 88.4286 190.668C88.4286 192.614 87.1266 194.182 85.0826 194.182C84.1446 194.182 83.2066 193.748 82.6886 192.95ZM87.0706 190.668C87.0706 189.422 86.3006 188.274 84.8586 188.274C83.5146 188.274 82.6186 189.408 82.6186 190.682C82.6186 191.956 83.5146 193.076 84.8586 193.076C86.3006 193.076 87.0706 191.914 87.0706 190.668ZM94.389 189.884V189.702C94.389 188.722 93.731 188.246 92.751 188.246C92.009 188.246 91.309 188.568 90.861 189.016L90.161 188.176C90.805 187.56 91.799 187.182 92.877 187.182C94.781 187.182 95.649 188.316 95.649 189.786V192.684C95.649 193.132 95.677 193.678 95.747 194H94.557C94.487 193.706 94.445 193.356 94.445 193.048H94.403C93.927 193.762 93.171 194.168 92.177 194.168C91.127 194.168 89.769 193.65 89.769 192.124C89.769 190.122 92.149 189.884 94.389 189.884ZM94.389 190.836H94.067C92.765 190.836 91.113 190.976 91.113 192.096C91.113 192.88 91.813 193.132 92.471 193.132C93.703 193.132 94.389 192.306 94.389 191.186V190.836ZM103.447 188.274L102.495 189.044C102.215 188.61 101.599 188.288 100.969 188.288C99.5969 188.288 98.7989 189.408 98.7989 190.682C98.7989 191.942 99.5969 193.076 100.983 193.076C101.655 193.076 102.229 192.796 102.579 192.348L103.461 193.146C102.901 193.79 102.047 194.182 100.983 194.182C98.9389 194.182 97.4129 192.796 97.4129 190.682C97.4129 188.596 98.9249 187.182 100.955 187.182C101.893 187.182 102.901 187.56 103.447 188.274ZM106.109 183.416V190.248H106.151L108.937 187.364H110.701L107.593 190.374L110.967 194H109.147L106.151 190.556H106.109V194H104.793V183.416H106.109Z" fill="#21262A"/>
</g>
<defs>
<filter id="filter0_d_599_267288" x="0" y="0" width="196" height="221" filterUnits="userSpaceOnUse" color-interpolation-filters="sRGB">
<feFlood flood-opacity="0" result="BackgroundImageFix"/>
<feColorMatrix in="SourceAlpha" type="matrix" values="0 0 0 0 0 0 0 0 0 0 0 0 0 0 0 0 0 0 127 0" result="hardAlpha"/>
<feOffset dy="2"/>
<feGaussianBlur stdDeviation="4"/>
<feColorMatrix type="matrix" values="0 0 0 0 0 0 0 0 0 0 0 0 0 0 0 0 0 0 0.2 0"/>
<feBlend mode="normal" in2="BackgroundImageFix" result="effect1_dropShadow_599_267288"/>
<feBlend mode="normal" in="SourceGraphic" in2="effect1_dropShadow_599_267288" result="shape"/>
</filter>
</defs>
</svg>
