<svg width="343" height="288" viewBox="0 0 343 288" fill="none" xmlns="http://www.w3.org/2000/svg">
<rect x="0.5" y="15.5" width="342" height="257" rx="7.5" stroke="#BABEC5"/>
<g clip-path="url(#clip0_14_6115)">
<path d="M82.5439 211V202.504H84.9079L87.1159 208.54H87.1519L89.3359 202.504H91.7119V211H90.2119V204.172H90.1879L87.6079 211H86.5519L84.0079 204.172H83.9839V211H82.5439ZM92.551 211L96.247 202.504H97.555L101.215 211H99.487L98.695 209.056H95.011L94.243 211H92.551ZM95.527 207.76H98.167L96.859 204.304L95.527 207.76ZM103.393 211V207.316L100.201 202.504H102.049L104.185 206.08L106.345 202.504H108.097L104.905 207.316V211H103.393Z" fill="#727E85"/>
<path d="M149.203 202.504V208.252C149.203 209.488 148.771 211.216 146.647 211.216C145.279 211.216 144.451 210.46 144.151 209.344L145.543 208.948C145.687 209.512 146.095 209.86 146.623 209.86C147.487 209.86 147.691 209.176 147.691 208.204V202.504H149.203ZM157.771 202.504V207.88C157.771 209.932 156.295 211.216 154.351 211.216C152.407 211.216 150.931 209.932 150.931 207.88V202.504H152.443V207.82C152.443 208.804 152.899 209.86 154.351 209.86C155.803 209.86 156.259 208.804 156.259 207.82V202.504H157.771ZM159.57 211V202.504H161.574L165.522 208.864H165.546V202.504H167.058V211H165.138L161.106 204.436H161.082V211H159.57Z" fill="#727E85"/>
<path d="M212.125 202.504V208.252C212.125 209.488 211.693 211.216 209.569 211.216C208.201 211.216 207.373 210.46 207.073 209.344L208.465 208.948C208.609 209.512 209.017 209.86 209.545 209.86C210.409 209.86 210.613 209.176 210.613 208.204V202.504H212.125ZM220.694 202.504V207.88C220.694 209.932 219.218 211.216 217.274 211.216C215.33 211.216 213.854 209.932 213.854 207.88V202.504H215.366V207.82C215.366 208.804 215.822 209.86 217.274 209.86C218.726 209.86 219.182 208.804 219.182 207.82V202.504H220.694ZM222.492 211V202.504H224.004V209.656H227.616V211H222.492Z" fill="#727E85"/>
<path d="M262.394 211L266.09 202.504H267.398L271.058 211H269.33L268.538 209.056H264.854L264.086 211H262.394ZM265.37 207.76H268.01L266.702 204.304L265.37 207.76ZM278.503 202.504V207.88C278.503 209.932 277.027 211.216 275.083 211.216C273.139 211.216 271.663 209.932 271.663 207.88V202.504H273.175V207.82C273.175 208.804 273.631 209.86 275.083 209.86C276.535 209.86 276.991 208.804 276.991 207.82V202.504H278.503ZM287.741 206.152V210.556C286.889 210.964 285.869 211.216 284.537 211.216C281.801 211.216 279.893 209.38 279.893 206.728C279.893 204.004 281.885 202.288 284.501 202.288C285.845 202.288 287.045 202.72 287.729 203.356L286.685 204.484C286.253 204.004 285.425 203.62 284.513 203.62C282.725 203.62 281.561 204.976 281.561 206.728C281.561 208.54 282.713 209.86 284.585 209.86C285.221 209.86 285.785 209.764 286.277 209.56V207.4H284.489V206.152H287.741Z" fill="#727E85"/>
<g clip-path="url(#clip1_14_6115)">
<g clip-path="url(#clip2_14_6115)">
<rect x="72.0156" y="162" width="224" height="1" rx="0.5" fill="#BABEC5"/>
<path d="M72.4156 191.5H295.614" stroke="#E3E5E8" stroke-linecap="round" stroke-linejoin="round"/>
<path d="M72.4156 109.5H295.616" stroke="#E3E5E8" stroke-linecap="round" stroke-linejoin="round"/>
<path d="M72.4156 136.5H295.616" stroke="#E3E5E8" stroke-linecap="round" stroke-linejoin="round"/>
<path d="M72.4156 81.5H295.616" stroke="#E3E5E8" stroke-linecap="round" stroke-linejoin="round"/>
<path d="M72.4156 55.5H295.616" stroke="#E3E5E8" stroke-linecap="round" stroke-linejoin="round"/>
</g>
</g>
<path d="M70.7388 98.769L72.2292 100.398H74.0041L75.779 102.814L77.5538 102.849L79.3287 102.814L81.1036 105.673L82.8784 108.835L84.6533 108.809L86.4281 117.109L88.203 129.305L89.9779 122.526L91.7527 115.961L93.5276 108.668L95.3025 106.607L97.0773 103.826L98.8522 108.568L100.627 108.545L102.402 108.513L104.177 117.109L105.952 112.778L107.726 108.443L109.501 103.826L111.276 99.7804L113.051 103.826H114.826L116.601 105.178L118.376 108.281L120.151 108.244" stroke="#2CA01C" stroke-width="2" stroke-linecap="round" stroke-linejoin="round"/>
<path fill-rule="evenodd" clip-rule="evenodd" d="M70.7388 162.761V98.769L72.2292 100.398H74.0041L75.779 102.814L77.5538 102.849L79.3287 102.814L81.1036 105.673L82.8784 108.835L84.6533 108.809L86.4281 117.109L88.203 129.305L89.9779 122.526L91.7527 115.961L93.5276 108.668L95.3025 106.607L97.0773 103.826L98.8522 108.568L100.627 108.545L102.402 108.513L104.177 117.109L105.952 112.778L107.726 108.443L109.501 103.826L111.276 99.7804L113.051 103.826H114.826L116.601 105.178L118.376 108.281L120.151 108.244V163L70.7388 162.761Z" fill="#53B700" fill-opacity="0.4"/>
<mask id="mask0_14_6115" style="mask-type:luminance" maskUnits="userSpaceOnUse" x="70" y="98" width="51" height="65">
<path fill-rule="evenodd" clip-rule="evenodd" d="M70.7388 162.761V98.769L72.2292 100.398H74.0041L75.779 102.814L77.5538 102.849L79.3287 102.814L81.1036 105.673L82.8784 108.835L84.6533 108.809L86.4281 117.109L88.203 129.305L89.9779 122.526L91.7527 115.961L93.5276 108.668L95.3025 106.607L97.0773 103.826L98.8522 108.568L100.627 108.545L102.402 108.513L104.177 117.109L105.952 112.778L107.726 108.443L109.501 103.826L111.276 99.7804L113.051 103.826H114.826L116.601 105.178L118.376 108.281L120.151 108.244V163L70.7388 162.761Z" fill="white"/>
</mask>
<g mask="url(#mask0_14_6115)">
</g>
<path fill-rule="evenodd" clip-rule="evenodd" d="M120.151 108.053L123.276 104.061L126.402 104.076L129.528 98.042L132.654 99.1456L135.78 91.9927L138.906 88.4037H142.032L145.158 82.9769L148.284 78.1518L151.41 73.713L154.535 75.4626L157.661 68H160.787L163.913 70.8633L167.039 71.0913L170.165 78.1758L173.291 80.7209L176.417 81.9733L179.543 92.4752L182.669 92.3651L185.794 92.3925L188.92 89.9413L192.046 92.4352L195.172 92.4519L198.298 92.4752L201.424 98.7429L204.55 105.418L207.676 126.192L210.802 134.986L213.928 138.174L217.053 128.883H220.179L223.305 126.192L226.431 131.048L229.557 138.174L232.683 151.541L234.817 156.379C234.817 156.379 236.413 162 236.413 162H120.151V108.053Z" fill="#53B700" fill-opacity="0.2"/>
<mask id="mask1_14_6115" style="mask-type:luminance" maskUnits="userSpaceOnUse" x="120" y="68" width="118" height="95">
<path fill-rule="evenodd" clip-rule="evenodd" d="M120.151 108.258L123.303 104.245L126.455 104.261L129.607 98.1959L132.759 99.3051L135.912 92.1156L139.064 88.5081H142.216L145.368 83.0536L148.521 78.2038L151.673 73.7422L154.825 75.5008L157.977 68H161.129L164.282 70.878L167.434 71.1071L170.586 78.2279L173.738 80.7861L176.891 82.0448L180.043 92.6005L183.195 92.4899L186.347 92.5174L189.5 90.0536L192.652 92.5604L195.804 92.5771L198.956 92.6005L202.108 98.9003L205.261 105.61L208.413 126.49L211.565 135.329L214.717 138.533L217.87 129.195H221.022L224.174 126.49L227.326 131.371L230.478 138.533L233.631 151.969L235.783 156.832C235.783 156.832 237.393 162.481 237.393 162.481H120.151V108.258Z" fill="white"/>
</mask>
<g mask="url(#mask1_14_6115)">
<path d="M157.343 52.4198L83.3964 127.373" stroke="white" stroke-linecap="square"/>
<path d="M185.267 80.7229L111.32 155.676" stroke="white" stroke-linecap="square"/>
<path d="M172.04 67.3162L98.0928 142.269" stroke="white" stroke-linecap="square"/>
<path d="M199.963 95.6193L126.016 170.573" stroke="white" stroke-linecap="square"/>
<path d="M170.57 65.8265L96.6232 140.78" stroke="white" stroke-linecap="square"/>
<path d="M198.493 94.1296L124.546 169.083" stroke="white" stroke-linecap="square"/>
<path d="M158.813 53.9094L84.8661 128.863" stroke="white" stroke-linecap="square"/>
<path d="M186.736 82.2125L112.789 157.166" stroke="white" stroke-linecap="square"/>
<path d="M173.51 68.8058L99.5624 143.759" stroke="white" stroke-linecap="square"/>
<path d="M201.433 97.1089L127.486 172.062" stroke="white" stroke-linecap="square"/>
<path d="M160.283 55.3991L86.3357 130.352" stroke="white" stroke-linecap="square"/>
<path d="M188.206 83.7022L114.259 158.656" stroke="white" stroke-linecap="square"/>
<path d="M174.979 70.2954L101.032 145.249" stroke="white" stroke-linecap="square"/>
<path d="M202.902 98.5986L128.955 173.552" stroke="white" stroke-linecap="square"/>
<path d="M161.752 56.8887L87.8054 131.842" stroke="white" stroke-linecap="square"/>
<path d="M189.676 85.1918L115.729 160.145" stroke="white" stroke-linecap="square"/>
<path d="M176.449 71.7851L102.502 146.738" stroke="white" stroke-linecap="square"/>
<path d="M204.372 100.088L130.425 175.042" stroke="white" stroke-linecap="square"/>
<path d="M163.222 58.3783L89.275 133.332" stroke="white" stroke-linecap="square"/>
<path d="M191.145 86.6815L117.198 161.635" stroke="white" stroke-linecap="square"/>
<path d="M177.918 73.2747L103.971 148.228" stroke="white" stroke-linecap="square"/>
<path d="M205.842 101.578L131.895 176.531" stroke="white" stroke-linecap="square"/>
<path d="M164.692 59.868L90.7446 134.821" stroke="white" stroke-linecap="square"/>
<path d="M192.615 88.1711L118.668 163.124" stroke="white" stroke-linecap="square"/>
<path d="M179.388 74.7643L105.441 149.718" stroke="white" stroke-linecap="square"/>
<path d="M207.311 103.067L133.364 178.021" stroke="white" stroke-linecap="square"/>
<path d="M166.161 61.3576L92.2142 136.311" stroke="white" stroke-linecap="square"/>
<path d="M194.084 89.6607L120.137 164.614" stroke="white" stroke-linecap="square"/>
<path d="M180.858 76.254L106.911 151.207" stroke="white" stroke-linecap="square"/>
<path d="M208.781 104.557L134.834 179.51" stroke="white" stroke-linecap="square"/>
<path d="M167.631 62.8472L93.6839 137.801" stroke="white" stroke-linecap="square"/>
<path d="M195.554 91.1504L121.607 166.104" stroke="white" stroke-linecap="square"/>
<path d="M182.327 77.7436L108.38 152.697" stroke="white" stroke-linecap="square"/>
<path d="M210.251 106.047L136.303 181" stroke="white" stroke-linecap="square"/>
<path d="M169.101 64.3369L95.1536 139.29" stroke="white" stroke-linecap="square"/>
<path d="M197.024 92.64L123.077 167.593" stroke="white" stroke-linecap="square"/>
<path d="M183.797 79.2332L109.85 154.187" stroke="white" stroke-linecap="square"/>
<path d="M211.72 107.536L137.773 182.49" stroke="white" stroke-linecap="square"/>
<path d="M214.288 92.9649L140.341 167.918" stroke="white" stroke-linecap="square"/>
<path d="M242.211 121.268L168.264 196.221" stroke="white" stroke-linecap="square"/>
<path d="M228.984 107.861L155.037 182.815" stroke="white" stroke-linecap="square"/>
<path d="M256.907 136.164L182.96 211.118" stroke="white" stroke-linecap="square"/>
<path d="M227.515 106.372L153.568 181.325" stroke="white" stroke-linecap="square"/>
<path d="M255.438 134.675L181.491 209.628" stroke="white" stroke-linecap="square"/>
<path d="M215.757 94.4546L141.81 169.408" stroke="white" stroke-linecap="square"/>
<path d="M243.681 122.758L169.734 197.711" stroke="white" stroke-linecap="square"/>
<path d="M230.454 109.351L156.507 184.304" stroke="white" stroke-linecap="square"/>
<path d="M258.377 137.654L184.43 212.607" stroke="white" stroke-linecap="square"/>
<path d="M217.227 95.9442L143.28 170.898" stroke="white" stroke-linecap="square"/>
<path d="M245.15 124.247L171.203 199.201" stroke="white" stroke-linecap="square"/>
<path d="M231.924 110.841L157.976 185.794" stroke="white" stroke-linecap="square"/>
<path d="M259.847 139.144L185.9 214.097" stroke="white" stroke-linecap="square"/>
<path d="M218.697 97.4338L144.75 172.387" stroke="white" stroke-linecap="square"/>
<path d="M246.62 125.737L172.673 200.69" stroke="white" stroke-linecap="square"/>
<path d="M233.393 112.33L159.446 187.284" stroke="white" stroke-linecap="square"/>
<path d="M261.316 140.633L187.369 215.587" stroke="white" stroke-linecap="square"/>
<path d="M220.166 98.9235L146.219 173.877" stroke="white" stroke-linecap="square"/>
<path d="M248.09 127.227L174.142 202.18" stroke="white" stroke-linecap="square"/>
<path d="M234.863 113.82L160.916 188.773" stroke="white" stroke-linecap="square"/>
<path d="M262.786 142.123L188.839 217.076" stroke="white" stroke-linecap="square"/>
<path d="M221.636 100.413L147.689 175.366" stroke="white" stroke-linecap="square"/>
<path d="M249.559 128.716L175.612 203.67" stroke="white" stroke-linecap="square"/>
<path d="M236.332 115.31L162.385 190.263" stroke="white" stroke-linecap="square"/>
<path d="M264.256 143.613L190.308 218.566" stroke="white" stroke-linecap="square"/>
<path d="M223.106 101.903L149.159 176.856" stroke="white" stroke-linecap="square"/>
<path d="M251.029 130.206L177.082 205.159" stroke="white" stroke-linecap="square"/>
<path d="M237.802 116.799L163.855 191.752" stroke="white" stroke-linecap="square"/>
<path d="M265.725 145.102L191.778 220.056" stroke="white" stroke-linecap="square"/>
<path d="M224.575 103.392L150.628 178.346" stroke="white" stroke-linecap="square"/>
<path d="M252.498 131.696L178.551 206.649" stroke="white" stroke-linecap="square"/>
<path d="M239.272 118.289L165.325 193.242" stroke="white" stroke-linecap="square"/>
<path d="M267.195 146.592L193.248 221.545" stroke="white" stroke-linecap="square"/>
<path d="M226.045 104.882L152.098 179.835" stroke="white" stroke-linecap="square"/>
<path d="M253.968 133.185L180.021 208.139" stroke="white" stroke-linecap="square"/>
<path d="M240.741 119.778L166.794 194.732" stroke="white" stroke-linecap="square"/>
<path d="M268.664 148.082L194.717 223.035" stroke="white" stroke-linecap="square"/>
</g>
<path d="M121.119 108.258L124.215 104.245L127.311 104.261L130.406 98.1959L133.502 99.3051L136.597 92.1156L139.693 88.5081H142.789L145.884 83.0536L148.98 78.2038L152.076 73.7422L155.171 75.5008L158.267 68H161.362L164.458 70.878L167.554 71.1071L170.649 78.2279L173.745 80.7861L176.841 82.0448L179.936 92.6005L183.032 92.4899L186.127 92.5174L189.223 90.0536L192.319 92.5604L195.414 92.5771L198.51 92.6005L201.606 98.9003L204.701 105.61L207.797 126.49L210.892 135.329L213.988 138.533L217.084 129.195H220.179L223.275 126.49L226.37 131.371L229.466 138.533L232.562 151.969L234.675 156.832C234.675 156.832 236.414 163 236.414 163" stroke="#53B700" stroke-width="2" stroke-linecap="round" stroke-linejoin="round" stroke-dasharray="1 4"/>
<path fill-rule="evenodd" clip-rule="evenodd" d="M286.882 162.542C287.184 161.539 288.016 157.91 289.09 153.576C289.308 152.696 289.626 151.269 291.239 149.154H293.33L296.483 145.305V162.542H286.882Z" fill="#53B700" fill-opacity="0.2"/>
<mask id="mask2_14_6115" style="mask-type:luminance" maskUnits="userSpaceOnUse" x="286" y="145" width="11" height="18">
<path fill-rule="evenodd" clip-rule="evenodd" d="M286.882 162.542C287.184 161.539 288.016 157.91 289.09 153.576C289.308 152.696 289.626 151.269 291.239 149.154H293.33L296.483 145.305V162.542H286.882Z" fill="white"/>
</mask>
<g mask="url(#mask2_14_6115)">
<path d="M306.615 150.723L232.668 225.676" stroke="white" stroke-linecap="square"/>
<path d="M293.389 137.316L219.442 212.269" stroke="white" stroke-linecap="square"/>
<path d="M291.919 135.827L217.972 210.78" stroke="white" stroke-linecap="square"/>
<path d="M308.085 152.213L234.138 227.166" stroke="white" stroke-linecap="square"/>
<path d="M294.858 138.806L220.911 213.759" stroke="white" stroke-linecap="square"/>
<path d="M309.555 153.702L235.608 228.656" stroke="white" stroke-linecap="square"/>
<path d="M296.328 140.295L222.381 215.249" stroke="white" stroke-linecap="square"/>
<path d="M311.024 155.192L237.077 230.145" stroke="white" stroke-linecap="square"/>
<path d="M297.797 141.785L223.85 216.738" stroke="white" stroke-linecap="square"/>
<path d="M312.494 156.681L238.547 231.635" stroke="white" stroke-linecap="square"/>
<path d="M299.267 143.275L225.32 218.228" stroke="white" stroke-linecap="square"/>
<path d="M313.964 158.171L240.016 233.124" stroke="white" stroke-linecap="square"/>
<path d="M300.737 144.764L226.79 219.718" stroke="white" stroke-linecap="square"/>
<path d="M287.51 131.358L213.563 206.311" stroke="white" stroke-linecap="square"/>
<path d="M315.433 159.661L241.486 234.614" stroke="white" stroke-linecap="square"/>
<path d="M302.206 146.254L228.259 221.207" stroke="white" stroke-linecap="square"/>
<path d="M288.98 132.847L215.033 207.801" stroke="white" stroke-linecap="square"/>
<path d="M316.903 161.15L242.956 236.104" stroke="white" stroke-linecap="square"/>
<path d="M303.676 147.744L229.729 222.697" stroke="white" stroke-linecap="square"/>
<path d="M290.449 134.337L216.502 209.29" stroke="white" stroke-linecap="square"/>
<path d="M318.372 162.64L244.425 237.593" stroke="white" stroke-linecap="square"/>
<path d="M305.146 149.233L231.199 224.187" stroke="white" stroke-linecap="square"/>
</g>
<path d="M286.882 162C287.184 160.997 288.016 157.91 289.09 153.576C289.308 152.696 289.671 151.222 290.178 149.154H293.33L296.483 145.305" stroke="#53B700" stroke-width="2" stroke-linecap="round" stroke-linejoin="round" stroke-dasharray="1 4"/>
<path fill-rule="evenodd" clip-rule="evenodd" d="M237.005 163.44L243.735 169.362C243.735 169.362 249.507 169.35 249.918 171.082C250.329 172.815 246.827 176.963 246.827 176.963L253.009 180.746L256.101 184.781L259.192 190L262.283 183.921L265.374 179.273L268.466 175.946L271.557 178.05L274.648 177.648L277.739 164.008L282.606 163.44H237.005Z" fill="#D52B1E" fill-opacity="0.2"/>
<mask id="mask3_14_6115" style="mask-type:luminance" maskUnits="userSpaceOnUse" x="237" y="163" width="46" height="27">
<path fill-rule="evenodd" clip-rule="evenodd" d="M237.005 163.44L243.735 169.362C243.735 169.362 249.507 169.35 249.918 171.082C250.329 172.815 246.827 176.963 246.827 176.963L253.009 180.746L256.101 184.781L259.192 190L262.283 183.921L265.374 179.273L268.466 175.946L271.557 178.05L274.648 177.648L277.739 164.008L282.606 163.44H237.005Z" fill="white"/>
</mask>
<g mask="url(#mask3_14_6115)">
<path d="M278.692 122.42L204.745 197.373" stroke="white" stroke-linecap="square"/>
<path d="M306.615 150.723L232.668 225.676" stroke="white" stroke-linecap="square"/>
<path d="M293.389 137.316L219.442 212.269" stroke="white" stroke-linecap="square"/>
<path d="M321.312 165.619L247.365 240.573" stroke="white" stroke-linecap="square"/>
<path d="M291.919 135.827L217.972 210.78" stroke="white" stroke-linecap="square"/>
<path d="M319.842 164.13L245.895 239.083" stroke="white" stroke-linecap="square"/>
<path d="M280.162 123.909L206.215 198.863" stroke="white" stroke-linecap="square"/>
<path d="M308.085 152.213L234.138 227.166" stroke="white" stroke-linecap="square"/>
<path d="M294.858 138.806L220.911 213.759" stroke="white" stroke-linecap="square"/>
<path d="M322.781 167.109L248.834 242.062" stroke="white" stroke-linecap="square"/>
<path d="M281.631 125.399L207.684 200.352" stroke="white" stroke-linecap="square"/>
<path d="M309.555 153.702L235.608 228.656" stroke="white" stroke-linecap="square"/>
<path d="M296.328 140.295L222.381 215.249" stroke="white" stroke-linecap="square"/>
<path d="M324.251 168.599L250.304 243.552" stroke="white" stroke-linecap="square"/>
<path d="M283.101 126.889L209.154 201.842" stroke="white" stroke-linecap="square"/>
<path d="M311.024 155.192L237.077 230.145" stroke="white" stroke-linecap="square"/>
<path d="M297.797 141.785L223.85 216.738" stroke="white" stroke-linecap="square"/>
<path d="M325.721 170.088L251.774 245.042" stroke="white" stroke-linecap="square"/>
<path d="M284.571 128.378L210.624 203.332" stroke="white" stroke-linecap="square"/>
<path d="M312.494 156.681L238.547 231.635" stroke="white" stroke-linecap="square"/>
<path d="M299.267 143.275L225.32 218.228" stroke="white" stroke-linecap="square"/>
<path d="M327.19 171.578L253.243 246.531" stroke="white" stroke-linecap="square"/>
<path d="M286.04 129.868L212.093 204.821" stroke="white" stroke-linecap="square"/>
<path d="M313.964 158.171L240.016 233.124" stroke="white" stroke-linecap="square"/>
<path d="M300.737 144.764L226.79 219.718" stroke="white" stroke-linecap="square"/>
<path d="M328.66 173.067L254.713 248.021" stroke="white" stroke-linecap="square"/>
<path d="M287.51 131.358L213.563 206.311" stroke="white" stroke-linecap="square"/>
<path d="M315.433 159.661L241.486 234.614" stroke="white" stroke-linecap="square"/>
<path d="M302.206 146.254L228.259 221.207" stroke="white" stroke-linecap="square"/>
<path d="M330.13 174.557L256.183 249.51" stroke="white" stroke-linecap="square"/>
<path d="M288.98 132.847L215.033 207.801" stroke="white" stroke-linecap="square"/>
<path d="M316.903 161.15L242.956 236.104" stroke="white" stroke-linecap="square"/>
<path d="M303.676 147.744L229.729 222.697" stroke="white" stroke-linecap="square"/>
<path d="M331.599 176.047L257.652 251" stroke="white" stroke-linecap="square"/>
<path d="M290.449 134.337L216.502 209.29" stroke="white" stroke-linecap="square"/>
<path d="M318.372 162.64L244.425 237.593" stroke="white" stroke-linecap="square"/>
<path d="M305.146 149.233L231.199 224.187" stroke="white" stroke-linecap="square"/>
<path d="M333.069 177.536L259.122 252.49" stroke="white" stroke-linecap="square"/>
</g>
<path d="M237.553 164.008L243.735 169.361C243.735 169.361 249.507 169.35 249.918 171.082C250.329 172.815 246.827 176.963 246.827 176.963L253.009 180.746L256.101 184.781L259.192 190L262.283 183.921L265.374 179.273L268.466 175.946L271.557 178.05L274.648 177.648L277.739 164.008C277.739 164.008 283.342 163.943 283.922 162" stroke="#D52B1E" stroke-width="2" stroke-linecap="round" stroke-linejoin="round" stroke-dasharray="1 4"/>
<path d="M119.666 190.5L119.666 56.5" stroke="#8D9096" stroke-linecap="round"/>
<ellipse cx="119.666" cy="106.5" rx="8.23529" ry="8.5" fill="#8FD500" fill-opacity="0.420318"/>
<ellipse cx="119.666" cy="106.5" rx="4.11765" ry="4.25" fill="white" stroke="#62C000" stroke-width="1.4"/>
<path d="M102.844 39.548V47H101.656V39.548H98.9319V38.504H105.568V39.548H102.844ZM114.905 42.74C114.905 45.356 112.985 47.216 110.393 47.216C107.813 47.216 105.905 45.356 105.905 42.74C105.905 40.088 107.813 38.288 110.393 38.288C112.985 38.288 114.905 40.088 114.905 42.74ZM113.621 42.74C113.621 40.88 112.373 39.332 110.393 39.332C108.437 39.332 107.189 40.88 107.189 42.74C107.189 44.636 108.449 46.148 110.393 46.148C112.361 46.148 113.621 44.636 113.621 42.74ZM116.52 47V38.504H119.436C121.608 38.504 124.02 39.74 124.02 42.752C124.02 45.656 121.608 47 119.436 47H116.52ZM117.708 39.536V45.956H119.196C121.248 45.956 122.748 44.78 122.748 42.752C122.748 40.652 121.248 39.536 119.196 39.536H117.708ZM126.556 44.912L125.704 47H124.384L128.068 38.504H129.148L132.796 47H131.452L130.588 44.912H126.556ZM128.572 39.884L126.976 43.868H130.156L128.572 39.884ZM136.485 43.328V47H135.285V43.328L132.105 38.504H133.569L135.921 42.344L138.285 38.504H139.665L136.485 43.328Z" fill="#727E85"/>
<rect width="7.75086" height="136" transform="matrix(-1 0 0 1 78.4897 55)" fill="url(#paint0_linear_14_6115)"/>
<path d="M77.0156 238H87.0156" stroke="#2CA01C" stroke-width="2" stroke-linecap="round"/>
<path d="M101.624 240.2L102.296 240.632C101.732 241.484 100.64 242.216 99.1156 242.216C96.5476 242.216 94.6876 240.332 94.6876 237.752C94.6876 235.172 96.5836 233.288 99.1156 233.288C100.364 233.288 101.552 233.804 102.14 234.632L101.42 235.16C101.06 234.608 100.208 234.044 99.1276 234.044C96.9316 234.044 95.5996 235.772 95.5996 237.752C95.5996 239.732 96.9436 241.46 99.1276 241.46C100.1 241.46 101.036 241.076 101.624 240.2ZM107.061 238.556V238.376C107.061 237.404 106.533 236.924 105.561 236.924C104.901 236.924 104.289 237.188 103.893 237.584L103.437 237.044C103.893 236.588 104.685 236.24 105.645 236.24C106.857 236.24 107.829 236.912 107.829 238.28V240.74C107.829 241.172 107.865 241.688 107.925 242H107.193C107.145 241.724 107.109 241.388 107.109 241.088H107.085C106.569 241.832 105.945 242.144 105.045 242.144C104.193 242.144 103.101 241.688 103.101 240.44C103.101 238.712 105.009 238.556 107.061 238.556ZM107.061 239.192H106.821C105.489 239.192 103.941 239.336 103.941 240.404C103.941 241.208 104.625 241.472 105.261 241.472C106.413 241.472 107.061 240.608 107.061 239.612V239.192ZM113.544 237.248L112.92 237.716C112.68 237.248 112.164 236.924 111.54 236.924C110.952 236.924 110.352 237.176 110.352 237.8C110.352 238.328 110.772 238.568 111.696 238.76C113.016 239.036 113.64 239.528 113.64 240.404C113.64 241.688 112.56 242.144 111.528 242.144C110.676 242.144 109.824 241.808 109.308 241.052L109.956 240.572C110.244 241.064 110.856 241.448 111.516 241.448C112.212 241.448 112.836 241.196 112.836 240.464C112.836 239.876 112.248 239.636 111.18 239.384C110.52 239.228 109.572 238.94 109.572 237.872C109.572 236.732 110.556 236.24 111.576 236.24C112.356 236.24 113.184 236.612 113.544 237.248ZM116.104 237.308H116.128C116.428 236.66 117.22 236.24 118.012 236.24C119.44 236.24 120.148 237.164 120.148 238.556V242H119.332V238.892C119.332 237.716 118.984 236.924 117.808 236.924C116.944 236.924 116.104 237.62 116.104 239.12V242H115.288V232.928H116.104V237.308ZM126.124 241.052H126.1V242H125.284V232.928H126.1V237.356H126.124C126.604 236.624 127.444 236.24 128.248 236.24C130 236.24 131.152 237.536 131.152 239.192C131.152 240.848 130 242.144 128.248 242.144C127.444 242.144 126.604 241.76 126.124 241.052ZM130.288 239.192C130.288 237.944 129.52 236.924 128.164 236.924C126.904 236.924 126.004 237.908 126.004 239.192C126.004 240.476 126.904 241.448 128.164 241.448C129.52 241.448 130.288 240.44 130.288 239.192ZM136.44 238.556V238.376C136.44 237.404 135.912 236.924 134.94 236.924C134.28 236.924 133.668 237.188 133.272 237.584L132.816 237.044C133.272 236.588 134.064 236.24 135.024 236.24C136.236 236.24 137.208 236.912 137.208 238.28V240.74C137.208 241.172 137.244 241.688 137.304 242H136.572C136.524 241.724 136.488 241.388 136.488 241.088H136.464C135.948 241.832 135.324 242.144 134.424 242.144C133.572 242.144 132.48 241.688 132.48 240.44C132.48 238.712 134.388 238.556 136.44 238.556ZM136.44 239.192H136.2C134.868 239.192 133.32 239.336 133.32 240.404C133.32 241.208 134.004 241.472 134.64 241.472C135.792 241.472 136.44 240.608 136.44 239.612V239.192ZM140.15 232.928V242H139.334V232.928H140.15ZM145.874 238.556V238.376C145.874 237.404 145.346 236.924 144.374 236.924C143.714 236.924 143.102 237.188 142.706 237.584L142.25 237.044C142.706 236.588 143.498 236.24 144.458 236.24C145.67 236.24 146.642 236.912 146.642 238.28V240.74C146.642 241.172 146.678 241.688 146.738 242H146.006C145.958 241.724 145.922 241.388 145.922 241.088H145.898C145.382 241.832 144.758 242.144 143.858 242.144C143.006 242.144 141.914 241.688 141.914 240.44C141.914 238.712 143.822 238.556 145.874 238.556ZM145.874 239.192H145.634C144.302 239.192 142.754 239.336 142.754 240.404C142.754 241.208 143.438 241.472 144.074 241.472C145.226 241.472 145.874 240.608 145.874 239.612V239.192ZM148.696 236.384H149.476C149.5 236.684 149.524 237.104 149.524 237.344H149.548C149.86 236.696 150.676 236.24 151.468 236.24C152.896 236.24 153.604 237.164 153.604 238.556V242H152.788V238.892C152.788 237.716 152.44 236.924 151.264 236.924C150.4 236.924 149.56 237.62 149.56 239.12V242H148.744V237.62C148.744 237.32 148.732 236.768 148.696 236.384ZM160.397 237.212L159.761 237.668C159.497 237.236 158.933 236.924 158.321 236.924C157.013 236.924 156.173 237.908 156.173 239.192C156.173 240.464 157.001 241.448 158.309 241.448C159.017 241.448 159.509 241.148 159.833 240.716L160.445 241.172C159.965 241.76 159.281 242.144 158.309 242.144C156.497 242.144 155.309 240.884 155.309 239.192C155.309 237.5 156.497 236.24 158.309 236.24C159.065 236.24 159.917 236.564 160.397 237.212ZM162.173 238.76H166.001C165.953 237.704 165.305 236.924 164.141 236.924C163.049 236.924 162.245 237.8 162.173 238.76ZM166.829 239.024C166.829 239.132 166.829 239.264 166.817 239.408H162.161C162.185 240.536 163.061 241.448 164.213 241.448C165.053 241.448 165.701 240.98 166.013 240.476L166.625 240.956C165.965 241.796 165.137 242.144 164.213 242.144C162.545 242.144 161.309 240.884 161.309 239.192C161.309 237.5 162.545 236.24 164.141 236.24C165.905 236.24 166.829 237.488 166.829 239.024Z" fill="#393A3D"/>
<path d="M185.016 238H195.016" stroke="#2CA01C" stroke-width="2" stroke-linecap="round" stroke-dasharray="1 3"/>
<path d="M203.144 242V233.504H205.544C207.272 233.504 208.412 234.248 208.412 235.772C208.412 237.296 207.248 238.052 205.52 238.052H204.008V242H203.144ZM204.008 234.248V237.32H205.472C206.816 237.32 207.548 236.78 207.548 235.772C207.548 234.728 206.78 234.248 205.472 234.248H204.008ZM209.482 237.62C209.482 237.32 209.47 236.768 209.434 236.384H210.214C210.238 236.684 210.262 237.104 210.262 237.344H210.286C210.598 236.696 211.294 236.24 212.086 236.24C212.29 236.24 212.458 236.252 212.626 236.3L212.518 237.068C212.422 237.032 212.158 236.996 211.942 236.996C211.078 236.996 210.298 237.62 210.298 239.12V242H209.482V237.62ZM219.176 239.192C219.176 240.884 217.928 242.144 216.176 242.144C214.436 242.144 213.188 240.884 213.188 239.192C213.188 237.5 214.436 236.24 216.176 236.24C217.928 236.24 219.176 237.5 219.176 239.192ZM218.312 239.192C218.312 237.932 217.484 236.924 216.176 236.924C214.88 236.924 214.052 237.932 214.052 239.192C214.052 240.452 214.88 241.448 216.176 241.448C217.484 241.448 218.312 240.452 218.312 239.192ZM219.528 244.796L219.648 244.112C219.804 244.16 220.008 244.184 220.164 244.184C220.848 244.184 220.956 243.692 220.956 242.984V236.384H221.772V243.116C221.772 244.016 221.448 244.88 220.176 244.88C220.008 244.88 219.732 244.856 219.528 244.796ZM221.94 234.224C221.94 234.56 221.652 234.8 221.364 234.8C221.076 234.8 220.788 234.56 220.788 234.224C220.788 233.888 221.076 233.648 221.364 233.648C221.652 233.648 221.94 233.888 221.94 234.224ZM224.399 238.76H228.227C228.179 237.704 227.531 236.924 226.367 236.924C225.275 236.924 224.471 237.8 224.399 238.76ZM229.055 239.024C229.055 239.132 229.055 239.264 229.043 239.408H224.387C224.411 240.536 225.287 241.448 226.439 241.448C227.279 241.448 227.927 240.98 228.239 240.476L228.851 240.956C228.191 241.796 227.363 242.144 226.439 242.144C224.771 242.144 223.535 240.884 223.535 239.192C223.535 237.5 224.771 236.24 226.367 236.24C228.131 236.24 229.055 237.488 229.055 239.024ZM235.49 237.212L234.854 237.668C234.59 237.236 234.026 236.924 233.414 236.924C232.106 236.924 231.266 237.908 231.266 239.192C231.266 240.464 232.094 241.448 233.402 241.448C234.11 241.448 234.602 241.148 234.926 240.716L235.538 241.172C235.058 241.76 234.374 242.144 233.402 242.144C231.59 242.144 230.402 240.884 230.402 239.192C230.402 237.5 231.59 236.24 233.402 236.24C234.158 236.24 235.01 236.564 235.49 237.212ZM239.342 236.384V237.068H237.758V240.344C237.758 241.184 238.106 241.376 238.598 241.376C238.826 241.376 239.09 241.304 239.306 241.196L239.342 241.904C239.054 242.012 238.754 242.072 238.382 242.072C237.782 242.072 236.942 241.808 236.942 240.572V237.068H235.778V236.384H236.942V234.8H237.758V236.384H239.342ZM241.075 238.76H244.903C244.855 237.704 244.207 236.924 243.043 236.924C241.951 236.924 241.147 237.8 241.075 238.76ZM245.731 239.024C245.731 239.132 245.731 239.264 245.719 239.408H241.063C241.087 240.536 241.963 241.448 243.115 241.448C243.955 241.448 244.603 240.98 244.915 240.476L245.527 240.956C244.867 241.796 244.039 242.144 243.115 242.144C241.447 242.144 240.211 240.884 240.211 239.192C240.211 237.5 241.447 236.24 243.043 236.24C244.807 236.24 245.731 237.488 245.731 239.024ZM252.106 241.052C251.626 241.76 250.786 242.144 249.982 242.144C248.23 242.144 247.078 240.848 247.078 239.192C247.078 237.536 248.23 236.24 249.982 236.24C250.786 236.24 251.626 236.624 252.106 237.356H252.13V232.928H252.946V242H252.13V241.052H252.106ZM247.942 239.192C247.942 240.44 248.71 241.448 250.066 241.448C251.326 241.448 252.226 240.476 252.226 239.192C252.226 237.908 251.326 236.924 250.066 236.924C248.71 236.924 247.942 237.944 247.942 239.192Z" fill="#393A3D"/>
<g clip-path="url(#clip3_14_6115)">
<path d="M44.004 194.172V191.124C42.756 190.764 41.592 190.2 41.592 188.7C41.592 187.296 42.732 186.444 44.004 186.372V185.532H44.616V186.36C45.444 186.372 46.38 186.672 46.98 187.272L46.164 188.028C45.792 187.56 45.18 187.32 44.616 187.308V190.164C45.84 190.572 47.112 191.136 47.112 192.72C47.112 194.232 45.972 195.108 44.616 195.132V195.996H44.004V195.132C42.936 195.108 41.988 194.676 41.328 193.944L42.204 193.2C42.636 193.812 43.44 194.16 44.004 194.172ZM44.616 191.292V194.172C45.312 194.136 45.96 193.68 45.96 192.732C45.96 191.976 45.384 191.544 44.616 191.292ZM44.004 189.984V187.308C43.308 187.356 42.732 187.836 42.732 188.628C42.732 189.384 43.26 189.768 44.004 189.984ZM51.2847 191.592V192.552H48.5007V191.592H51.2847ZM57.6965 186.504V187.536H54.1925L54.1205 189.768C54.4325 189.66 54.8645 189.612 55.2125 189.612C56.8445 189.612 58.0565 190.644 58.0565 192.288C58.0565 194.064 56.7845 195.216 55.0925 195.216C53.7725 195.216 52.8365 194.544 52.3805 193.512L53.4365 193.092C53.7005 193.776 54.3365 194.232 55.0925 194.232C56.0885 194.232 56.8685 193.5 56.8685 192.408C56.8685 191.124 55.9325 190.548 54.8765 190.548C54.2405 190.548 53.5205 190.74 52.9925 191.016L53.1125 186.504H57.6965ZM61.1732 186.504V190.248H61.1972L64.9892 186.504H66.6332L62.5052 190.392L66.8852 195H65.1812L61.1972 190.608H61.1732V195H59.9852V186.504H61.1732Z" fill="#727E85"/>
<path d="M47.8212 140.136V137.088C46.5732 136.728 45.4092 136.164 45.4092 134.664C45.4092 133.26 46.5492 132.408 47.8212 132.336V131.496H48.4332V132.324C49.2612 132.336 50.1972 132.636 50.7972 133.236L49.9812 133.992C49.6092 133.524 48.9972 133.284 48.4332 133.272V136.128C49.6572 136.536 50.9292 137.1 50.9292 138.684C50.9292 140.196 49.7892 141.072 48.4332 141.096V141.96H47.8212V141.096C46.7532 141.072 45.8052 140.64 45.1452 139.908L46.0212 139.164C46.4532 139.776 47.2572 140.124 47.8212 140.136ZM48.4332 137.256V140.136C49.1292 140.1 49.7772 139.644 49.7772 138.696C49.7772 137.94 49.2012 137.508 48.4332 137.256ZM47.8212 135.948V133.272C47.1252 133.32 46.5492 133.8 46.5492 134.592C46.5492 135.348 47.0772 135.732 47.8212 135.948ZM57.6699 132.468V133.5H54.1659L54.0939 135.732C54.4059 135.624 54.8379 135.576 55.1859 135.576C56.8179 135.576 58.0299 136.608 58.0299 138.252C58.0299 140.028 56.7579 141.18 55.0659 141.18C53.7459 141.18 52.8099 140.508 52.3539 139.476L53.4099 139.056C53.6739 139.74 54.3099 140.196 55.0659 140.196C56.0619 140.196 56.8419 139.464 56.8419 138.372C56.8419 137.088 55.9059 136.512 54.8499 136.512C54.2139 136.512 53.4939 136.704 52.9659 136.98L53.0859 132.468H57.6699ZM61.1466 132.468V136.212H61.1706L64.9626 132.468H66.6066L62.4786 136.356L66.8586 140.964H65.1546L61.1706 136.572H61.1466V140.964H59.9586V132.468H61.1466Z" fill="#727E85"/>
<path d="M40.6845 113.208V110.16C39.4365 109.8 38.2725 109.236 38.2725 107.736C38.2725 106.332 39.4125 105.48 40.6845 105.408V104.568H41.2965V105.396C42.1245 105.408 43.0605 105.708 43.6605 106.308L42.8445 107.064C42.4725 106.596 41.8605 106.356 41.2965 106.344V109.2C42.5205 109.608 43.7925 110.172 43.7925 111.756C43.7925 113.268 42.6525 114.144 41.2965 114.168V115.032H40.6845V114.168C39.6165 114.144 38.6685 113.712 38.0085 112.98L38.8845 112.236C39.3165 112.848 40.1205 113.196 40.6845 113.208ZM41.2965 110.328V113.208C41.9925 113.172 42.6405 112.716 42.6405 111.768C42.6405 111.012 42.0645 110.58 41.2965 110.328ZM40.6845 109.02V106.344C39.9885 106.392 39.4125 106.872 39.4125 107.664C39.4125 108.42 39.9405 108.804 40.6845 109.02ZM49.2012 105.54V114.036H48.0372V106.956L46.4292 108.3L45.7452 107.496L48.1572 105.54H49.2012ZM55.3659 105.324C57.3819 105.324 58.2579 107.316 58.2579 109.788C58.2579 112.272 57.3819 114.252 55.3659 114.252C53.3379 114.252 52.4619 112.272 52.4619 109.788C52.4619 107.316 53.3379 105.324 55.3659 105.324ZM55.3659 106.296C53.9619 106.296 53.6499 108.36 53.6499 109.788C53.6499 111.228 53.9619 113.268 55.3659 113.268C56.7459 113.268 57.0699 111.228 57.0699 109.788C57.0699 108.36 56.7459 106.296 55.3659 106.296ZM61.1466 105.54V109.284H61.1706L64.9626 105.54H66.6066L62.4786 109.428L66.8586 114.036H65.1546L61.1706 109.644H61.1466V114.036H59.9586V105.54H61.1466Z" fill="#727E85"/>
<path d="M40.6845 86.2804V83.2324C39.4365 82.8724 38.2725 82.3084 38.2725 80.8084C38.2725 79.4044 39.4125 78.5524 40.6845 78.4804V77.6404H41.2965V78.4684C42.1245 78.4804 43.0605 78.7804 43.6605 79.3804L42.8445 80.1364C42.4725 79.6684 41.8605 79.4284 41.2965 79.4164V82.2724C42.5205 82.6804 43.7925 83.2444 43.7925 84.8284C43.7925 86.3404 42.6525 87.2164 41.2965 87.2404V88.1044H40.6845V87.2404C39.6165 87.2164 38.6685 86.7844 38.0085 86.0524L38.8845 85.3084C39.3165 85.9204 40.1205 86.2684 40.6845 86.2804ZM41.2965 83.4004V86.2804C41.9925 86.2444 42.6405 85.7884 42.6405 84.8404C42.6405 84.0844 42.0645 83.6524 41.2965 83.4004ZM40.6845 82.0924V79.4164C39.9885 79.4644 39.4125 79.9444 39.4125 80.7364C39.4125 81.4924 39.9405 81.8764 40.6845 82.0924ZM49.2012 78.6124V87.1084H48.0372V80.0284L46.4292 81.3724L45.7452 80.5684L48.1572 78.6124H49.2012ZM57.6699 78.6124V79.6444H54.1659L54.0939 81.8764C54.4059 81.7684 54.8379 81.7204 55.1859 81.7204C56.8179 81.7204 58.0299 82.7524 58.0299 84.3964C58.0299 86.1724 56.7579 87.3244 55.0659 87.3244C53.7459 87.3244 52.8099 86.6524 52.3539 85.6204L53.4099 85.2004C53.6739 85.8844 54.3099 86.3404 55.0659 86.3404C56.0619 86.3404 56.8419 85.6084 56.8419 84.5164C56.8419 83.2324 55.9059 82.6564 54.8499 82.6564C54.2139 82.6564 53.4939 82.8484 52.9659 83.1244L53.0859 78.6124H57.6699ZM61.1466 78.6124V82.3564H61.1706L64.9626 78.6124H66.6066L62.4786 82.5004L66.8586 87.1084H65.1546L61.1706 82.7164H61.1466V87.1084H59.9586V78.6124H61.1466Z" fill="#727E85"/>
<path d="M40.6845 59.3527V56.3047C39.4365 55.9447 38.2725 55.3807 38.2725 53.8807C38.2725 52.4767 39.4125 51.6247 40.6845 51.5527V50.7127H41.2965V51.5407C42.1245 51.5527 43.0605 51.8527 43.6605 52.4527L42.8445 53.2087C42.4725 52.7407 41.8605 52.5007 41.2965 52.4887V55.3447C42.5205 55.7527 43.7925 56.3167 43.7925 57.9007C43.7925 59.4127 42.6525 60.2887 41.2965 60.3127V61.1767H40.6845V60.3127C39.6165 60.2887 38.6685 59.8567 38.0085 59.1247L38.8845 58.3807C39.3165 58.9927 40.1205 59.3407 40.6845 59.3527ZM41.2965 56.4727V59.3527C41.9925 59.3167 42.6405 58.8607 42.6405 57.9127C42.6405 57.1567 42.0645 56.7247 41.2965 56.4727ZM40.6845 55.1647V52.4887C39.9885 52.5367 39.4125 53.0167 39.4125 53.8087C39.4125 54.5647 39.9405 54.9487 40.6845 55.1647ZM50.9172 59.1367V60.1807H45.3732V59.0647L48.7572 55.7047C49.2732 55.1767 49.6932 54.6247 49.6932 53.9047C49.6932 53.0167 49.0212 52.4407 48.1812 52.4407C47.3172 52.4407 46.7292 53.0647 46.5852 53.9167L45.4452 53.7247C45.6492 52.4287 46.7412 51.4687 48.1932 51.4687C49.6092 51.4687 50.8812 52.2967 50.8812 53.8807C50.8812 54.9727 50.2572 55.7167 49.5132 56.4487L46.7532 59.1367H50.9172ZM55.3659 51.4687C57.3819 51.4687 58.2579 53.4607 58.2579 55.9327C58.2579 58.4167 57.3819 60.3967 55.3659 60.3967C53.3379 60.3967 52.4619 58.4167 52.4619 55.9327C52.4619 53.4607 53.3379 51.4687 55.3659 51.4687ZM55.3659 52.4407C53.9619 52.4407 53.6499 54.5047 53.6499 55.9327C53.6499 57.3727 53.9619 59.4127 55.3659 59.4127C56.7459 59.4127 57.0699 57.3727 57.0699 55.9327C57.0699 54.5047 56.7459 52.4407 55.3659 52.4407ZM61.1466 51.6847V55.4287H61.1706L64.9626 51.6847H66.6066L62.4786 55.5727L66.8586 60.1807H65.1546L61.1706 55.7887H61.1466V60.1807H59.9586V51.6847H61.1466Z" fill="#727E85"/>
<path d="M47.8212 167.064V164.016C46.5732 163.656 45.4092 163.092 45.4092 161.592C45.4092 160.188 46.5492 159.336 47.8212 159.264V158.424H48.4332V159.252C49.2612 159.264 50.1972 159.564 50.7972 160.164L49.9812 160.92C49.6092 160.452 48.9972 160.212 48.4332 160.2V163.056C49.6572 163.464 50.9292 164.028 50.9292 165.612C50.9292 167.124 49.7892 168 48.4332 168.024V168.888H47.8212V168.024C46.7532 168 45.8052 167.568 45.1452 166.836L46.0212 166.092C46.4532 166.704 47.2572 167.052 47.8212 167.064ZM48.4332 164.184V167.064C49.1292 167.028 49.7772 166.572 49.7772 165.624C49.7772 164.868 49.2012 164.436 48.4332 164.184ZM47.8212 162.876V160.2C47.1252 160.248 46.5492 160.728 46.5492 161.52C46.5492 162.276 47.0772 162.66 47.8212 162.876ZM55.3659 159.18C57.3819 159.18 58.2579 161.172 58.2579 163.644C58.2579 166.128 57.3819 168.108 55.3659 168.108C53.3379 168.108 52.4619 166.128 52.4619 163.644C52.4619 161.172 53.3379 159.18 55.3659 159.18ZM55.3659 160.152C53.9619 160.152 53.6499 162.216 53.6499 163.644C53.6499 165.084 53.9619 167.124 55.3659 167.124C56.7459 167.124 57.0699 165.084 57.0699 163.644C57.0699 162.216 56.7459 160.152 55.3659 160.152ZM61.1466 159.396V163.14H61.1706L64.9626 159.396H66.6066L62.4786 163.284L66.8586 167.892H65.1546L61.1706 163.5H61.1466V167.892H59.9586V159.396H61.1466Z" fill="#727E85"/>
</g>
</g>
<defs>
<linearGradient id="paint0_linear_14_6115" x1="0" y1="136" x2="7.75086" y2="136" gradientUnits="userSpaceOnUse">
<stop stop-color="white" stop-opacity="0.01"/>
<stop offset="1" stop-opacity="0.1"/>
</linearGradient>
<clipPath id="clip0_14_6115">
<rect width="273.218" height="211" fill="white" transform="translate(34.8911 35)"/>
</clipPath>
<clipPath id="clip1_14_6115">
<rect width="224" height="137" fill="white" transform="translate(72.0156 55)"/>
</clipPath>
<clipPath id="clip2_14_6115">
<rect width="224" height="137" fill="white" transform="translate(72.0156 55)"/>
</clipPath>
<clipPath id="clip3_14_6115">
<rect width="31.9723" height="151" fill="white" transform="translate(34.8911 48)"/>
</clipPath>
</defs>
</svg>
