<?xml version="1.0" encoding="utf-8"?>
<!-- Generator: Adobe Illustrator 28.1.0, SVG Export Plug-In . SVG Version: 6.00 Build 0)  -->
<svg version="1.1" id="Layer_1" xmlns="http://www.w3.org/2000/svg" xmlns:xlink="http://www.w3.org/1999/xlink" x="0px" y="0px"
	 viewBox="0 0 153 77" style="enable-background:new 0 0 153 77;" xml:space="preserve">
<style type="text/css">
	.st0{fill:#26292D;}
</style>
<g>
	<path class="st0" d="M8.9,39.3c-0.7,0-1.3-0.6-1.3-1.3c0-0.7,0.6-1.3,1.3-1.3c0.4,0,1-0.7,1.6-2.7c0.7-2.1,1.1-5,1.6-8.1
		c0.6-3.9,1.3-7.8,2.4-11.1c1.4-4.1,3.4-6.2,6-6.5c0.7-0.1,1.4,0.4,1.4,1.1c0.1,0.7-0.4,1.3-1.1,1.4c-3.7,0.4-5,8.7-6.1,15.4
		c-0.5,3.2-1,6.1-1.7,8.4C12.7,36,11.6,39.3,8.9,39.3z"/>
	<path class="st0" d="M25.4,37c-0.7,0-1.3-0.6-1.3-1.3c0-6.6-10.7-16-16.9-17.8c-0.5-0.1-2.2-0.6-2.7,0.2c-0.4,0.6-1.2,0.7-1.8,0.4
		c-0.6-0.4-0.8-1.1-0.4-1.7c1.3-2.1,4.1-1.7,5.6-1.3c3.5,1,8.2,4,11.9,7.7c2.6,2.5,6.8,7.5,6.8,12.5C26.7,36.4,26.1,37,25.4,37z"/>
	<path class="st0" d="M17.3,36.7L17.3,36.7c-0.4,0-0.8-0.2-1-0.4s-0.3-0.6-0.3-0.9c0.1-1.9,1.2-4.4,3.3-7.5c2.1-3,4.4-5.8,6.9-8.5
		C30.9,14.5,37.4,9,41.3,8.7c0.7,0,1.3,0.5,1.4,1.2c0.1,0.7-0.4,1.3-1.1,1.4c-2.5,0.2-8.1,4.3-13.4,9.9c-5.5,5.8-9.4,11.5-9.5,14.4
		C18.5,36.2,17.9,36.7,17.3,36.7z"/>
	<path class="st0" d="M35.3,40.7c-0.1,0-0.2,0-0.3,0c-3.3-0.8-4.7-6.5-6.4-13.7c-1.7-7.1-3.9-15.9-7.7-15.9h-0.1
		c-0.7,0-1.3-0.5-1.4-1.2c0-0.7,0.5-1.3,1.2-1.4c4.2-0.2,6.3,4.5,7,6c1.5,3.3,2.5,7.6,3.5,11.8c0.8,3.2,1.5,6.1,2.3,8.4
		c1.1,2.9,1.9,3.4,2.2,3.4c0.6,0.2,1.1,0.8,1,1.4C36.5,40.3,36,40.7,35.3,40.7L35.3,40.7z M21.3,41c-0.2,0-0.4,0-0.6,0
		c-2.9-0.2-4.9-2.4-4.8-5.6c0-0.5,0.3-0.9,0.7-1.1c0.4-0.2,0.9-0.2,1.3,0c0.4,0.2,0.6,0.7,0.6,1.1c0,0.8,0.1,2.8,2.3,2.9
		c0.8,0,1.9,0,2.5-0.6c0.4-0.4,0.7-1.1,0.7-2.1c0-0.7,0.6-1.3,1.3-1.3c0.7,0,1.3,0.6,1.3,1.3c0,1.7-0.5,3-1.5,4
		C24.2,40.6,23,41,21.3,41z"/>
	<path class="st0" d="M36.3,40.9c-0.5,0-0.9-0.1-1.3-0.2c-0.5-0.1-0.8-0.4-1-0.9c-0.1-0.4,0-0.9,0.3-1.3c0.3-0.3,0.8-0.5,1.3-0.3
		c0.6,0.2,1.3,0.1,1.9-0.3c2.8-1.6,4.4-8.5,5-11c1.4-5.8,2.7-13.2,1-15.2c-0.3-0.3-0.7-0.6-2-0.5c-0.5,0.1-0.9-0.1-1.2-0.5
		C40,10.4,40,9.9,40.2,9.4c0.2-0.4,0.6-0.7,1.1-0.7c1.9-0.2,3.3,0.3,4.2,1.3c1.4,1.6,2.6,5-0.4,17.5c-1.3,5.2-3,10.7-6.2,12.6
		C38.1,40.6,37.2,40.9,36.3,40.9z M8.9,39.3L8.9,39.3c-3.8-0.2-5.4-5.8-6.2-10C1,20.7,1.3,18.1,2.4,16.7c0.4-0.5,1.2-0.7,1.8-0.2
		s0.7,1.2,0.3,1.8c-0.1,0.2-0.5,1-0.3,3.9c0.2,2.3,0.6,4.5,1.1,6.7c1.4,7.2,3.2,7.9,3.7,7.9c0.7,0.1,1.2,0.6,1.2,1.3
		C10.2,38.8,9.6,39.3,8.9,39.3z"/>
	<path class="st0" d="M1.7,70.5V59.2h2v11.3H1.7z M6.2,70.5v-7.7H8v1.2h0c0.3-0.8,1.2-1.5,2.4-1.5c2,0,2.8,1.5,2.8,3.1v4.8h-1.9
		v-4.3c0-0.9-0.2-2-1.4-2c-1.2,0-1.8,1.1-1.8,2.1v4.2H6.2z M15.7,64.4h-1.3v-1.5h1.3v-2.2h1.9v2.2h1.9v1.5h-1.9v3.6
		c0,0.7,0.2,1.2,1,1.2c0.3,0,0.6,0,0.8-0.2l0.1,1.5c-0.3,0.1-0.8,0.2-1.3,0.2c-2,0-2.5-1.2-2.5-2.7V64.4z M27.9,62.8v7.7h-1.8v-1.2
		h0c-0.3,0.8-1.2,1.5-2.4,1.5c-2,0-2.8-1.5-2.8-3.1v-4.8h1.9v4.3c0,0.9,0.2,2,1.4,2c1.2,0,1.8-1.1,1.8-2.1v-4.2H27.9z M30.3,70.5
		v-7.7h1.9v7.7H30.3z M30,60.2c0-0.6,0.5-1.2,1.2-1.2s1.2,0.5,1.2,1.2c0,0.7-0.5,1.2-1.2,1.2S30,60.8,30,60.2z M34.8,64.4h-1.3v-1.5
		h1.3v-2.2h1.9v2.2h1.9v1.5h-1.9v3.6c0,0.7,0.2,1.2,1,1.2c0.3,0,0.6,0,0.8-0.2l0.1,1.5c-0.3,0.1-0.8,0.2-1.3,0.2
		c-2,0-2.5-1.2-2.5-2.7V64.4z M44,70.5V59.2h4c3,0,6.3,1.4,6.3,5.7c0,4-3.3,5.7-6.3,5.7H44z M46.1,68.7h1.7c2.1,0,4.4-0.8,4.4-3.9
		c0-3.2-2.3-3.9-4.4-3.9h-1.7V68.7z M57.6,65.9h3.9c0-1-0.6-1.9-1.8-1.9C58.6,64,57.7,64.8,57.6,65.9z M63.5,66.8c0,0.2,0,0.3,0,0.5
		h-5.8c0.1,1.1,1.1,1.9,2.2,1.9c1,0,1.6-0.4,2-1l1.3,1c-0.8,1-1.8,1.5-3.3,1.5c-2.4,0-4.1-1.5-4.1-4c0-2.5,1.7-4.1,4.1-4.1
		C61.9,62.6,63.5,64,63.5,66.8z M70.8,63.8l-1.2,1.1c-0.3-0.4-1-0.8-1.7-0.8c-0.6,0-1.2,0.2-1.2,0.8c0,0.6,0.6,0.8,1.7,1
		c1.1,0.3,2.5,0.8,2.5,2.3c0,1.9-1.5,2.6-3.2,2.6c-1.2,0-2.4-0.4-3.2-1.3l1.3-1.2c0.4,0.5,1.1,1,2,1c0.6,0,1.2-0.2,1.2-0.9
		c0-0.6-0.6-0.8-1.8-1.1c-1.1-0.3-2.3-0.7-2.3-2.2c0-1.7,1.5-2.4,3.1-2.4C69,62.6,70.2,63,70.8,63.8z M72.5,70.5v-7.7h1.9v7.7H72.5z
		 M72.2,60.2c0-0.6,0.5-1.2,1.2-1.2c0.7,0,1.2,0.5,1.2,1.2c0,0.7-0.5,1.2-1.2,1.2C72.7,61.4,72.2,60.8,72.2,60.2z M82.7,62.8h1.8v7
		c0,2.8-1.3,4.5-4.3,4.5c-1.2,0-2.8-0.4-3.8-1.3l1.1-1.5c0.7,0.7,1.7,1.1,2.7,1.1c1.9,0,2.4-1.1,2.4-2.6v-0.6h0
		c-0.6,0.8-1.5,1.2-2.5,1.2c-2.3,0-3.8-1.8-3.8-4c0-2.2,1.4-4,3.8-4c1.1,0,2.1,0.4,2.6,1.4h0V62.8z M80.5,64.2
		c-1.4,0-2.2,1.1-2.2,2.4c0,1.2,0.8,2.4,2.2,2.4c1.4,0,2.3-1.2,2.3-2.4C82.7,65.3,81.8,64.2,80.5,64.2z M86.9,70.5v-7.7h1.8v1.2h0
		c0.3-0.8,1.2-1.5,2.4-1.5c2,0,2.8,1.5,2.8,3.1v4.8H92v-4.3c0-0.9-0.2-2-1.4-2c-1.2,0-1.8,1.1-1.8,2.1v4.2H86.9z M107.4,60.1
		l-1.3,1.4c-0.4-0.6-1.3-1-2.1-1c-0.9,0-2,0.4-2,1.6c0,1,0.9,1.3,2.2,1.7c1.5,0.4,3.3,1.1,3.3,3.3c0,2.4-1.9,3.6-4.1,3.6
		c-1.5,0-3-0.6-3.9-1.6l1.4-1.3c0.6,0.8,1.6,1.2,2.5,1.2c0.9,0,2-0.5,2-1.7c0-1.2-1.2-1.5-2.6-2c-1.4-0.4-2.9-1.1-2.9-3.2
		c0-2.3,2.1-3.3,4.1-3.3C105.2,58.9,106.5,59.3,107.4,60.1z M111.3,70.5l-3.3-7.7h2.1l2.1,5.6h0l1.9-5.6h2l-3.6,9.3
		c-0.5,1.4-1.2,2.2-2.9,2.2c-0.3,0-0.7,0-1-0.1l0.2-1.7c0.3,0.1,0.5,0.1,0.7,0.1c0.8,0,1-0.4,1.4-1.2L111.3,70.5z M122.8,63.8
		l-1.2,1.1c-0.3-0.4-1-0.8-1.7-0.8c-0.6,0-1.2,0.2-1.2,0.8c0,0.6,0.6,0.8,1.7,1c1.1,0.3,2.5,0.8,2.5,2.3c0,1.9-1.5,2.6-3.2,2.6
		c-1.2,0-2.4-0.4-3.2-1.3l1.3-1.2c0.4,0.5,1.1,1,2,1c0.6,0,1.2-0.2,1.2-0.9c0-0.6-0.6-0.8-1.8-1.1c-1.1-0.3-2.3-0.7-2.3-2.2
		c0-1.7,1.5-2.4,3.1-2.4C121.1,62.6,122.2,63,122.8,63.8z M124.7,64.4h-1.3v-1.5h1.3v-2.2h1.9v2.2h1.9v1.5h-1.9v3.6
		c0,0.7,0.2,1.2,1,1.2c0.3,0,0.6,0,0.8-0.2l0.1,1.5c-0.3,0.1-0.8,0.2-1.3,0.2c-2,0-2.5-1.2-2.5-2.7V64.4z M131.4,65.9h3.9
		c0-1-0.6-1.9-1.8-1.9C132.4,64,131.5,64.8,131.4,65.9z M137.2,66.8c0,0.2,0,0.3,0,0.5h-5.8c0.1,1.1,1.1,1.9,2.2,1.9
		c1,0,1.6-0.4,2-1l1.3,1c-0.8,1-1.8,1.5-3.3,1.5c-2.4,0-4.1-1.5-4.1-4c0-2.5,1.7-4.1,4.1-4.1C135.7,62.6,137.2,64,137.2,66.8z
		 M148.3,62.6c2,0,2.8,1.5,2.8,3.1v4.8h-1.9v-4.3c0-0.9-0.2-2-1.4-2c-1.2,0-1.7,1.1-1.7,2.1v4.2h-1.9v-4.6c0-0.9-0.4-1.7-1.4-1.7
		c-1.2,0-1.7,1.1-1.7,2.1v4.2h-1.9v-7.7h1.8v1.2h0c0.3-0.8,1.2-1.5,2.4-1.5c1.2,0,2,0.6,2.4,1.5C146.3,63.1,147.1,62.6,148.3,62.6z"
		/>
</g>
</svg>
