<svg width="153" height="77" viewBox="0 0 153 77" fill="none" xmlns="http://www.w3.org/2000/svg">
<g clip-path="url(#clip0_32_3439)">
<path d="M8.90697 39.3296C8.18871 39.3296 7.60645 38.7553 7.60645 38.047C7.60645 37.3387 8.18871 36.7645 8.90697 36.7645C9.28259 36.7645 9.89651 36.0634 10.5225 34.0958C11.1728 32.0047 11.6413 29.105 12.1381 26.034C12.7641 22.1744 13.4104 18.1874 14.5211 14.977C15.9226 10.9222 17.8855 8.81119 20.5108 8.51644C21.2246 8.43615 21.8692 8.94171 21.9506 9.64564C22.0321 10.3496 21.5194 10.9853 20.8056 11.0656C17.1342 11.4639 15.7852 19.7726 14.7028 26.4363C14.1899 29.5989 13.7052 32.5862 13.0024 34.8486C12.651 35.9559 11.6009 39.3296 8.90697 39.3296Z" fill="white"/>
<path d="M25.4097 37.0114C24.6915 37.0114 24.1092 36.4371 24.1092 35.7288C24.1092 29.1448 13.4263 19.7128 7.22253 17.9722C6.70555 17.8248 4.98094 17.4066 4.52858 18.1236C4.13796 18.6951 3.35911 18.86 2.76503 18.4969C2.17095 18.1339 1.97409 17.3726 2.31929 16.7733C3.64002 14.6702 6.40667 15.0765 7.93338 15.5067C11.4149 16.4825 16.1001 19.5177 19.8684 23.2418C22.425 25.7631 26.7062 30.738 26.7062 35.7288C26.7062 36.4356 26.1264 37.0092 25.4097 37.0114Z" fill="white"/>
<path d="M17.2594 36.7168H17.1746C16.8305 36.6953 16.5092 36.5395 16.2818 36.2839C16.0544 36.0283 15.9397 35.6938 15.9629 35.3546C16.0841 33.4507 17.1746 30.9294 19.2587 27.8544C21.328 24.8448 23.6519 22.0134 26.2056 19.3904C30.9432 14.4514 37.3934 9.03436 41.2869 8.69978C41.9866 8.66122 42.5915 9.17642 42.6547 9.86476C42.7178 10.5531 42.2165 11.167 41.5211 11.2529C38.9887 11.48 33.4675 15.5507 28.0918 21.1549C22.5746 26.9065 18.7417 32.6779 18.5559 35.5219C18.5092 36.1942 17.9428 36.7163 17.2594 36.7168Z" fill="white"/>
<path d="M35.3012 40.7436C35.195 40.7418 35.0894 40.7285 34.9862 40.7037C31.7106 39.9071 30.3172 34.1914 28.5522 26.9621C26.8155 19.8722 24.6627 11.0696 20.8783 11.0696H20.7409C20.0238 11.1103 19.409 10.5699 19.3677 9.86271C19.3265 9.15548 19.8744 8.54916 20.5915 8.50846C24.796 8.27346 26.8761 12.9974 27.5586 14.5468C29.0207 17.8807 30.0749 22.1904 31.0927 26.3606C31.8681 29.5192 32.5951 32.5026 33.4352 34.761C34.5056 37.6527 35.3295 38.1386 35.6324 38.2103C36.2747 38.3632 36.6986 38.9667 36.6181 39.6134C36.5375 40.2601 35.9781 40.7445 35.3174 40.7396L35.3012 40.7436ZM21.3266 40.9905C21.1327 40.9905 20.9227 40.9905 20.7248 40.9905C17.7764 40.8113 15.8579 38.5688 15.9589 35.4142C15.9733 34.956 16.2345 34.5402 16.6441 34.3234C17.0537 34.1066 17.5495 34.1218 17.9447 34.3632C18.3398 34.6046 18.5744 35.0356 18.5599 35.4939C18.5317 36.3343 18.7053 38.282 20.8864 38.4334C21.6941 38.4812 22.8048 38.4334 23.4349 37.8359C23.8832 37.4376 24.1094 36.7167 24.1094 35.7488C24.1094 35.0404 24.6917 34.4662 25.4099 34.4662C26.1282 34.4662 26.7105 35.0404 26.7105 35.7488C26.7105 37.4535 26.2056 38.7839 25.2161 39.704C24.2265 40.6241 22.9745 40.9905 21.3266 40.9905Z" fill="white"/>
<path d="M36.3189 40.8749C35.8648 40.8741 35.4127 40.8152 34.974 40.6996C34.5121 40.5955 34.1442 40.2518 34.0137 39.8027C33.8832 39.3535 34.0107 38.8698 34.3466 38.5402C34.6824 38.2106 35.1735 38.0873 35.6283 38.2182C36.2707 38.4045 36.9633 38.3102 37.5306 37.9593C40.2932 36.3262 41.9492 29.5072 42.5712 26.9381C43.9888 21.0949 45.3136 13.7103 43.5526 11.7307C43.278 11.42 42.8175 11.1173 41.5332 11.2447C41.0602 11.3134 40.5871 11.1206 40.3013 10.7426C40.0154 10.3647 39.9629 9.86255 40.1645 9.43503C40.3661 9.00751 40.7894 8.72354 41.2666 8.69556C43.1447 8.50438 44.53 8.9465 45.5075 10.0418C46.909 11.6351 48.1287 15.0366 45.1036 27.5356C43.8515 32.7136 42.1309 38.2261 38.8756 40.1579C38.1071 40.6257 37.222 40.8739 36.3189 40.8749ZM8.91091 39.3295H8.83417C5.10222 39.1144 3.55531 33.5381 2.71926 29.3718C0.990606 20.7205 1.30968 18.1036 2.37999 16.6816C2.8159 16.1343 3.61486 16.0297 4.18047 16.4459C4.74608 16.8621 4.87193 17.6472 4.46407 18.2151C4.33482 18.3904 3.91882 19.195 4.18538 22.1385C4.43312 24.3962 4.79574 26.6401 5.27185 28.8619C6.71778 36.0832 8.47874 36.7365 8.98361 36.7683C9.67549 36.8204 10.204 37.399 10.1846 38.0831C10.1652 38.7671 9.60466 39.3156 8.91091 39.3295Z" fill="white"/>
<path d="M1.748 70.5V59.172H3.764V70.5H1.748ZM6.16763 70.5V62.82H7.99163V64.052H8.02363C8.35963 63.284 9.27163 62.596 10.4076 62.596C12.4076 62.596 13.2396 64.132 13.2396 65.7V70.5H11.3196V66.244C11.3196 65.332 11.1116 64.196 9.87963 64.196C8.66363 64.196 8.08763 65.252 8.08763 66.276V70.5H6.16763ZM15.7201 64.356H14.3761V62.82H15.7201V60.596H17.6081V62.82H19.5281V64.356H17.6081V67.924C17.6081 68.612 17.7681 69.108 18.6161 69.108C18.8721 69.108 19.2081 69.06 19.4321 68.948L19.4961 70.452C19.1601 70.58 18.6481 70.66 18.2161 70.66C16.1841 70.66 15.7201 69.412 15.7201 67.94V64.356ZM27.9256 62.82V70.5H26.1016V69.268H26.0696C25.7336 70.036 24.8216 70.724 23.6856 70.724C21.6856 70.724 20.8536 69.188 20.8536 67.62V62.82H22.7736V67.076C22.7736 67.988 22.9816 69.124 24.2136 69.124C25.4296 69.124 26.0056 68.068 26.0056 67.044V62.82H27.9256ZM30.2621 70.5V62.82H32.1821V70.5H30.2621ZM29.9901 60.212C29.9901 59.604 30.5021 59.06 31.2061 59.06C31.9101 59.06 32.4541 59.556 32.4541 60.212C32.4541 60.868 31.9101 61.364 31.2061 61.364C30.5021 61.364 29.9901 60.82 29.9901 60.212ZM34.7514 64.356H33.4074V62.82H34.7514V60.596H36.6394V62.82H38.5594V64.356H36.6394V67.924C36.6394 68.612 36.7994 69.108 37.6474 69.108C37.9034 69.108 38.2394 69.06 38.4634 68.948L38.5274 70.452C38.1914 70.58 37.6794 70.66 37.2474 70.66C35.2154 70.66 34.7514 69.412 34.7514 67.94V64.356ZM44.0449 70.5V59.172H48.0609C51.0209 59.172 54.3169 60.58 54.3169 64.836C54.3169 68.804 51.0209 70.5 48.0609 70.5H44.0449ZM46.0609 68.74H47.7409C49.8209 68.74 52.1569 67.892 52.1569 64.836C52.1569 61.588 49.8209 60.9 47.7409 60.9H46.0609V68.74ZM57.6396 65.892H61.5756C61.5756 64.9 61.0156 64.036 59.7676 64.036C58.6316 64.036 57.7196 64.82 57.6396 65.892ZM63.4956 66.756C63.4956 66.932 63.4956 67.092 63.4796 67.268H57.6396C57.7196 68.356 58.7116 69.156 59.8316 69.156C60.7916 69.156 61.4316 68.772 61.8636 68.164L63.1436 69.188C62.3916 70.212 61.3036 70.724 59.8476 70.724C57.4796 70.724 55.7196 69.204 55.7196 66.708C55.7196 64.228 57.4636 62.596 59.7836 62.596C61.9276 62.596 63.4956 63.988 63.4956 66.756ZM70.8111 63.764L69.5631 64.868C69.2271 64.42 68.5871 64.036 67.8831 64.036C67.2751 64.036 66.6511 64.26 66.6511 64.868C66.6511 65.46 67.2431 65.62 68.3151 65.876C69.4511 66.148 70.7951 66.66 70.7951 68.164C70.7951 70.036 69.2751 70.724 67.5951 70.724C66.4111 70.724 65.1791 70.276 64.4431 69.46L65.7071 68.276C66.1231 68.82 66.8431 69.236 67.6751 69.236C68.2351 69.236 68.9071 69.012 68.9071 68.324C68.9071 67.684 68.3151 67.492 67.1471 67.22C66.0111 66.948 64.8751 66.484 64.8751 65.044C64.8751 63.332 66.4111 62.596 67.9311 62.596C69.0351 62.596 70.1871 62.98 70.8111 63.764ZM72.4965 70.5V62.82H74.4165V70.5H72.4965ZM72.2245 60.212C72.2245 59.604 72.7365 59.06 73.4405 59.06C74.1445 59.06 74.6885 59.556 74.6885 60.212C74.6885 60.868 74.1445 61.364 73.4405 61.364C72.7365 61.364 72.2245 60.82 72.2245 60.212ZM82.7298 62.82H84.5538V69.812C84.5538 72.58 83.2098 74.34 80.2178 74.34C78.9698 74.34 77.4018 73.892 76.4098 73.076L77.5138 71.588C78.2498 72.292 79.2418 72.676 80.2018 72.676C82.0578 72.676 82.6338 71.556 82.6338 70.036V69.476H82.6018C82.0418 70.228 81.1458 70.628 80.0898 70.628C77.7858 70.628 76.2978 68.804 76.2978 66.628C76.2978 64.404 77.7378 62.596 80.0578 62.596C81.1298 62.596 82.1378 63.044 82.6978 63.972H82.7298V62.82ZM80.4578 64.164C79.0658 64.164 78.2498 65.252 78.2498 66.612C78.2498 67.828 79.0658 69.044 80.4418 69.044C81.8658 69.044 82.7298 67.892 82.7298 66.612C82.7298 65.284 81.8498 64.164 80.4578 64.164ZM86.8551 70.5V62.82H88.6791V64.052H88.7111C89.0471 63.284 89.9591 62.596 91.0951 62.596C93.0951 62.596 93.9271 64.132 93.9271 65.7V70.5H92.0071V66.244C92.0071 65.332 91.7991 64.196 90.5671 64.196C89.3511 64.196 88.7751 65.252 88.7751 66.276V70.5H86.8551ZM107.352 60.1L106.04 61.54C105.608 60.98 104.76 60.564 103.96 60.564C103.032 60.564 101.96 61.012 101.96 62.116C101.96 63.156 102.84 63.46 104.12 63.86C105.576 64.308 107.432 64.948 107.432 67.172C107.432 69.604 105.528 70.788 103.304 70.788C101.832 70.788 100.312 70.228 99.4156 69.172L100.856 67.828C101.416 68.596 102.44 69.076 103.336 69.076C104.28 69.076 105.384 68.612 105.384 67.396C105.384 66.212 104.2 65.876 102.776 65.428C101.4 64.996 99.9116 64.324 99.9116 62.212C99.9116 59.908 102.008 58.884 104.056 58.884C105.192 58.884 106.488 59.284 107.352 60.1ZM111.312 70.5L108.016 62.82H110.144L112.288 68.404H112.32L114.224 62.82H116.224L112.592 72.148C112.048 73.54 111.376 74.34 109.68 74.34C109.36 74.34 109.024 74.308 108.688 74.228L108.848 72.564C109.104 72.644 109.36 72.676 109.568 72.676C110.384 72.676 110.608 72.276 110.928 71.476L111.312 70.5ZM122.827 63.764L121.579 64.868C121.243 64.42 120.603 64.036 119.899 64.036C119.291 64.036 118.667 64.26 118.667 64.868C118.667 65.46 119.259 65.62 120.331 65.876C121.467 66.148 122.811 66.66 122.811 68.164C122.811 70.036 121.291 70.724 119.611 70.724C118.427 70.724 117.195 70.276 116.459 69.46L117.723 68.276C118.139 68.82 118.859 69.236 119.691 69.236C120.251 69.236 120.923 69.012 120.923 68.324C120.923 67.684 120.331 67.492 119.163 67.22C118.027 66.948 116.891 66.484 116.891 65.044C116.891 63.332 118.427 62.596 119.947 62.596C121.051 62.596 122.203 62.98 122.827 63.764ZM124.72 64.356H123.376V62.82H124.72V60.596H126.608V62.82H128.528V64.356H126.608V67.924C126.608 68.612 126.768 69.108 127.616 69.108C127.872 69.108 128.208 69.06 128.432 68.948L128.496 70.452C128.16 70.58 127.648 70.66 127.216 70.66C125.184 70.66 124.72 69.412 124.72 67.94V64.356ZM131.39 65.892H135.326C135.326 64.9 134.766 64.036 133.518 64.036C132.382 64.036 131.47 64.82 131.39 65.892ZM137.246 66.756C137.246 66.932 137.246 67.092 137.23 67.268H131.39C131.47 68.356 132.462 69.156 133.582 69.156C134.542 69.156 135.182 68.772 135.614 68.164L136.894 69.188C136.142 70.212 135.054 70.724 133.598 70.724C131.23 70.724 129.47 69.204 129.47 66.708C129.47 64.228 131.214 62.596 133.534 62.596C135.678 62.596 137.246 63.988 137.246 66.756ZM148.273 62.596C150.273 62.596 151.105 64.132 151.105 65.7V70.5H149.185V66.244C149.185 65.332 148.977 64.196 147.745 64.196C146.545 64.196 146.049 65.316 146.049 66.308V70.5H144.129V65.86C144.129 64.916 143.681 64.196 142.705 64.196C141.553 64.196 141.025 65.252 141.025 66.276V70.5H139.105V62.82H140.929V64.052H140.961C141.297 63.3 142.113 62.596 143.345 62.596C144.529 62.596 145.313 63.188 145.745 64.052C146.257 63.124 147.121 62.596 148.273 62.596Z" fill="white"/>
</g>
<defs>
<clipPath id="clip0_32_3439">
<rect width="152" height="76" fill="white" transform="translate(0.5 0.5)"/>
</clipPath>
</defs>
</svg>
