<svg width="810" height="682" viewBox="0 0 810 682" fill="none" xmlns="http://www.w3.org/2000/svg">
<g style="mix-blend-mode:luminosity" opacity="0.2" clip-path="url(#clip0_32_3454)">
<path fill-rule="evenodd" clip-rule="evenodd" d="M540.736 387.39C573.631 528.379 600.089 641.656 656.405 670.224C658.488 671.916 660.858 673.303 663.479 674.298C674.75 678.701 686.158 680.831 697.292 680.831C712.137 680.831 726.707 676.996 740.314 669.468C793.92 639.784 835.568 553.997 871.443 399.467C918.039 198.35 921.063 90.8322 881.615 39.8429C858.413 9.94107 824.926 4.96163 799.684 4.73638C798.294 4.62175 796.876 4.62042 795.442 4.74057C794.93 4.74589 794.423 4.75281 793.92 4.76114C791.426 4.81072 789.014 5.2237 786.735 5.95025C720.932 17.9408 623.676 96.4458 540.063 180.286C533.949 161.746 527.471 144.038 520.531 127.472C506.923 94.9472 465.413 -3.90671 381.292 0.922363C380.528 0.967912 379.774 1.04714 379.03 1.15859C326.9 7.73766 287.965 51.8923 260.059 136.423C253.05 157.568 246.968 180.331 241.532 204.119C201.465 177.337 162.253 157.381 128.655 147.501C98.4664 138.549 44.4107 130.285 17.5722 172.103C-3.85249 201.937 -10.159 256.643 24.4669 437.671C41.236 525.163 72.0251 641.912 146.661 646.457H147.9C147.945 646.458 147.99 646.458 148.036 646.458C201.917 646.458 222.947 575.726 229.682 552.575C243.43 506.197 252.948 445.068 263.033 380.306L263.633 376.456C267.609 350.729 271.768 323.839 276.365 297.036C308.621 324.519 339.717 355.681 366.545 388.258C362.533 394.224 358.65 400.138 354.902 405.992C313.666 470.332 291.537 523.168 289.063 563.079C289.02 563.839 289.009 564.595 289.027 565.343C287.494 630.719 325.728 677.152 384.316 680.821C388.439 681.106 392.425 681.248 396.411 681.248C429.262 681.248 455.378 672.016 474.071 653.835C493.358 635.152 503.378 608.108 503.879 573.755C503.974 572.862 504.027 571.956 504.035 571.039C504.035 505.192 469.911 439.401 431.913 386.534C456.094 353.339 484.299 318.385 515.554 283.22C524.542 317.96 532.814 353.425 540.659 387.057L540.736 387.39ZM149.42 592.61C138.916 591.815 104.081 576.997 75.4614 427.019C66.802 381.995 57.4553 329.869 53.7441 286.266C48.5209 224.624 56.768 207.864 59.3796 204.171C60.0554 203.225 60.6629 202.248 61.2029 201.246C71.2526 187.705 104.308 196.15 114.361 199.059C148.27 209.042 188.884 231.074 229.998 260.639C223.528 295.796 217.913 332.073 212.38 367.824L212.38 367.825L212.363 367.934L212.346 368.045C202.456 432.344 193.112 493.089 180.062 536.809C168.561 575.667 156.938 590.923 149.42 592.61ZM557.383 237.97C654.738 136.707 750.343 64.9171 797.706 58.4211C820.431 58.3938 833.03 62.873 841.204 73.3623C868.007 107.876 861.134 213.405 820.998 386.826C799.556 479.572 763.956 595.612 715.985 622.03C707.212 626.789 698.439 628.203 688.898 626.128C686.769 624.819 684.422 623.808 681.899 623.162C675.714 621.6 659.357 611.374 637.914 550.868C621.145 503.572 606.576 441.078 591.181 374.891C580.473 328.912 569.574 282.147 557.383 237.97ZM341.026 564.555C341.032 564.96 341.03 565.367 341.018 565.776C340.469 583.388 343.905 624.577 387.477 627.276C403.834 628.27 425.826 626.992 438.472 614.777C447.384 606.135 451.919 591.416 451.942 571.184C451.941 571.135 451.941 571.087 451.941 571.039C451.941 528.536 431.653 480.366 399.953 432.992C365.045 487.113 343.7 533.675 341.026 564.555ZM384.554 54.5969C434.519 51.9266 470.352 128.33 498.88 223.146C497.152 225.012 495.434 226.876 493.728 228.737C458.535 267.188 426.256 306.045 398.215 343.643C387.223 330.753 376.658 319.285 367.271 309.559C342.177 283.629 315.076 259.285 287.521 237.588C307.249 142.656 335.409 61.3446 384.554 54.5969Z" fill="url(#paint0_linear_32_3454)" fill-opacity="0.35"/>
</g>
<defs>
<linearGradient id="paint0_linear_32_3454" x1="806.5" y1="727.251" x2="-128.499" y2="90.2505" gradientUnits="userSpaceOnUse">
<stop stop-color="white"/>
<stop offset="1" stop-color="white" stop-opacity="0"/>
</linearGradient>
<clipPath id="clip0_32_3454">
<rect width="908.985" height="680.497" fill="white" transform="translate(0 0.751465)"/>
</clipPath>
</defs>
</svg>
