<svg width="305" height="124" viewBox="0 0 305 124" fill="none" xmlns="http://www.w3.org/2000/svg">
<path d="M6.916 6.04L6.118 6.684C5.698 6.082 5.012 5.69 4.074 5.69C3.094 5.69 1.96 6.278 1.96 7.552C1.96 8.812 3.01 9.134 4.116 9.498C5.516 9.96 7.056 10.408 7.056 12.396C7.056 14.384 5.39 15.252 3.822 15.252C2.618 15.252 1.414 14.762 0.7 13.782L1.568 13.138C2.002 13.838 2.8 14.384 3.836 14.384C4.858 14.384 6.034 13.74 6.034 12.466C6.034 11.08 4.872 10.73 3.612 10.338C2.296 9.932 0.952 9.358 0.952 7.566C0.952 5.648 2.66 4.836 4.116 4.836C5.446 4.836 6.44 5.396 6.916 6.04ZM9.69434 11.22H14.1603C14.1043 9.988 13.3483 9.078 11.9903 9.078C10.7163 9.078 9.77834 10.1 9.69434 11.22ZM15.1263 11.528C15.1263 11.654 15.1263 11.808 15.1123 11.976H9.68034C9.70834 13.292 10.7303 14.356 12.0743 14.356C13.0543 14.356 13.8103 13.81 14.1743 13.222L14.8883 13.782C14.1183 14.762 13.1523 15.168 12.0743 15.168C10.1283 15.168 8.68634 13.698 8.68634 11.724C8.68634 9.75 10.1283 8.28 11.9903 8.28C14.0483 8.28 15.1263 9.736 15.1263 11.528ZM21.222 10.982V10.772C21.222 9.638 20.606 9.078 19.472 9.078C18.702 9.078 17.988 9.386 17.526 9.848L16.994 9.218C17.526 8.686 18.45 8.28 19.57 8.28C20.984 8.28 22.118 9.064 22.118 10.66V13.53C22.118 14.034 22.16 14.636 22.23 15H21.376C21.32 14.678 21.278 14.286 21.278 13.936H21.25C20.648 14.804 19.92 15.168 18.87 15.168C17.876 15.168 16.602 14.636 16.602 13.18C16.602 11.164 18.828 10.982 21.222 10.982ZM21.222 11.724H20.942C19.388 11.724 17.582 11.892 17.582 13.138C17.582 14.076 18.38 14.384 19.122 14.384C20.466 14.384 21.222 13.376 21.222 12.214V11.724ZM24.5705 9.89C24.5705 9.54 24.5565 8.896 24.5145 8.448H25.4245C25.4525 8.798 25.4805 9.288 25.4805 9.568H25.5085C25.8725 8.812 26.6845 8.28 27.6085 8.28C27.8465 8.28 28.0425 8.294 28.2385 8.35L28.1125 9.246C28.0005 9.204 27.6925 9.162 27.4405 9.162C26.4325 9.162 25.5225 9.89 25.5225 11.64V15H24.5705V9.89ZM34.8294 9.414L34.0874 9.946C33.7794 9.442 33.1214 9.078 32.4074 9.078C30.8814 9.078 29.9014 10.226 29.9014 11.724C29.9014 13.208 30.8674 14.356 32.3934 14.356C33.2194 14.356 33.7934 14.006 34.1714 13.502L34.8854 14.034C34.3254 14.72 33.5274 15.168 32.3934 15.168C30.2794 15.168 28.8934 13.698 28.8934 11.724C28.8934 9.75 30.2794 8.28 32.3934 8.28C33.2754 8.28 34.2694 8.658 34.8294 9.414ZM37.3494 9.526H37.3774C37.7274 8.77 38.6514 8.28 39.5754 8.28C41.2414 8.28 42.0674 9.358 42.0674 10.982V15H41.1154V11.374C41.1154 10.002 40.7094 9.078 39.3374 9.078C38.3294 9.078 37.3494 9.89 37.3494 11.64V15H36.3974V4.416H37.3494V9.526Z" fill="#6B6C72"/>
<rect x="0.5" y="24.5" width="304" height="99" rx="3.5" fill="white"/>
<rect x="0.5" y="24.5" width="304" height="99" rx="3.5" stroke="#8D9096"/>
<path d="M29.7005 50.3L24.3105 44.91C25.5751 43.2955 26.1767 41.2596 25.9928 39.217C25.8088 37.1744 24.8532 35.2787 23.3204 33.9161C21.7876 32.5535 19.7931 31.8264 17.743 31.883C15.6929 31.9395 13.7415 32.7754 12.2862 34.2205C10.8309 35.6656 9.98116 37.611 9.91012 39.6607C9.83907 41.7103 10.552 43.71 11.9038 45.2523C13.2555 46.7947 15.1444 47.7637 17.1857 47.9621C19.2269 48.1605 21.267 47.5732 22.8905 46.32L28.2805 51.72C28.3734 51.8138 28.484 51.8882 28.6059 51.9389C28.7277 51.9897 28.8584 52.0158 28.9905 52.0158C29.1225 52.0158 29.2532 51.9897 29.375 51.9389C29.4969 51.8882 29.6075 51.8138 29.7005 51.72C29.7942 51.6271 29.8686 51.5165 29.9193 51.3946C29.9701 51.2727 29.9963 51.142 29.9963 51.01C29.9963 50.878 29.9701 50.7473 29.9193 50.6255C29.8686 50.5036 29.7942 50.393 29.7005 50.3ZM13.7505 44.24C12.912 43.4006 12.3412 42.3315 12.1103 41.1678C11.8793 40.0041 11.9985 38.7981 12.4528 37.7021C12.9071 36.6061 13.6762 35.6695 14.6627 35.0105C15.6493 34.3515 16.8091 33.9997 17.9955 33.9997C19.1819 33.9997 20.3416 34.3515 21.3282 35.0105C22.3147 35.6695 23.0838 36.6061 23.5381 37.7021C23.9924 38.7981 24.1116 40.0041 23.8807 41.1678C23.6497 42.3315 23.0789 43.4006 22.2405 44.24C21.6832 44.7979 21.0215 45.2404 20.2931 45.5424C19.5647 45.8443 18.7839 45.9997 17.9955 45.9997C17.207 45.9997 16.4262 45.8443 15.6978 45.5424C14.9694 45.2404 14.3077 44.7979 13.7505 44.24Z" fill="#6B6C72"/>
<rect x="40" y="30" width="108" height="24" rx="12" fill="#E3E5E8"/>
<path d="M48.936 46V37.504H50.448V41.176H50.484L54.036 37.504H56.076L52.104 41.428L56.34 46H54.216L50.484 41.74H50.448V46H48.936ZM57.8782 42.544H60.8302C60.8302 41.8 60.4102 41.152 59.4742 41.152C58.6222 41.152 57.9382 41.74 57.8782 42.544ZM62.2702 43.192C62.2702 43.324 62.2702 43.444 62.2582 43.576H57.8782C57.9382 44.392 58.6822 44.992 59.5222 44.992C60.2422 44.992 60.7222 44.704 61.0462 44.248L62.0062 45.016C61.4422 45.784 60.6262 46.168 59.5342 46.168C57.7582 46.168 56.4382 45.028 56.4382 43.156C56.4382 41.296 57.7462 40.072 59.4862 40.072C61.0942 40.072 62.2702 41.116 62.2702 43.192ZM63.6888 46V36.928H65.1288V46H63.6888ZM70.9677 40.948L70.0317 41.776C69.7797 41.44 69.2997 41.152 68.7717 41.152C68.3157 41.152 67.8477 41.32 67.8477 41.776C67.8477 42.22 68.2917 42.34 69.0957 42.532C69.9477 42.736 70.9557 43.12 70.9557 44.248C70.9557 45.652 69.8157 46.168 68.5557 46.168C67.6677 46.168 66.7437 45.832 66.1917 45.22L67.1397 44.332C67.4517 44.74 67.9917 45.052 68.6157 45.052C69.0357 45.052 69.5397 44.884 69.5397 44.368C69.5397 43.888 69.0957 43.744 68.2197 43.54C67.3677 43.336 66.5157 42.988 66.5157 41.908C66.5157 40.624 67.6677 40.072 68.8077 40.072C69.6357 40.072 70.4997 40.36 70.9677 40.948ZM73.3118 42.544H76.2638C76.2638 41.8 75.8438 41.152 74.9078 41.152C74.0558 41.152 73.3718 41.74 73.3118 42.544ZM77.7038 43.192C77.7038 43.324 77.7038 43.444 77.6918 43.576H73.3118C73.3718 44.392 74.1158 44.992 74.9558 44.992C75.6758 44.992 76.1558 44.704 76.4798 44.248L77.4398 45.016C76.8758 45.784 76.0598 46.168 74.9678 46.168C73.1918 46.168 71.8718 45.028 71.8718 43.156C71.8718 41.296 73.1798 40.072 74.9198 40.072C76.5278 40.072 77.7038 41.116 77.7038 43.192ZM80.7064 46L78.2344 40.24H79.8304L81.4384 44.428H81.4624L82.8904 40.24H84.3904L81.6664 47.236C81.2584 48.28 80.7544 48.88 79.4824 48.88C79.2424 48.88 78.9904 48.856 78.7384 48.796L78.8584 47.548C79.0504 47.608 79.2424 47.632 79.3984 47.632C80.0104 47.632 80.1784 47.332 80.4184 46.732L80.7064 46ZM93.6387 38.2L92.6547 39.28C92.3307 38.86 91.6947 38.548 91.0947 38.548C90.3987 38.548 89.5947 38.884 89.5947 39.712C89.5947 40.492 90.2547 40.72 91.2147 41.02C92.3067 41.356 93.6987 41.836 93.6987 43.504C93.6987 45.328 92.2707 46.216 90.6027 46.216C89.4987 46.216 88.3587 45.796 87.6867 45.004L88.7667 43.996C89.1867 44.572 89.9547 44.932 90.6267 44.932C91.3347 44.932 92.1627 44.584 92.1627 43.672C92.1627 42.784 91.2747 42.532 90.2067 42.196C89.1747 41.872 88.0587 41.368 88.0587 39.784C88.0587 38.056 89.6307 37.288 91.1667 37.288C92.0187 37.288 92.9907 37.588 93.6387 38.2ZM95.251 41.392H94.243V40.24H95.251V38.572H96.667V40.24H98.107V41.392H96.667V44.068C96.667 44.584 96.787 44.956 97.423 44.956C97.615 44.956 97.867 44.92 98.035 44.836L98.083 45.964C97.831 46.06 97.447 46.12 97.123 46.12C95.599 46.12 95.251 45.184 95.251 44.08V41.392ZM102.725 46V45.268H102.689C102.401 45.772 101.717 46.144 100.901 46.144C99.9772 46.144 98.7412 45.7 98.7412 44.356C98.7412 42.64 100.901 42.4 102.701 42.4V42.256C102.701 41.548 102.101 41.2 101.381 41.2C100.769 41.2 100.181 41.488 99.8092 41.86L99.0652 40.984C99.7132 40.384 100.625 40.072 101.501 40.072C103.565 40.072 104.069 41.344 104.069 42.496V46H102.725ZM102.701 43.576V43.372H102.377C101.465 43.372 100.181 43.48 100.181 44.332C100.181 44.884 100.697 45.052 101.189 45.052C102.173 45.052 102.701 44.488 102.701 43.576ZM111.003 40.24V46H109.635V45.076H109.611C109.359 45.652 108.675 46.168 107.823 46.168C106.323 46.168 105.699 45.016 105.699 43.84V40.24H107.139V43.432C107.139 44.116 107.295 44.968 108.219 44.968C109.131 44.968 109.563 44.176 109.563 43.408V40.24H111.003ZM112.755 36.928H114.195V40.972H114.231C114.531 40.6 115.107 40.072 116.163 40.072C117.807 40.072 118.959 41.392 118.959 43.096C118.959 44.776 117.879 46.168 116.127 46.168C115.323 46.168 114.543 45.796 114.147 45.136H114.123V46H112.755V36.928ZM117.495 43.096C117.495 42.196 116.955 41.248 115.839 41.248C114.783 41.248 114.147 42.22 114.147 43.12C114.147 44.02 114.783 44.968 115.839 44.968C116.955 44.968 117.495 43.996 117.495 43.096Z" fill="#393A3D"/>
<path d="M140.721 37.2935C140.105 36.6715 139.371 36.178 138.562 35.8416C137.754 35.5051 136.887 35.3324 136.011 35.3335H136C134.232 35.3321 132.536 36.0331 131.285 37.2824C130.033 38.5316 129.33 40.2267 129.328 41.9948C129.327 43.7629 130.028 45.4592 131.277 46.7104C132.526 47.9617 134.221 48.6654 135.989 48.6668H136C137.318 48.6668 138.606 48.2763 139.702 47.5447C140.798 46.8131 141.652 45.7731 142.157 44.5562C142.662 43.3392 142.796 41.9998 142.54 40.7072C142.285 39.4146 141.652 38.2267 140.721 37.2935ZM137.884 42.9455C137.948 43.0071 137.998 43.0807 138.033 43.1621C138.068 43.2435 138.086 43.331 138.087 43.4195C138.088 43.508 138.071 43.5958 138.037 43.6777C138.003 43.7596 137.954 43.8339 137.891 43.8964C137.828 43.9589 137.754 44.0083 137.672 44.0417C137.59 44.0751 137.502 44.0919 137.414 44.091C137.325 44.0901 137.238 44.0716 137.156 44.0365C137.075 44.0015 137.002 43.9506 136.94 43.8868L136 42.9428L135.056 43.8842C134.994 43.9461 134.921 43.9951 134.84 44.0286C134.759 44.0621 134.672 44.0793 134.584 44.0792C134.497 44.0791 134.41 44.0618 134.329 44.0282C134.248 43.9947 134.175 43.9455 134.113 43.8835C133.988 43.7583 133.918 43.5886 133.918 43.4117C133.918 43.3241 133.935 43.2374 133.969 43.1565C134.002 43.0756 134.051 43.0021 134.113 42.9402L135.057 42.0002L134.116 41.0542C134.053 40.9926 134.002 40.9189 133.967 40.8376C133.932 40.7562 133.914 40.6687 133.913 40.5802C133.913 40.4916 133.93 40.4039 133.963 40.322C133.997 40.2401 134.047 40.1658 134.109 40.1033C134.172 40.0407 134.246 39.9914 134.328 39.9579C134.41 39.9245 134.498 39.9078 134.587 39.9087C134.675 39.9096 134.763 39.9281 134.844 39.9631C134.925 39.9982 134.999 40.0491 135.06 40.1128L136 41.0575L136.944 40.1162C137.069 39.9912 137.239 39.921 137.416 39.9211C137.593 39.9213 137.762 39.9917 137.887 40.1168C138.012 40.242 138.083 40.4117 138.082 40.5886C138.082 40.7655 138.012 40.9352 137.887 41.0602L136.943 42.0002L137.884 42.9455Z" fill="#393A3D"/>
<rect x="156" y="30" width="111" height="24" rx="12" fill="#E3E5E8"/>
<path d="M163.904 46L167.6 37.504H168.908L172.568 46H170.84L170.048 44.056H166.364L165.596 46H163.904ZM166.88 42.76H169.52L168.212 39.304L166.88 42.76ZM173.361 46V36.928H174.801V46H173.361ZM177.652 42.544H180.604C180.604 41.8 180.184 41.152 179.248 41.152C178.396 41.152 177.712 41.74 177.652 42.544ZM182.044 43.192C182.044 43.324 182.044 43.444 182.032 43.576H177.652C177.712 44.392 178.456 44.992 179.296 44.992C180.016 44.992 180.496 44.704 180.82 44.248L181.78 45.016C181.216 45.784 180.4 46.168 179.308 46.168C177.532 46.168 176.212 45.028 176.212 43.156C176.212 41.296 177.52 40.072 179.26 40.072C180.868 40.072 182.044 41.116 182.044 43.192ZM182.445 46L184.785 42.94L182.709 40.24H184.437L185.685 42.028L186.969 40.24H188.625L186.561 42.94L188.913 46H187.161L185.661 43.9L184.149 46H182.445ZM196.874 37.504V43.252C196.874 44.488 196.442 46.216 194.318 46.216C192.95 46.216 192.122 45.46 191.822 44.344L193.214 43.948C193.358 44.512 193.766 44.86 194.294 44.86C195.158 44.86 195.362 44.176 195.362 43.204V37.504H196.874ZM198.266 43.096C198.266 41.284 199.658 40.072 201.398 40.072C203.138 40.072 204.53 41.284 204.53 43.096C204.53 44.908 203.138 46.168 201.398 46.168C199.658 46.168 198.266 44.908 198.266 43.096ZM199.73 43.096C199.73 43.996 200.258 44.968 201.398 44.968C202.538 44.968 203.066 43.996 203.066 43.096C203.066 42.196 202.538 41.248 201.398 41.248C200.258 41.248 199.73 42.196 199.73 43.096ZM209.131 40.072C210.631 40.072 211.255 41.224 211.255 42.4V46H209.815V42.832C209.815 42.148 209.671 41.308 208.747 41.308C207.835 41.308 207.391 42.088 207.391 42.856V46H205.951V36.928H207.391V41.044H207.415C207.643 40.564 208.279 40.072 209.131 40.072ZM212.934 46V40.24H214.302V41.164H214.326C214.578 40.588 215.262 40.072 216.114 40.072C217.614 40.072 218.238 41.224 218.238 42.4V46H216.798V42.808C216.798 42.124 216.642 41.272 215.718 41.272C214.806 41.272 214.374 42.064 214.374 42.832V46H212.934ZM224.011 40.948L223.075 41.776C222.823 41.44 222.343 41.152 221.815 41.152C221.359 41.152 220.891 41.32 220.891 41.776C220.891 42.22 221.335 42.34 222.139 42.532C222.991 42.736 223.999 43.12 223.999 44.248C223.999 45.652 222.859 46.168 221.599 46.168C220.711 46.168 219.787 45.832 219.235 45.22L220.183 44.332C220.495 44.74 221.035 45.052 221.659 45.052C222.079 45.052 222.583 44.884 222.583 44.368C222.583 43.888 222.139 43.744 221.263 43.54C220.411 43.336 219.559 42.988 219.559 41.908C219.559 40.624 220.711 40.072 221.851 40.072C222.679 40.072 223.543 40.36 224.011 40.948ZM224.915 43.096C224.915 41.284 226.307 40.072 228.047 40.072C229.787 40.072 231.179 41.284 231.179 43.096C231.179 44.908 229.787 46.168 228.047 46.168C226.307 46.168 224.915 44.908 224.915 43.096ZM226.379 43.096C226.379 43.996 226.907 44.968 228.047 44.968C229.187 44.968 229.715 43.996 229.715 43.096C229.715 42.196 229.187 41.248 228.047 41.248C226.907 41.248 226.379 42.196 226.379 43.096ZM232.575 46V40.24H233.943V41.164H233.967C234.219 40.588 234.903 40.072 235.755 40.072C237.255 40.072 237.879 41.224 237.879 42.4V46H236.439V42.808C236.439 42.124 236.283 41.272 235.359 41.272C234.447 41.272 234.015 42.064 234.015 42.832V46H232.575Z" fill="#393A3D"/>
<path d="M259.721 37.2935C259.105 36.6715 258.371 36.178 257.562 35.8416C256.754 35.5051 255.887 35.3324 255.011 35.3335H255C253.232 35.3321 251.536 36.0331 250.285 37.2824C249.033 38.5316 248.33 40.2267 248.328 41.9948C248.327 43.7629 249.028 45.4592 250.277 46.7104C251.526 47.9617 253.221 48.6654 254.989 48.6668H255C256.318 48.6668 257.606 48.2763 258.702 47.5447C259.798 46.8131 260.652 45.7731 261.157 44.5562C261.662 43.3392 261.796 41.9998 261.54 40.7072C261.285 39.4146 260.652 38.2267 259.721 37.2935ZM256.884 42.9455C256.948 43.0071 256.998 43.0807 257.033 43.1621C257.068 43.2435 257.086 43.331 257.087 43.4195C257.088 43.508 257.071 43.5958 257.037 43.6777C257.003 43.7596 256.954 43.8339 256.891 43.8964C256.828 43.9589 256.754 44.0083 256.672 44.0417C256.59 44.0751 256.502 44.0919 256.414 44.091C256.325 44.0901 256.238 44.0716 256.156 44.0365C256.075 44.0015 256.002 43.9506 255.94 43.8868L255 42.9428L254.056 43.8842C253.994 43.9461 253.921 43.9951 253.84 44.0286C253.759 44.0621 253.672 44.0793 253.584 44.0792C253.497 44.0791 253.41 44.0618 253.329 44.0282C253.248 43.9947 253.175 43.9455 253.113 43.8835C252.988 43.7583 252.918 43.5886 252.918 43.4117C252.918 43.3241 252.935 43.2374 252.969 43.1565C253.002 43.0756 253.051 43.0021 253.113 42.9402L254.057 42.0002L253.116 41.0542C253.053 40.9926 253.002 40.9189 252.967 40.8376C252.932 40.7562 252.914 40.6687 252.913 40.5802C252.913 40.4916 252.93 40.4039 252.963 40.322C252.997 40.2401 253.047 40.1658 253.109 40.1033C253.172 40.0407 253.246 39.9914 253.328 39.9579C253.41 39.9245 253.498 39.9078 253.587 39.9087C253.675 39.9096 253.763 39.9281 253.844 39.9631C253.925 39.9982 253.999 40.0491 254.06 40.1128L255 41.0575L255.944 40.1162C256.069 39.9912 256.239 39.921 256.416 39.9211C256.593 39.9213 256.762 39.9917 256.887 40.1168C257.012 40.242 257.083 40.4117 257.082 40.5886C257.082 40.7655 257.012 40.9352 256.887 41.0602L255.943 42.0002L256.884 42.9455Z" fill="#393A3D"/>
<rect x="40" y="62" width="82" height="24" rx="12" fill="#E3E5E8"/>
<path d="M53.112 69.504V75.252C53.112 76.488 52.68 78.216 50.556 78.216C49.188 78.216 48.36 77.46 48.06 76.344L49.452 75.948C49.596 76.512 50.004 76.86 50.532 76.86C51.396 76.86 51.6 76.176 51.6 75.204V69.504H53.112ZM54.8646 78V72.24H56.3046V78H54.8646ZM54.6606 70.284C54.6606 69.828 55.0446 69.42 55.5726 69.42C56.1006 69.42 56.5086 69.792 56.5086 70.284C56.5086 70.776 56.1006 71.148 55.5726 71.148C55.0446 71.148 54.6606 70.74 54.6606 70.284ZM58.0515 78V72.24H59.4195V73.164H59.4435C59.6955 72.588 60.3795 72.072 61.2315 72.072C62.7315 72.072 63.3555 73.224 63.3555 74.4V78H61.9155V74.808C61.9155 74.124 61.7595 73.272 60.8355 73.272C59.9235 73.272 59.4915 74.064 59.4915 74.832V78H58.0515ZM69.5239 72.24H70.8919V77.484C70.8919 79.56 69.8839 80.88 67.6399 80.88C66.7039 80.88 65.5279 80.544 64.7839 79.932L65.6119 78.816C66.1639 79.344 66.9079 79.632 67.6279 79.632C69.0199 79.632 69.4519 78.792 69.4519 77.652V77.232H69.4279C69.0079 77.796 68.3359 78.096 67.5439 78.096C65.8159 78.096 64.6999 76.728 64.6999 75.096C64.6999 73.428 65.7799 72.072 67.5199 72.072C68.3239 72.072 69.0799 72.408 69.4999 73.104H69.5239V72.24ZM67.8199 73.248C66.7759 73.248 66.1639 74.064 66.1639 75.084C66.1639 75.996 66.7759 76.908 67.8079 76.908C68.8759 76.908 69.5239 76.044 69.5239 75.084C69.5239 74.088 68.8639 73.248 67.8199 73.248ZM77.1693 78L74.6853 69.504H76.3413L77.9853 75.744H78.0093L79.8813 69.504H81.4413L83.2773 75.744H83.3013L84.9813 69.504H86.5893L84.1053 78H82.6413L80.6493 71.628H80.6253L78.6333 78H77.1693ZM92.4872 72.24V78H91.1192V77.076H91.0952C90.8432 77.652 90.1592 78.168 89.3072 78.168C87.8072 78.168 87.1832 77.016 87.1832 75.84V72.24H88.6232V75.432C88.6232 76.116 88.7792 76.968 89.7032 76.968C90.6152 76.968 91.0472 76.176 91.0472 75.408V72.24H92.4872Z" fill="#393A3D"/>
<path d="M114.721 69.2935C114.105 68.6715 113.371 68.178 112.562 67.8416C111.754 67.5051 110.887 67.3324 110.011 67.3335H110C108.232 67.3321 106.536 68.0331 105.285 69.2824C104.033 70.5316 103.33 72.2267 103.328 73.9948C103.327 75.7629 104.028 77.4592 105.277 78.7104C106.526 79.9617 108.221 80.6654 109.989 80.6668H110C111.318 80.6668 112.606 80.2763 113.702 79.5447C114.798 78.8131 115.652 77.7731 116.157 76.5562C116.662 75.3392 116.796 73.9998 116.54 72.7072C116.285 71.4146 115.652 70.2267 114.721 69.2935ZM111.884 74.9455C111.948 75.0071 111.998 75.0807 112.033 75.1621C112.068 75.2435 112.086 75.331 112.087 75.4195C112.088 75.508 112.071 75.5958 112.037 75.6777C112.003 75.7596 111.954 75.8339 111.891 75.8964C111.828 75.9589 111.754 76.0083 111.672 76.0417C111.59 76.0751 111.502 76.0919 111.414 76.091C111.325 76.0901 111.238 76.0716 111.156 76.0365C111.075 76.0015 111.002 75.9506 110.94 75.8868L110 74.9428L109.056 75.8842C108.994 75.9461 108.921 75.9951 108.84 76.0286C108.759 76.0621 108.672 76.0793 108.584 76.0792C108.497 76.0791 108.41 76.0618 108.329 76.0282C108.248 75.9947 108.175 75.9455 108.113 75.8835C107.988 75.7583 107.918 75.5886 107.918 75.4117C107.918 75.3241 107.935 75.2374 107.969 75.1565C108.002 75.0756 108.051 75.0021 108.113 74.9402L109.057 74.0002L108.116 73.0542C108.053 72.9926 108.002 72.9189 107.967 72.8376C107.932 72.7562 107.914 72.6687 107.913 72.5802C107.913 72.4916 107.93 72.4039 107.963 72.322C107.997 72.2401 108.047 72.1658 108.109 72.1033C108.172 72.0407 108.246 71.9914 108.328 71.9579C108.41 71.9245 108.498 71.9078 108.587 71.9087C108.675 71.9096 108.763 71.9281 108.844 71.9631C108.925 71.9982 108.999 72.0491 109.06 72.1128L110 73.0575L110.944 72.1162C111.069 71.9912 111.239 71.921 111.416 71.9211C111.593 71.9213 111.762 71.9917 111.887 72.1168C112.012 72.242 112.083 72.4117 112.082 72.5886C112.082 72.7655 112.012 72.9352 111.887 73.0602L110.943 74.0002L111.884 74.9455Z" fill="#393A3D"/>
<rect x="130" y="62" width="93" height="24" rx="12" fill="#E3E5E8"/>
<path d="M137.904 78L141.6 69.504H142.908L146.568 78H144.84L144.048 76.056H140.364L139.596 78H137.904ZM140.88 74.76H143.52L142.212 71.304L140.88 74.76ZM152.593 72.24V78H151.225V77.076H151.201C150.949 77.652 150.265 78.168 149.413 78.168C147.913 78.168 147.289 77.016 147.289 75.84V72.24H148.729V75.432C148.729 76.116 148.885 76.968 149.809 76.968C150.721 76.968 151.153 76.176 151.153 75.408V72.24H152.593ZM160.177 68.928V78H158.809V77.136H158.785C158.389 77.796 157.609 78.168 156.805 78.168C155.053 78.168 153.973 76.776 153.973 75.096C153.973 73.392 155.125 72.072 156.769 72.072C157.825 72.072 158.401 72.6 158.701 72.972H158.737V68.928H160.177ZM155.437 75.096C155.437 75.996 155.977 76.968 157.093 76.968C158.149 76.968 158.785 76.02 158.785 75.12C158.785 74.22 158.149 73.248 157.093 73.248C155.977 73.248 155.437 74.196 155.437 75.096ZM161.927 78V72.24H163.307V73.2H163.331C163.643 72.54 164.255 72.072 165.011 72.072C165.119 72.072 165.263 72.084 165.359 72.108V73.428C165.167 73.38 165.047 73.368 164.915 73.368C163.619 73.368 163.367 74.496 163.367 74.916V78H161.927ZM167.191 74.544H170.143C170.143 73.8 169.723 73.152 168.787 73.152C167.935 73.152 167.251 73.74 167.191 74.544ZM171.583 75.192C171.583 75.324 171.583 75.444 171.571 75.576H167.191C167.251 76.392 167.995 76.992 168.835 76.992C169.555 76.992 170.035 76.704 170.359 76.248L171.319 77.016C170.755 77.784 169.939 78.168 168.847 78.168C167.071 78.168 165.751 77.028 165.751 75.156C165.751 73.296 167.059 72.072 168.799 72.072C170.407 72.072 171.583 73.116 171.583 75.192ZM174.585 78L172.113 72.24H173.709L175.317 76.428H175.341L176.769 72.24H178.269L175.545 79.236C175.137 80.28 174.633 80.88 173.361 80.88C173.121 80.88 172.869 80.856 172.617 80.796L172.737 79.548C172.929 79.608 173.121 79.632 173.277 79.632C173.889 79.632 174.057 79.332 174.297 78.732L174.585 78ZM182.202 78V69.504H187.686V70.824H183.714V73.152H187.458V74.424H183.714V78H182.202ZM193.761 72.24V78H192.393V77.076H192.369C192.117 77.652 191.433 78.168 190.581 78.168C189.081 78.168 188.457 77.016 188.457 75.84V72.24H189.897V75.432C189.897 76.116 190.053 76.968 190.977 76.968C191.889 76.968 192.321 76.176 192.321 75.408V72.24H193.761Z" fill="#393A3D"/>
<path d="M215.721 69.2935C215.105 68.6715 214.371 68.178 213.562 67.8416C212.754 67.5051 211.887 67.3324 211.011 67.3335H211C209.232 67.3321 207.536 68.0331 206.285 69.2824C205.033 70.5316 204.33 72.2267 204.328 73.9948C204.327 75.7629 205.028 77.4592 206.277 78.7104C207.526 79.9617 209.221 80.6654 210.989 80.6668H211C212.318 80.6668 213.606 80.2763 214.702 79.5447C215.798 78.8131 216.652 77.7731 217.157 76.5562C217.662 75.3392 217.796 73.9998 217.54 72.7072C217.285 71.4146 216.652 70.2267 215.721 69.2935ZM212.884 74.9455C212.948 75.0071 212.998 75.0807 213.033 75.1621C213.068 75.2435 213.086 75.331 213.087 75.4195C213.088 75.508 213.071 75.5958 213.037 75.6777C213.003 75.7596 212.954 75.8339 212.891 75.8964C212.828 75.9589 212.754 76.0083 212.672 76.0417C212.59 76.0751 212.502 76.0919 212.414 76.091C212.325 76.0901 212.238 76.0716 212.156 76.0365C212.075 76.0015 212.002 75.9506 211.94 75.8868L211 74.9428L210.056 75.8842C209.994 75.9461 209.921 75.9951 209.84 76.0286C209.759 76.0621 209.672 76.0793 209.584 76.0792C209.497 76.0791 209.41 76.0618 209.329 76.0282C209.248 75.9947 209.175 75.9455 209.113 75.8835C208.988 75.7583 208.918 75.5886 208.918 75.4117C208.918 75.3241 208.935 75.2374 208.969 75.1565C209.002 75.0756 209.051 75.0021 209.113 74.9402L210.057 74.0002L209.116 73.0542C209.053 72.9926 209.002 72.9189 208.967 72.8376C208.932 72.7562 208.914 72.6687 208.913 72.5802C208.913 72.4916 208.93 72.4039 208.963 72.322C208.997 72.2401 209.047 72.1658 209.109 72.1033C209.172 72.0407 209.246 71.9914 209.328 71.9579C209.41 71.9245 209.498 71.9078 209.587 71.9087C209.675 71.9096 209.763 71.9281 209.844 71.9631C209.925 71.9982 209.999 72.0491 210.06 72.1128L211 73.0575L211.944 72.1162C212.069 71.9912 212.239 71.921 212.416 71.9211C212.593 71.9213 212.762 71.9917 212.887 72.1168C213.012 72.242 213.083 72.4117 213.082 72.5886C213.082 72.7655 213.012 72.9352 212.887 73.0602L211.943 74.0002L212.884 74.9455Z" fill="#393A3D"/>
<g clip-path="url(#clip0_3171_12508)">
<rect x="40" y="94" width="156" height="24" rx="12" fill="#E3E5E8"/>
<path d="M48.936 110V101.504H51.3L53.508 107.54H53.544L55.728 101.504H58.104V110H56.604V103.172H56.58L54 110H52.944L50.4 103.172H50.376V110H48.936ZM63.4791 110V109.268H63.4431C63.1551 109.772 62.4711 110.144 61.6551 110.144C60.7311 110.144 59.4951 109.7 59.4951 108.356C59.4951 106.64 61.6551 106.4 63.4551 106.4V106.256C63.4551 105.548 62.8551 105.2 62.1351 105.2C61.5231 105.2 60.9351 105.488 60.5631 105.86L59.8191 104.984C60.4671 104.384 61.3791 104.072 62.2551 104.072C64.3191 104.072 64.8231 105.344 64.8231 106.496V110H63.4791ZM63.4551 107.576V107.372H63.1311C62.2191 107.372 60.9351 107.48 60.9351 108.332C60.9351 108.884 61.4511 109.052 61.9431 109.052C62.9271 109.052 63.4551 108.488 63.4551 107.576ZM66.5007 110V104.24H67.8807V105.2H67.9047C68.2167 104.54 68.8287 104.072 69.5847 104.072C69.6927 104.072 69.8367 104.084 69.9327 104.108V105.428C69.7407 105.38 69.6207 105.368 69.4887 105.368C68.1927 105.368 67.9407 106.496 67.9407 106.916V110H66.5007ZM74.2955 110V109.268H74.2595C73.9715 109.772 73.2875 110.144 72.4715 110.144C71.5475 110.144 70.3115 109.7 70.3115 108.356C70.3115 106.64 72.4715 106.4 74.2715 106.4V106.256C74.2715 105.548 73.6715 105.2 72.9515 105.2C72.3395 105.2 71.7515 105.488 71.3795 105.86L70.6355 104.984C71.2835 104.384 72.1955 104.072 73.0715 104.072C75.1355 104.072 75.6395 105.344 75.6395 106.496V110H74.2955ZM74.2715 107.576V107.372H73.9475C73.0355 107.372 71.7515 107.48 71.7515 108.332C71.7515 108.884 72.2675 109.052 72.7595 109.052C73.7435 109.052 74.2715 108.488 74.2715 107.576ZM77.3171 110V104.24H78.6851V105.164H78.7091C78.9611 104.588 79.6451 104.072 80.4971 104.072C81.9971 104.072 82.6211 105.224 82.6211 106.4V110H81.1811V106.808C81.1811 106.124 81.0251 105.272 80.1011 105.272C79.1891 105.272 78.7571 106.064 78.7571 106.832V110H77.3171ZM87.8775 110V109.268H87.8415C87.5535 109.772 86.8695 110.144 86.0535 110.144C85.1295 110.144 83.8935 109.7 83.8935 108.356C83.8935 106.64 86.0535 106.4 87.8535 106.4V106.256C87.8535 105.548 87.2535 105.2 86.5335 105.2C85.9215 105.2 85.3335 105.488 84.9615 105.86L84.2175 104.984C84.8655 104.384 85.7775 104.072 86.6535 104.072C88.7175 104.072 89.2215 105.344 89.2215 106.496V110H87.8775ZM87.8535 107.576V107.372H87.5295C86.6175 107.372 85.3335 107.48 85.3335 108.332C85.3335 108.884 85.8495 109.052 86.3415 109.052C87.3255 109.052 87.8535 108.488 87.8535 107.576ZM94.1032 104.072C95.6032 104.072 96.2272 105.224 96.2272 106.4V110H94.7872V106.832C94.7872 106.148 94.6432 105.308 93.7192 105.308C92.8072 105.308 92.3632 106.088 92.3632 106.856V110H90.9232V100.928H92.3632V105.044H92.3872C92.6152 104.564 93.2512 104.072 94.1032 104.072ZM97.571 107.096C97.571 105.284 98.963 104.072 100.703 104.072C102.443 104.072 103.835 105.284 103.835 107.096C103.835 108.908 102.443 110.168 100.703 110.168C98.963 110.168 97.571 108.908 97.571 107.096ZM99.035 107.096C99.035 107.996 99.563 108.968 100.703 108.968C101.843 108.968 102.371 107.996 102.371 107.096C102.371 106.196 101.843 105.248 100.703 105.248C99.563 105.248 99.035 106.196 99.035 107.096ZM108.303 110V101.504H110.307L114.255 107.864H114.279V101.504H115.791V110H113.871L109.839 103.436H109.815V110H108.303ZM117.234 104.672L118.074 101.504H119.466L118.446 104.672H117.234ZM128.341 105.152V109.556C127.489 109.964 126.469 110.216 125.137 110.216C122.401 110.216 120.493 108.38 120.493 105.728C120.493 103.004 122.485 101.288 125.101 101.288C126.445 101.288 127.645 101.72 128.329 102.356L127.285 103.484C126.853 103.004 126.025 102.62 125.113 102.62C123.325 102.62 122.161 103.976 122.161 105.728C122.161 107.54 123.313 108.86 125.185 108.86C125.821 108.86 126.385 108.764 126.877 108.56V106.4H125.089V105.152H128.341ZM135.366 104.24V110H133.998V109.076H133.974C133.722 109.652 133.038 110.168 132.186 110.168C130.686 110.168 130.062 109.016 130.062 107.84V104.24H131.502V107.432C131.502 108.116 131.658 108.968 132.582 108.968C133.494 108.968 133.926 108.176 133.926 107.408V104.24H135.366ZM138.198 106.544H141.15C141.15 105.8 140.73 105.152 139.794 105.152C138.942 105.152 138.258 105.74 138.198 106.544ZM142.59 107.192C142.59 107.324 142.59 107.444 142.578 107.576H138.198C138.258 108.392 139.002 108.992 139.842 108.992C140.562 108.992 141.042 108.704 141.366 108.248L142.326 109.016C141.762 109.784 140.946 110.168 139.854 110.168C138.078 110.168 136.758 109.028 136.758 107.156C136.758 105.296 138.066 104.072 139.806 104.072C141.414 104.072 142.59 105.116 142.59 107.192ZM148.077 104.948L147.141 105.776C146.889 105.44 146.409 105.152 145.881 105.152C145.425 105.152 144.957 105.32 144.957 105.776C144.957 106.22 145.401 106.34 146.205 106.532C147.057 106.736 148.065 107.12 148.065 108.248C148.065 109.652 146.925 110.168 145.665 110.168C144.777 110.168 143.853 109.832 143.301 109.22L144.249 108.332C144.561 108.74 145.101 109.052 145.725 109.052C146.145 109.052 146.649 108.884 146.649 108.368C146.649 107.888 146.205 107.744 145.329 107.54C144.477 107.336 143.625 106.988 143.625 105.908C143.625 104.624 144.777 104.072 145.917 104.072C146.745 104.072 147.609 104.36 148.077 104.948ZM153.409 104.948L152.473 105.776C152.221 105.44 151.741 105.152 151.213 105.152C150.757 105.152 150.289 105.32 150.289 105.776C150.289 106.22 150.733 106.34 151.537 106.532C152.389 106.736 153.397 107.12 153.397 108.248C153.397 109.652 152.257 110.168 150.997 110.168C150.109 110.168 149.185 109.832 148.633 109.22L149.581 108.332C149.893 108.74 150.433 109.052 151.057 109.052C151.477 109.052 151.981 108.884 151.981 108.368C151.981 107.888 151.537 107.744 150.661 107.54C149.809 107.336 148.957 106.988 148.957 105.908C148.957 104.624 150.109 104.072 151.249 104.072C152.077 104.072 152.941 104.36 153.409 104.948ZM158.225 110V109.268H158.189C157.901 109.772 157.217 110.144 156.401 110.144C155.477 110.144 154.241 109.7 154.241 108.356C154.241 106.64 156.401 106.4 158.201 106.4V106.256C158.201 105.548 157.601 105.2 156.881 105.2C156.269 105.2 155.681 105.488 155.309 105.86L154.565 104.984C155.213 104.384 156.125 104.072 157.001 104.072C159.065 104.072 159.569 105.344 159.569 106.496V110H158.225ZM158.201 107.576V107.372H157.877C156.965 107.372 155.681 107.48 155.681 108.332C155.681 108.884 156.197 109.052 156.689 109.052C157.673 109.052 158.201 108.488 158.201 107.576ZM161.247 110V104.24H162.615V105.164H162.639C162.891 104.588 163.575 104.072 164.427 104.072C165.927 104.072 166.551 105.224 166.551 106.4V110H165.111V106.808C165.111 106.124 164.955 105.272 164.031 105.272C163.119 105.272 162.687 106.064 162.687 106.832V110H161.247Z" fill="#393A3D"/>
<path d="M188.721 101.294C188.105 100.671 187.371 100.178 186.562 99.8416C185.754 99.5051 184.887 99.3324 184.011 99.3335H184C182.232 99.3321 180.536 100.033 179.285 101.282C178.033 102.532 177.33 104.227 177.328 105.995C177.327 107.763 178.028 109.459 179.277 110.71C180.526 111.962 182.221 112.665 183.989 112.667H184C185.318 112.667 186.606 112.276 187.702 111.545C188.798 110.813 189.652 109.773 190.157 108.556C190.662 107.339 190.796 106 190.54 104.707C190.285 103.415 189.652 102.227 188.721 101.294ZM185.884 106.946C185.948 107.007 185.998 107.081 186.033 107.162C186.068 107.243 186.086 107.331 186.087 107.42C186.088 107.508 186.071 107.596 186.037 107.678C186.003 107.76 185.954 107.834 185.891 107.896C185.828 107.959 185.754 108.008 185.672 108.042C185.59 108.075 185.502 108.092 185.414 108.091C185.325 108.09 185.238 108.072 185.156 108.037C185.075 108.001 185.002 107.951 184.94 107.887L184 106.943L183.056 107.884C182.994 107.946 182.921 107.995 182.84 108.029C182.759 108.062 182.672 108.079 182.584 108.079C182.497 108.079 182.41 108.062 182.329 108.028C182.248 107.995 182.175 107.945 182.113 107.884C181.988 107.758 181.918 107.589 181.918 107.412C181.918 107.324 181.935 107.237 181.969 107.156C182.002 107.076 182.051 107.002 182.113 106.94L183.057 106L182.116 105.054C182.053 104.993 182.002 104.919 181.967 104.838C181.932 104.756 181.914 104.669 181.913 104.58C181.913 104.492 181.93 104.404 181.963 104.322C181.997 104.24 182.047 104.166 182.109 104.103C182.172 104.041 182.246 103.991 182.328 103.958C182.41 103.925 182.498 103.908 182.587 103.909C182.675 103.91 182.763 103.928 182.844 103.963C182.925 103.998 182.999 104.049 183.06 104.113L184 105.058L184.944 104.116C185.069 103.991 185.239 103.921 185.416 103.921C185.593 103.921 185.762 103.992 185.887 104.117C186.012 104.242 186.083 104.412 186.082 104.589C186.082 104.766 186.012 104.935 185.887 105.06L184.943 106L185.884 106.946Z" fill="#393A3D"/>
<path d="M206.976 109.216L205.84 112H204.08L208.992 100.672H210.432L215.296 112H213.504L212.352 109.216H206.976ZM209.664 102.512L207.536 107.824H211.776L209.664 102.512ZM218.143 105.664C218.527 104.864 219.407 104.208 220.559 104.208C221.567 104.208 222.447 104.656 222.911 105.728C223.423 104.752 224.415 104.208 225.487 104.208C227.439 104.208 228.319 105.6 228.319 107.296V112H226.815V107.792C226.815 106.56 226.447 105.472 225.135 105.472C223.759 105.472 223.215 106.72 223.215 107.904V112H221.711V107.488C221.711 106.304 221.311 105.472 220.111 105.472C219.007 105.472 218.175 106.464 218.175 107.968V112H216.671V106.048C216.671 105.648 216.655 104.912 216.607 104.416H218.031C218.063 104.8 218.095 105.344 218.095 105.664H218.143ZM235.579 107.296V107.088C235.579 105.968 234.827 105.424 233.707 105.424C232.859 105.424 232.059 105.792 231.547 106.304L230.747 105.344C231.483 104.64 232.619 104.208 233.851 104.208C236.027 104.208 237.019 105.504 237.019 107.184V110.496C237.019 111.008 237.051 111.632 237.131 112H235.771C235.691 111.664 235.643 111.264 235.643 110.912H235.595C235.051 111.728 234.187 112.192 233.051 112.192C231.851 112.192 230.299 111.6 230.299 109.856C230.299 107.568 233.019 107.296 235.579 107.296ZM235.579 108.384H235.211C233.723 108.384 231.835 108.544 231.835 109.824C231.835 110.72 232.635 111.008 233.387 111.008C234.795 111.008 235.579 110.064 235.579 108.784V108.384ZM239.466 104.416H240.89C240.922 104.8 240.954 105.344 240.954 105.664H241.002C241.37 104.848 242.378 104.208 243.466 104.208C245.418 104.208 246.298 105.6 246.298 107.296V112H244.794V107.792C244.794 106.56 244.458 105.472 243.066 105.472C241.882 105.472 241.034 106.464 241.034 107.968V112H239.53V106.048C239.53 105.648 239.514 104.912 239.466 104.416ZM254.891 110.8C254.315 111.712 253.227 112.208 252.155 112.208C249.819 112.208 248.331 110.416 248.331 108.192C248.331 105.952 249.867 104.208 252.139 104.208C253.371 104.208 254.315 104.816 254.843 105.552H254.875V99.904H256.379V112H254.923V110.8H254.891ZM249.899 108.192C249.899 109.616 250.763 110.944 252.411 110.944C253.947 110.944 254.971 109.664 254.971 108.208C254.971 106.752 253.947 105.456 252.411 105.456C250.763 105.456 249.899 106.768 249.899 108.192ZM263.719 107.296V107.088C263.719 105.968 262.967 105.424 261.847 105.424C260.999 105.424 260.199 105.792 259.687 106.304L258.887 105.344C259.623 104.64 260.759 104.208 261.991 104.208C264.167 104.208 265.159 105.504 265.159 107.184V110.496C265.159 111.008 265.191 111.632 265.271 112H263.911C263.831 111.664 263.783 111.264 263.783 110.912H263.735C263.191 111.728 262.327 112.192 261.191 112.192C259.991 112.192 258.439 111.6 258.439 109.856C258.439 107.568 261.159 107.296 263.719 107.296ZM263.719 108.384H263.351C261.863 108.384 259.975 108.544 259.975 109.824C259.975 110.72 260.775 111.008 261.527 111.008C262.935 111.008 263.719 110.064 263.719 108.784V108.384ZM267.495 100H268.807V116H267.495V100Z" fill="#393A3D"/>
</g>
<defs>
<clipPath id="clip0_3171_12508">
<rect width="257" height="24" fill="white" transform="translate(40 94)"/>
</clipPath>
</defs>
</svg>
