<svg width="86" height="20" viewBox="0 0 86 20" fill="none" xmlns="http://www.w3.org/2000/svg">
<path d="M1.748 16V4.672H3.764V16H1.748ZM6.16763 16V8.32H7.99163V9.552H8.02363C8.35963 8.784 9.27163 8.096 10.4076 8.096C12.4076 8.096 13.2396 9.632 13.2396 11.2V16H11.3196V11.744C11.3196 10.832 11.1116 9.696 9.87963 9.696C8.66363 9.696 8.08763 10.752 8.08763 11.776V16H6.16763ZM15.7201 9.856H14.3761V8.32H15.7201V6.096H17.6081V8.32H19.5281V9.856H17.6081V13.424C17.6081 14.112 17.7681 14.608 18.6161 14.608C18.8721 14.608 19.2081 14.56 19.4321 14.448L19.4961 15.952C19.1601 16.08 18.6481 16.16 18.2161 16.16C16.1841 16.16 15.7201 14.912 15.7201 13.44V9.856ZM27.9256 8.32V16H26.1016V14.768H26.0696C25.7336 15.536 24.8216 16.224 23.6856 16.224C21.6856 16.224 20.8536 14.688 20.8536 13.12V8.32H22.7736V12.576C22.7736 13.488 22.9816 14.624 24.2136 14.624C25.4296 14.624 26.0056 13.568 26.0056 12.544V8.32H27.9256ZM30.2621 16V8.32H32.1821V16H30.2621ZM29.9901 5.712C29.9901 5.104 30.5021 4.56 31.2061 4.56C31.9101 4.56 32.4541 5.056 32.4541 5.712C32.4541 6.368 31.9101 6.864 31.2061 6.864C30.5021 6.864 29.9901 6.32 29.9901 5.712ZM34.7514 9.856H33.4074V8.32H34.7514V6.096H36.6394V8.32H38.5594V9.856H36.6394V13.424C36.6394 14.112 36.7994 14.608 37.6474 14.608C37.9034 14.608 38.2394 14.56 38.4634 14.448L38.5274 15.952C38.1914 16.08 37.6794 16.16 37.2474 16.16C35.2154 16.16 34.7514 14.912 34.7514 13.44V9.856ZM42.3876 16L47.3156 4.672H49.0596L53.9396 16H51.6356L50.5796 13.408H45.6676L44.6436 16H42.3876ZM46.3556 11.68H49.8756L48.1316 7.072L46.3556 11.68ZM60.4205 9.264L59.1725 10.368C58.8365 9.92 58.1965 9.536 57.4925 9.536C56.8845 9.536 56.2605 9.76 56.2605 10.368C56.2605 10.96 56.8525 11.12 57.9245 11.376C59.0605 11.648 60.4045 12.16 60.4045 13.664C60.4045 15.536 58.8845 16.224 57.2045 16.224C56.0205 16.224 54.7885 15.776 54.0525 14.96L55.3165 13.776C55.7325 14.32 56.4525 14.736 57.2845 14.736C57.8445 14.736 58.5165 14.512 58.5165 13.824C58.5165 13.184 57.9245 12.992 56.7565 12.72C55.6205 12.448 54.4845 11.984 54.4845 10.544C54.4845 8.832 56.0205 8.096 57.5405 8.096C58.6445 8.096 59.7965 8.48 60.4205 9.264ZM67.5299 9.264L66.2819 10.368C65.9459 9.92 65.3059 9.536 64.6019 9.536C63.9939 9.536 63.3699 9.76 63.3699 10.368C63.3699 10.96 63.9619 11.12 65.0339 11.376C66.1699 11.648 67.5139 12.16 67.5139 13.664C67.5139 15.536 65.9939 16.224 64.3139 16.224C63.1299 16.224 61.8979 15.776 61.1619 14.96L62.4259 13.776C62.8419 14.32 63.5619 14.736 64.3939 14.736C64.9539 14.736 65.6259 14.512 65.6259 13.824C65.6259 13.184 65.0339 12.992 63.8659 12.72C62.7299 12.448 61.5939 11.984 61.5939 10.544C61.5939 8.832 63.1299 8.096 64.6499 8.096C65.7539 8.096 66.9059 8.48 67.5299 9.264ZM69.2153 16V8.32H71.1353V16H69.2153ZM68.9433 5.712C68.9433 5.104 69.4553 4.56 70.1593 4.56C70.8633 4.56 71.4073 5.056 71.4073 5.712C71.4073 6.368 70.8633 6.864 70.1593 6.864C69.4553 6.864 68.9433 6.32 68.9433 5.712ZM78.9205 9.264L77.6725 10.368C77.3365 9.92 76.6965 9.536 75.9925 9.536C75.3845 9.536 74.7605 9.76 74.7605 10.368C74.7605 10.96 75.3525 11.12 76.4245 11.376C77.5605 11.648 78.9045 12.16 78.9045 13.664C78.9045 15.536 77.3845 16.224 75.7045 16.224C74.5205 16.224 73.2885 15.776 72.5525 14.96L73.8165 13.776C74.2325 14.32 74.9525 14.736 75.7845 14.736C76.3445 14.736 77.0165 14.512 77.0165 13.824C77.0165 13.184 76.4245 12.992 75.2565 12.72C74.1205 12.448 72.9845 11.984 72.9845 10.544C72.9845 8.832 74.5205 8.096 76.0405 8.096C77.1445 8.096 78.2965 8.48 78.9205 9.264ZM80.8139 9.856H79.4699V8.32H80.8139V6.096H82.7019V8.32H84.6219V9.856H82.7019V13.424C82.7019 14.112 82.8619 14.608 83.7099 14.608C83.9659 14.608 84.3019 14.56 84.5259 14.448L84.5899 15.952C84.2539 16.08 83.7419 16.16 83.3099 16.16C81.2779 16.16 80.8139 14.912 80.8139 13.44V9.856Z" fill="#21262A"/>
</svg>
