<svg width="200" height="552" viewBox="0 0 200 552" fill="none" xmlns="http://www.w3.org/2000/svg">
<rect width="200" height="552" fill="#F4F4EF"/>
<g clip-path="url(#clip0_1_39143)">
<path fill-rule="evenodd" clip-rule="evenodd" d="M44 30C44 37.732 37.732 44 30 44C22.268 44 16 37.732 16 30C16 22.268 22.268 16 30 16C37.732 16 44 22.268 44 30Z" fill="#D52B1E"/>
<path fill-rule="evenodd" clip-rule="evenodd" d="M26.8886 35.1336C25.2708 33.9825 23.7464 32.7381 22.2531 31.4314C21.7242 32.6136 21.2264 33.8581 20.7908 35.1025C23.1553 37.0936 26.2975 39.3959 28.4753 40.7025C31.2753 33.4225 35.6619 28.6936 39.8619 25.3647C39.3331 24.2136 38.5864 23.187 37.7153 22.3159C33.2353 25.707 29.5019 30.0936 26.8886 35.1336Z" fill="white"/>
</g>
<path d="M20.676 86.306V95H19.29V86.306H16.112V85.088H23.854V86.306H20.676ZM27.8949 90.884V90.702C27.8949 89.722 27.2369 89.246 26.2569 89.246C25.5149 89.246 24.8149 89.568 24.3669 90.016L23.6669 89.176C24.3109 88.56 25.3049 88.182 26.3829 88.182C28.2869 88.182 29.1549 89.316 29.1549 90.786V93.684C29.1549 94.132 29.1829 94.678 29.2529 95H28.0629C27.9929 94.706 27.9509 94.356 27.9509 94.048H27.9089C27.4329 94.762 26.6769 95.168 25.6829 95.168C24.6329 95.168 23.2749 94.65 23.2749 93.124C23.2749 91.122 25.6549 90.884 27.8949 90.884ZM27.8949 91.836H27.5729C26.2709 91.836 24.6189 91.976 24.6189 93.096C24.6189 93.88 25.3189 94.132 25.9769 94.132C27.2089 94.132 27.8949 93.306 27.8949 92.186V91.836ZM30.3168 95L32.9768 91.514L30.5548 88.364H32.1788L33.8028 90.646L35.4408 88.364H36.9808L34.5868 91.5L37.2608 95H35.6228L33.7748 92.41L31.8988 95H30.3168ZM43.3471 89.372H43.3751C43.6831 88.714 44.5231 88.182 45.4751 88.182C47.1831 88.182 47.9531 89.4 47.9531 90.884V95H46.6371V91.332C46.6371 90.254 46.3571 89.302 45.1391 89.302C44.1031 89.302 43.3471 90.17 43.3471 91.486V95H42.0311V84.416H43.3471V89.372ZM56.8989 91.668C56.8989 93.712 55.3449 95.182 53.3149 95.182C51.2849 95.182 49.7449 93.712 49.7449 91.668C49.7449 89.624 51.2849 88.182 53.3149 88.182C55.3449 88.182 56.8989 89.624 56.8989 91.668ZM55.5269 91.668C55.5269 90.408 54.7429 89.274 53.3149 89.274C51.9009 89.274 51.1029 90.408 51.1029 91.668C51.1029 92.928 51.9009 94.076 53.3149 94.076C54.7429 94.076 55.5269 92.928 55.5269 91.668ZM60.0118 89.456C60.3478 88.756 61.1178 88.182 62.1258 88.182C63.0078 88.182 63.7778 88.574 64.1838 89.512C64.6318 88.658 65.4998 88.182 66.4378 88.182C68.1458 88.182 68.9158 89.4 68.9158 90.884V95H67.5998V91.318C67.5998 90.24 67.2778 89.288 66.1298 89.288C64.9258 89.288 64.4498 90.38 64.4498 91.416V95H63.1338V91.052C63.1338 90.016 62.7838 89.288 61.7338 89.288C60.7678 89.288 60.0398 90.156 60.0398 91.472V95H58.7238V89.792C58.7238 89.442 58.7098 88.798 58.6678 88.364H59.9138C59.9418 88.7 59.9698 89.176 59.9698 89.456H60.0118ZM72.0479 91.094H75.9959C75.9679 90.044 75.3519 89.218 74.1339 89.218C72.9999 89.218 72.1319 90.058 72.0479 91.094ZM77.3259 91.626C77.3259 91.766 77.3259 91.92 77.3119 92.074H72.0479C72.0899 93.208 73.0419 94.09 74.2039 94.09C75.0999 94.09 75.7579 93.642 76.1359 93.082L77.0599 93.824C76.3459 94.748 75.3799 95.182 74.2039 95.182C72.1879 95.182 70.7039 93.782 70.7039 91.696C70.7039 89.624 72.1879 88.182 74.1339 88.182C76.0939 88.182 77.3259 89.512 77.3259 91.626Z" fill="#5D686F"/>
<path d="M17.204 139V129.088H20.606C23.14 129.088 25.954 130.53 25.954 134.044C25.954 137.432 23.14 139 20.606 139H17.204ZM18.59 130.292V137.782H20.326C22.72 137.782 24.47 136.41 24.47 134.044C24.47 131.594 22.72 130.292 20.326 130.292H18.59ZM34.5044 135.668C34.5044 137.712 32.9504 139.182 30.9204 139.182C28.8904 139.182 27.3504 137.712 27.3504 135.668C27.3504 133.624 28.8904 132.182 30.9204 132.182C32.9504 132.182 34.5044 133.624 34.5044 135.668ZM33.1324 135.668C33.1324 134.408 32.3484 133.274 30.9204 133.274C29.5064 133.274 28.7084 134.408 28.7084 135.668C28.7084 136.928 29.5064 138.076 30.9204 138.076C32.3484 138.076 33.1324 136.928 33.1324 135.668ZM41.9293 133.274L40.9773 134.044C40.6973 133.61 40.0813 133.288 39.4513 133.288C38.0793 133.288 37.2813 134.408 37.2813 135.682C37.2813 136.942 38.0793 138.076 39.4653 138.076C40.1373 138.076 40.7113 137.796 41.0613 137.348L41.9433 138.146C41.3833 138.79 40.5293 139.182 39.4653 139.182C37.4213 139.182 35.8953 137.796 35.8953 135.682C35.8953 133.596 37.4073 132.182 39.4373 132.182C40.3753 132.182 41.3833 132.56 41.9293 133.274ZM49.1693 139H47.9233C47.8953 138.664 47.8673 138.188 47.8673 137.908H47.8393C47.5033 138.608 46.6353 139.182 45.6693 139.182C43.9613 139.182 43.1913 137.964 43.1913 136.48V132.364H44.5073V136.032C44.5073 137.124 44.8013 138.076 46.0193 138.076C47.0693 138.076 47.7973 137.208 47.7973 135.892V132.364H49.1133V137.572C49.1133 137.922 49.1273 138.566 49.1693 139ZM52.6837 133.456C53.0197 132.756 53.7897 132.182 54.7977 132.182C55.6797 132.182 56.4497 132.574 56.8557 133.512C57.3037 132.658 58.1717 132.182 59.1097 132.182C60.8177 132.182 61.5877 133.4 61.5877 134.884V139H60.2717V135.318C60.2717 134.24 59.9497 133.288 58.8017 133.288C57.5977 133.288 57.1217 134.38 57.1217 135.416V139H55.8057V135.052C55.8057 134.016 55.4557 133.288 54.4057 133.288C53.4397 133.288 52.7117 134.156 52.7117 135.472V139H51.3957V133.792C51.3957 133.442 51.3817 132.798 51.3397 132.364H52.5857C52.6137 132.7 52.6417 133.176 52.6417 133.456H52.6837ZM64.7198 135.094H68.6678C68.6398 134.044 68.0238 133.218 66.8058 133.218C65.6718 133.218 64.8038 134.058 64.7198 135.094ZM69.9978 135.626C69.9978 135.766 69.9978 135.92 69.9838 136.074H64.7198C64.7618 137.208 65.7138 138.09 66.8758 138.09C67.7718 138.09 68.4298 137.642 68.8078 137.082L69.7318 137.824C69.0178 138.748 68.0518 139.182 66.8758 139.182C64.8598 139.182 63.3758 137.782 63.3758 135.696C63.3758 133.624 64.8598 132.182 66.8058 132.182C68.7658 132.182 69.9978 133.512 69.9978 135.626ZM71.7792 132.364H73.0252C73.0532 132.7 73.0812 133.176 73.0812 133.456H73.1232C73.4452 132.742 74.3272 132.182 75.2792 132.182C76.9872 132.182 77.7572 133.4 77.7572 134.884V139H76.4412V135.318C76.4412 134.24 76.1472 133.288 74.9292 133.288C73.8932 133.288 73.1512 134.156 73.1512 135.472V139H71.8352V133.792C71.8352 133.442 71.8212 132.798 71.7792 132.364ZM83.2316 132.364V133.442H81.4676V136.9C81.4676 137.698 81.7476 138.02 82.4056 138.02C82.6436 138.02 82.9516 137.964 83.1756 137.852L83.2176 138.93C82.9096 139.042 82.5036 139.112 82.0976 139.112C80.8516 139.112 80.1656 138.412 80.1656 137.04V133.442H78.8916V132.364H80.1656V130.46H81.4676V132.364H83.2316ZM89.085 133.274L88.175 134.044C87.881 133.568 87.307 133.218 86.635 133.218C86.033 133.218 85.403 133.456 85.403 134.086C85.403 134.646 85.907 134.856 86.915 135.08C88.175 135.36 89.141 135.878 89.141 137.04C89.141 138.608 87.839 139.182 86.495 139.182C85.487 139.182 84.451 138.79 83.821 137.992L84.759 137.194C85.109 137.712 85.781 138.118 86.523 138.118C87.181 138.118 87.839 137.88 87.839 137.152C87.839 136.536 87.237 136.312 86.103 136.046C85.221 135.836 84.171 135.458 84.171 134.212C84.171 132.784 85.417 132.182 86.677 132.182C87.615 132.182 88.609 132.56 89.085 133.274Z" fill="#5D686F"/>
<rect y="164" width="200" height="1" fill="#DFDFD8"/>
<path d="M22.96 201H16.816V199.32L20.128 196.32C20.548 195.924 20.824 195.528 20.824 195.012C20.824 194.412 20.404 193.992 19.768 193.992C19.096 193.992 18.652 194.52 18.568 195.276L16.636 195.012C16.828 193.296 18.22 192.276 19.876 192.276C21.436 192.276 22.948 193.104 22.948 194.88C22.948 196.092 22.24 196.8 21.46 197.496L19.492 199.248H22.96V201ZM30.9578 196.728C30.9578 199.14 30.0458 201.228 27.6458 201.228C25.2338 201.228 24.3098 199.14 24.3098 196.728C24.3098 194.328 25.2338 192.276 27.6458 192.276C30.0458 192.276 30.9578 194.328 30.9578 196.728ZM28.8938 196.728C28.8938 195.66 28.7018 193.98 27.6458 193.98C26.5778 193.98 26.3738 195.66 26.3738 196.728C26.3738 197.82 26.5778 199.5 27.6458 199.5C28.7018 199.5 28.8938 197.82 28.8938 196.728ZM38.4756 201H32.3316V199.32L35.6436 196.32C36.0636 195.924 36.3396 195.528 36.3396 195.012C36.3396 194.412 35.9196 193.992 35.2836 193.992C34.6116 193.992 34.1676 194.52 34.0836 195.276L32.1516 195.012C32.3436 193.296 33.7356 192.276 35.3916 192.276C36.9516 192.276 38.4636 193.104 38.4636 194.88C38.4636 196.092 37.7556 196.8 36.9756 197.496L35.0076 199.248H38.4756V201ZM46.2334 201H40.0894V199.32L43.4014 196.32C43.8214 195.924 44.0974 195.528 44.0974 195.012C44.0974 194.412 43.6774 193.992 43.0414 193.992C42.3694 193.992 41.9254 194.52 41.8414 195.276L39.9094 195.012C40.1014 193.296 41.4934 192.276 43.1494 192.276C44.7094 192.276 46.2214 193.104 46.2214 194.88C46.2214 196.092 45.5134 196.8 44.7334 197.496L42.7654 199.248H46.2334V201ZM56.6503 194.256H54.2503V201H52.1983V194.256H49.7983V192.504H56.6503V194.256ZM64.9121 201H62.6321L61.9721 199.332H58.6841L58.0601 201H55.8281L59.3921 192.504H61.3841L64.9121 201ZM61.4081 197.688L60.3521 194.772L59.2721 197.688H61.4081ZM73.2703 201H70.7383L68.8783 198L67.0903 201H64.6423L67.6183 196.512L64.8823 192.504H67.3543L68.9383 195.144L70.4983 192.504H72.8863L70.1983 196.512L73.2703 201ZM79.9798 201H74.0518V192.504H79.7638V194.244H76.0318V195.84H79.5598V197.484H76.0318V199.248H79.9798V201ZM87.1368 193.332L85.8288 194.712C85.4808 194.268 84.8448 193.98 84.3168 193.98C83.7888 193.98 83.1288 194.16 83.1288 194.832C83.1288 195.396 83.6328 195.576 84.4368 195.828C85.5888 196.2 87.0768 196.692 87.0768 198.384C87.0768 200.34 85.5048 201.216 83.8248 201.216C82.6128 201.216 81.3888 200.772 80.6448 199.992L81.9888 198.624C82.3968 199.14 83.1528 199.524 83.8248 199.524C84.4488 199.524 85.0008 199.284 85.0008 198.6C85.0008 197.952 84.3528 197.748 83.2368 197.388C82.1568 197.04 81.0648 196.488 81.0648 194.952C81.0648 193.068 82.7688 192.288 84.3528 192.288C85.3128 192.288 86.3928 192.648 87.1368 193.332Z" fill="#859299"/>
<path d="M19.36 230.088L22.328 237.704H22.356L25.282 230.088H27.438V240H26.052V231.712H26.024L22.734 240H21.852L18.576 231.712H18.548V240H17.204V230.088H19.36ZM30.2425 233.364L32.3005 238.572H32.3285L34.1625 233.364H35.5625L32.3425 241.568C31.9085 242.674 31.3485 243.36 30.0465 243.36C29.7665 243.36 29.4725 243.332 29.1785 243.262L29.3045 242.1C29.5145 242.17 29.7525 242.212 29.9625 242.212C30.6485 242.212 30.9145 241.82 31.1945 241.106L31.6145 240L28.7725 233.364H30.2425ZM41.6652 233.364V240H40.3492V233.364H41.6652ZM41.8892 230.97C41.8892 231.446 41.4832 231.81 41.0072 231.81C40.5312 231.81 40.1392 231.432 40.1392 230.97C40.1392 230.494 40.5312 230.116 41.0072 230.116C41.4832 230.116 41.8892 230.48 41.8892 230.97ZM43.9022 233.364H45.1482C45.1762 233.7 45.2042 234.176 45.2042 234.456H45.2462C45.5682 233.742 46.4502 233.182 47.4022 233.182C49.1102 233.182 49.8802 234.4 49.8802 235.884V240H48.5642V236.318C48.5642 235.24 48.2702 234.288 47.0522 234.288C46.0162 234.288 45.2742 235.156 45.2742 236.472V240H43.9582V234.792C43.9582 234.442 43.9442 233.798 43.9022 233.364ZM55.2287 233.364V234.442H53.6887V240H52.3727V234.442H51.0567V233.364H52.3727V231.978C52.3727 230.424 53.0587 229.248 54.8507 229.248C55.1587 229.248 55.4247 229.276 55.6767 229.346L55.5227 230.48C55.3267 230.424 55.1167 230.382 54.8647 230.382C53.8707 230.382 53.6887 231.166 53.6887 231.978V233.364H55.2287ZM63.1606 236.668C63.1606 238.712 61.6066 240.182 59.5766 240.182C57.5466 240.182 56.0066 238.712 56.0066 236.668C56.0066 234.624 57.5466 233.182 59.5766 233.182C61.6066 233.182 63.1606 234.624 63.1606 236.668ZM61.7886 236.668C61.7886 235.408 61.0046 234.274 59.5766 234.274C58.1626 234.274 57.3646 235.408 57.3646 236.668C57.3646 237.928 58.1626 239.076 59.5766 239.076C61.0046 239.076 61.7886 237.928 61.7886 236.668Z" fill="#5D686F"/>
<path d="M18.59 279.576V284H17.204V274.088H23.392V275.306H18.59V278.386H23.084V279.576H18.59ZM25.3311 280.094H29.2791C29.2511 279.044 28.6351 278.218 27.4171 278.218C26.2831 278.218 25.4151 279.058 25.3311 280.094ZM30.6091 280.626C30.6091 280.766 30.6091 280.92 30.5951 281.074H25.3311C25.3731 282.208 26.3251 283.09 27.4871 283.09C28.3831 283.09 29.0411 282.642 29.4191 282.082L30.3431 282.824C29.6291 283.748 28.6631 284.182 27.4871 284.182C25.4711 284.182 23.9871 282.782 23.9871 280.696C23.9871 278.624 25.4711 277.182 27.4171 277.182C29.3771 277.182 30.6091 278.512 30.6091 280.626ZM37.7385 282.95C37.2345 283.748 36.2825 284.182 35.3445 284.182C33.3005 284.182 31.9985 282.614 31.9985 280.668C31.9985 278.708 33.3425 277.182 35.3305 277.182C36.4085 277.182 37.2345 277.714 37.6965 278.358H37.7245V273.416H39.0405V284H37.7665V282.95H37.7385ZM33.3705 280.668C33.3705 281.914 34.1265 283.076 35.5685 283.076C36.9125 283.076 37.8085 281.956 37.8085 280.682C37.8085 279.408 36.9125 278.274 35.5685 278.274C34.1265 278.274 33.3705 279.422 33.3705 280.668ZM42.2432 280.094H46.1912C46.1632 279.044 45.5472 278.218 44.3292 278.218C43.1952 278.218 42.3272 279.058 42.2432 280.094ZM47.5212 280.626C47.5212 280.766 47.5212 280.92 47.5072 281.074H42.2432C42.2852 282.208 43.2372 283.09 44.3992 283.09C45.2952 283.09 45.9532 282.642 46.3312 282.082L47.2552 282.824C46.5412 283.748 45.5752 284.182 44.3992 284.182C42.3832 284.182 40.8992 282.782 40.8992 280.696C40.8992 278.624 42.3832 277.182 44.3292 277.182C46.2892 277.182 47.5212 278.512 47.5212 280.626ZM49.3586 278.792C49.3586 278.442 49.3446 277.798 49.3026 277.364H50.5486C50.5766 277.7 50.6046 278.204 50.6046 278.484H50.6466C51.0106 277.714 51.7806 277.182 52.6766 277.182C52.8586 277.182 53.0406 277.196 53.1946 277.238L53.1386 278.456C52.9706 278.414 52.7466 278.386 52.5366 278.386C51.2766 278.386 50.6746 279.408 50.6746 280.514V284H49.3586V278.792ZM58.3831 279.884V279.702C58.3831 278.722 57.7251 278.246 56.7451 278.246C56.0031 278.246 55.3031 278.568 54.8551 279.016L54.1551 278.176C54.7991 277.56 55.7931 277.182 56.8711 277.182C58.7751 277.182 59.6431 278.316 59.6431 279.786V282.684C59.6431 283.132 59.6711 283.678 59.7411 284H58.5511C58.4811 283.706 58.4391 283.356 58.4391 283.048H58.3971C57.9211 283.762 57.1651 284.168 56.1711 284.168C55.1211 284.168 53.7631 283.65 53.7631 282.124C53.7631 280.122 56.1431 279.884 58.3831 279.884ZM58.3831 280.836H58.0611C56.7591 280.836 55.1071 280.976 55.1071 282.096C55.1071 282.88 55.8071 283.132 56.4651 283.132C57.6971 283.132 58.3831 282.306 58.3831 281.186V280.836ZM63.185 273.416V284H61.869V273.416H63.185Z" fill="#5D686F"/>
<path d="M181.994 282.333C181.884 282.333 181.776 282.312 181.675 282.27C181.573 282.228 181.482 282.166 181.404 282.089L176.411 277.088C176.333 277.011 176.272 276.919 176.23 276.818C176.188 276.717 176.167 276.609 176.167 276.499C176.167 276.39 176.188 276.282 176.23 276.181C176.272 276.08 176.334 275.988 176.411 275.91C176.489 275.833 176.581 275.772 176.682 275.73C176.783 275.688 176.892 275.667 177.001 275.667C177.111 275.667 177.219 275.688 177.32 275.73C177.421 275.772 177.513 275.833 177.591 275.911L181.996 280.321L186.412 275.923C186.569 275.767 186.781 275.68 187.002 275.68C187.223 275.68 187.435 275.768 187.591 275.925C187.747 276.081 187.835 276.293 187.835 276.513C187.834 276.734 187.746 276.946 187.59 277.102L182.582 282.09C182.426 282.246 182.215 282.333 181.994 282.333Z" fill="#5D686F"/>
<path d="M23.112 318.97L22.132 319.922C21.74 319.376 21.026 318.998 20.2 318.998C19.304 318.998 18.268 319.488 18.268 320.608C18.268 321.686 19.178 321.98 20.298 322.344C21.628 322.764 23.21 323.268 23.21 325.242C23.21 327.3 21.544 328.252 19.78 328.252C18.534 328.252 17.274 327.762 16.518 326.81L17.596 325.9C18.058 326.586 18.898 327.062 19.808 327.062C20.732 327.062 21.796 326.544 21.796 325.368C21.796 324.164 20.704 323.842 19.444 323.45C18.184 323.058 16.868 322.484 16.868 320.664C16.868 318.69 18.632 317.836 20.27 317.836C21.418 317.836 22.496 318.284 23.112 318.97ZM28.2707 321.364V322.442H26.5067V325.9C26.5067 326.698 26.7867 327.02 27.4447 327.02C27.6827 327.02 27.9907 326.964 28.2147 326.852L28.2567 327.93C27.9487 328.042 27.5427 328.112 27.1367 328.112C25.8907 328.112 25.2047 327.412 25.2047 326.04V322.442H23.9307V321.364H25.2047V319.46H26.5067V321.364H28.2707ZM33.7601 323.884V323.702C33.7601 322.722 33.1021 322.246 32.1221 322.246C31.3801 322.246 30.6801 322.568 30.2321 323.016L29.5321 322.176C30.1761 321.56 31.1701 321.182 32.2481 321.182C34.1521 321.182 35.0201 322.316 35.0201 323.786V326.684C35.0201 327.132 35.0481 327.678 35.1181 328H33.9281C33.8581 327.706 33.8161 327.356 33.8161 327.048H33.7741C33.2981 327.762 32.5421 328.168 31.5481 328.168C30.4981 328.168 29.1401 327.65 29.1401 326.124C29.1401 324.122 31.5201 323.884 33.7601 323.884ZM33.7601 324.836H33.4381C32.1361 324.836 30.4841 324.976 30.4841 326.096C30.4841 326.88 31.1841 327.132 31.8421 327.132C33.0741 327.132 33.7601 326.306 33.7601 325.186V324.836ZM40.3293 321.364V322.442H38.5653V325.9C38.5653 326.698 38.8453 327.02 39.5033 327.02C39.7413 327.02 40.0493 326.964 40.2733 326.852L40.3153 327.93C40.0073 328.042 39.6013 328.112 39.1953 328.112C37.9493 328.112 37.2633 327.412 37.2633 326.04V322.442H35.9893V321.364H37.2633V319.46H38.5653V321.364H40.3293ZM42.5987 324.094H46.5467C46.5187 323.044 45.9027 322.218 44.6847 322.218C43.5507 322.218 42.6827 323.058 42.5987 324.094ZM47.8767 324.626C47.8767 324.766 47.8767 324.92 47.8627 325.074H42.5987C42.6407 326.208 43.5927 327.09 44.7547 327.09C45.6507 327.09 46.3087 326.642 46.6867 326.082L47.6107 326.824C46.8967 327.748 45.9307 328.182 44.7547 328.182C42.7387 328.182 41.2547 326.782 41.2547 324.696C41.2547 322.624 42.7387 321.182 44.6847 321.182C46.6447 321.182 47.8767 322.512 47.8767 324.626Z" fill="#5D686F"/>
<path d="M18.59 367.59V372H17.204V362.088H20.382C22.3 362.088 23.91 362.816 23.91 364.832C23.91 366.288 22.916 367.212 21.502 367.45L24.274 372H22.594L20.074 367.59H18.59ZM18.59 363.264V366.428H20.186C21.488 366.428 22.51 366.022 22.51 364.832C22.51 363.642 21.488 363.264 20.284 363.264H18.59ZM26.4795 368.094H30.4275C30.3995 367.044 29.7835 366.218 28.5655 366.218C27.4315 366.218 26.5635 367.058 26.4795 368.094ZM31.7575 368.626C31.7575 368.766 31.7575 368.92 31.7435 369.074H26.4795C26.5215 370.208 27.4735 371.09 28.6355 371.09C29.5315 371.09 30.1895 370.642 30.5675 370.082L31.4915 370.824C30.7775 371.748 29.8115 372.182 28.6355 372.182C26.6195 372.182 25.1355 370.782 25.1355 368.696C25.1355 366.624 26.6195 365.182 28.5655 365.182C30.5255 365.182 31.7575 366.512 31.7575 368.626ZM39.3769 365.364L36.7169 372H35.2889L32.5869 365.364H34.0429L35.9889 370.586H36.0169L37.9769 365.364H39.3769ZM41.9796 365.364V372H40.6636V365.364H41.9796ZM42.2036 362.97C42.2036 363.446 41.7976 363.81 41.3216 363.81C40.8456 363.81 40.4536 363.432 40.4536 362.97C40.4536 362.494 40.8456 362.116 41.3216 362.116C41.7976 362.116 42.2036 362.48 42.2036 362.97ZM45.1827 368.094H49.1307C49.1027 367.044 48.4867 366.218 47.2687 366.218C46.1347 366.218 45.2667 367.058 45.1827 368.094ZM50.4607 368.626C50.4607 368.766 50.4607 368.92 50.4467 369.074H45.1827C45.2247 370.208 46.1767 371.09 47.3387 371.09C48.2347 371.09 48.8927 370.642 49.2707 370.082L50.1947 370.824C49.4807 371.748 48.5147 372.182 47.3387 372.182C45.3227 372.182 43.8387 370.782 43.8387 368.696C43.8387 366.624 45.3227 365.182 47.2687 365.182C49.2287 365.182 50.4607 366.512 50.4607 368.626ZM51.3601 365.364H52.7881L54.2861 370.432H54.3141L55.8961 365.364H57.2821L58.8921 370.432H58.9201L60.4181 365.364H61.8041L59.6061 372H58.2341L56.5961 367.016H56.5681L54.9441 372H53.5721L51.3601 365.364Z" fill="#5D686F"/>
<path d="M18.59 411.576V416H17.204V406.088H23.392V407.306H18.59V410.386H23.084V411.576H18.59ZM26.1749 409.364V416H24.8589V409.364H26.1749ZM26.3989 406.97C26.3989 407.446 25.9929 407.81 25.5169 407.81C25.0409 407.81 24.6489 407.432 24.6489 406.97C24.6489 406.494 25.0409 406.116 25.5169 406.116C25.9929 406.116 26.3989 406.48 26.3989 406.97ZM29.812 405.416V416H28.496V405.416H29.812ZM33.0147 412.094H36.9627C36.9347 411.044 36.3187 410.218 35.1007 410.218C33.9667 410.218 33.0987 411.058 33.0147 412.094ZM38.2927 412.626C38.2927 412.766 38.2927 412.92 38.2787 413.074H33.0147C33.0567 414.208 34.0087 415.09 35.1707 415.09C36.0667 415.09 36.7247 414.642 37.1027 414.082L38.0267 414.824C37.3127 415.748 36.3467 416.182 35.1707 416.182C33.1547 416.182 31.6707 414.782 31.6707 412.696C31.6707 410.624 33.1547 409.182 35.1007 409.182C37.0607 409.182 38.2927 410.512 38.2927 412.626Z" fill="#5D686F"/>
<rect y="441" width="200" height="1" fill="#DFDFD8"/>
<path d="M20.984 477.252C18.366 477.252 17.134 475.362 17.134 473.332V467.088H18.52V473.248C18.52 474.606 19.136 476.006 20.984 476.006C22.832 476.006 23.448 474.606 23.448 473.248V467.088H24.834V473.332C24.834 475.362 23.602 477.252 20.984 477.252ZM28.4168 476.006V480.36H27.1008V470.364H28.3888V471.4H28.4308C28.8648 470.7 29.7328 470.182 30.8248 470.182C32.7988 470.182 34.1428 471.708 34.1428 473.668C34.1428 475.614 32.8408 477.182 30.7968 477.182C29.8588 477.182 28.9488 476.748 28.4588 476.006H28.4168ZM32.7848 473.668C32.7848 472.422 32.0148 471.274 30.5728 471.274C29.2288 471.274 28.3328 472.408 28.3328 473.682C28.3328 474.956 29.2288 476.076 30.5728 476.076C32.0148 476.076 32.7848 474.914 32.7848 473.668ZM35.6518 479.156L36.4918 478.134C37.0658 478.778 38.0038 479.212 38.9138 479.212C40.6638 479.212 41.2518 478.134 41.2518 476.762V475.908H41.2238C40.7338 476.65 39.8238 477.056 38.8858 477.056C36.8558 477.056 35.5398 475.544 35.5398 473.64C35.5398 471.736 36.8418 470.182 38.8718 470.182C39.8238 470.182 40.7618 470.602 41.2658 471.428H41.2938V470.364H42.5678V476.664C42.5678 478.596 41.6578 480.36 38.8998 480.36C37.7518 480.36 36.4778 479.912 35.6518 479.156ZM36.8978 473.612C36.8978 474.83 37.7098 475.95 39.0958 475.95C40.4538 475.95 41.3498 474.928 41.3498 473.612C41.3498 472.352 40.4398 471.274 39.0958 471.274C37.7098 471.274 36.8978 472.338 36.8978 473.612ZM44.8195 471.792C44.8195 471.442 44.8055 470.798 44.7635 470.364H46.0095C46.0375 470.7 46.0655 471.204 46.0655 471.484H46.1075C46.4715 470.714 47.2415 470.182 48.1375 470.182C48.3195 470.182 48.5015 470.196 48.6555 470.238L48.5995 471.456C48.4315 471.414 48.2075 471.386 47.9975 471.386C46.7375 471.386 46.1355 472.408 46.1355 473.514V477H44.8195V471.792ZM53.8441 472.884V472.702C53.8441 471.722 53.1861 471.246 52.2061 471.246C51.4641 471.246 50.7641 471.568 50.3161 472.016L49.6161 471.176C50.2601 470.56 51.2541 470.182 52.3321 470.182C54.2361 470.182 55.1041 471.316 55.1041 472.786V475.684C55.1041 476.132 55.1321 476.678 55.2021 477H54.0121C53.9421 476.706 53.9001 476.356 53.9001 476.048H53.8581C53.3821 476.762 52.6261 477.168 51.6321 477.168C50.5821 477.168 49.2241 476.65 49.2241 475.124C49.2241 473.122 51.6041 472.884 53.8441 472.884ZM53.8441 473.836H53.5221C52.2201 473.836 50.5681 473.976 50.5681 475.096C50.5681 475.88 51.2681 476.132 51.9261 476.132C53.1581 476.132 53.8441 475.306 53.8441 474.186V473.836ZM62.594 475.95C62.09 476.748 61.138 477.182 60.2 477.182C58.156 477.182 56.854 475.614 56.854 473.668C56.854 471.708 58.198 470.182 60.186 470.182C61.264 470.182 62.09 470.714 62.552 471.358H62.58V466.416H63.896V477H62.622V475.95H62.594ZM58.226 473.668C58.226 474.914 58.982 476.076 60.424 476.076C61.768 476.076 62.664 474.956 62.664 473.682C62.664 472.408 61.768 471.274 60.424 471.274C58.982 471.274 58.226 472.422 58.226 473.668ZM67.0987 473.094H71.0467C71.0187 472.044 70.4027 471.218 69.1847 471.218C68.0507 471.218 67.1827 472.058 67.0987 473.094ZM72.3767 473.626C72.3767 473.766 72.3767 473.92 72.3627 474.074H67.0987C67.1407 475.208 68.0927 476.09 69.2547 476.09C70.1507 476.09 70.8087 475.642 71.1867 475.082L72.1107 475.824C71.3967 476.748 70.4307 477.182 69.2547 477.182C67.2387 477.182 65.7547 475.782 65.7547 473.696C65.7547 471.624 67.2387 470.182 69.1847 470.182C71.1447 470.182 72.3767 471.512 72.3767 473.626Z" fill="#5D686F"/>
<path d="M20.676 512.306V521H19.29V512.306H16.112V511.088H23.854V512.306H20.676ZM27.8949 516.884V516.702C27.8949 515.722 27.2369 515.246 26.2569 515.246C25.5149 515.246 24.8149 515.568 24.3669 516.016L23.6669 515.176C24.3109 514.56 25.3049 514.182 26.3829 514.182C28.2869 514.182 29.1549 515.316 29.1549 516.786V519.684C29.1549 520.132 29.1829 520.678 29.2529 521H28.0629C27.9929 520.706 27.9509 520.356 27.9509 520.048H27.9089C27.4329 520.762 26.6769 521.168 25.6829 521.168C24.6329 521.168 23.2749 520.65 23.2749 519.124C23.2749 517.122 25.6549 516.884 27.8949 516.884ZM27.8949 517.836H27.5729C26.2709 517.836 24.6189 517.976 24.6189 519.096C24.6189 519.88 25.3189 520.132 25.9769 520.132C27.2089 520.132 27.8949 519.306 27.8949 518.186V517.836ZM30.3168 521L32.9768 517.514L30.5548 514.364H32.1788L33.8028 516.646L35.4408 514.364H36.9808L34.5868 517.5L37.2608 521H35.6228L33.7748 518.41L31.8988 521H30.3168ZM45.2511 514.364V515.442H43.4871V518.9C43.4871 519.698 43.7671 520.02 44.4251 520.02C44.6631 520.02 44.9711 519.964 45.1951 519.852L45.2371 520.93C44.9291 521.042 44.5231 521.112 44.1171 521.112C42.8711 521.112 42.1851 520.412 42.1851 519.04V515.442H40.9111V514.364H42.1851V512.46H43.4871V514.364H45.2511ZM53.3306 517.668C53.3306 519.712 51.7766 521.182 49.7466 521.182C47.7166 521.182 46.1766 519.712 46.1766 517.668C46.1766 515.624 47.7166 514.182 49.7466 514.182C51.7766 514.182 53.3306 515.624 53.3306 517.668ZM51.9586 517.668C51.9586 516.408 51.1746 515.274 49.7466 515.274C48.3326 515.274 47.5346 516.408 47.5346 517.668C47.5346 518.928 48.3326 520.076 49.7466 520.076C51.1746 520.076 51.9586 518.928 51.9586 517.668ZM61.8755 517.668C61.8755 519.712 60.3215 521.182 58.2915 521.182C56.2615 521.182 54.7215 519.712 54.7215 517.668C54.7215 515.624 56.2615 514.182 58.2915 514.182C60.3215 514.182 61.8755 515.624 61.8755 517.668ZM60.5035 517.668C60.5035 516.408 59.7195 515.274 58.2915 515.274C56.8775 515.274 56.0795 516.408 56.0795 517.668C56.0795 518.928 56.8775 520.076 58.2915 520.076C59.7195 520.076 60.5035 518.928 60.5035 517.668ZM65.0444 510.416V521H63.7284V510.416H65.0444ZM71.8311 515.274L70.9211 516.044C70.6271 515.568 70.0531 515.218 69.3811 515.218C68.7791 515.218 68.1491 515.456 68.1491 516.086C68.1491 516.646 68.6531 516.856 69.6611 517.08C70.9211 517.36 71.8871 517.878 71.8871 519.04C71.8871 520.608 70.5851 521.182 69.2411 521.182C68.2331 521.182 67.1971 520.79 66.5671 519.992L67.5051 519.194C67.8551 519.712 68.5271 520.118 69.2691 520.118C69.9271 520.118 70.5851 519.88 70.5851 519.152C70.5851 518.536 69.9831 518.312 68.8491 518.046C67.9671 517.836 66.9171 517.458 66.9171 516.212C66.9171 514.784 68.1631 514.182 69.4231 514.182C70.3611 514.182 71.3551 514.56 71.8311 515.274Z" fill="#5D686F"/>
<path d="M181.994 519.333C181.884 519.333 181.776 519.312 181.675 519.27C181.573 519.228 181.482 519.166 181.404 519.089L176.411 514.088C176.333 514.011 176.272 513.919 176.23 513.818C176.188 513.717 176.167 513.609 176.167 513.499C176.167 513.39 176.188 513.282 176.23 513.181C176.272 513.08 176.334 512.988 176.411 512.91C176.489 512.833 176.581 512.772 176.682 512.73C176.783 512.688 176.892 512.667 177.001 512.667C177.111 512.667 177.219 512.688 177.32 512.73C177.421 512.772 177.513 512.833 177.591 512.911L181.996 517.321L186.412 512.923C186.569 512.767 186.781 512.68 187.002 512.68C187.223 512.68 187.435 512.768 187.591 512.925C187.747 513.081 187.835 513.293 187.835 513.513C187.834 513.734 187.746 513.946 187.59 514.102L182.582 519.09C182.426 519.246 182.215 519.333 181.994 519.333Z" fill="#5D686F"/>
<g clip-path="url(#clip1_1_39143)">
<path d="M30 44C37.732 44 44 37.732 44 30C44 22.268 37.732 16 30 16C22.268 16 16 22.268 16 30C16 37.732 22.268 44 30 44Z" fill="#D52B1E"/>
<path d="M26.8763 35.1333C25.2679 33.9729 23.7217 32.7347 22.2408 31.4218C21.6963 32.6164 21.2079 33.8391 20.7755 35.0898C23.1368 37.0933 26.2946 39.3893 28.4599 40.6804C31.2692 33.4067 35.6528 28.6622 39.8466 25.352C39.3083 24.2133 38.5772 23.1804 37.6968 22.3C33.2261 25.7284 29.5177 30.1089 26.8763 35.1333Z" fill="white"/>
<path d="M47.9639 36.1382V34.4052H49.479V31.8977H51.607V34.4052H53.7723V36.1382H51.607V40.1608C51.607 40.9355 51.7874 41.4955 52.7425 41.4955C53.0319 41.4955 53.4115 41.4426 53.6635 41.315L53.735 43.0106C53.3554 43.1537 52.7799 43.2439 52.2915 43.2439C49.9985 43.2439 49.4759 41.8377 49.4759 40.1764V36.1382H47.9639Z" fill="black"/>
<path d="M63.1928 43.0666H61.1362V41.6759H61.0989C60.7194 42.5409 59.6927 43.3186 58.4109 43.3186C56.1554 43.3186 55.2158 41.5857 55.2158 39.8186V34.4053H57.3812V39.2057C57.3812 40.2355 57.6145 41.5142 59.0052 41.5142C60.3772 41.5142 61.0274 40.3226 61.0274 39.1684V34.4053H63.1928V43.0666Z" fill="black"/>
<path d="M65.4325 34.2435H67.5073V35.6871H67.5446C68.0146 34.6947 68.9353 33.9915 70.0712 33.9915C70.2326 33.9915 70.4506 34.0102 70.5938 34.0445V36.0293C70.3045 35.9578 70.1239 35.9391 69.9246 35.9391C67.9772 35.9391 67.5978 37.6347 67.5978 38.2662V42.9049H65.4325V34.2435Z" fill="black"/>
<path d="M74.1657 29.4246V35.5068H74.2184C74.6697 34.9468 75.5344 34.1534 77.1243 34.1534C79.5977 34.1534 81.3276 36.1384 81.3276 38.7019C81.3276 41.2281 79.7036 43.3219 77.0683 43.3219C75.8583 43.3219 74.6851 42.7619 74.091 41.7694H74.0537V43.0699H71.9971V29.4277H74.1657V29.4246ZM76.6357 35.9206C75.0491 35.9206 74.091 37.3828 74.091 38.7361C74.091 40.0894 75.0463 41.5144 76.6357 41.5144C78.3129 41.5144 79.1249 40.0521 79.1249 38.6988C79.1277 37.3454 78.3157 35.9206 76.6357 35.9206Z" fill="black"/>
<path d="M86.9766 34.1533C89.5932 34.1533 91.6871 35.9764 91.6871 38.7018C91.6871 41.4271 89.5932 43.3218 86.9766 43.3218C84.3605 43.3218 82.2665 41.4271 82.2665 38.7018C82.2665 35.9764 84.3605 34.1533 86.9766 34.1533ZM86.9766 41.5142C88.6911 41.5142 89.4845 40.052 89.4845 38.6987C89.4845 37.3453 88.6911 35.9204 86.9766 35.9204C85.2625 35.9204 84.4692 37.3453 84.4692 38.6987C84.4692 40.052 85.2625 41.5142 86.9766 41.5142Z" fill="black"/>
<path d="M92.1348 36.1382V34.4052H93.6496V31.8977H95.7776V34.4052H97.9429V36.1382H95.7776V40.1608C95.7776 40.9355 95.9582 41.4955 96.9134 41.4955C97.2028 41.4955 97.5822 41.4426 97.8342 41.315L97.9056 43.0106C97.5262 43.1537 96.9508 43.2439 96.4622 43.2439C94.1694 43.2439 93.6468 41.8377 93.6468 40.1764V36.1382H92.1348Z" fill="black"/>
<path d="M105.074 41.9653H105.021C104.588 42.7244 103.559 43.2813 102.333 43.2813C100.942 43.2813 99.085 42.6124 99.085 40.5933C99.085 38.0142 102.333 37.6533 105.04 37.6533V37.4355C105.04 36.3715 104.138 35.8489 103.055 35.8489C102.134 35.8489 101.25 36.2813 100.69 36.8413L99.5703 35.5253C100.544 34.6231 101.916 34.1533 103.232 34.1533C106.337 34.1533 107.093 36.0667 107.093 37.7995V43.0698H105.071V41.9653H105.074ZM105.036 39.1155H104.548C103.176 39.1155 101.247 39.2773 101.247 40.5591C101.247 41.3898 102.022 41.6418 102.762 41.6418C104.243 41.6418 105.036 40.7924 105.036 39.4235V39.1155Z" fill="black"/>
<path d="M111.228 38.4653L108.107 34.4053H110.705L112.581 37.0933L114.513 34.4053H117.002L113.897 38.4653L117.435 43.0667H114.799L112.544 39.9089L110.27 43.0667H107.706L111.228 38.4653Z" fill="black"/>
<path d="M71.6889 22.4991C71.6889 24.6956 73.4468 26.3009 75.6808 26.3009C77.9142 26.3009 79.6754 24.6987 79.6754 22.4991V17.4561H77.5101V22.2409C77.5101 23.4263 76.7168 24.2196 75.6742 24.2196C74.6289 24.2196 73.8388 23.4263 73.8388 22.2409V17.4561H71.6768L71.6889 22.4991Z" fill="black"/>
<path d="M85.4553 19.4814H88.0379V26.1267H90.1999V19.4814H92.7792V17.4561H85.4553V19.4814Z" fill="black"/>
<path d="M84.0586 17.4591H81.8965V26.1298H84.0586V17.4591Z" fill="black"/>
<path d="M62.9521 19.4814H65.5347V26.1267H67.6968V19.4814H70.276V17.4561H62.9521V19.4814Z" fill="black"/>
<path d="M51.6065 17.4591H49.4443V26.1298H51.6065V21.796V17.4591Z" fill="black"/>
<path d="M61.8145 21.0835C61.8145 18.8871 60.0536 17.2817 57.8199 17.2817C55.5861 17.2817 53.8252 18.884 53.8252 21.0835V26.1266H55.9874V21.3417C55.9874 20.1564 56.7807 19.3631 57.823 19.3631C58.8652 19.3631 59.6585 20.1564 59.6585 21.3417V26.1266H61.8207L61.8145 21.0835Z" fill="black"/>
</g>
<defs>
<clipPath id="clip0_1_39143">
<rect width="28" height="28" fill="white" transform="translate(16 16)"/>
</clipPath>
<clipPath id="clip1_1_39143">
<rect width="101.453" height="28" fill="white" transform="translate(16 16)"/>
</clipPath>
</defs>
</svg>
