<svg width="40" height="41" viewBox="0 0 40 41" fill="none" xmlns="http://www.w3.org/2000/svg">
<path fill-rule="evenodd" clip-rule="evenodd" d="M19.9999 5.83337C11.9 5.83337 5.33325 12.3995 5.33325 20.5C5.33325 28.6 11.9 35.1667 19.9999 35.1667C28.1002 35.1667 34.6666 28.6 34.6666 20.5C34.6666 12.3995 28.1002 5.83337 19.9999 5.83337ZM11.973 22.1244C13.5501 23.5142 15.197 24.8272 16.9086 26.0565C19.7214 20.732 23.6713 16.0935 28.4325 12.4554C29.3715 13.3887 30.1487 14.4818 30.7232 15.6896C26.2542 19.1981 21.5883 24.2253 18.5956 31.9322C16.2874 30.5641 12.9259 28.1329 10.4112 26.01C10.8738 24.6861 11.3942 23.3893 11.973 22.1244Z" fill="#D52B1E"/>
</svg>
