<svg width="114" height="32" viewBox="0 0 114 32" fill="none" xmlns="http://www.w3.org/2000/svg">
<path fill-rule="evenodd" clip-rule="evenodd" d="M14.8895 13.2291C14.5305 13.229 14.1674 13.1523 13.8224 12.9992L6.87584 9.89176L7.85559 7.68164L14.8022 10.7891C14.8725 10.8214 14.9407 10.8133 15.003 10.7689C15.0652 10.7226 15.0933 10.6621 15.0853 10.5854L14.2882 2.98514L16.6834 2.73308L17.4785 10.3293C17.5768 11.2711 17.1793 12.1664 16.4164 12.725C15.9589 13.0595 15.4273 13.2289 14.8895 13.2291ZM14.8895 13.2291C14.8892 13.2291 14.8889 13.2291 14.8885 13.2291H14.8905C14.8902 13.2291 14.8899 13.2291 14.8895 13.2291ZM19.7682 15.778C20.2232 16.1145 20.7537 16.2904 21.2918 16.295L21.2918 16.2909C21.6512 16.2939 22.0152 16.2224 22.3618 16.07L29.3343 13.0212L28.3732 10.8029L21.4007 13.8517C21.3302 13.8834 21.262 13.8748 21.2001 13.8299C21.1382 13.785 21.1107 13.7223 21.1193 13.6457L21.9783 6.0564L19.5854 5.78417L18.7264 13.3735C18.62 14.3163 19.01 15.215 19.7682 15.778ZM23.4752 28.0925L18.4381 22.3712C17.8139 21.6619 17.6176 20.7002 17.9187 19.8015C18.2178 18.9027 18.9483 18.2538 19.8735 18.0643L27.3258 16.5411L27.8048 18.9128L20.3525 20.436C20.2761 20.4515 20.2275 20.4954 20.2028 20.5698C20.178 20.6442 20.1915 20.7089 20.2432 20.7678L25.2803 26.4891L23.4752 28.0925ZM9.39422 28.4968L7.3128 27.2791L11.1402 20.6792C11.6151 19.8603 12.4622 19.3734 13.4058 19.377C14.3494 19.3805 15.1928 19.8737 15.6615 20.6962L19.4392 27.3247L17.3486 28.5268L13.571 21.8983C13.4952 21.7649 13.3005 21.7622 13.2237 21.897L9.39623 28.4968L9.39422 28.4968ZM5.04308 21.5511L6.81659 23.1893L6.81655 23.1934L11.9642 17.5713C12.6021 16.8723 12.8151 15.9167 12.5336 15.0122C12.2521 14.1078 11.5343 13.4447 10.6129 13.2373L3.19179 11.5691L2.66669 13.9311L10.0879 15.5952C10.162 15.6121 10.2117 15.659 10.235 15.7319C10.2583 15.8067 10.2435 15.8731 10.1907 15.929L5.04308 21.5511Z" fill="#236CFF"/>
<path d="M37.716 24V8.424H42.05L46.098 19.49H46.164L50.168 8.424H54.524V24H51.774V11.482H51.73L47 24H45.064L40.4 11.482H40.356V24H37.716ZM57.2063 18.676C57.2063 15.354 59.7583 13.132 62.9483 13.132C66.1383 13.132 68.6903 15.354 68.6903 18.676C68.6903 21.998 66.1383 24.308 62.9483 24.308C59.7583 24.308 57.2063 21.998 57.2063 18.676ZM59.8903 18.676C59.8903 20.326 60.8583 22.108 62.9483 22.108C65.0383 22.108 66.0063 20.326 66.0063 18.676C66.0063 17.026 65.0383 15.288 62.9483 15.288C60.8583 15.288 59.8903 17.026 59.8903 18.676ZM71.58 15.552H69.732V13.44H71.58V10.382H74.176V13.44H76.816V15.552H74.176V20.458C74.176 21.404 74.396 22.086 75.562 22.086C75.914 22.086 76.376 22.02 76.684 21.866L76.772 23.934C76.31 24.11 75.606 24.22 75.012 24.22C72.218 24.22 71.58 22.504 71.58 20.48V15.552ZM78.7706 24V13.44H81.4106V24H78.7706ZM78.3966 9.854C78.3966 9.018 79.1006 8.27 80.0686 8.27C81.0366 8.27 81.7846 8.952 81.7846 9.854C81.7846 10.756 81.0366 11.438 80.0686 11.438C79.1006 11.438 78.3966 10.69 78.3966 9.854ZM83.9973 18.676C83.9973 15.354 86.5493 13.132 89.7393 13.132C92.9293 13.132 95.4813 15.354 95.4813 18.676C95.4813 21.998 92.9293 24.308 89.7393 24.308C86.5493 24.308 83.9973 21.998 83.9973 18.676ZM86.6813 18.676C86.6813 20.326 87.6493 22.108 89.7393 22.108C91.8293 22.108 92.7973 20.326 92.7973 18.676C92.7973 17.026 91.8293 15.288 89.7393 15.288C87.6493 15.288 86.6813 17.026 86.6813 18.676ZM98.041 24V13.44H100.549V15.134H100.593C101.055 14.078 102.309 13.132 103.871 13.132C106.621 13.132 107.765 15.244 107.765 17.4V24H105.125V18.148C105.125 16.894 104.839 15.332 103.145 15.332C101.473 15.332 100.681 16.784 100.681 18.192V24H98.041Z" fill="#21262A"/>
</svg>
