<svg width="91" height="24" viewBox="0 0 91 24" fill="none" xmlns="http://www.w3.org/2000/svg">
<path fill-rule="evenodd" clip-rule="evenodd" d="M12.6168 2.48682L13.1342 7.40884C13.2791 8.80377 11.8618 9.83824 10.5768 9.26575L6.05639 7.25277L6.79689 5.58988L11.3173 7.60285L11.3196 7.60383L11.3214 7.60267L11.3239 7.60059L11.3236 7.59722L10.8064 2.67711L12.6168 2.48682ZM16.9009 5.28198L15.0905 5.0918L14.5641 10.1022C14.4173 11.5105 15.8482 12.5528 17.1441 11.9769L21.7465 9.92748L21.006 8.26458L16.4041 10.3138C16.3978 10.3165 16.3944 10.317 16.3942 10.317C16.3936 10.317 16.3892 10.3161 16.3832 10.3118C16.3772 10.3074 16.3748 10.3028 16.3744 10.3021C16.3744 10.3018 16.3739 10.2986 16.3746 10.2917L16.9009 5.28198ZM15.032 14.134L19.9571 13.0874L20.3355 14.868L15.4101 15.9146C15.4065 15.9154 15.404 15.9162 15.4027 15.9166L15.4009 15.9174C15.4002 15.9181 15.3974 15.9214 15.3953 15.9279C15.3932 15.9342 15.3935 15.9385 15.3936 15.9396L15.3945 15.9411L15.3957 15.9428L15.3989 15.9465L15.3997 15.9475L18.7688 19.6898L17.416 20.9077L14.0478 17.1664C13.0991 16.1149 13.6456 14.4283 15.032 14.134ZM8.15274 15.8242C8.86109 14.5969 10.6336 14.597 11.3418 15.8244L13.8598 20.1854L12.2833 21.0956L9.76524 16.7344L9.76315 16.731L9.76111 16.7281L9.75973 16.7264C9.75922 16.7262 9.75491 16.7241 9.7472 16.7241C9.73969 16.7241 9.73541 16.726 9.73471 16.7264L9.73328 16.7281C9.73247 16.7291 9.73108 16.7311 9.72928 16.7342L7.21106 21.0956L5.63464 20.1854L8.15274 15.8242ZM7.5565 9.81511L2.73279 8.70792L2.32556 10.4821L7.14739 11.5889L7.15065 11.5897L7.15182 11.5928L7.15234 11.5948L7.15067 11.5966L3.7802 15.2197L5.11298 16.4596L8.48345 12.8365C9.44179 11.8068 8.92301 10.1305 7.5565 9.81511Z" fill="#236CFF"/>
<path d="M28.2365 17V7.088H30.0005V17H28.2365ZM30.9837 17L35.2957 7.088H36.8217L41.0917 17H39.0757L38.1517 14.732H33.8537L32.9577 17H30.9837ZM34.4557 13.22H37.5357L36.0097 9.188L34.4557 13.22ZM45.3264 17V7.088H48.0844L50.6604 14.13H50.7024L53.2504 7.088H56.0224V17H54.2724V9.034H54.2444L51.2344 17H50.0024L47.0344 9.034H47.0064V17H45.3264ZM57.7293 13.612C57.7293 11.498 59.3533 10.084 61.3833 10.084C63.4133 10.084 65.0373 11.498 65.0373 13.612C65.0373 15.726 63.4133 17.196 61.3833 17.196C59.3533 17.196 57.7293 15.726 57.7293 13.612ZM59.4373 13.612C59.4373 14.662 60.0533 15.796 61.3833 15.796C62.7133 15.796 63.3293 14.662 63.3293 13.612C63.3293 12.562 62.7133 11.456 61.3833 11.456C60.0533 11.456 59.4373 12.562 59.4373 13.612ZM66.8762 11.624H65.7002V10.28H66.8762V8.334H68.5282V10.28H70.2082V11.624H68.5282V14.746C68.5282 15.348 68.6682 15.782 69.4102 15.782C69.6342 15.782 69.9282 15.74 70.1242 15.642L70.1802 16.958C69.8862 17.07 69.4382 17.14 69.0602 17.14C67.2822 17.14 66.8762 16.048 66.8762 14.76V11.624ZM71.452 17V10.28H73.132V17H71.452ZM71.214 7.998C71.214 7.466 71.662 6.99 72.278 6.99C72.894 6.99 73.37 7.424 73.37 7.998C73.37 8.572 72.894 9.006 72.278 9.006C71.662 9.006 71.214 8.53 71.214 7.998ZM74.7781 13.612C74.7781 11.498 76.4021 10.084 78.4321 10.084C80.4621 10.084 82.0861 11.498 82.0861 13.612C82.0861 15.726 80.4621 17.196 78.4321 17.196C76.4021 17.196 74.7781 15.726 74.7781 13.612ZM76.4861 13.612C76.4861 14.662 77.1021 15.796 78.4321 15.796C79.7621 15.796 80.3781 14.662 80.3781 13.612C80.3781 12.562 79.7621 11.456 78.4321 11.456C77.1021 11.456 76.4861 12.562 76.4861 13.612ZM83.715 17V10.28H85.311V11.358H85.339C85.633 10.686 86.431 10.084 87.425 10.084C89.175 10.084 89.903 11.428 89.903 12.8V17H88.223V13.276C88.223 12.478 88.041 11.484 86.963 11.484C85.899 11.484 85.395 12.408 85.395 13.304V17H83.715Z" fill="#393A3D"/>
</svg>
