<svg width="134" height="32" viewBox="0 0 134 32" fill="none" xmlns="http://www.w3.org/2000/svg">
<path fill-rule="evenodd" clip-rule="evenodd" d="M14.8895 13.2291C14.5305 13.229 14.1674 13.1523 13.8224 12.9992L6.87582 9.89176L7.85557 7.68164L14.8022 10.7891C14.8724 10.8214 14.9407 10.8133 15.0029 10.7689C15.0652 10.7226 15.0933 10.6621 15.0853 10.5854L14.2882 2.98514L16.6834 2.73308L17.4784 10.3293C17.5768 11.2711 17.1793 12.1664 16.4164 12.725C15.9589 13.0595 15.4272 13.2289 14.8895 13.2291ZM14.8895 13.2291C14.8892 13.2291 14.8888 13.2291 14.8885 13.2291H14.8905C14.8902 13.2291 14.8898 13.2291 14.8895 13.2291ZM19.7682 15.778C20.2232 16.1145 20.7537 16.2904 21.2918 16.295L21.2918 16.2909C21.6512 16.2939 22.0152 16.2224 22.3618 16.07L29.3343 13.0212L28.3732 10.8029L21.4007 13.8517C21.3302 13.8834 21.262 13.8748 21.2001 13.8299C21.1382 13.785 21.1107 13.7223 21.1193 13.6457L21.9783 6.0564L19.5854 5.78417L18.7264 13.3735C18.62 14.3163 19.01 15.215 19.7682 15.778ZM23.4752 28.0925L18.4381 22.3712C17.8139 21.6619 17.6176 20.7002 17.9187 19.8015C18.2178 18.9027 18.9483 18.2538 19.8736 18.0643L27.3258 16.5411L27.8048 18.9128L20.3525 20.436C20.2761 20.4515 20.2275 20.4954 20.2028 20.5698C20.178 20.6442 20.1915 20.7089 20.2432 20.7678L25.2803 26.4891L23.4752 28.0925ZM9.39424 28.4968L7.31282 27.2791L11.1403 20.6792C11.6151 19.8603 12.4622 19.3734 13.4058 19.377C14.3494 19.3805 15.1928 19.8737 15.6615 20.6962L19.4392 27.3247L17.3487 28.5268L13.571 21.8983C13.4952 21.7649 13.3005 21.7622 13.2237 21.897L9.39625 28.4968L9.39424 28.4968ZM5.04308 21.5511L6.81659 23.1893L6.81655 23.1934L11.9642 17.5713C12.6021 16.8723 12.8151 15.9167 12.5336 15.0122C12.2521 14.1078 11.5343 13.4447 10.6129 13.2373L3.19179 11.5691L2.66669 13.9311L10.0879 15.5952C10.162 15.6121 10.2117 15.659 10.235 15.7319C10.2583 15.8067 10.2435 15.8731 10.1907 15.929L5.04308 21.5511Z" fill="#236CFF"/>
<path d="M37.716 24V8.424H40.488V24H37.716ZM42.033 24L48.809 8.424H51.207L57.917 24H54.749L53.297 20.436H46.543L45.135 24H42.033ZM47.489 18.06H52.329L49.931 11.724L47.489 18.06ZM62.2302 8.424L67.5102 21.316H67.5322L72.7462 8.424H75.1662V24H73.5822V10.47H73.5382L67.9062 24H67.0702L61.4382 10.47H61.3942V24H59.8102V8.424H62.2302ZM89.4385 18.852C89.4385 21.954 87.1505 24.264 83.9385 24.264C80.7485 24.264 78.4605 21.954 78.4605 18.852C78.4605 15.75 80.7485 13.44 83.9385 13.44C87.1505 13.44 89.4385 15.75 89.4385 18.852ZM87.8545 18.852C87.8545 16.542 86.3365 14.694 83.9385 14.694C81.5625 14.694 80.0445 16.542 80.0445 18.852C80.0445 21.162 81.5625 22.988 83.9385 22.988C86.3365 22.988 87.8545 21.162 87.8545 18.852ZM97.2997 13.704V14.958H94.3957V20.964C94.3957 22.504 95.0337 22.856 95.9357 22.856C96.3537 22.856 96.8377 22.724 97.2337 22.526L97.2997 23.824C96.7717 24.022 96.2217 24.132 95.5397 24.132C94.4397 24.132 92.8997 23.648 92.8997 21.382V14.958H90.7657V13.704H92.8997V10.8H94.3957V13.704H97.2997ZM101.158 13.704V24H99.6622V13.704H101.158ZM101.466 9.744C101.466 10.36 100.938 10.8 100.41 10.8C99.8822 10.8 99.3542 10.36 99.3542 9.744C99.3542 9.128 99.8822 8.688 100.41 8.688C100.938 8.688 101.466 9.128 101.466 9.744ZM115.37 18.852C115.37 21.954 113.082 24.264 109.87 24.264C106.68 24.264 104.392 21.954 104.392 18.852C104.392 15.75 106.68 13.44 109.87 13.44C113.082 13.44 115.37 15.75 115.37 18.852ZM113.786 18.852C113.786 16.542 112.268 14.694 109.87 14.694C107.494 14.694 105.976 16.542 105.976 18.852C105.976 21.162 107.494 22.988 109.87 22.988C112.268 22.988 113.786 21.162 113.786 18.852ZM118.501 13.704H119.931C119.975 14.254 120.019 15.024 120.019 15.464H120.063C120.635 14.276 122.131 13.44 123.583 13.44C126.201 13.44 127.499 15.134 127.499 17.686V24H126.003V18.302C126.003 16.146 125.365 14.694 123.209 14.694C121.625 14.694 120.085 15.97 120.085 18.72V24H118.589V15.97C118.589 15.42 118.567 14.408 118.501 13.704Z" fill="#21262A"/>
</svg>
