<svg width="326" height="78" viewBox="0 0 326 78" fill="none" xmlns="http://www.w3.org/2000/svg">
<g clip-path="url(#clip0_3_1820)">
<path d="M28.68 40H20.92L9.52 21.48H9.4L9.56 40H2.92V11.68H10.72L22.08 30.16H22.2L22.04 11.68H28.68V40ZM55.2816 29.96C55.2816 36.48 50.2416 40.64 44.2016 40.64C38.2016 40.64 33.1616 36.48 33.1616 29.96C33.1616 23.44 38.2016 19.44 44.2016 19.44C50.2416 19.44 55.2816 23.44 55.2816 29.96ZM48.9616 29.96C48.9616 27.4 47.2816 24.88 44.2016 24.88C41.1216 24.88 39.5216 27.4 39.5216 29.96C39.5216 32.52 41.1616 35.12 44.2416 35.12C47.3216 35.12 48.9616 32.52 48.9616 29.96ZM79.115 40H72.515V29.12C72.515 26.92 71.915 24.92 69.555 24.92C67.235 24.92 66.035 26.92 66.035 29.2V40H59.435V20.08H65.795V22.84H65.875C66.795 21.08 69.075 19.52 71.835 19.52C77.195 19.52 79.115 23.68 79.115 27.68V40ZM101.203 13.72C101.203 15.76 99.5234 17.32 97.4434 17.32C95.3234 17.32 93.6834 15.68 93.6834 13.72C93.6834 11.8 95.3234 10.12 97.4434 10.12C99.5234 10.12 101.203 11.72 101.203 13.72ZM100.723 40H94.1634V20.08H100.723V40ZM125.599 40H118.999V29.12C118.999 26.92 118.399 24.92 116.039 24.92C113.719 24.92 112.519 26.92 112.519 29.2V40H105.919V20.08H112.279V22.84H112.359C113.279 21.08 115.559 19.52 118.319 19.52C123.679 19.52 125.599 23.68 125.599 27.68V40ZM142.368 25H137.688V32.6C137.688 34.44 138.288 35.4 140.168 35.4C140.808 35.4 141.608 35.28 142.088 35.08L142.168 39.88C141.288 40.2 139.768 40.48 138.368 40.48C133.048 40.48 131.288 37.64 131.288 33.4V25H128.088V20.08H131.248V14.84H137.688V20.08H142.368V25ZM164.891 40H158.571V37.24H158.491C157.571 39 155.291 40.56 152.491 40.56C147.131 40.56 145.251 36.4 145.251 32.4V20.08H151.851V30.88C151.851 33.12 152.411 35.12 154.811 35.12C157.091 35.12 158.331 33.12 158.331 30.84V20.08H164.891V40ZM177.141 13.72C177.141 15.76 175.461 17.32 173.381 17.32C171.261 17.32 169.621 15.68 169.621 13.72C169.621 11.8 171.261 10.12 173.381 10.12C175.461 10.12 177.141 11.72 177.141 13.72ZM176.661 40H170.101V20.08H176.661V40ZM193.657 25H188.977V32.6C188.977 34.44 189.577 35.4 191.457 35.4C192.097 35.4 192.897 35.28 193.377 35.08L193.457 39.88C192.577 40.2 191.057 40.48 189.657 40.48C184.337 40.48 182.577 37.64 182.577 33.4V25H179.377V20.08H182.537V14.84H188.977V20.08H193.657V25ZM226.9 20.08L219.06 40H211.98L204.14 20.08H211.38L215.58 33H215.7L219.9 20.08H226.9ZM236.555 13.72C236.555 15.76 234.875 17.32 232.795 17.32C230.675 17.32 229.035 15.68 229.035 13.72C229.035 11.8 230.675 10.12 232.795 10.12C234.875 10.12 236.555 11.72 236.555 13.72ZM236.075 40H229.515V20.08H236.075V40ZM256.591 22.24L252.991 25.96C251.951 24.96 250.431 24.16 248.831 24.16C247.591 24.16 246.351 24.6 246.351 25.76C246.351 26.88 247.431 27.2 249.991 27.76C253.031 28.44 256.351 29.96 256.351 33.84C256.351 38.88 251.911 40.64 247.831 40.64C244.591 40.64 241.231 39.56 239.151 37.56L242.831 33.68C243.991 34.96 245.791 35.92 247.711 35.92C248.791 35.92 250.071 35.48 250.071 34.2C250.071 32.96 248.831 32.56 246.111 31.92C243.351 31.28 240.311 29.88 240.311 26.12C240.311 21.36 244.791 19.44 248.591 19.44C251.551 19.44 254.631 20.4 256.591 22.24ZM267.258 13.72C267.258 15.76 265.578 17.32 263.498 17.32C261.378 17.32 259.738 15.68 259.738 13.72C259.738 11.8 261.378 10.12 263.498 10.12C265.578 10.12 267.258 11.72 267.258 13.72ZM266.778 40H260.218V20.08H266.778V40ZM283.774 25H279.094V32.6C279.094 34.44 279.694 35.4 281.574 35.4C282.214 35.4 283.014 35.28 283.494 35.08L283.574 39.88C282.694 40.2 281.174 40.48 279.774 40.48C274.454 40.48 272.694 37.64 272.694 33.4V25H269.494V20.08H272.654V14.84H279.094V20.08H283.774V25ZM307.977 29.96C307.977 36.48 302.937 40.64 296.897 40.64C290.897 40.64 285.857 36.48 285.857 29.96C285.857 23.44 290.897 19.44 296.897 19.44C302.937 19.44 307.977 23.44 307.977 29.96ZM301.657 29.96C301.657 27.4 299.977 24.88 296.897 24.88C293.817 24.88 292.217 27.4 292.217 29.96C292.217 32.52 293.857 35.12 296.937 35.12C300.017 35.12 301.657 32.52 301.657 29.96ZM325.33 19.68L325.05 25.44C324.45 25.28 323.89 25.24 323.37 25.24C319.85 25.24 318.69 28.12 318.69 29.76V40H312.13V20.08H318.45V22.96H318.53C319.53 20.96 321.49 19.52 323.93 19.52C324.45 19.52 325.01 19.56 325.33 19.68Z" fill="#21262A"/>
</g>
<path d="M1.248 72V60.672H3.264V72H1.248ZM5.66763 72V64.32H7.49163V65.552H7.52363C7.85963 64.784 8.77163 64.096 9.90763 64.096C11.9076 64.096 12.7396 65.632 12.7396 67.2V72H10.8196V67.744C10.8196 66.832 10.6116 65.696 9.37963 65.696C8.16363 65.696 7.58763 66.752 7.58763 67.776V72H5.66763ZM15.2201 65.856H13.8761V64.32H15.2201V62.096H17.1081V64.32H19.0281V65.856H17.1081V69.424C17.1081 70.112 17.2681 70.608 18.1161 70.608C18.3721 70.608 18.7081 70.56 18.9321 70.448L18.9961 71.952C18.6601 72.08 18.1481 72.16 17.7161 72.16C15.6841 72.16 15.2201 70.912 15.2201 69.44V65.856ZM27.4256 64.32V72H25.6016V70.768H25.5696C25.2336 71.536 24.3216 72.224 23.1856 72.224C21.1856 72.224 20.3536 70.688 20.3536 69.12V64.32H22.2736V68.576C22.2736 69.488 22.4816 70.624 23.7136 70.624C24.9296 70.624 25.5056 69.568 25.5056 68.544V64.32H27.4256ZM29.7621 72V64.32H31.6821V72H29.7621ZM29.4901 61.712C29.4901 61.104 30.0021 60.56 30.7061 60.56C31.4101 60.56 31.9541 61.056 31.9541 61.712C31.9541 62.368 31.4101 62.864 30.7061 62.864C30.0021 62.864 29.4901 62.32 29.4901 61.712ZM34.2514 65.856H32.9074V64.32H34.2514V62.096H36.1394V64.32H38.0594V65.856H36.1394V69.424C36.1394 70.112 36.2994 70.608 37.1474 70.608C37.4034 70.608 37.7394 70.56 37.9634 70.448L38.0274 71.952C37.6914 72.08 37.1794 72.16 36.7474 72.16C34.7154 72.16 34.2514 70.912 34.2514 69.44V65.856ZM44.9209 67.392H48.8569C48.8569 66.4 48.2969 65.536 47.0489 65.536C45.9129 65.536 45.0009 66.32 44.9209 67.392ZM50.7769 68.256C50.7769 68.432 50.7769 68.592 50.7609 68.768H44.9209C45.0009 69.856 45.9929 70.656 47.1129 70.656C48.0729 70.656 48.7129 70.272 49.1449 69.664L50.4249 70.688C49.6729 71.712 48.5849 72.224 47.1289 72.224C44.7609 72.224 43.0009 70.704 43.0009 68.208C43.0009 65.728 44.7449 64.096 47.0649 64.096C49.2089 64.096 50.7769 65.488 50.7769 68.256ZM61.8044 64.096C63.8044 64.096 64.6364 65.632 64.6364 67.2V72H62.7164V67.744C62.7164 66.832 62.5084 65.696 61.2764 65.696C60.0764 65.696 59.5804 66.816 59.5804 67.808V72H57.6604V67.36C57.6604 66.416 57.2124 65.696 56.2364 65.696C55.0844 65.696 54.5564 66.752 54.5564 67.776V72H52.6364V64.32H54.4604V65.552H54.4924C54.8284 64.8 55.6444 64.096 56.8764 64.096C58.0604 64.096 58.8444 64.688 59.2764 65.552C59.7884 64.624 60.6524 64.096 61.8044 64.096ZM71.6388 72V71.024H71.5908C71.2068 71.696 70.2948 72.192 69.2068 72.192C67.9748 72.192 66.3268 71.6 66.3268 69.808C66.3268 67.52 69.2068 67.2 71.6068 67.2V67.008C71.6068 66.064 70.8068 65.6 69.8468 65.6C69.0308 65.6 68.2468 65.984 67.7508 66.48L66.7588 65.312C67.6228 64.512 68.8388 64.096 70.0068 64.096C72.7588 64.096 73.4308 65.792 73.4308 67.328V72H71.6388ZM71.6068 68.768V68.496H71.1748C69.9588 68.496 68.2468 68.64 68.2468 69.776C68.2468 70.512 68.9348 70.736 69.5908 70.736C70.9028 70.736 71.6068 69.984 71.6068 68.768ZM75.6996 72V64.32H77.6196V72H75.6996ZM75.4276 61.712C75.4276 61.104 75.9396 60.56 76.6436 60.56C77.3476 60.56 77.8916 61.056 77.8916 61.712C77.8916 62.368 77.3476 62.864 76.6436 62.864C75.9396 62.864 75.4276 62.32 75.4276 61.712ZM79.9809 72V59.904H81.9009V72H79.9809ZM88.2301 72V64.32H90.0701V65.6H90.1021C90.5181 64.72 91.3341 64.096 92.3421 64.096C92.4861 64.096 92.6781 64.112 92.8061 64.144V65.904C92.5501 65.84 92.3901 65.824 92.2141 65.824C90.4861 65.824 90.1501 67.328 90.1501 67.888V72H88.2301ZM95.249 67.392H99.185C99.185 66.4 98.625 65.536 97.377 65.536C96.241 65.536 95.329 66.32 95.249 67.392ZM101.105 68.256C101.105 68.432 101.105 68.592 101.089 68.768H95.249C95.329 69.856 96.321 70.656 97.441 70.656C98.401 70.656 99.041 70.272 99.473 69.664L100.753 70.688C100.001 71.712 98.913 72.224 97.457 72.224C95.089 72.224 93.329 70.704 93.329 68.208C93.329 65.728 95.073 64.096 97.393 64.096C99.537 64.096 101.105 65.488 101.105 68.256ZM110.773 64.32V75.84H108.853V70.976H108.821C108.325 71.744 107.349 72.224 106.277 72.224C103.941 72.224 102.501 70.368 102.501 68.128C102.501 65.856 104.037 64.096 106.229 64.096C107.637 64.096 108.501 64.784 108.885 65.392H108.933V64.32H110.773ZM104.453 68.128C104.453 69.328 105.173 70.624 106.661 70.624C108.069 70.624 108.917 69.36 108.917 68.16C108.917 66.96 108.069 65.664 106.661 65.664C105.173 65.664 104.453 66.928 104.453 68.128ZM120.082 64.32V72H118.258V70.768H118.226C117.89 71.536 116.978 72.224 115.842 72.224C113.842 72.224 113.01 70.688 113.01 69.12V64.32H114.93V68.576C114.93 69.488 115.138 70.624 116.37 70.624C117.586 70.624 118.162 69.568 118.162 68.544V64.32H120.082ZM122.418 72V64.32H124.338V72H122.418ZM122.146 61.712C122.146 61.104 122.658 60.56 123.362 60.56C124.066 60.56 124.61 61.056 124.61 61.712C124.61 62.368 124.066 62.864 123.362 62.864C122.658 62.864 122.146 62.32 122.146 61.712ZM126.668 72V64.32H128.508V65.6H128.54C128.956 64.72 129.772 64.096 130.78 64.096C130.924 64.096 131.116 64.112 131.244 64.144V65.904C130.988 65.84 130.828 65.824 130.652 65.824C128.924 65.824 128.588 67.328 128.588 67.888V72H126.668ZM133.687 67.392H137.623C137.623 66.4 137.063 65.536 135.815 65.536C134.679 65.536 133.767 66.32 133.687 67.392ZM139.543 68.256C139.543 68.432 139.543 68.592 139.527 68.768H133.687C133.767 69.856 134.759 70.656 135.879 70.656C136.839 70.656 137.479 70.272 137.911 69.664L139.191 70.688C138.439 71.712 137.351 72.224 135.895 72.224C133.527 72.224 131.767 70.704 131.767 68.208C131.767 65.728 133.511 64.096 135.831 64.096C137.975 64.096 139.543 65.488 139.543 68.256ZM149.21 59.904V72H147.386V70.848H147.354C146.826 71.728 145.786 72.224 144.714 72.224C142.378 72.224 140.938 70.368 140.938 68.128C140.938 65.856 142.474 64.096 144.666 64.096C146.074 64.096 146.842 64.8 147.242 65.296H147.29V59.904H149.21ZM142.89 68.128C142.89 69.328 143.61 70.624 145.098 70.624C146.506 70.624 147.354 69.36 147.354 68.16C147.354 66.96 146.506 65.664 145.098 65.664C143.61 65.664 142.89 66.928 142.89 68.128Z" fill="#21262A"/>
<defs>
<clipPath id="clip0_3_1820">
<rect width="326" height="52" fill="white"/>
</clipPath>
</defs>
</svg>
