<svg width="20" height="20" viewBox="0 0 20 20" fill="none" xmlns="http://www.w3.org/2000/svg">
<path d="M9.99997 7.33524C10.7364 7.33634 11.3342 6.74028 11.3353 6.00391C11.3364 5.26753 10.7404 4.66968 10.004 4.66857C9.2676 4.66747 8.66975 5.26352 8.66864 5.9999C8.66754 6.73628 9.26359 7.33413 9.99997 7.33524Z" fill="#6B6C72"/>
<path d="M9.99997 11.3352C10.7364 11.3363 11.3342 10.7403 11.3353 10.0039C11.3364 9.26753 10.7404 8.66968 10.004 8.66857C9.2676 8.66747 8.66975 9.26353 8.66864 9.9999C8.66754 10.7363 9.26359 11.3341 9.99997 11.3352Z" fill="#6B6C72"/>
<path d="M9.99997 15.3352C10.7364 15.3363 11.3342 14.7403 11.3353 14.0039C11.3364 13.2675 10.7404 12.6697 10.004 12.6686C9.2676 12.6675 8.66975 13.2635 8.66864 13.9999C8.66754 14.7363 9.26359 15.3341 9.99997 15.3352Z" fill="#6B6C72"/>
</svg>
