<svg width="24" height="24" viewBox="0 0 24 24" fill="none" xmlns="http://www.w3.org/2000/svg">
<path d="M19.8 10.232L6.67399 3.284C6.32087 3.09679 5.91977 3.01967 5.52241 3.06259C5.12505 3.10551 4.74967 3.2665 4.44467 3.52479C4.13967 3.78307 3.91906 4.12682 3.81128 4.51168C3.7035 4.89654 3.7135 5.30487 3.83999 5.684V5.684L5.94599 12L3.83999 18.316C3.7135 18.6951 3.7035 19.1034 3.81128 19.4883C3.91906 19.8732 4.13967 20.2169 4.44467 20.4752C4.74967 20.7335 5.12505 20.8945 5.52241 20.9374C5.91977 20.9803 6.32087 20.9032 6.67399 20.716L19.8 13.767C20.1212 13.5969 20.39 13.3425 20.5775 13.031C20.765 12.7196 20.8641 12.363 20.8641 11.9995C20.8641 11.636 20.765 11.2794 20.5775 10.968C20.39 10.6565 20.1212 10.4021 19.8 10.232V10.232ZM5.73799 5.052L16.974 11H7.72099L5.73799 5.052ZM5.73799 18.952L7.72099 13H16.974L5.73799 18.952Z" fill="white"/>
</svg>
