<svg width="281" height="78" viewBox="0 0 281 78" fill="none" xmlns="http://www.w3.org/2000/svg">
<g clip-path="url(#clip0_3_1820)">
<path d="M27.84 36.08C25.36 38.96 21.6 40.76 16.84 40.76C8.12 40.76 1.6 34.68 1.6 25.8C1.6 16.72 8.32 10.92 16.96 10.92C20.92 10.92 25.2 12.36 27.56 15.08L22.92 19.72C21.64 17.96 19.36 17.12 17.2 17.12C12.44 17.12 9.04 20.8 9.04 25.8C9.04 30.96 12.36 34.48 17.08 34.48C19.76 34.48 21.88 33.28 23.08 31.6L27.84 36.08ZM55.9316 38.28C53.1716 39.72 49.3716 40.72 45.0116 40.72C35.9716 40.72 29.4516 34.72 29.4516 25.8C29.4516 16.72 36.1716 10.92 44.8116 10.92C49.2516 10.92 53.3716 12.4 55.7316 14.68L51.4116 19.6C50.0916 18.08 47.8116 16.96 45.0516 16.96C40.2516 16.96 36.7316 20.72 36.7316 25.8C36.7316 31 39.8116 34.72 45.3716 34.72C46.9716 34.72 48.4516 34.48 49.6516 33.96V28.8H44.2516V23.28H55.9316V38.28ZM94.6738 40H86.6738L80.5538 28.76H78.2338V40H71.5138V11.68H82.3138C87.7538 11.68 93.1538 13.76 93.1538 20.24C93.1538 24.04 90.9138 26.76 87.2738 27.88L94.6738 40ZM86.3938 20.36C86.3938 17.72 83.8738 17.2 81.8338 17.2H78.1938V23.8H81.4338C83.6338 23.8 86.3938 23.24 86.3938 20.36ZM104.797 13.72C104.797 15.76 103.117 17.32 101.037 17.32C98.9172 17.32 97.2772 15.68 97.2772 13.72C97.2772 11.8 98.9172 10.12 101.037 10.12C103.117 10.12 104.797 11.72 104.797 13.72ZM104.317 40H97.7572V20.08H104.317V40ZM129.673 20.08L121.833 40H114.753L106.913 20.08H114.153L118.353 33H118.473L122.673 20.08H129.673ZM137.488 27.76H145.928C145.928 25.68 144.608 23.96 142.008 23.96C139.488 23.96 137.648 25.72 137.488 27.76ZM151.968 30.28C151.968 30.8 151.968 31.36 151.928 31.84H137.488C137.688 34.04 139.888 35.6 142.248 35.6C144.328 35.6 145.768 34.72 146.648 33.52L151.208 36.4C149.328 39.12 146.208 40.64 142.168 40.64C136.168 40.64 131.208 36.84 131.208 30.12C131.208 23.6 135.928 19.44 141.968 19.44C147.848 19.44 151.968 23.48 151.968 30.28ZM192.837 25.76C192.837 35.72 184.757 40 176.957 40H166.397V11.68H176.637C184.677 11.68 192.837 15.04 192.837 25.76ZM185.717 25.76C185.717 19.4 181.197 17.52 176.477 17.52H173.077V34.08H176.317C181.197 34.08 185.717 32.08 185.717 25.76ZM202.293 27.76H210.733C210.733 25.68 209.413 23.96 206.813 23.96C204.293 23.96 202.453 25.72 202.293 27.76ZM216.773 30.28C216.773 30.8 216.773 31.36 216.733 31.84H202.293C202.493 34.04 204.693 35.6 207.053 35.6C209.133 35.6 210.573 34.72 211.453 33.52L216.013 36.4C214.133 39.12 211.013 40.64 206.973 40.64C200.973 40.64 196.013 36.84 196.013 30.12C196.013 23.6 200.733 19.44 206.773 19.44C212.653 19.44 216.773 23.48 216.773 30.28ZM252.841 40H246.281V29.12C246.281 26.84 245.761 24.92 243.441 24.92C241.201 24.92 240.121 27 240.121 29.24V40H233.561V28.64C233.561 26.36 232.681 24.92 230.721 24.92C228.641 24.92 227.441 26.8 227.441 29.2V40H220.841V20.08H227.201V22.84H227.281C228.201 21.16 230.241 19.52 233.241 19.52C236.121 19.52 238.121 20.76 239.241 22.92C240.561 20.84 242.641 19.52 245.601 19.52C251.001 19.52 252.841 23.92 252.841 27.68V40ZM278.914 29.96C278.914 36.48 273.874 40.64 267.834 40.64C261.834 40.64 256.794 36.48 256.794 29.96C256.794 23.44 261.834 19.44 267.834 19.44C273.874 19.44 278.914 23.44 278.914 29.96ZM272.594 29.96C272.594 27.4 270.914 24.88 267.834 24.88C264.754 24.88 263.154 27.4 263.154 29.96C263.154 32.52 264.794 35.12 267.874 35.12C270.954 35.12 272.594 32.52 272.594 29.96Z" fill="#21262A"/>
</g>
<path d="M1.248 72V60.672H3.264V72H1.248ZM5.66763 72V64.32H7.49163V65.552H7.52363C7.85963 64.784 8.77163 64.096 9.90763 64.096C11.9076 64.096 12.7396 65.632 12.7396 67.2V72H10.8196V67.744C10.8196 66.832 10.6116 65.696 9.37963 65.696C8.16363 65.696 7.58763 66.752 7.58763 67.776V72H5.66763ZM15.2201 65.856H13.8761V64.32H15.2201V62.096H17.1081V64.32H19.0281V65.856H17.1081V69.424C17.1081 70.112 17.2681 70.608 18.1161 70.608C18.3721 70.608 18.7081 70.56 18.9321 70.448L18.9961 71.952C18.6601 72.08 18.1481 72.16 17.7161 72.16C15.6841 72.16 15.2201 70.912 15.2201 69.44V65.856ZM27.4256 64.32V72H25.6016V70.768H25.5696C25.2336 71.536 24.3216 72.224 23.1856 72.224C21.1856 72.224 20.3536 70.688 20.3536 69.12V64.32H22.2736V68.576C22.2736 69.488 22.4816 70.624 23.7136 70.624C24.9296 70.624 25.5056 69.568 25.5056 68.544V64.32H27.4256ZM29.7621 72V64.32H31.6821V72H29.7621ZM29.4901 61.712C29.4901 61.104 30.0021 60.56 30.7061 60.56C31.4101 60.56 31.9541 61.056 31.9541 61.712C31.9541 62.368 31.4101 62.864 30.7061 62.864C30.0021 62.864 29.4901 62.32 29.4901 61.712ZM34.2514 65.856H32.9074V64.32H34.2514V62.096H36.1394V64.32H38.0594V65.856H36.1394V69.424C36.1394 70.112 36.2994 70.608 37.1474 70.608C37.4034 70.608 37.7394 70.56 37.9634 70.448L38.0274 71.952C37.6914 72.08 37.1794 72.16 36.7474 72.16C34.7154 72.16 34.2514 70.912 34.2514 69.44V65.856ZM44.9209 67.392H48.8569C48.8569 66.4 48.2969 65.536 47.0489 65.536C45.9129 65.536 45.0009 66.32 44.9209 67.392ZM50.7769 68.256C50.7769 68.432 50.7769 68.592 50.7609 68.768H44.9209C45.0009 69.856 45.9929 70.656 47.1129 70.656C48.0729 70.656 48.7129 70.272 49.1449 69.664L50.4249 70.688C49.6729 71.712 48.5849 72.224 47.1289 72.224C44.7609 72.224 43.0009 70.704 43.0009 68.208C43.0009 65.728 44.7449 64.096 47.0649 64.096C49.2089 64.096 50.7769 65.488 50.7769 68.256ZM61.8044 64.096C63.8044 64.096 64.6364 65.632 64.6364 67.2V72H62.7164V67.744C62.7164 66.832 62.5084 65.696 61.2764 65.696C60.0764 65.696 59.5804 66.816 59.5804 67.808V72H57.6604V67.36C57.6604 66.416 57.2124 65.696 56.2364 65.696C55.0844 65.696 54.5564 66.752 54.5564 67.776V72H52.6364V64.32H54.4604V65.552H54.4924C54.8284 64.8 55.6444 64.096 56.8764 64.096C58.0604 64.096 58.8444 64.688 59.2764 65.552C59.7884 64.624 60.6524 64.096 61.8044 64.096ZM71.6388 72V71.024H71.5908C71.2068 71.696 70.2948 72.192 69.2068 72.192C67.9748 72.192 66.3268 71.6 66.3268 69.808C66.3268 67.52 69.2068 67.2 71.6068 67.2V67.008C71.6068 66.064 70.8068 65.6 69.8468 65.6C69.0308 65.6 68.2468 65.984 67.7508 66.48L66.7588 65.312C67.6228 64.512 68.8388 64.096 70.0068 64.096C72.7588 64.096 73.4308 65.792 73.4308 67.328V72H71.6388ZM71.6068 68.768V68.496H71.1748C69.9588 68.496 68.2468 68.64 68.2468 69.776C68.2468 70.512 68.9348 70.736 69.5908 70.736C70.9028 70.736 71.6068 69.984 71.6068 68.768ZM75.6996 72V64.32H77.6196V72H75.6996ZM75.4276 61.712C75.4276 61.104 75.9396 60.56 76.6436 60.56C77.3476 60.56 77.8916 61.056 77.8916 61.712C77.8916 62.368 77.3476 62.864 76.6436 62.864C75.9396 62.864 75.4276 62.32 75.4276 61.712ZM79.9809 72V59.904H81.9009V72H79.9809ZM88.2301 72V64.32H90.0701V65.6H90.1021C90.5181 64.72 91.3341 64.096 92.3421 64.096C92.4861 64.096 92.6781 64.112 92.8061 64.144V65.904C92.5501 65.84 92.3901 65.824 92.2141 65.824C90.4861 65.824 90.1501 67.328 90.1501 67.888V72H88.2301ZM95.249 67.392H99.185C99.185 66.4 98.625 65.536 97.377 65.536C96.241 65.536 95.329 66.32 95.249 67.392ZM101.105 68.256C101.105 68.432 101.105 68.592 101.089 68.768H95.249C95.329 69.856 96.321 70.656 97.441 70.656C98.401 70.656 99.041 70.272 99.473 69.664L100.753 70.688C100.001 71.712 98.913 72.224 97.457 72.224C95.089 72.224 93.329 70.704 93.329 68.208C93.329 65.728 95.073 64.096 97.393 64.096C99.537 64.096 101.105 65.488 101.105 68.256ZM110.773 64.32V75.84H108.853V70.976H108.821C108.325 71.744 107.349 72.224 106.277 72.224C103.941 72.224 102.501 70.368 102.501 68.128C102.501 65.856 104.037 64.096 106.229 64.096C107.637 64.096 108.501 64.784 108.885 65.392H108.933V64.32H110.773ZM104.453 68.128C104.453 69.328 105.173 70.624 106.661 70.624C108.069 70.624 108.917 69.36 108.917 68.16C108.917 66.96 108.069 65.664 106.661 65.664C105.173 65.664 104.453 66.928 104.453 68.128ZM120.082 64.32V72H118.258V70.768H118.226C117.89 71.536 116.978 72.224 115.842 72.224C113.842 72.224 113.01 70.688 113.01 69.12V64.32H114.93V68.576C114.93 69.488 115.138 70.624 116.37 70.624C117.586 70.624 118.162 69.568 118.162 68.544V64.32H120.082ZM122.418 72V64.32H124.338V72H122.418ZM122.146 61.712C122.146 61.104 122.658 60.56 123.362 60.56C124.066 60.56 124.61 61.056 124.61 61.712C124.61 62.368 124.066 62.864 123.362 62.864C122.658 62.864 122.146 62.32 122.146 61.712ZM126.668 72V64.32H128.508V65.6H128.54C128.956 64.72 129.772 64.096 130.78 64.096C130.924 64.096 131.116 64.112 131.244 64.144V65.904C130.988 65.84 130.828 65.824 130.652 65.824C128.924 65.824 128.588 67.328 128.588 67.888V72H126.668ZM133.687 67.392H137.623C137.623 66.4 137.063 65.536 135.815 65.536C134.679 65.536 133.767 66.32 133.687 67.392ZM139.543 68.256C139.543 68.432 139.543 68.592 139.527 68.768H133.687C133.767 69.856 134.759 70.656 135.879 70.656C136.839 70.656 137.479 70.272 137.911 69.664L139.191 70.688C138.439 71.712 137.351 72.224 135.895 72.224C133.527 72.224 131.767 70.704 131.767 68.208C131.767 65.728 133.511 64.096 135.831 64.096C137.975 64.096 139.543 65.488 139.543 68.256ZM149.21 59.904V72H147.386V70.848H147.354C146.826 71.728 145.786 72.224 144.714 72.224C142.378 72.224 140.938 70.368 140.938 68.128C140.938 65.856 142.474 64.096 144.666 64.096C146.074 64.096 146.842 64.8 147.242 65.296H147.29V59.904H149.21ZM142.89 68.128C142.89 69.328 143.61 70.624 145.098 70.624C146.506 70.624 147.354 69.36 147.354 68.16C147.354 66.96 146.506 65.664 145.098 65.664C143.61 65.664 142.89 66.928 142.89 68.128Z" fill="#21262A"/>
<defs>
<clipPath id="clip0_3_1820">
<rect width="281" height="52" fill="white"/>
</clipPath>
</defs>
</svg>
