<svg width="66" height="34" viewBox="0 0 66 34" fill="none" xmlns="http://www.w3.org/2000/svg">
<rect x="0.75" y="1.25" width="64.5" height="31.5" rx="4.25" stroke="#3C4348" stroke-width="1.5"/>
<path d="M15.6504 12.4L14.5024 13.66C14.1244 13.17 13.3824 12.806 12.6824 12.806C11.8704 12.806 10.9324 13.198 10.9324 14.164C10.9324 15.074 11.7024 15.34 12.8224 15.69C14.0964 16.082 15.7204 16.642 15.7204 18.588C15.7204 20.716 14.0544 21.752 12.1084 21.752C10.8204 21.752 9.49045 21.262 8.70645 20.338L9.96645 19.162C10.4564 19.834 11.3524 20.254 12.1364 20.254C12.9624 20.254 13.9284 19.848 13.9284 18.784C13.9284 17.748 12.8924 17.454 11.6464 17.062C10.4424 16.684 9.14045 16.096 9.14045 14.248C9.14045 12.232 10.9744 11.336 12.7664 11.336C13.7604 11.336 14.8944 11.686 15.6504 12.4ZM17.4315 21.5V14.78H19.1115V21.5H17.4315ZM17.1935 12.498C17.1935 11.966 17.6415 11.49 18.2575 11.49C18.8735 11.49 19.3495 11.924 19.3495 12.498C19.3495 13.072 18.8735 13.506 18.2575 13.506C17.6415 13.506 17.1935 13.03 17.1935 12.498ZM26.3856 14.78H27.9816V20.898C27.9816 23.32 26.8056 24.86 24.1876 24.86C23.0956 24.86 21.7236 24.468 20.8556 23.754L21.8216 22.452C22.4656 23.068 23.3336 23.404 24.1736 23.404C25.7976 23.404 26.3016 22.424 26.3016 21.094V20.604H26.2736C25.7836 21.262 24.9996 21.612 24.0756 21.612C22.0596 21.612 20.7576 20.016 20.7576 18.112C20.7576 16.166 22.0176 14.584 24.0476 14.584C24.9856 14.584 25.8676 14.976 26.3576 15.788H26.3856V14.78ZM24.3976 15.956C23.1796 15.956 22.4656 16.908 22.4656 18.098C22.4656 19.162 23.1796 20.226 24.3836 20.226C25.6296 20.226 26.3856 19.218 26.3856 18.098C26.3856 16.936 25.6156 15.956 24.3976 15.956ZM29.9953 21.5V14.78H31.5913V15.858H31.6193C31.9133 15.186 32.7113 14.584 33.7053 14.584C35.4553 14.584 36.1833 15.928 36.1833 17.3V21.5H34.5033V17.776C34.5033 16.978 34.3213 15.984 33.2433 15.984C32.1793 15.984 31.6753 16.908 31.6753 17.804V21.5H29.9953ZM47.7757 14.78V21.5H46.1797V20.422H46.1517C45.8577 21.094 45.0597 21.696 44.0657 21.696C42.3157 21.696 41.5877 20.352 41.5877 18.98V14.78H43.2677V18.504C43.2677 19.302 43.4497 20.296 44.5277 20.296C45.5917 20.296 46.0957 19.372 46.0957 18.476V14.78H47.7757ZM49.7922 14.78H51.4022V15.718H51.4442C51.7802 15.186 52.5362 14.584 53.7682 14.584C55.6862 14.584 57.0302 16.124 57.0302 18.112C57.0302 20.072 55.7702 21.696 53.7262 21.696C52.7882 21.696 51.9342 21.276 51.5002 20.604H51.4722V24.86H49.7922V14.78ZM55.3222 18.112C55.3222 17.062 54.6922 15.956 53.3902 15.956C52.1582 15.956 51.4162 17.09 51.4162 18.14C51.4162 19.19 52.1582 20.296 53.3902 20.296C54.6922 20.296 55.3222 19.162 55.3222 18.112Z" fill="#3C4348"/>
</svg>
