<svg width="383" height="240" viewBox="0 0 383 240" fill="none" xmlns="http://www.w3.org/2000/svg">
<path fill-rule="evenodd" clip-rule="evenodd" d="M56.6168 40.4868L57.1342 45.4088C57.2791 46.8038 55.8618 47.8382 54.5768 47.2657L50.0564 45.2528L50.7969 43.5899L55.3173 45.6028L55.3196 45.6038L55.3214 45.6027L55.3239 45.6006L55.3236 45.5972L54.8064 40.6771L56.6168 40.4868ZM60.9009 43.282L59.0905 43.0918L58.5641 48.1022C58.4173 49.5105 59.8482 50.5528 61.1441 49.9769L65.7465 47.9275L65.006 46.2646L60.4041 48.3138C60.3978 48.3165 60.3944 48.317 60.3942 48.317C60.3936 48.317 60.3892 48.3161 60.3832 48.3118C60.3772 48.3074 60.3748 48.3028 60.3744 48.3021C60.3744 48.3018 60.3739 48.2986 60.3746 48.2917L60.9009 43.282ZM59.032 52.134L63.9571 51.0874L64.3355 52.868L59.4101 53.9146C59.4065 53.9154 59.404 53.9162 59.4027 53.9166L59.4009 53.9174C59.4002 53.9181 59.3974 53.9214 59.3953 53.9279C59.3932 53.9342 59.3935 53.9385 59.3936 53.9396L59.3945 53.9411L59.3957 53.9428L59.3989 53.9465L59.3997 53.9475L62.7688 57.6898L61.416 58.9077L58.0478 55.1664C57.0991 54.1149 57.6456 52.4283 59.032 52.134ZM52.1527 53.8242C52.8611 52.5969 54.6336 52.597 55.3418 53.8244L57.8598 58.1854L56.2833 59.0956L53.7652 54.7344L53.7632 54.731L53.7611 54.7281L53.7597 54.7264C53.7592 54.7262 53.7549 54.7241 53.7472 54.7241C53.7397 54.7241 53.7354 54.726 53.7347 54.7264L53.7333 54.7281C53.7325 54.7291 53.7311 54.7311 53.7293 54.7342L51.2111 59.0956L49.6346 58.1854L52.1527 53.8242ZM51.5565 47.8151L46.7328 46.7079L46.3256 48.4821L51.1474 49.5889L51.1507 49.5897L51.1518 49.5928L51.1523 49.5948L51.1507 49.5966L47.7802 53.2197L49.113 54.4596L52.4834 50.8365C53.4418 49.8068 52.923 48.1305 51.5565 47.8151Z" fill="#236CFF"/>
<path d="M77.248 56V44.672H79.264V49.248H84.56V44.672H86.576V56H84.56V50.976H79.264V56H77.248ZM90.4521 51.392H94.3881C94.3881 50.4 93.8281 49.536 92.5801 49.536C91.4441 49.536 90.5321 50.32 90.4521 51.392ZM96.3081 52.256C96.3081 52.432 96.3081 52.592 96.2921 52.768H90.4521C90.5321 53.856 91.5241 54.656 92.6441 54.656C93.6041 54.656 94.2441 54.272 94.6761 53.664L95.9561 54.688C95.2041 55.712 94.1161 56.224 92.6601 56.224C90.2921 56.224 88.5321 54.704 88.5321 52.208C88.5321 49.728 90.2761 48.096 92.5961 48.096C94.7401 48.096 96.3081 49.488 96.3081 52.256ZM102.842 56V55.024H102.794C102.41 55.696 101.498 56.192 100.41 56.192C99.1779 56.192 97.5299 55.6 97.5299 53.808C97.5299 51.52 100.41 51.2 102.81 51.2V51.008C102.81 50.064 102.01 49.6 101.05 49.6C100.234 49.6 99.4499 49.984 98.9539 50.48L97.9619 49.312C98.8259 48.512 100.042 48.096 101.21 48.096C103.962 48.096 104.634 49.792 104.634 51.328V56H102.842ZM102.81 52.768V52.496H102.378C101.162 52.496 99.4499 52.64 99.4499 53.776C99.4499 54.512 100.138 54.736 100.794 54.736C102.106 54.736 102.81 53.984 102.81 52.768ZM114.679 43.904V56H112.855V54.848H112.823C112.295 55.728 111.255 56.224 110.183 56.224C107.847 56.224 106.407 54.368 106.407 52.128C106.407 49.856 107.943 48.096 110.135 48.096C111.543 48.096 112.311 48.8 112.711 49.296H112.759V43.904H114.679ZM108.359 52.128C108.359 53.328 109.079 54.624 110.567 54.624C111.975 54.624 112.823 53.36 112.823 52.16C112.823 50.96 111.975 49.664 110.567 49.664C109.079 49.664 108.359 50.928 108.359 52.128ZM117.043 56V43.904H118.963V56H117.043ZM121.325 56V48.32H123.245V56H121.325ZM121.053 45.712C121.053 45.104 121.565 44.56 122.269 44.56C122.973 44.56 123.517 45.056 123.517 45.712C123.517 46.368 122.973 46.864 122.269 46.864C121.565 46.864 121.053 46.32 121.053 45.712ZM125.574 56V48.32H127.398V49.552H127.43C127.766 48.784 128.678 48.096 129.814 48.096C131.814 48.096 132.646 49.632 132.646 51.2V56H130.726V51.744C130.726 50.832 130.518 49.696 129.286 49.696C128.07 49.696 127.494 50.752 127.494 51.776V56H125.574ZM136.358 51.392H140.294C140.294 50.4 139.734 49.536 138.486 49.536C137.35 49.536 136.438 50.32 136.358 51.392ZM142.214 52.256C142.214 52.432 142.214 52.592 142.198 52.768H136.358C136.438 53.856 137.43 54.656 138.55 54.656C139.51 54.656 140.15 54.272 140.582 53.664L141.862 54.688C141.11 55.712 140.022 56.224 138.566 56.224C136.198 56.224 134.438 54.704 134.438 52.208C134.438 49.728 136.182 48.096 138.502 48.096C140.646 48.096 142.214 49.488 142.214 52.256Z" fill="#393A3D"/>
<path d="M46.59 88.464V91.768H51.77V93H45.204V83.088H51.56V84.306H46.59V87.274H51.266V88.464H46.59ZM53.4862 86.364H54.7322C54.7602 86.7 54.7882 87.176 54.7882 87.456H54.8302C55.1522 86.742 56.0342 86.182 56.9862 86.182C58.6942 86.182 59.4642 87.4 59.4642 88.884V93H58.1482V89.318C58.1482 88.24 57.8542 87.288 56.6362 87.288C55.6002 87.288 54.8582 88.156 54.8582 89.472V93H53.5422V87.792C53.5422 87.442 53.5282 86.798 53.4862 86.364ZM63.0206 86.364V93H61.7046V86.364H63.0206ZM63.2446 83.97C63.2446 84.446 62.8386 84.81 62.3626 84.81C61.8866 84.81 61.4946 84.432 61.4946 83.97C61.4946 83.494 61.8866 83.116 62.3626 83.116C62.8386 83.116 63.2446 83.48 63.2446 83.97ZM66.6017 87.456C66.9377 86.756 67.7077 86.182 68.7157 86.182C69.5977 86.182 70.3677 86.574 70.7737 87.512C71.2217 86.658 72.0897 86.182 73.0277 86.182C74.7357 86.182 75.5057 87.4 75.5057 88.884V93H74.1897V89.318C74.1897 88.24 73.8677 87.288 72.7197 87.288C71.5157 87.288 71.0397 88.38 71.0397 89.416V93H69.7237V89.052C69.7237 88.016 69.3737 87.288 68.3237 87.288C67.3577 87.288 66.6297 88.156 66.6297 89.472V93H65.3137V87.792C65.3137 87.442 65.2997 86.798 65.2577 86.364H66.5037C66.5317 86.7 66.5597 87.176 66.5597 87.456H66.6017ZM86.8278 87.274L85.8758 88.044C85.5958 87.61 84.9798 87.288 84.3498 87.288C82.9778 87.288 82.1798 88.408 82.1798 89.682C82.1798 90.942 82.9778 92.076 84.3638 92.076C85.0358 92.076 85.6098 91.796 85.9598 91.348L86.8418 92.146C86.2818 92.79 85.4278 93.182 84.3638 93.182C82.3198 93.182 80.7938 91.796 80.7938 89.682C80.7938 87.596 82.3058 86.182 84.3358 86.182C85.2738 86.182 86.2818 86.56 86.8278 87.274ZM94.0677 93H92.8217C92.7937 92.664 92.7657 92.188 92.7657 91.908H92.7377C92.4017 92.608 91.5337 93.182 90.5677 93.182C88.8597 93.182 88.0897 91.964 88.0897 90.48V86.364H89.4057V90.032C89.4057 91.124 89.6997 92.076 90.9177 92.076C91.9677 92.076 92.6957 91.208 92.6957 89.892V86.364H94.0117V91.572C94.0117 91.922 94.0257 92.566 94.0677 93ZM97.6102 92.006V96.36H96.2942V86.364H97.5822V87.4H97.6242C98.0582 86.7 98.9262 86.182 100.018 86.182C101.992 86.182 103.336 87.708 103.336 89.668C103.336 91.614 102.034 93.182 99.9902 93.182C99.0522 93.182 98.1422 92.748 97.6522 92.006H97.6102ZM101.978 89.668C101.978 88.422 101.208 87.274 99.7662 87.274C98.4222 87.274 97.5262 88.408 97.5262 89.682C97.5262 90.956 98.4222 92.076 99.7662 92.076C101.208 92.076 101.978 90.914 101.978 89.668ZM106.497 86.364V93H105.181V86.364H106.497ZM106.721 83.97C106.721 84.446 106.315 84.81 105.839 84.81C105.363 84.81 104.971 84.432 104.971 83.97C104.971 83.494 105.363 83.116 105.839 83.116C106.315 83.116 106.721 83.48 106.721 83.97ZM114.082 91.95C113.578 92.748 112.626 93.182 111.688 93.182C109.644 93.182 108.342 91.614 108.342 89.668C108.342 87.708 109.686 86.182 111.674 86.182C112.752 86.182 113.578 86.714 114.04 87.358H114.068V82.416H115.384V93H114.11V91.95H114.082ZM109.714 89.668C109.714 90.914 110.47 92.076 111.912 92.076C113.256 92.076 114.152 90.956 114.152 89.682C114.152 88.408 113.256 87.274 111.912 87.274C110.47 87.274 109.714 88.422 109.714 89.668ZM121.807 88.884V88.702C121.807 87.722 121.149 87.246 120.169 87.246C119.427 87.246 118.727 87.568 118.279 88.016L117.579 87.176C118.223 86.56 119.217 86.182 120.295 86.182C122.199 86.182 123.067 87.316 123.067 88.786V91.684C123.067 92.132 123.095 92.678 123.165 93H121.975C121.905 92.706 121.863 92.356 121.863 92.048H121.821C121.345 92.762 120.589 93.168 119.595 93.168C118.545 93.168 117.187 92.65 117.187 91.124C117.187 89.122 119.567 88.884 121.807 88.884ZM121.807 89.836H121.485C120.183 89.836 118.531 89.976 118.531 91.096C118.531 91.88 119.231 92.132 119.889 92.132C121.121 92.132 121.807 91.306 121.807 90.186V89.836ZM128.376 86.364V87.442H126.612V90.9C126.612 91.698 126.892 92.02 127.55 92.02C127.788 92.02 128.096 91.964 128.32 91.852L128.362 92.93C128.054 93.042 127.648 93.112 127.242 93.112C125.996 93.112 125.31 92.412 125.31 91.04V87.442H124.036V86.364H125.31V84.46H126.612V86.364H128.376ZM133.866 88.884V88.702C133.866 87.722 133.208 87.246 132.228 87.246C131.486 87.246 130.786 87.568 130.338 88.016L129.638 87.176C130.282 86.56 131.276 86.182 132.354 86.182C134.258 86.182 135.126 87.316 135.126 88.786V91.684C135.126 92.132 135.154 92.678 135.224 93H134.034C133.964 92.706 133.922 92.356 133.922 92.048H133.88C133.404 92.762 132.648 93.168 131.654 93.168C130.604 93.168 129.246 92.65 129.246 91.124C129.246 89.122 131.626 88.884 133.866 88.884ZM133.866 89.836H133.544C132.242 89.836 130.59 89.976 130.59 91.096C130.59 91.88 131.29 92.132 131.948 92.132C133.18 92.132 133.866 91.306 133.866 90.186V89.836ZM140.435 86.364V87.442H138.671V90.9C138.671 91.698 138.951 92.02 139.609 92.02C139.847 92.02 140.155 91.964 140.379 91.852L140.421 92.93C140.113 93.042 139.707 93.112 139.301 93.112C138.055 93.112 137.369 92.412 137.369 91.04V87.442H136.095V86.364H137.369V84.46H138.671V86.364H140.435ZM146.61 92.006V96.36H145.294V86.364H146.582V87.4H146.624C147.058 86.7 147.926 86.182 149.018 86.182C150.992 86.182 152.336 87.708 152.336 89.668C152.336 91.614 151.034 93.182 148.99 93.182C148.052 93.182 147.142 92.748 146.652 92.006H146.61ZM150.978 89.668C150.978 88.422 150.208 87.274 148.766 87.274C147.422 87.274 146.526 88.408 146.526 89.682C146.526 90.956 147.422 92.076 148.766 92.076C150.208 92.076 150.978 90.914 150.978 89.668ZM158.297 88.884V88.702C158.297 87.722 157.639 87.246 156.659 87.246C155.917 87.246 155.217 87.568 154.769 88.016L154.069 87.176C154.713 86.56 155.707 86.182 156.785 86.182C158.689 86.182 159.557 87.316 159.557 88.786V91.684C159.557 92.132 159.585 92.678 159.655 93H158.465C158.395 92.706 158.353 92.356 158.353 92.048H158.311C157.835 92.762 157.079 93.168 156.085 93.168C155.035 93.168 153.677 92.65 153.677 91.124C153.677 89.122 156.057 88.884 158.297 88.884ZM158.297 89.836H157.975C156.673 89.836 155.021 89.976 155.021 91.096C155.021 91.88 155.721 92.132 156.379 92.132C157.611 92.132 158.297 91.306 158.297 90.186V89.836ZM161.755 87.792C161.755 87.442 161.741 86.798 161.699 86.364H162.945C162.973 86.7 163.001 87.204 163.001 87.484H163.043C163.407 86.714 164.177 86.182 165.073 86.182C165.255 86.182 165.437 86.196 165.591 86.238L165.535 87.456C165.367 87.414 165.143 87.386 164.933 87.386C163.673 87.386 163.071 88.408 163.071 89.514V93H161.755V87.792ZM168.157 86.364V93H166.841V86.364H168.157ZM168.381 83.97C168.381 84.446 167.975 84.81 167.499 84.81C167.023 84.81 166.631 84.432 166.631 83.97C166.631 83.494 167.023 83.116 167.499 83.116C167.975 83.116 168.381 83.48 168.381 83.97ZM174.58 88.884V88.702C174.58 87.722 173.922 87.246 172.942 87.246C172.2 87.246 171.5 87.568 171.052 88.016L170.352 87.176C170.996 86.56 171.99 86.182 173.068 86.182C174.972 86.182 175.84 87.316 175.84 88.786V91.684C175.84 92.132 175.868 92.678 175.938 93H174.748C174.678 92.706 174.636 92.356 174.636 92.048H174.594C174.118 92.762 173.362 93.168 172.368 93.168C171.318 93.168 169.96 92.65 169.96 91.124C169.96 89.122 172.34 88.884 174.58 88.884ZM174.58 89.836H174.258C172.956 89.836 171.304 89.976 171.304 91.096C171.304 91.88 172.004 92.132 172.662 92.132C173.894 92.132 174.58 91.306 174.58 90.186V89.836ZM181.15 86.364V87.442H179.386V90.9C179.386 91.698 179.666 92.02 180.324 92.02C180.562 92.02 180.87 91.964 181.094 91.852L181.136 92.93C180.828 93.042 180.422 93.112 180.016 93.112C178.77 93.112 178.084 92.412 178.084 91.04V87.442H176.81V86.364H178.084V84.46H179.386V86.364H181.15ZM188.431 93H187.185C187.157 92.664 187.129 92.188 187.129 91.908H187.101C186.765 92.608 185.897 93.182 184.931 93.182C183.223 93.182 182.453 91.964 182.453 90.48V86.364H183.769V90.032C183.769 91.124 184.063 92.076 185.281 92.076C186.331 92.076 187.059 91.208 187.059 89.892V86.364H188.375V91.572C188.375 91.922 188.389 92.566 188.431 93ZM190.657 87.792C190.657 87.442 190.643 86.798 190.601 86.364H191.847C191.875 86.7 191.903 87.204 191.903 87.484H191.945C192.309 86.714 193.079 86.182 193.975 86.182C194.157 86.182 194.339 86.196 194.493 86.238L194.437 87.456C194.269 87.414 194.045 87.386 193.835 87.386C192.575 87.386 191.973 88.408 191.973 89.514V93H190.657V87.792ZM200.14 89.094H204.088C204.06 88.044 203.444 87.218 202.226 87.218C201.092 87.218 200.224 88.058 200.14 89.094ZM205.418 89.626C205.418 89.766 205.418 89.92 205.404 90.074H200.14C200.182 91.208 201.134 92.09 202.296 92.09C203.192 92.09 203.85 91.642 204.228 91.082L205.152 91.824C204.438 92.748 203.472 93.182 202.296 93.182C200.28 93.182 198.796 91.782 198.796 89.696C198.796 87.624 200.28 86.182 202.226 86.182C204.186 86.182 205.418 87.512 205.418 89.626ZM206.082 93L208.742 89.514L206.32 86.364H207.944L209.568 88.646L211.206 86.364H212.746L210.352 89.5L213.026 93H211.388L209.54 90.41L207.664 93H206.082ZM221.899 88.884V88.702C221.899 87.722 221.241 87.246 220.261 87.246C219.519 87.246 218.819 87.568 218.371 88.016L217.671 87.176C218.315 86.56 219.309 86.182 220.387 86.182C222.291 86.182 223.159 87.316 223.159 88.786V91.684C223.159 92.132 223.187 92.678 223.257 93H222.067C221.997 92.706 221.955 92.356 221.955 92.048H221.913C221.437 92.762 220.681 93.168 219.687 93.168C218.637 93.168 217.279 92.65 217.279 91.124C217.279 89.122 219.659 88.884 221.899 88.884ZM221.899 89.836H221.577C220.275 89.836 218.623 89.976 218.623 91.096C218.623 91.88 219.323 92.132 219.981 92.132C221.213 92.132 221.899 91.306 221.899 90.186V89.836ZM225.301 86.364H226.547C226.575 86.7 226.603 87.176 226.603 87.456H226.645C226.967 86.742 227.849 86.182 228.801 86.182C230.509 86.182 231.279 87.4 231.279 88.884V93H229.963V89.318C229.963 88.24 229.669 87.288 228.451 87.288C227.415 87.288 226.673 88.156 226.673 89.472V93H225.357V87.792C225.357 87.442 225.343 86.798 225.301 86.364ZM234.835 86.364V93H233.519V86.364H234.835ZM235.059 83.97C235.059 84.446 234.653 84.81 234.177 84.81C233.701 84.81 233.309 84.432 233.309 83.97C233.309 83.494 233.701 83.116 234.177 83.116C234.653 83.116 235.059 83.48 235.059 83.97ZM238.416 87.456C238.752 86.756 239.522 86.182 240.53 86.182C241.412 86.182 242.182 86.574 242.588 87.512C243.036 86.658 243.904 86.182 244.842 86.182C246.55 86.182 247.32 87.4 247.32 88.884V93H246.004V89.318C246.004 88.24 245.682 87.288 244.534 87.288C243.33 87.288 242.854 88.38 242.854 89.416V93H241.538V89.052C241.538 88.016 241.188 87.288 240.138 87.288C239.172 87.288 238.444 88.156 238.444 89.472V93H237.128V87.792C237.128 87.442 237.114 86.798 237.072 86.364H238.318C238.346 86.7 238.374 87.176 238.374 87.456H238.416ZM254.33 87.456C254.666 86.756 255.436 86.182 256.444 86.182C257.326 86.182 258.096 86.574 258.502 87.512C258.95 86.658 259.818 86.182 260.756 86.182C262.464 86.182 263.234 87.4 263.234 88.884V93H261.918V89.318C261.918 88.24 261.596 87.288 260.448 87.288C259.244 87.288 258.768 88.38 258.768 89.416V93H257.452V89.052C257.452 88.016 257.102 87.288 256.052 87.288C255.086 87.288 254.358 88.156 254.358 89.472V93H253.042V87.792C253.042 87.442 253.028 86.798 252.986 86.364H254.232C254.26 86.7 254.288 87.176 254.288 87.456H254.33ZM266.786 86.364V93H265.47V86.364H266.786ZM267.01 83.97C267.01 84.446 266.604 84.81 266.128 84.81C265.652 84.81 265.26 84.432 265.26 83.97C265.26 83.494 265.652 83.116 266.128 83.116C266.604 83.116 267.01 83.48 267.01 83.97ZM269.023 86.364H270.269C270.297 86.7 270.325 87.176 270.325 87.456H270.367C270.689 86.742 271.571 86.182 272.523 86.182C274.231 86.182 275.001 87.4 275.001 88.884V93H273.685V89.318C273.685 88.24 273.391 87.288 272.173 87.288C271.137 87.288 270.395 88.156 270.395 89.472V93H269.079V87.792C269.079 87.442 269.065 86.798 269.023 86.364ZM278.558 86.364V93H277.242V86.364H278.558ZM278.782 83.97C278.782 84.446 278.376 84.81 277.9 84.81C277.424 84.81 277.032 84.432 277.032 83.97C277.032 83.494 277.424 83.116 277.9 83.116C278.376 83.116 278.782 83.48 278.782 83.97ZM282.139 87.456C282.475 86.756 283.245 86.182 284.253 86.182C285.135 86.182 285.905 86.574 286.311 87.512C286.759 86.658 287.627 86.182 288.565 86.182C290.273 86.182 291.043 87.4 291.043 88.884V93H289.727V89.318C289.727 88.24 289.405 87.288 288.257 87.288C287.053 87.288 286.577 88.38 286.577 89.416V93H285.261V89.052C285.261 88.016 284.911 87.288 283.861 87.288C282.895 87.288 282.167 88.156 282.167 89.472V93H280.851V87.792C280.851 87.442 280.837 86.798 280.795 86.364H282.041C282.069 86.7 282.097 87.176 282.097 87.456H282.139ZM50.734 107.274L49.782 108.044C49.502 107.61 48.886 107.288 48.256 107.288C46.884 107.288 46.086 108.408 46.086 109.682C46.086 110.942 46.884 112.076 48.27 112.076C48.942 112.076 49.516 111.796 49.866 111.348L50.748 112.146C50.188 112.79 49.334 113.182 48.27 113.182C46.226 113.182 44.7 111.796 44.7 109.682C44.7 107.596 46.212 106.182 48.242 106.182C49.18 106.182 50.188 106.56 50.734 107.274ZM58.772 109.668C58.772 111.712 57.218 113.182 55.188 113.182C53.158 113.182 51.618 111.712 51.618 109.668C51.618 107.624 53.158 106.182 55.188 106.182C57.218 106.182 58.772 107.624 58.772 109.668ZM57.4 109.668C57.4 108.408 56.616 107.274 55.188 107.274C53.774 107.274 52.976 108.408 52.976 109.668C52.976 110.928 53.774 112.076 55.188 112.076C56.616 112.076 57.4 110.928 57.4 109.668ZM60.5409 106.364H61.7869C61.8149 106.7 61.8429 107.176 61.8429 107.456H61.8849C62.2069 106.742 63.0889 106.182 64.0409 106.182C65.7489 106.182 66.5189 107.4 66.5189 108.884V113H65.2029V109.318C65.2029 108.24 64.9089 107.288 63.6909 107.288C62.6549 107.288 61.9129 108.156 61.9129 109.472V113H60.5969V107.792C60.5969 107.442 60.5829 106.798 60.5409 106.364ZM73.2393 107.274L72.3293 108.044C72.0353 107.568 71.4613 107.218 70.7893 107.218C70.1873 107.218 69.5573 107.456 69.5573 108.086C69.5573 108.646 70.0613 108.856 71.0693 109.08C72.3293 109.36 73.2953 109.878 73.2953 111.04C73.2953 112.608 71.9933 113.182 70.6493 113.182C69.6413 113.182 68.6053 112.79 67.9753 111.992L68.9133 111.194C69.2633 111.712 69.9353 112.118 70.6773 112.118C71.3353 112.118 71.9933 111.88 71.9933 111.152C71.9933 110.536 71.3913 110.312 70.2573 110.046C69.3753 109.836 68.3253 109.458 68.3253 108.212C68.3253 106.784 69.5713 106.182 70.8313 106.182C71.7693 106.182 72.7633 106.56 73.2393 107.274ZM75.876 109.094H79.824C79.796 108.044 79.18 107.218 77.962 107.218C76.828 107.218 75.96 108.058 75.876 109.094ZM81.154 109.626C81.154 109.766 81.154 109.92 81.14 110.074H75.876C75.918 111.208 76.87 112.09 78.032 112.09C78.928 112.09 79.586 111.642 79.964 111.082L80.888 111.824C80.174 112.748 79.208 113.182 78.032 113.182C76.016 113.182 74.532 111.782 74.532 109.696C74.532 107.624 76.016 106.182 77.962 106.182C79.922 106.182 81.154 107.512 81.154 109.626ZM88.5914 107.274L87.6394 108.044C87.3594 107.61 86.7434 107.288 86.1134 107.288C84.7414 107.288 83.9434 108.408 83.9434 109.682C83.9434 110.942 84.7414 112.076 86.1274 112.076C86.7994 112.076 87.3734 111.796 87.7234 111.348L88.6054 112.146C88.0454 112.79 87.1914 113.182 86.1274 113.182C84.0834 113.182 82.5574 111.796 82.5574 109.682C82.5574 107.596 84.0694 106.182 86.0994 106.182C87.0374 106.182 88.0454 106.56 88.5914 107.274ZM93.1574 106.364V107.442H91.3934V110.9C91.3934 111.698 91.6734 112.02 92.3314 112.02C92.5694 112.02 92.8774 111.964 93.1014 111.852L93.1434 112.93C92.8354 113.042 92.4294 113.112 92.0234 113.112C90.7774 113.112 90.0914 112.412 90.0914 111.04V107.442H88.8174V106.364H90.0914V104.46H91.3934V106.364H93.1574ZM95.4268 109.094H99.3748C99.3468 108.044 98.7308 107.218 97.5128 107.218C96.3788 107.218 95.5108 108.058 95.4268 109.094ZM100.705 109.626C100.705 109.766 100.705 109.92 100.691 110.074H95.4268C95.4688 111.208 96.4208 112.09 97.5828 112.09C98.4788 112.09 99.1368 111.642 99.5148 111.082L100.439 111.824C99.7248 112.748 98.7588 113.182 97.5828 113.182C95.5668 113.182 94.0828 111.782 94.0828 109.696C94.0828 107.624 95.5668 106.182 97.5128 106.182C99.4728 106.182 100.705 107.512 100.705 109.626ZM105.79 106.364V107.442H104.026V110.9C104.026 111.698 104.306 112.02 104.964 112.02C105.202 112.02 105.51 111.964 105.734 111.852L105.776 112.93C105.468 113.042 105.062 113.112 104.656 113.112C103.41 113.112 102.724 112.412 102.724 111.04V107.442H101.45V106.364H102.724V104.46H104.026V106.364H105.79ZM113.072 113H111.826C111.798 112.664 111.77 112.188 111.77 111.908H111.742C111.406 112.608 110.538 113.182 109.572 113.182C107.864 113.182 107.094 111.964 107.094 110.48V106.364H108.41V110.032C108.41 111.124 108.704 112.076 109.922 112.076C110.972 112.076 111.7 111.208 111.7 109.892V106.364H113.016V111.572C113.016 111.922 113.03 112.566 113.072 113ZM115.298 107.792C115.298 107.442 115.284 106.798 115.242 106.364H116.488C116.516 106.7 116.544 107.204 116.544 107.484H116.586C116.95 106.714 117.72 106.182 118.616 106.182C118.798 106.182 118.98 106.196 119.134 106.238L119.078 107.456C118.91 107.414 118.686 107.386 118.476 107.386C117.216 107.386 116.614 108.408 116.614 109.514V113H115.298V107.792ZM125.186 112.006V116.36H123.87V106.364H125.158V107.4H125.2C125.634 106.7 126.502 106.182 127.594 106.182C129.568 106.182 130.912 107.708 130.912 109.668C130.912 111.614 129.61 113.182 127.566 113.182C126.628 113.182 125.718 112.748 125.228 112.006H125.186ZM129.554 109.668C129.554 108.422 128.784 107.274 127.342 107.274C125.998 107.274 125.102 108.408 125.102 109.682C125.102 110.956 125.998 112.076 127.342 112.076C128.784 112.076 129.554 110.914 129.554 109.668ZM132.743 107.792C132.743 107.442 132.729 106.798 132.687 106.364H133.933C133.961 106.7 133.989 107.204 133.989 107.484H134.031C134.395 106.714 135.165 106.182 136.061 106.182C136.243 106.182 136.425 106.196 136.579 106.238L136.523 107.456C136.355 107.414 136.131 107.386 135.921 107.386C134.661 107.386 134.059 108.408 134.059 109.514V113H132.743V107.792ZM144.29 109.668C144.29 111.712 142.736 113.182 140.706 113.182C138.676 113.182 137.136 111.712 137.136 109.668C137.136 107.624 138.676 106.182 140.706 106.182C142.736 106.182 144.29 107.624 144.29 109.668ZM142.918 109.668C142.918 108.408 142.134 107.274 140.706 107.274C139.292 107.274 138.494 108.408 138.494 109.668C138.494 110.928 139.292 112.076 140.706 112.076C142.134 112.076 142.918 110.928 142.918 109.668ZM147.444 106.364V113H146.128V106.364H147.444ZM147.668 103.97C147.668 104.446 147.262 104.81 146.786 104.81C146.31 104.81 145.918 104.432 145.918 103.97C145.918 103.494 146.31 103.116 146.786 103.116C147.262 103.116 147.668 103.48 147.668 103.97ZM155.03 111.95C154.526 112.748 153.574 113.182 152.636 113.182C150.592 113.182 149.29 111.614 149.29 109.668C149.29 107.708 150.634 106.182 152.622 106.182C153.7 106.182 154.526 106.714 154.988 107.358H155.016V102.416H156.332V113H155.058V111.95H155.03ZM150.662 109.668C150.662 110.914 151.418 112.076 152.86 112.076C154.204 112.076 155.1 110.956 155.1 109.682C155.1 108.408 154.204 107.274 152.86 107.274C151.418 107.274 150.662 108.422 150.662 109.668ZM159.534 109.094H163.482C163.454 108.044 162.838 107.218 161.62 107.218C160.486 107.218 159.618 108.058 159.534 109.094ZM164.812 109.626C164.812 109.766 164.812 109.92 164.798 110.074H159.534C159.576 111.208 160.528 112.09 161.69 112.09C162.586 112.09 163.244 111.642 163.622 111.082L164.546 111.824C163.832 112.748 162.866 113.182 161.69 113.182C159.674 113.182 158.19 111.782 158.19 109.696C158.19 107.624 159.674 106.182 161.62 106.182C163.58 106.182 164.812 107.512 164.812 109.626ZM166.594 106.364H167.84C167.868 106.7 167.896 107.176 167.896 107.456H167.938C168.26 106.742 169.142 106.182 170.094 106.182C171.802 106.182 172.572 107.4 172.572 108.884V113H171.256V109.318C171.256 108.24 170.962 107.288 169.744 107.288C168.708 107.288 167.966 108.156 167.966 109.472V113H166.65V107.792C166.65 107.442 166.636 106.798 166.594 106.364ZM178.046 106.364V107.442H176.282V110.9C176.282 111.698 176.562 112.02 177.22 112.02C177.458 112.02 177.766 111.964 177.99 111.852L178.032 112.93C177.724 113.042 177.318 113.112 176.912 113.112C175.666 113.112 174.98 112.412 174.98 111.04V107.442H173.706V106.364H174.98V104.46H176.282V106.364H178.046ZM183.815 109.094H187.763C187.735 108.044 187.119 107.218 185.901 107.218C184.767 107.218 183.899 108.058 183.815 109.094ZM189.093 109.626C189.093 109.766 189.093 109.92 189.079 110.074H183.815C183.857 111.208 184.809 112.09 185.971 112.09C186.867 112.09 187.525 111.642 187.903 111.082L188.827 111.824C188.113 112.748 187.147 113.182 185.971 113.182C183.955 113.182 182.471 111.782 182.471 109.696C182.471 107.624 183.955 106.182 185.901 106.182C187.861 106.182 189.093 107.512 189.093 109.626ZM189.758 113L192.418 109.514L189.996 106.364H191.62L193.244 108.646L194.882 106.364H196.422L194.028 109.5L196.702 113H195.064L193.216 110.41L191.34 113H189.758ZM202.775 106.364V113H201.459V106.364H202.775ZM202.999 103.97C202.999 104.446 202.593 104.81 202.117 104.81C201.641 104.81 201.249 104.432 201.249 103.97C201.249 103.494 201.641 103.116 202.117 103.116C202.593 103.116 202.999 103.48 202.999 103.97ZM205.012 106.364H206.258C206.286 106.7 206.314 107.176 206.314 107.456H206.356C206.678 106.742 207.56 106.182 208.512 106.182C210.22 106.182 210.99 107.4 210.99 108.884V113H209.674V109.318C209.674 108.24 209.38 107.288 208.162 107.288C207.126 107.288 206.384 108.156 206.384 109.472V113H205.068V107.792C205.068 107.442 205.054 106.798 205.012 106.364ZM218.816 107.274L217.864 108.044C217.584 107.61 216.968 107.288 216.338 107.288C214.966 107.288 214.168 108.408 214.168 109.682C214.168 110.942 214.966 112.076 216.352 112.076C217.024 112.076 217.598 111.796 217.948 111.348L218.83 112.146C218.27 112.79 217.416 113.182 216.352 113.182C214.308 113.182 212.782 111.796 212.782 109.682C212.782 107.596 214.294 106.182 216.324 106.182C217.262 106.182 218.27 106.56 218.816 107.274ZM221.464 106.364V113H220.148V106.364H221.464ZM221.688 103.97C221.688 104.446 221.282 104.81 220.806 104.81C220.33 104.81 219.938 104.432 219.938 103.97C219.938 103.494 220.33 103.116 220.806 103.116C221.282 103.116 221.688 103.48 221.688 103.97ZM229.049 111.95C228.545 112.748 227.593 113.182 226.655 113.182C224.611 113.182 223.309 111.614 223.309 109.668C223.309 107.708 224.653 106.182 226.641 106.182C227.719 106.182 228.545 106.714 229.007 107.358H229.035V102.416H230.351V113H229.077V111.95H229.049ZM224.681 109.668C224.681 110.914 225.437 112.076 226.879 112.076C228.223 112.076 229.119 110.956 229.119 109.682C229.119 108.408 228.223 107.274 226.879 107.274C225.437 107.274 224.681 108.422 224.681 109.668ZM233.974 106.364V113H232.658V106.364H233.974ZM234.198 103.97C234.198 104.446 233.792 104.81 233.316 104.81C232.84 104.81 232.448 104.432 232.448 103.97C232.448 103.494 232.84 103.116 233.316 103.116C233.792 103.116 234.198 103.48 234.198 103.97ZM241.559 111.95C241.055 112.748 240.103 113.182 239.165 113.182C237.121 113.182 235.819 111.614 235.819 109.668C235.819 107.708 237.163 106.182 239.151 106.182C240.229 106.182 241.055 106.714 241.517 107.358H241.545V102.416H242.861V113H241.587V111.95H241.559ZM237.191 109.668C237.191 110.914 237.947 112.076 239.389 112.076C240.733 112.076 241.629 110.956 241.629 109.682C241.629 108.408 240.733 107.274 239.389 107.274C237.947 107.274 237.191 108.422 237.191 109.668ZM251.076 113H249.83C249.802 112.664 249.774 112.188 249.774 111.908H249.746C249.41 112.608 248.542 113.182 247.576 113.182C245.868 113.182 245.098 111.964 245.098 110.48V106.364H246.414V110.032C246.414 111.124 246.708 112.076 247.926 112.076C248.976 112.076 249.704 111.208 249.704 109.892V106.364H251.02V111.572C251.02 111.922 251.034 112.566 251.076 113ZM253.246 106.364H254.492C254.52 106.7 254.548 107.176 254.548 107.456H254.59C254.912 106.742 255.794 106.182 256.746 106.182C258.454 106.182 259.224 107.4 259.224 108.884V113H257.908V109.318C257.908 108.24 257.614 107.288 256.396 107.288C255.36 107.288 254.618 108.156 254.618 109.472V113H253.302V107.792C253.302 107.442 253.288 106.798 253.246 106.364ZM264.698 106.364V107.442H262.934V110.9C262.934 111.698 263.214 112.02 263.872 112.02C264.11 112.02 264.418 111.964 264.642 111.852L264.684 112.93C264.376 113.042 263.97 113.112 263.564 113.112C262.318 113.112 261.632 112.412 261.632 111.04V107.442H260.358V106.364H261.632V104.46H262.934V106.364H264.698ZM270.468 109.094H274.416C274.388 108.044 273.772 107.218 272.554 107.218C271.42 107.218 270.552 108.058 270.468 109.094ZM275.746 109.626C275.746 109.766 275.746 109.92 275.732 110.074H270.468C270.51 111.208 271.462 112.09 272.624 112.09C273.52 112.09 274.178 111.642 274.556 111.082L275.48 111.824C274.766 112.748 273.8 113.182 272.624 113.182C270.608 113.182 269.124 111.782 269.124 109.696C269.124 107.624 270.608 106.182 272.554 106.182C274.514 106.182 275.746 107.512 275.746 109.626ZM277.527 106.364H278.773C278.801 106.7 278.829 107.176 278.829 107.456H278.871C279.193 106.742 280.075 106.182 281.027 106.182C282.735 106.182 283.505 107.4 283.505 108.884V113H282.189V109.318C282.189 108.24 281.895 107.288 280.677 107.288C279.641 107.288 278.899 108.156 278.899 109.472V113H277.583V107.792C277.583 107.442 277.569 106.798 277.527 106.364ZM287.062 106.364V113H285.746V106.364H287.062ZM287.286 103.97C287.286 104.446 286.88 104.81 286.404 104.81C285.928 104.81 285.536 104.432 285.536 103.97C285.536 103.494 285.928 103.116 286.404 103.116C286.88 103.116 287.286 103.48 287.286 103.97ZM290.643 107.456C290.979 106.756 291.749 106.182 292.757 106.182C293.639 106.182 294.409 106.574 294.815 107.512C295.263 106.658 296.131 106.182 297.069 106.182C298.777 106.182 299.547 107.4 299.547 108.884V113H298.231V109.318C298.231 108.24 297.909 107.288 296.761 107.288C295.557 107.288 295.081 108.38 295.081 109.416V113H293.765V109.052C293.765 108.016 293.415 107.288 292.365 107.288C291.399 107.288 290.671 108.156 290.671 109.472V113H289.355V107.792C289.355 107.442 289.341 106.798 289.299 106.364H290.545C290.573 106.7 290.601 107.176 290.601 107.456H290.643ZM46.464 126.364V133H45.148V126.364H46.464ZM46.688 123.97C46.688 124.446 46.282 124.81 45.806 124.81C45.33 124.81 44.938 124.432 44.938 123.97C44.938 123.494 45.33 123.116 45.806 123.116C46.282 123.116 46.688 123.48 46.688 123.97ZM48.701 126.364H49.947C49.975 126.7 50.003 127.176 50.003 127.456H50.045C50.367 126.742 51.249 126.182 52.201 126.182C53.909 126.182 54.679 127.4 54.679 128.884V133H53.363V129.318C53.363 128.24 53.069 127.288 51.851 127.288C50.815 127.288 50.073 128.156 50.073 129.472V133H48.757V127.792C48.757 127.442 48.743 126.798 48.701 126.364ZM62.5055 127.274L61.5535 128.044C61.2735 127.61 60.6575 127.288 60.0275 127.288C58.6555 127.288 57.8575 128.408 57.8575 129.682C57.8575 130.942 58.6555 132.076 60.0415 132.076C60.7135 132.076 61.2875 131.796 61.6375 131.348L62.5195 132.146C61.9595 132.79 61.1055 133.182 60.0415 133.182C57.9975 133.182 56.4715 131.796 56.4715 129.682C56.4715 127.596 57.9835 126.182 60.0135 126.182C60.9515 126.182 61.9595 126.56 62.5055 127.274ZM65.1535 126.364V133H63.8375V126.364H65.1535ZM65.3775 123.97C65.3775 124.446 64.9715 124.81 64.4955 124.81C64.0195 124.81 63.6275 124.432 63.6275 123.97C63.6275 123.494 64.0195 123.116 64.4955 123.116C64.9715 123.116 65.3775 123.48 65.3775 123.97ZM72.7385 131.95C72.2345 132.748 71.2825 133.182 70.3445 133.182C68.3005 133.182 66.9985 131.614 66.9985 129.668C66.9985 127.708 68.3425 126.182 70.3305 126.182C71.4085 126.182 72.2345 126.714 72.6965 127.358H72.7245V122.416H74.0405V133H72.7665V131.95H72.7385ZM68.3705 129.668C68.3705 130.914 69.1265 132.076 70.5685 132.076C71.9125 132.076 72.8085 130.956 72.8085 129.682C72.8085 128.408 71.9125 127.274 70.5685 127.274C69.1265 127.274 68.3705 128.422 68.3705 129.668ZM77.6632 126.364V133H76.3472V126.364H77.6632ZM77.8872 123.97C77.8872 124.446 77.4812 124.81 77.0052 124.81C76.5292 124.81 76.1372 124.432 76.1372 123.97C76.1372 123.494 76.5292 123.116 77.0052 123.116C77.4812 123.116 77.8872 123.48 77.8872 123.97ZM85.2483 131.95C84.7443 132.748 83.7923 133.182 82.8543 133.182C80.8103 133.182 79.5083 131.614 79.5083 129.668C79.5083 127.708 80.8523 126.182 82.8403 126.182C83.9183 126.182 84.7443 126.714 85.2063 127.358H85.2343V122.416H86.5503V133H85.2763V131.95H85.2483ZM80.8803 129.668C80.8803 130.914 81.6363 132.076 83.0783 132.076C84.4223 132.076 85.3183 130.956 85.3183 129.682C85.3183 128.408 84.4223 127.274 83.0783 127.274C81.6363 127.274 80.8803 128.422 80.8803 129.668ZM94.765 133H93.519C93.491 132.664 93.463 132.188 93.463 131.908H93.435C93.099 132.608 92.231 133.182 91.265 133.182C89.557 133.182 88.787 131.964 88.787 130.48V126.364H90.103V130.032C90.103 131.124 90.397 132.076 91.615 132.076C92.665 132.076 93.393 131.208 93.393 129.892V126.364H94.709V131.572C94.709 131.922 94.723 132.566 94.765 133ZM96.9354 126.364H98.1814C98.2094 126.7 98.2374 127.176 98.2374 127.456H98.2794C98.6014 126.742 99.4834 126.182 100.435 126.182C102.143 126.182 102.913 127.4 102.913 128.884V133H101.597V129.318C101.597 128.24 101.303 127.288 100.085 127.288C99.0494 127.288 98.3074 128.156 98.3074 129.472V133H96.9914V127.792C96.9914 127.442 96.9774 126.798 96.9354 126.364ZM108.388 126.364V127.442H106.624V130.9C106.624 131.698 106.904 132.02 107.562 132.02C107.8 132.02 108.108 131.964 108.332 131.852L108.374 132.93C108.066 133.042 107.66 133.112 107.254 133.112C106.008 133.112 105.322 132.412 105.322 131.04V127.442H104.048V126.364H105.322V124.46H106.624V126.364H108.388ZM111.371 132.16C111.371 132.65 110.965 133.084 110.433 133.084C109.915 133.084 109.495 132.664 109.495 132.174C109.495 131.67 109.901 131.25 110.433 131.25C110.965 131.25 111.371 131.656 111.371 132.16Z" fill="#6B6C72"/>
<path d="M45.248 178V166.672H49.264C52.224 166.672 55.52 168.08 55.52 172.336C55.52 176.304 52.224 178 49.264 178H45.248ZM47.264 176.24H48.944C51.024 176.24 53.36 175.392 53.36 172.336C53.36 169.088 51.024 168.4 48.944 168.4H47.264V176.24ZM57.4028 178V170.32H59.3228V178H57.4028ZM57.1308 167.712C57.1308 167.104 57.6428 166.56 58.3468 166.56C59.0508 166.56 59.5948 167.056 59.5948 167.712C59.5948 168.368 59.0508 168.864 58.3468 168.864C57.6428 168.864 57.1308 168.32 57.1308 167.712ZM67.108 171.264L65.86 172.368C65.524 171.92 64.884 171.536 64.18 171.536C63.572 171.536 62.948 171.76 62.948 172.368C62.948 172.96 63.54 173.12 64.612 173.376C65.748 173.648 67.092 174.16 67.092 175.664C67.092 177.536 65.572 178.224 63.892 178.224C62.708 178.224 61.476 177.776 60.74 176.96L62.004 175.776C62.42 176.32 63.14 176.736 63.972 176.736C64.532 176.736 65.204 176.512 65.204 175.824C65.204 175.184 64.612 174.992 63.444 174.72C62.308 174.448 61.172 173.984 61.172 172.544C61.172 170.832 62.708 170.096 64.228 170.096C65.332 170.096 66.484 170.48 67.108 171.264ZM77.9294 170.096C79.9294 170.096 80.7614 171.632 80.7614 173.2V178H78.8414V173.744C78.8414 172.832 78.6334 171.696 77.4014 171.696C76.2014 171.696 75.7054 172.816 75.7054 173.808V178H73.7854V173.36C73.7854 172.416 73.3374 171.696 72.3614 171.696C71.2094 171.696 70.6814 172.752 70.6814 173.776V178H68.7614V170.32H70.5854V171.552H70.6174C70.9534 170.8 71.7694 170.096 73.0014 170.096C74.1854 170.096 74.9694 170.688 75.4014 171.552C75.9134 170.624 76.7774 170.096 77.9294 170.096ZM83.0278 178V170.32H84.9478V178H83.0278ZM82.7558 167.712C82.7558 167.104 83.2678 166.56 83.9718 166.56C84.6758 166.56 85.2198 167.056 85.2198 167.712C85.2198 168.368 84.6758 168.864 83.9718 168.864C83.2678 168.864 82.7558 168.32 82.7558 167.712ZM92.733 171.264L91.485 172.368C91.149 171.92 90.509 171.536 89.805 171.536C89.197 171.536 88.573 171.76 88.573 172.368C88.573 172.96 89.165 173.12 90.237 173.376C91.373 173.648 92.717 174.16 92.717 175.664C92.717 177.536 91.197 178.224 89.517 178.224C88.333 178.224 87.101 177.776 86.365 176.96L87.629 175.776C88.045 176.32 88.765 176.736 89.597 176.736C90.157 176.736 90.829 176.512 90.829 175.824C90.829 175.184 90.237 174.992 89.069 174.72C87.933 174.448 86.797 173.984 86.797 172.544C86.797 170.832 88.333 170.096 89.853 170.096C90.957 170.096 92.109 170.48 92.733 171.264ZM99.8424 171.264L98.5944 172.368C98.2584 171.92 97.6184 171.536 96.9144 171.536C96.3064 171.536 95.6824 171.76 95.6824 172.368C95.6824 172.96 96.2744 173.12 97.3464 173.376C98.4824 173.648 99.8264 174.16 99.8264 175.664C99.8264 177.536 98.3064 178.224 96.6264 178.224C95.4424 178.224 94.2104 177.776 93.4744 176.96L94.7384 175.776C95.1544 176.32 95.8744 176.736 96.7064 176.736C97.2664 176.736 97.9384 176.512 97.9384 175.824C97.9384 175.184 97.3464 174.992 96.1784 174.72C95.0424 174.448 93.9064 173.984 93.9064 172.544C93.9064 170.832 95.4424 170.096 96.9624 170.096C98.0664 170.096 99.2184 170.48 99.8424 171.264Z" fill="#0077C5"/>
<rect x="259" y="154" width="80" height="36" rx="4" fill="#0077C5"/>
<path d="M274.919 178L279.847 166.672H281.591L286.471 178H284.167L283.111 175.408H278.199L277.175 178H274.919ZM278.887 173.68H282.407L280.663 169.072L278.887 173.68ZM294.056 171.296L292.744 172.448C292.44 172.016 291.784 171.696 291.16 171.696C289.752 171.696 289.048 172.96 289.048 174.16C289.048 175.36 289.768 176.624 291.224 176.624C291.816 176.624 292.472 176.384 292.84 175.936L294.04 177.152C293.4 177.84 292.344 178.224 291.208 178.224C288.936 178.224 287.048 176.72 287.048 174.16C287.048 171.664 288.904 170.096 291.16 170.096C292.28 170.096 293.448 170.544 294.056 171.296ZM295.548 171.856H294.204V170.32H295.548V168.096H297.436V170.32H299.356V171.856H297.436V175.424C297.436 176.112 297.596 176.608 298.444 176.608C298.7 176.608 299.036 176.56 299.26 176.448L299.324 177.952C298.988 178.08 298.476 178.16 298.044 178.16C296.012 178.16 295.548 176.912 295.548 175.44V171.856ZM300.778 178V170.32H302.698V178H300.778ZM300.506 167.712C300.506 167.104 301.018 166.56 301.722 166.56C302.426 166.56 302.97 167.056 302.97 167.712C302.97 168.368 302.426 168.864 301.722 168.864C301.018 168.864 300.506 168.32 300.506 167.712ZM304.579 174.128C304.579 171.712 306.435 170.096 308.755 170.096C311.075 170.096 312.931 171.712 312.931 174.128C312.931 176.544 311.075 178.224 308.755 178.224C306.435 178.224 304.579 176.544 304.579 174.128ZM306.531 174.128C306.531 175.328 307.235 176.624 308.755 176.624C310.275 176.624 310.979 175.328 310.979 174.128C310.979 172.928 310.275 171.664 308.755 171.664C307.235 171.664 306.531 172.928 306.531 174.128ZM314.793 178V170.32H316.617V171.552H316.649C316.985 170.784 317.897 170.096 319.033 170.096C321.033 170.096 321.865 171.632 321.865 173.2V178H319.945V173.744C319.945 172.832 319.737 171.696 318.505 171.696C317.289 171.696 316.713 172.752 316.713 173.776V178H314.793Z" fill="white"/>
<g filter="url(#filter0_d_60_3838)">
<rect x="25" y="19" width="333" height="190" rx="11" stroke="url(#paint0_angular_60_3838)" stroke-width="2"/>
</g>
<defs>
<filter id="filter0_d_60_3838" x="0" y="0" width="383" height="240" filterUnits="userSpaceOnUse" color-interpolation-filters="sRGB">
<feFlood flood-opacity="0" result="BackgroundImageFix"/>
<feColorMatrix in="SourceAlpha" type="matrix" values="0 0 0 0 0 0 0 0 0 0 0 0 0 0 0 0 0 0 127 0" result="hardAlpha"/>
<feOffset dy="6"/>
<feGaussianBlur stdDeviation="12"/>
<feColorMatrix type="matrix" values="0 0 0 0 0 0 0 0 0 0 0 0 0 0 0 0 0 0 0.2 0"/>
<feBlend mode="normal" in2="BackgroundImageFix" result="effect1_dropShadow_60_3838"/>
<feBlend mode="normal" in="SourceGraphic" in2="effect1_dropShadow_60_3838" result="shape"/>
</filter>
<radialGradient id="paint0_angular_60_3838" cx="0" cy="0" r="1" gradientUnits="userSpaceOnUse" gradientTransform="translate(140.319 72.8571) rotate(45.0072) scale(227.862 264.787)">
<stop offset="0.111699" stop-color="#236CFF"/>
<stop offset="0.588904" stop-color="#38E8F6"/>
<stop offset="0.889986" stop-color="#5DABFF"/>
</radialGradient>
</defs>
</svg>
