<svg width="339" height="196" viewBox="0 0 339 196" fill="none" xmlns="http://www.w3.org/2000/svg">
<g clip-path="url(#clip0_68_4778)">
<path fill-rule="evenodd" clip-rule="evenodd" d="M34.6168 24.4868L35.1342 29.4088C35.2791 30.8038 33.8618 31.8382 32.5768 31.2657L28.0564 29.2528L28.7969 27.5899L33.3173 29.6028L33.3196 29.6038L33.3214 29.6027L33.3239 29.6006L33.3236 29.5972L32.8064 24.6771L34.6168 24.4868ZM38.9009 27.282L37.0905 27.0918L36.5641 32.1022C36.4173 33.5105 37.8482 34.5528 39.1441 33.9769L43.7465 31.9275L43.006 30.2646L38.4041 32.3138C38.3978 32.3165 38.3944 32.317 38.3942 32.317C38.3936 32.317 38.3892 32.3161 38.3832 32.3118C38.3772 32.3074 38.3748 32.3028 38.3744 32.3021C38.3744 32.3018 38.3739 32.2986 38.3746 32.2917L38.9009 27.282ZM37.032 36.134L41.9571 35.0874L42.3355 36.868L37.4101 37.9146C37.4065 37.9154 37.404 37.9162 37.4027 37.9166L37.4009 37.9174C37.4002 37.9181 37.3974 37.9214 37.3953 37.9279C37.3932 37.9342 37.3935 37.9385 37.3936 37.9396L37.3945 37.9411L37.3957 37.9428L37.3989 37.9465L37.3997 37.9475L40.7688 41.6898L39.416 42.9077L36.0478 39.1664C35.0991 38.1149 35.6456 36.4283 37.032 36.134ZM30.1527 37.8242C30.8611 36.5969 32.6336 36.597 33.3418 37.8244L35.8598 42.1854L34.2833 43.0956L31.7652 38.7344L31.7632 38.731L31.7611 38.7281L31.7597 38.7264C31.7592 38.7262 31.7549 38.7241 31.7472 38.7241C31.7397 38.7241 31.7354 38.726 31.7347 38.7264L31.7333 38.7281C31.7325 38.7291 31.7311 38.7311 31.7293 38.7342L29.2111 43.0956L27.6346 42.1854L30.1527 37.8242ZM29.5565 31.8151L24.7328 30.7079L24.3256 32.4821L29.1474 33.5889L29.1507 33.5897L29.1518 33.5928L29.1523 33.5948L29.1507 33.5966L25.7802 37.2197L27.113 38.4596L30.4834 34.8365C31.4418 33.8068 30.923 32.1305 29.5565 31.8151Z" fill="#236CFF"/>
<path d="M55.248 40V28.672H57.264V33.248H62.56V28.672H64.576V40H62.56V34.976H57.264V40H55.248ZM68.4521 35.392H72.3881C72.3881 34.4 71.8281 33.536 70.5801 33.536C69.4441 33.536 68.5321 34.32 68.4521 35.392ZM74.3081 36.256C74.3081 36.432 74.3081 36.592 74.2921 36.768H68.4521C68.5321 37.856 69.5241 38.656 70.6441 38.656C71.6041 38.656 72.2441 38.272 72.6761 37.664L73.9561 38.688C73.2041 39.712 72.1161 40.224 70.6601 40.224C68.2921 40.224 66.5321 38.704 66.5321 36.208C66.5321 33.728 68.2761 32.096 70.5961 32.096C72.7401 32.096 74.3081 33.488 74.3081 36.256ZM80.8419 40V39.024H80.7939C80.4099 39.696 79.4979 40.192 78.4099 40.192C77.1779 40.192 75.5299 39.6 75.5299 37.808C75.5299 35.52 78.4099 35.2 80.8099 35.2V35.008C80.8099 34.064 80.0099 33.6 79.0499 33.6C78.2339 33.6 77.4499 33.984 76.9539 34.48L75.9619 33.312C76.8259 32.512 78.0419 32.096 79.2099 32.096C81.9619 32.096 82.6339 33.792 82.6339 35.328V40H80.8419ZM80.8099 36.768V36.496H80.3779C79.1619 36.496 77.4499 36.64 77.4499 37.776C77.4499 38.512 78.1379 38.736 78.7939 38.736C80.1059 38.736 80.8099 37.984 80.8099 36.768ZM92.6788 27.904V40H90.8548V38.848H90.8228C90.2948 39.728 89.2548 40.224 88.1828 40.224C85.8468 40.224 84.4068 38.368 84.4068 36.128C84.4068 33.856 85.9428 32.096 88.1348 32.096C89.5428 32.096 90.3108 32.8 90.7108 33.296H90.7588V27.904H92.6788ZM86.3588 36.128C86.3588 37.328 87.0788 38.624 88.5668 38.624C89.9748 38.624 90.8228 37.36 90.8228 36.16C90.8228 34.96 89.9748 33.664 88.5668 33.664C87.0788 33.664 86.3588 34.928 86.3588 36.128ZM95.0434 40V27.904H96.9634V40H95.0434ZM99.3246 40V32.32H101.245V40H99.3246ZM99.0526 29.712C99.0526 29.104 99.5646 28.56 100.269 28.56C100.973 28.56 101.517 29.056 101.517 29.712C101.517 30.368 100.973 30.864 100.269 30.864C99.5646 30.864 99.0526 30.32 99.0526 29.712ZM103.574 40V32.32H105.398V33.552H105.43C105.766 32.784 106.678 32.096 107.814 32.096C109.814 32.096 110.646 33.632 110.646 35.2V40H108.726V35.744C108.726 34.832 108.518 33.696 107.286 33.696C106.07 33.696 105.494 34.752 105.494 35.776V40H103.574ZM114.358 35.392H118.294C118.294 34.4 117.734 33.536 116.486 33.536C115.35 33.536 114.438 34.32 114.358 35.392ZM120.214 36.256C120.214 36.432 120.214 36.592 120.198 36.768H114.358C114.438 37.856 115.43 38.656 116.55 38.656C117.51 38.656 118.15 38.272 118.582 37.664L119.862 38.688C119.11 39.712 118.022 40.224 116.566 40.224C114.198 40.224 112.438 38.704 112.438 36.208C112.438 33.728 114.182 32.096 116.502 32.096C118.646 32.096 120.214 33.488 120.214 36.256Z" fill="#393A3D"/>
<path d="M24.59 72.464V75.768H29.77V77H23.204V67.088H29.56V68.306H24.59V71.274H29.266V72.464H24.59ZM31.4862 70.364H32.7322C32.7602 70.7 32.7882 71.176 32.7882 71.456H32.8302C33.1522 70.742 34.0342 70.182 34.9862 70.182C36.6942 70.182 37.4642 71.4 37.4642 72.884V77H36.1482V73.318C36.1482 72.24 35.8542 71.288 34.6362 71.288C33.6002 71.288 32.8582 72.156 32.8582 73.472V77H31.5422V71.792C31.5422 71.442 31.5282 70.798 31.4862 70.364ZM41.0206 70.364V77H39.7046V70.364H41.0206ZM41.2446 67.97C41.2446 68.446 40.8386 68.81 40.3626 68.81C39.8866 68.81 39.4946 68.432 39.4946 67.97C39.4946 67.494 39.8866 67.116 40.3626 67.116C40.8386 67.116 41.2446 67.48 41.2446 67.97ZM44.6017 71.456C44.9377 70.756 45.7077 70.182 46.7157 70.182C47.5977 70.182 48.3677 70.574 48.7737 71.512C49.2217 70.658 50.0897 70.182 51.0277 70.182C52.7357 70.182 53.5057 71.4 53.5057 72.884V77H52.1897V73.318C52.1897 72.24 51.8677 71.288 50.7197 71.288C49.5157 71.288 49.0397 72.38 49.0397 73.416V77H47.7237V73.052C47.7237 72.016 47.3737 71.288 46.3237 71.288C45.3577 71.288 44.6297 72.156 44.6297 73.472V77H43.3137V71.792C43.3137 71.442 43.2997 70.798 43.2577 70.364H44.5037C44.5317 70.7 44.5597 71.176 44.5597 71.456H44.6017ZM64.8278 71.274L63.8758 72.044C63.5958 71.61 62.9798 71.288 62.3498 71.288C60.9778 71.288 60.1798 72.408 60.1798 73.682C60.1798 74.942 60.9778 76.076 62.3638 76.076C63.0358 76.076 63.6098 75.796 63.9598 75.348L64.8418 76.146C64.2818 76.79 63.4278 77.182 62.3638 77.182C60.3198 77.182 58.7938 75.796 58.7938 73.682C58.7938 71.596 60.3058 70.182 62.3358 70.182C63.2738 70.182 64.2818 70.56 64.8278 71.274ZM72.0677 77H70.8217C70.7937 76.664 70.7657 76.188 70.7657 75.908H70.7377C70.4017 76.608 69.5337 77.182 68.5677 77.182C66.8597 77.182 66.0897 75.964 66.0897 74.48V70.364H67.4057V74.032C67.4057 75.124 67.6997 76.076 68.9177 76.076C69.9677 76.076 70.6957 75.208 70.6957 73.892V70.364H72.0117V75.572C72.0117 75.922 72.0257 76.566 72.0677 77ZM75.6102 76.006V80.36H74.2942V70.364H75.5822V71.4H75.6242C76.0582 70.7 76.9262 70.182 78.0182 70.182C79.9922 70.182 81.3362 71.708 81.3362 73.668C81.3362 75.614 80.0342 77.182 77.9902 77.182C77.0522 77.182 76.1422 76.748 75.6522 76.006H75.6102ZM79.9782 73.668C79.9782 72.422 79.2082 71.274 77.7662 71.274C76.4222 71.274 75.5262 72.408 75.5262 73.682C75.5262 74.956 76.4222 76.076 77.7662 76.076C79.2082 76.076 79.9782 74.914 79.9782 73.668ZM84.4972 70.364V77H83.1812V70.364H84.4972ZM84.7212 67.97C84.7212 68.446 84.3152 68.81 83.8392 68.81C83.3632 68.81 82.9712 68.432 82.9712 67.97C82.9712 67.494 83.3632 67.116 83.8392 67.116C84.3152 67.116 84.7212 67.48 84.7212 67.97ZM92.0823 75.95C91.5783 76.748 90.6263 77.182 89.6883 77.182C87.6443 77.182 86.3423 75.614 86.3423 73.668C86.3423 71.708 87.6863 70.182 89.6743 70.182C90.7523 70.182 91.5783 70.714 92.0403 71.358H92.0683V66.416H93.3843V77H92.1103V75.95H92.0823ZM87.7142 73.668C87.7142 74.914 88.4703 76.076 89.9123 76.076C91.2563 76.076 92.1523 74.956 92.1523 73.682C92.1523 72.408 91.2563 71.274 89.9123 71.274C88.4703 71.274 87.7142 72.422 87.7142 73.668ZM99.807 72.884V72.702C99.807 71.722 99.149 71.246 98.169 71.246C97.427 71.246 96.727 71.568 96.279 72.016L95.579 71.176C96.223 70.56 97.217 70.182 98.295 70.182C100.199 70.182 101.067 71.316 101.067 72.786V75.684C101.067 76.132 101.095 76.678 101.165 77H99.975C99.905 76.706 99.863 76.356 99.863 76.048H99.821C99.345 76.762 98.589 77.168 97.595 77.168C96.545 77.168 95.187 76.65 95.187 75.124C95.187 73.122 97.567 72.884 99.807 72.884ZM99.807 73.836H99.485C98.183 73.836 96.531 73.976 96.531 75.096C96.531 75.88 97.231 76.132 97.889 76.132C99.121 76.132 99.807 75.306 99.807 74.186V73.836ZM106.376 70.364V71.442H104.612V74.9C104.612 75.698 104.892 76.02 105.55 76.02C105.788 76.02 106.096 75.964 106.32 75.852L106.362 76.93C106.054 77.042 105.648 77.112 105.242 77.112C103.996 77.112 103.31 76.412 103.31 75.04V71.442H102.036V70.364H103.31V68.46H104.612V70.364H106.376ZM111.866 72.884V72.702C111.866 71.722 111.208 71.246 110.228 71.246C109.486 71.246 108.786 71.568 108.338 72.016L107.638 71.176C108.282 70.56 109.276 70.182 110.354 70.182C112.258 70.182 113.126 71.316 113.126 72.786V75.684C113.126 76.132 113.154 76.678 113.224 77H112.034C111.964 76.706 111.922 76.356 111.922 76.048H111.88C111.404 76.762 110.648 77.168 109.654 77.168C108.604 77.168 107.246 76.65 107.246 75.124C107.246 73.122 109.626 72.884 111.866 72.884ZM111.866 73.836H111.544C110.242 73.836 108.59 73.976 108.59 75.096C108.59 75.88 109.29 76.132 109.948 76.132C111.18 76.132 111.866 75.306 111.866 74.186V73.836ZM118.435 70.364V71.442H116.671V74.9C116.671 75.698 116.951 76.02 117.609 76.02C117.847 76.02 118.155 75.964 118.379 75.852L118.421 76.93C118.113 77.042 117.707 77.112 117.301 77.112C116.055 77.112 115.369 76.412 115.369 75.04V71.442H114.095V70.364H115.369V68.46H116.671V70.364H118.435ZM124.61 76.006V80.36H123.294V70.364H124.582V71.4H124.624C125.058 70.7 125.926 70.182 127.018 70.182C128.992 70.182 130.336 71.708 130.336 73.668C130.336 75.614 129.034 77.182 126.99 77.182C126.052 77.182 125.142 76.748 124.652 76.006H124.61ZM128.978 73.668C128.978 72.422 128.208 71.274 126.766 71.274C125.422 71.274 124.526 72.408 124.526 73.682C124.526 74.956 125.422 76.076 126.766 76.076C128.208 76.076 128.978 74.914 128.978 73.668ZM136.297 72.884V72.702C136.297 71.722 135.639 71.246 134.659 71.246C133.917 71.246 133.217 71.568 132.769 72.016L132.069 71.176C132.713 70.56 133.707 70.182 134.785 70.182C136.689 70.182 137.557 71.316 137.557 72.786V75.684C137.557 76.132 137.585 76.678 137.655 77H136.465C136.395 76.706 136.353 76.356 136.353 76.048H136.311C135.835 76.762 135.079 77.168 134.085 77.168C133.035 77.168 131.677 76.65 131.677 75.124C131.677 73.122 134.057 72.884 136.297 72.884ZM136.297 73.836H135.975C134.673 73.836 133.021 73.976 133.021 75.096C133.021 75.88 133.721 76.132 134.379 76.132C135.611 76.132 136.297 75.306 136.297 74.186V73.836ZM139.755 71.792C139.755 71.442 139.741 70.798 139.699 70.364H140.945C140.973 70.7 141.001 71.204 141.001 71.484H141.043C141.407 70.714 142.177 70.182 143.073 70.182C143.255 70.182 143.437 70.196 143.591 70.238L143.535 71.456C143.367 71.414 143.143 71.386 142.933 71.386C141.673 71.386 141.071 72.408 141.071 73.514V77H139.755V71.792ZM146.157 70.364V77H144.841V70.364H146.157ZM146.381 67.97C146.381 68.446 145.975 68.81 145.499 68.81C145.023 68.81 144.631 68.432 144.631 67.97C144.631 67.494 145.023 67.116 145.499 67.116C145.975 67.116 146.381 67.48 146.381 67.97ZM152.58 72.884V72.702C152.58 71.722 151.922 71.246 150.942 71.246C150.2 71.246 149.5 71.568 149.052 72.016L148.352 71.176C148.996 70.56 149.99 70.182 151.068 70.182C152.972 70.182 153.84 71.316 153.84 72.786V75.684C153.84 76.132 153.868 76.678 153.938 77H152.748C152.678 76.706 152.636 76.356 152.636 76.048H152.594C152.118 76.762 151.362 77.168 150.368 77.168C149.318 77.168 147.96 76.65 147.96 75.124C147.96 73.122 150.34 72.884 152.58 72.884ZM152.58 73.836H152.258C150.956 73.836 149.304 73.976 149.304 75.096C149.304 75.88 150.004 76.132 150.662 76.132C151.894 76.132 152.58 75.306 152.58 74.186V73.836ZM159.15 70.364V71.442H157.386V74.9C157.386 75.698 157.666 76.02 158.324 76.02C158.562 76.02 158.87 75.964 159.094 75.852L159.136 76.93C158.828 77.042 158.422 77.112 158.016 77.112C156.77 77.112 156.084 76.412 156.084 75.04V71.442H154.81V70.364H156.084V68.46H157.386V70.364H159.15ZM166.431 77H165.185C165.157 76.664 165.129 76.188 165.129 75.908H165.101C164.765 76.608 163.897 77.182 162.931 77.182C161.223 77.182 160.453 75.964 160.453 74.48V70.364H161.769V74.032C161.769 75.124 162.063 76.076 163.281 76.076C164.331 76.076 165.059 75.208 165.059 73.892V70.364H166.375V75.572C166.375 75.922 166.389 76.566 166.431 77ZM168.657 71.792C168.657 71.442 168.643 70.798 168.601 70.364H169.847C169.875 70.7 169.903 71.204 169.903 71.484H169.945C170.309 70.714 171.079 70.182 171.975 70.182C172.157 70.182 172.339 70.196 172.493 70.238L172.437 71.456C172.269 71.414 172.045 71.386 171.835 71.386C170.575 71.386 169.973 72.408 169.973 73.514V77H168.657V71.792ZM178.14 73.094H182.088C182.06 72.044 181.444 71.218 180.226 71.218C179.092 71.218 178.224 72.058 178.14 73.094ZM183.418 73.626C183.418 73.766 183.418 73.92 183.404 74.074H178.14C178.182 75.208 179.134 76.09 180.296 76.09C181.192 76.09 181.85 75.642 182.228 75.082L183.152 75.824C182.438 76.748 181.472 77.182 180.296 77.182C178.28 77.182 176.796 75.782 176.796 73.696C176.796 71.624 178.28 70.182 180.226 70.182C182.186 70.182 183.418 71.512 183.418 73.626ZM184.082 77L186.742 73.514L184.32 70.364H185.944L187.568 72.646L189.206 70.364H190.746L188.352 73.5L191.026 77H189.388L187.54 74.41L185.664 77H184.082ZM199.899 72.884V72.702C199.899 71.722 199.241 71.246 198.261 71.246C197.519 71.246 196.819 71.568 196.371 72.016L195.671 71.176C196.315 70.56 197.309 70.182 198.387 70.182C200.291 70.182 201.159 71.316 201.159 72.786V75.684C201.159 76.132 201.187 76.678 201.257 77H200.067C199.997 76.706 199.955 76.356 199.955 76.048H199.913C199.437 76.762 198.681 77.168 197.687 77.168C196.637 77.168 195.279 76.65 195.279 75.124C195.279 73.122 197.659 72.884 199.899 72.884ZM199.899 73.836H199.577C198.275 73.836 196.623 73.976 196.623 75.096C196.623 75.88 197.323 76.132 197.981 76.132C199.213 76.132 199.899 75.306 199.899 74.186V73.836ZM203.301 70.364H204.547C204.575 70.7 204.603 71.176 204.603 71.456H204.645C204.967 70.742 205.849 70.182 206.801 70.182C208.509 70.182 209.279 71.4 209.279 72.884V77H207.963V73.318C207.963 72.24 207.669 71.288 206.451 71.288C205.415 71.288 204.673 72.156 204.673 73.472V77H203.357V71.792C203.357 71.442 203.343 70.798 203.301 70.364ZM212.835 70.364V77H211.519V70.364H212.835ZM213.059 67.97C213.059 68.446 212.653 68.81 212.177 68.81C211.701 68.81 211.309 68.432 211.309 67.97C211.309 67.494 211.701 67.116 212.177 67.116C212.653 67.116 213.059 67.48 213.059 67.97ZM216.416 71.456C216.752 70.756 217.522 70.182 218.53 70.182C219.412 70.182 220.182 70.574 220.588 71.512C221.036 70.658 221.904 70.182 222.842 70.182C224.55 70.182 225.32 71.4 225.32 72.884V77H224.004V73.318C224.004 72.24 223.682 71.288 222.534 71.288C221.33 71.288 220.854 72.38 220.854 73.416V77H219.538V73.052C219.538 72.016 219.188 71.288 218.138 71.288C217.172 71.288 216.444 72.156 216.444 73.472V77H215.128V71.792C215.128 71.442 215.114 70.798 215.072 70.364H216.318C216.346 70.7 216.374 71.176 216.374 71.456H216.416ZM232.33 71.456C232.666 70.756 233.436 70.182 234.444 70.182C235.326 70.182 236.096 70.574 236.502 71.512C236.95 70.658 237.818 70.182 238.756 70.182C240.464 70.182 241.234 71.4 241.234 72.884V77H239.918V73.318C239.918 72.24 239.596 71.288 238.448 71.288C237.244 71.288 236.768 72.38 236.768 73.416V77H235.452V73.052C235.452 72.016 235.102 71.288 234.052 71.288C233.086 71.288 232.358 72.156 232.358 73.472V77H231.042V71.792C231.042 71.442 231.028 70.798 230.986 70.364H232.232C232.26 70.7 232.288 71.176 232.288 71.456H232.33ZM244.786 70.364V77H243.47V70.364H244.786ZM245.01 67.97C245.01 68.446 244.604 68.81 244.128 68.81C243.652 68.81 243.26 68.432 243.26 67.97C243.26 67.494 243.652 67.116 244.128 67.116C244.604 67.116 245.01 67.48 245.01 67.97ZM247.023 70.364H248.269C248.297 70.7 248.325 71.176 248.325 71.456H248.367C248.689 70.742 249.571 70.182 250.523 70.182C252.231 70.182 253.001 71.4 253.001 72.884V77H251.685V73.318C251.685 72.24 251.391 71.288 250.173 71.288C249.137 71.288 248.395 72.156 248.395 73.472V77H247.079V71.792C247.079 71.442 247.065 70.798 247.023 70.364ZM256.558 70.364V77H255.242V70.364H256.558ZM256.782 67.97C256.782 68.446 256.376 68.81 255.9 68.81C255.424 68.81 255.032 68.432 255.032 67.97C255.032 67.494 255.424 67.116 255.9 67.116C256.376 67.116 256.782 67.48 256.782 67.97ZM260.139 71.456C260.475 70.756 261.245 70.182 262.253 70.182C263.135 70.182 263.905 70.574 264.311 71.512C264.759 70.658 265.627 70.182 266.565 70.182C268.273 70.182 269.043 71.4 269.043 72.884V77H267.727V73.318C267.727 72.24 267.405 71.288 266.257 71.288C265.053 71.288 264.577 72.38 264.577 73.416V77H263.261V73.052C263.261 72.016 262.911 71.288 261.861 71.288C260.895 71.288 260.167 72.156 260.167 73.472V77H258.851V71.792C258.851 71.442 258.837 70.798 258.795 70.364H260.041C260.069 70.7 260.097 71.176 260.097 71.456H260.139ZM28.734 91.274L27.782 92.044C27.502 91.61 26.886 91.288 26.256 91.288C24.884 91.288 24.086 92.408 24.086 93.682C24.086 94.942 24.884 96.076 26.27 96.076C26.942 96.076 27.516 95.796 27.866 95.348L28.748 96.146C28.188 96.79 27.334 97.182 26.27 97.182C24.226 97.182 22.7 95.796 22.7 93.682C22.7 91.596 24.212 90.182 26.242 90.182C27.18 90.182 28.188 90.56 28.734 91.274ZM36.772 93.668C36.772 95.712 35.218 97.182 33.188 97.182C31.158 97.182 29.618 95.712 29.618 93.668C29.618 91.624 31.158 90.182 33.188 90.182C35.218 90.182 36.772 91.624 36.772 93.668ZM35.4 93.668C35.4 92.408 34.616 91.274 33.188 91.274C31.774 91.274 30.976 92.408 30.976 93.668C30.976 94.928 31.774 96.076 33.188 96.076C34.616 96.076 35.4 94.928 35.4 93.668ZM38.5409 90.364H39.7869C39.8149 90.7 39.8429 91.176 39.8429 91.456H39.8849C40.2069 90.742 41.0889 90.182 42.0409 90.182C43.7489 90.182 44.5189 91.4 44.5189 92.884V97H43.2029V93.318C43.2029 92.24 42.9089 91.288 41.6909 91.288C40.6549 91.288 39.9129 92.156 39.9129 93.472V97H38.5969V91.792C38.5969 91.442 38.5829 90.798 38.5409 90.364ZM51.2393 91.274L50.3293 92.044C50.0353 91.568 49.4613 91.218 48.7893 91.218C48.1873 91.218 47.5573 91.456 47.5573 92.086C47.5573 92.646 48.0613 92.856 49.0693 93.08C50.3293 93.36 51.2953 93.878 51.2953 95.04C51.2953 96.608 49.9933 97.182 48.6493 97.182C47.6413 97.182 46.6053 96.79 45.9753 95.992L46.9133 95.194C47.2633 95.712 47.9353 96.118 48.6773 96.118C49.3353 96.118 49.9933 95.88 49.9933 95.152C49.9933 94.536 49.3913 94.312 48.2573 94.046C47.3753 93.836 46.3253 93.458 46.3253 92.212C46.3253 90.784 47.5713 90.182 48.8313 90.182C49.7693 90.182 50.7633 90.56 51.2393 91.274ZM53.876 93.094H57.824C57.796 92.044 57.18 91.218 55.962 91.218C54.828 91.218 53.96 92.058 53.876 93.094ZM59.154 93.626C59.154 93.766 59.154 93.92 59.14 94.074H53.876C53.918 95.208 54.87 96.09 56.032 96.09C56.928 96.09 57.586 95.642 57.964 95.082L58.888 95.824C58.174 96.748 57.208 97.182 56.032 97.182C54.016 97.182 52.532 95.782 52.532 93.696C52.532 91.624 54.016 90.182 55.962 90.182C57.922 90.182 59.154 91.512 59.154 93.626ZM66.5914 91.274L65.6394 92.044C65.3594 91.61 64.7434 91.288 64.1134 91.288C62.7414 91.288 61.9434 92.408 61.9434 93.682C61.9434 94.942 62.7414 96.076 64.1274 96.076C64.7994 96.076 65.3734 95.796 65.7234 95.348L66.6054 96.146C66.0454 96.79 65.1914 97.182 64.1274 97.182C62.0834 97.182 60.5574 95.796 60.5574 93.682C60.5574 91.596 62.0694 90.182 64.0994 90.182C65.0374 90.182 66.0454 90.56 66.5914 91.274ZM71.1574 90.364V91.442H69.3934V94.9C69.3934 95.698 69.6734 96.02 70.3314 96.02C70.5694 96.02 70.8774 95.964 71.1014 95.852L71.1434 96.93C70.8354 97.042 70.4294 97.112 70.0234 97.112C68.7774 97.112 68.0914 96.412 68.0914 95.04V91.442H66.8174V90.364H68.0914V88.46H69.3934V90.364H71.1574ZM73.4268 93.094H77.3748C77.3468 92.044 76.7308 91.218 75.5128 91.218C74.3788 91.218 73.5108 92.058 73.4268 93.094ZM78.7048 93.626C78.7048 93.766 78.7048 93.92 78.6908 94.074H73.4268C73.4688 95.208 74.4208 96.09 75.5828 96.09C76.4788 96.09 77.1368 95.642 77.5148 95.082L78.4388 95.824C77.7248 96.748 76.7588 97.182 75.5828 97.182C73.5668 97.182 72.0828 95.782 72.0828 93.696C72.0828 91.624 73.5668 90.182 75.5128 90.182C77.4728 90.182 78.7048 91.512 78.7048 93.626ZM83.7902 90.364V91.442H82.0262V94.9C82.0262 95.698 82.3062 96.02 82.9642 96.02C83.2022 96.02 83.5102 95.964 83.7342 95.852L83.7762 96.93C83.4682 97.042 83.0622 97.112 82.6562 97.112C81.4102 97.112 80.7242 96.412 80.7242 95.04V91.442H79.4502V90.364H80.7242V88.46H82.0262V90.364H83.7902ZM91.0716 97H89.8256C89.7976 96.664 89.7696 96.188 89.7696 95.908H89.7416C89.4056 96.608 88.5376 97.182 87.5716 97.182C85.8636 97.182 85.0936 95.964 85.0936 94.48V90.364H86.4096V94.032C86.4096 95.124 86.7036 96.076 87.9216 96.076C88.9716 96.076 89.6996 95.208 89.6996 93.892V90.364H91.0156V95.572C91.0156 95.922 91.0296 96.566 91.0716 97ZM93.2981 91.792C93.2981 91.442 93.2841 90.798 93.2421 90.364H94.4881C94.5161 90.7 94.5441 91.204 94.5441 91.484H94.5861C94.9501 90.714 95.7201 90.182 96.6161 90.182C96.7981 90.182 96.9801 90.196 97.1341 90.238L97.0781 91.456C96.9101 91.414 96.6861 91.386 96.4761 91.386C95.2161 91.386 94.6141 92.408 94.6141 93.514V97H93.2981V91.792ZM103.186 96.006V100.36H101.87V90.364H103.158V91.4H103.2C103.634 90.7 104.502 90.182 105.594 90.182C107.568 90.182 108.912 91.708 108.912 93.668C108.912 95.614 107.61 97.182 105.566 97.182C104.628 97.182 103.718 96.748 103.228 96.006H103.186ZM107.554 93.668C107.554 92.422 106.784 91.274 105.342 91.274C103.998 91.274 103.102 92.408 103.102 93.682C103.102 94.956 103.998 96.076 105.342 96.076C106.784 96.076 107.554 94.914 107.554 93.668ZM110.743 91.792C110.743 91.442 110.729 90.798 110.687 90.364H111.933C111.961 90.7 111.989 91.204 111.989 91.484H112.031C112.395 90.714 113.165 90.182 114.061 90.182C114.243 90.182 114.425 90.196 114.579 90.238L114.523 91.456C114.355 91.414 114.131 91.386 113.921 91.386C112.661 91.386 112.059 92.408 112.059 93.514V97H110.743V91.792ZM122.29 93.668C122.29 95.712 120.736 97.182 118.706 97.182C116.676 97.182 115.136 95.712 115.136 93.668C115.136 91.624 116.676 90.182 118.706 90.182C120.736 90.182 122.29 91.624 122.29 93.668ZM120.918 93.668C120.918 92.408 120.134 91.274 118.706 91.274C117.292 91.274 116.494 92.408 116.494 93.668C116.494 94.928 117.292 96.076 118.706 96.076C120.134 96.076 120.918 94.928 120.918 93.668ZM125.444 90.364V97H124.128V90.364H125.444ZM125.668 87.97C125.668 88.446 125.262 88.81 124.786 88.81C124.31 88.81 123.918 88.432 123.918 87.97C123.918 87.494 124.31 87.116 124.786 87.116C125.262 87.116 125.668 87.48 125.668 87.97ZM133.03 95.95C132.526 96.748 131.574 97.182 130.636 97.182C128.592 97.182 127.29 95.614 127.29 93.668C127.29 91.708 128.634 90.182 130.622 90.182C131.7 90.182 132.526 90.714 132.988 91.358H133.016V86.416H134.332V97H133.058V95.95H133.03ZM128.662 93.668C128.662 94.914 129.418 96.076 130.86 96.076C132.204 96.076 133.1 94.956 133.1 93.682C133.1 92.408 132.204 91.274 130.86 91.274C129.418 91.274 128.662 92.422 128.662 93.668ZM137.534 93.094H141.482C141.454 92.044 140.838 91.218 139.62 91.218C138.486 91.218 137.618 92.058 137.534 93.094ZM142.812 93.626C142.812 93.766 142.812 93.92 142.798 94.074H137.534C137.576 95.208 138.528 96.09 139.69 96.09C140.586 96.09 141.244 95.642 141.622 95.082L142.546 95.824C141.832 96.748 140.866 97.182 139.69 97.182C137.674 97.182 136.19 95.782 136.19 93.696C136.19 91.624 137.674 90.182 139.62 90.182C141.58 90.182 142.812 91.512 142.812 93.626ZM144.594 90.364H145.84C145.868 90.7 145.896 91.176 145.896 91.456H145.938C146.26 90.742 147.142 90.182 148.094 90.182C149.802 90.182 150.572 91.4 150.572 92.884V97H149.256V93.318C149.256 92.24 148.962 91.288 147.744 91.288C146.708 91.288 145.966 92.156 145.966 93.472V97H144.65V91.792C144.65 91.442 144.636 90.798 144.594 90.364ZM156.046 90.364V91.442H154.282V94.9C154.282 95.698 154.562 96.02 155.22 96.02C155.458 96.02 155.766 95.964 155.99 95.852L156.032 96.93C155.724 97.042 155.318 97.112 154.912 97.112C153.666 97.112 152.98 96.412 152.98 95.04V91.442H151.706V90.364H152.98V88.46H154.282V90.364H156.046ZM161.815 93.094H165.763C165.735 92.044 165.119 91.218 163.901 91.218C162.767 91.218 161.899 92.058 161.815 93.094ZM167.093 93.626C167.093 93.766 167.093 93.92 167.079 94.074H161.815C161.857 95.208 162.809 96.09 163.971 96.09C164.867 96.09 165.525 95.642 165.903 95.082L166.827 95.824C166.113 96.748 165.147 97.182 163.971 97.182C161.955 97.182 160.471 95.782 160.471 93.696C160.471 91.624 161.955 90.182 163.901 90.182C165.861 90.182 167.093 91.512 167.093 93.626ZM167.758 97L170.418 93.514L167.996 90.364H169.62L171.244 92.646L172.882 90.364H174.422L172.028 93.5L174.702 97H173.064L171.216 94.41L169.34 97H167.758ZM180.775 90.364V97H179.459V90.364H180.775ZM180.999 87.97C180.999 88.446 180.593 88.81 180.117 88.81C179.641 88.81 179.249 88.432 179.249 87.97C179.249 87.494 179.641 87.116 180.117 87.116C180.593 87.116 180.999 87.48 180.999 87.97ZM183.012 90.364H184.258C184.286 90.7 184.314 91.176 184.314 91.456H184.356C184.678 90.742 185.56 90.182 186.512 90.182C188.22 90.182 188.99 91.4 188.99 92.884V97H187.674V93.318C187.674 92.24 187.38 91.288 186.162 91.288C185.126 91.288 184.384 92.156 184.384 93.472V97H183.068V91.792C183.068 91.442 183.054 90.798 183.012 90.364ZM196.816 91.274L195.864 92.044C195.584 91.61 194.968 91.288 194.338 91.288C192.966 91.288 192.168 92.408 192.168 93.682C192.168 94.942 192.966 96.076 194.352 96.076C195.024 96.076 195.598 95.796 195.948 95.348L196.83 96.146C196.27 96.79 195.416 97.182 194.352 97.182C192.308 97.182 190.782 95.796 190.782 93.682C190.782 91.596 192.294 90.182 194.324 90.182C195.262 90.182 196.27 90.56 196.816 91.274ZM199.464 90.364V97H198.148V90.364H199.464ZM199.688 87.97C199.688 88.446 199.282 88.81 198.806 88.81C198.33 88.81 197.938 88.432 197.938 87.97C197.938 87.494 198.33 87.116 198.806 87.116C199.282 87.116 199.688 87.48 199.688 87.97ZM207.049 95.95C206.545 96.748 205.593 97.182 204.655 97.182C202.611 97.182 201.309 95.614 201.309 93.668C201.309 91.708 202.653 90.182 204.641 90.182C205.719 90.182 206.545 90.714 207.007 91.358H207.035V86.416H208.351V97H207.077V95.95H207.049ZM202.681 93.668C202.681 94.914 203.437 96.076 204.879 96.076C206.223 96.076 207.119 94.956 207.119 93.682C207.119 92.408 206.223 91.274 204.879 91.274C203.437 91.274 202.681 92.422 202.681 93.668ZM211.974 90.364V97H210.658V90.364H211.974ZM212.198 87.97C212.198 88.446 211.792 88.81 211.316 88.81C210.84 88.81 210.448 88.432 210.448 87.97C210.448 87.494 210.84 87.116 211.316 87.116C211.792 87.116 212.198 87.48 212.198 87.97ZM219.559 95.95C219.055 96.748 218.103 97.182 217.165 97.182C215.121 97.182 213.819 95.614 213.819 93.668C213.819 91.708 215.163 90.182 217.151 90.182C218.229 90.182 219.055 90.714 219.517 91.358H219.545V86.416H220.861V97H219.587V95.95H219.559ZM215.191 93.668C215.191 94.914 215.947 96.076 217.389 96.076C218.733 96.076 219.629 94.956 219.629 93.682C219.629 92.408 218.733 91.274 217.389 91.274C215.947 91.274 215.191 92.422 215.191 93.668ZM229.076 97H227.83C227.802 96.664 227.774 96.188 227.774 95.908H227.746C227.41 96.608 226.542 97.182 225.576 97.182C223.868 97.182 223.098 95.964 223.098 94.48V90.364H224.414V94.032C224.414 95.124 224.708 96.076 225.926 96.076C226.976 96.076 227.704 95.208 227.704 93.892V90.364H229.02V95.572C229.02 95.922 229.034 96.566 229.076 97ZM231.246 90.364H232.492C232.52 90.7 232.548 91.176 232.548 91.456H232.59C232.912 90.742 233.794 90.182 234.746 90.182C236.454 90.182 237.224 91.4 237.224 92.884V97H235.908V93.318C235.908 92.24 235.614 91.288 234.396 91.288C233.36 91.288 232.618 92.156 232.618 93.472V97H231.302V91.792C231.302 91.442 231.288 90.798 231.246 90.364ZM242.698 90.364V91.442H240.934V94.9C240.934 95.698 241.214 96.02 241.872 96.02C242.11 96.02 242.418 95.964 242.642 95.852L242.684 96.93C242.376 97.042 241.97 97.112 241.564 97.112C240.318 97.112 239.632 96.412 239.632 95.04V91.442H238.358V90.364H239.632V88.46H240.934V90.364H242.698ZM248.468 93.094H252.416C252.388 92.044 251.772 91.218 250.554 91.218C249.42 91.218 248.552 92.058 248.468 93.094ZM253.746 93.626C253.746 93.766 253.746 93.92 253.732 94.074H248.468C248.51 95.208 249.462 96.09 250.624 96.09C251.52 96.09 252.178 95.642 252.556 95.082L253.48 95.824C252.766 96.748 251.8 97.182 250.624 97.182C248.608 97.182 247.124 95.782 247.124 93.696C247.124 91.624 248.608 90.182 250.554 90.182C252.514 90.182 253.746 91.512 253.746 93.626ZM255.527 90.364H256.773C256.801 90.7 256.829 91.176 256.829 91.456H256.871C257.193 90.742 258.075 90.182 259.027 90.182C260.735 90.182 261.505 91.4 261.505 92.884V97H260.189V93.318C260.189 92.24 259.895 91.288 258.677 91.288C257.641 91.288 256.899 92.156 256.899 93.472V97H255.583V91.792C255.583 91.442 255.569 90.798 255.527 90.364ZM265.062 90.364V97H263.746V90.364H265.062ZM265.286 87.97C265.286 88.446 264.88 88.81 264.404 88.81C263.928 88.81 263.536 88.432 263.536 87.97C263.536 87.494 263.928 87.116 264.404 87.116C264.88 87.116 265.286 87.48 265.286 87.97ZM268.643 91.456C268.979 90.756 269.749 90.182 270.757 90.182C271.639 90.182 272.409 90.574 272.815 91.512C273.263 90.658 274.131 90.182 275.069 90.182C276.777 90.182 277.547 91.4 277.547 92.884V97H276.231V93.318C276.231 92.24 275.909 91.288 274.761 91.288C273.557 91.288 273.081 92.38 273.081 93.416V97H271.765V93.052C271.765 92.016 271.415 91.288 270.365 91.288C269.399 91.288 268.671 92.156 268.671 93.472V97H267.355V91.792C267.355 91.442 267.341 90.798 267.299 90.364H268.545C268.573 90.7 268.601 91.176 268.601 91.456H268.643ZM24.464 110.364V117H23.148V110.364H24.464ZM24.688 107.97C24.688 108.446 24.282 108.81 23.806 108.81C23.33 108.81 22.938 108.432 22.938 107.97C22.938 107.494 23.33 107.116 23.806 107.116C24.282 107.116 24.688 107.48 24.688 107.97ZM26.701 110.364H27.947C27.975 110.7 28.003 111.176 28.003 111.456H28.045C28.367 110.742 29.249 110.182 30.201 110.182C31.909 110.182 32.679 111.4 32.679 112.884V117H31.363V113.318C31.363 112.24 31.069 111.288 29.851 111.288C28.815 111.288 28.073 112.156 28.073 113.472V117H26.757V111.792C26.757 111.442 26.743 110.798 26.701 110.364ZM40.5055 111.274L39.5535 112.044C39.2735 111.61 38.6575 111.288 38.0275 111.288C36.6555 111.288 35.8575 112.408 35.8575 113.682C35.8575 114.942 36.6555 116.076 38.0415 116.076C38.7135 116.076 39.2875 115.796 39.6375 115.348L40.5195 116.146C39.9595 116.79 39.1055 117.182 38.0415 117.182C35.9975 117.182 34.4715 115.796 34.4715 113.682C34.4715 111.596 35.9835 110.182 38.0135 110.182C38.9515 110.182 39.9595 110.56 40.5055 111.274ZM43.1535 110.364V117H41.8375V110.364H43.1535ZM43.3775 107.97C43.3775 108.446 42.9715 108.81 42.4955 108.81C42.0195 108.81 41.6275 108.432 41.6275 107.97C41.6275 107.494 42.0195 107.116 42.4955 107.116C42.9715 107.116 43.3775 107.48 43.3775 107.97ZM50.7385 115.95C50.2345 116.748 49.2825 117.182 48.3445 117.182C46.3005 117.182 44.9985 115.614 44.9985 113.668C44.9985 111.708 46.3425 110.182 48.3305 110.182C49.4085 110.182 50.2345 110.714 50.6965 111.358H50.7245V106.416H52.0405V117H50.7665V115.95H50.7385ZM46.3705 113.668C46.3705 114.914 47.1265 116.076 48.5685 116.076C49.9125 116.076 50.8085 114.956 50.8085 113.682C50.8085 112.408 49.9125 111.274 48.5685 111.274C47.1265 111.274 46.3705 112.422 46.3705 113.668ZM55.6632 110.364V117H54.3472V110.364H55.6632ZM55.8872 107.97C55.8872 108.446 55.4812 108.81 55.0052 108.81C54.5292 108.81 54.1372 108.432 54.1372 107.97C54.1372 107.494 54.5292 107.116 55.0052 107.116C55.4812 107.116 55.8872 107.48 55.8872 107.97ZM63.2483 115.95C62.7443 116.748 61.7923 117.182 60.8543 117.182C58.8103 117.182 57.5083 115.614 57.5083 113.668C57.5083 111.708 58.8523 110.182 60.8403 110.182C61.9183 110.182 62.7443 110.714 63.2063 111.358H63.2343V106.416H64.5503V117H63.2763V115.95H63.2483ZM58.8803 113.668C58.8803 114.914 59.6363 116.076 61.0783 116.076C62.4223 116.076 63.3183 114.956 63.3183 113.682C63.3183 112.408 62.4223 111.274 61.0783 111.274C59.6363 111.274 58.8803 112.422 58.8803 113.668ZM72.765 117H71.519C71.491 116.664 71.463 116.188 71.463 115.908H71.435C71.099 116.608 70.231 117.182 69.265 117.182C67.557 117.182 66.787 115.964 66.787 114.48V110.364H68.103V114.032C68.103 115.124 68.397 116.076 69.615 116.076C70.665 116.076 71.393 115.208 71.393 113.892V110.364H72.709V115.572C72.709 115.922 72.723 116.566 72.765 117ZM74.9354 110.364H76.1814C76.2094 110.7 76.2374 111.176 76.2374 111.456H76.2794C76.6014 110.742 77.4834 110.182 78.4354 110.182C80.1434 110.182 80.9134 111.4 80.9134 112.884V117H79.5974V113.318C79.5974 112.24 79.3034 111.288 78.0854 111.288C77.0494 111.288 76.3074 112.156 76.3074 113.472V117H74.9914V111.792C74.9914 111.442 74.9774 110.798 74.9354 110.364ZM86.3879 110.364V111.442H84.6239V114.9C84.6239 115.698 84.9039 116.02 85.5619 116.02C85.7999 116.02 86.1079 115.964 86.3319 115.852L86.3739 116.93C86.0659 117.042 85.6599 117.112 85.2539 117.112C84.0079 117.112 83.3219 116.412 83.3219 115.04V111.442H82.0479V110.364H83.3219V108.46H84.6239V110.364H86.3879ZM89.3713 116.16C89.3713 116.65 88.9653 117.084 88.4333 117.084C87.9153 117.084 87.4953 116.664 87.4953 116.174C87.4953 115.67 87.9013 115.25 88.4333 115.25C88.9653 115.25 89.3713 115.656 89.3713 116.16Z" fill="#6B6C72"/>
<path d="M23.248 162V150.672H27.264C30.224 150.672 33.52 152.08 33.52 156.336C33.52 160.304 30.224 162 27.264 162H23.248ZM25.264 160.24H26.944C29.024 160.24 31.36 159.392 31.36 156.336C31.36 153.088 29.024 152.4 26.944 152.4H25.264V160.24ZM35.4028 162V154.32H37.3228V162H35.4028ZM35.1308 151.712C35.1308 151.104 35.6428 150.56 36.3468 150.56C37.0508 150.56 37.5948 151.056 37.5948 151.712C37.5948 152.368 37.0508 152.864 36.3468 152.864C35.6428 152.864 35.1308 152.32 35.1308 151.712ZM45.108 155.264L43.86 156.368C43.524 155.92 42.884 155.536 42.18 155.536C41.572 155.536 40.948 155.76 40.948 156.368C40.948 156.96 41.54 157.12 42.612 157.376C43.748 157.648 45.092 158.16 45.092 159.664C45.092 161.536 43.572 162.224 41.892 162.224C40.708 162.224 39.476 161.776 38.74 160.96L40.004 159.776C40.42 160.32 41.14 160.736 41.972 160.736C42.532 160.736 43.204 160.512 43.204 159.824C43.204 159.184 42.612 158.992 41.444 158.72C40.308 158.448 39.172 157.984 39.172 156.544C39.172 154.832 40.708 154.096 42.228 154.096C43.332 154.096 44.484 154.48 45.108 155.264ZM55.9294 154.096C57.9294 154.096 58.7614 155.632 58.7614 157.2V162H56.8414V157.744C56.8414 156.832 56.6334 155.696 55.4014 155.696C54.2014 155.696 53.7054 156.816 53.7054 157.808V162H51.7854V157.36C51.7854 156.416 51.3374 155.696 50.3614 155.696C49.2094 155.696 48.6814 156.752 48.6814 157.776V162H46.7614V154.32H48.5854V155.552H48.6174C48.9534 154.8 49.7694 154.096 51.0014 154.096C52.1854 154.096 52.9694 154.688 53.4014 155.552C53.9134 154.624 54.7774 154.096 55.9294 154.096ZM61.0278 162V154.32H62.9478V162H61.0278ZM60.7558 151.712C60.7558 151.104 61.2678 150.56 61.9718 150.56C62.6758 150.56 63.2198 151.056 63.2198 151.712C63.2198 152.368 62.6758 152.864 61.9718 152.864C61.2678 152.864 60.7558 152.32 60.7558 151.712ZM70.733 155.264L69.485 156.368C69.149 155.92 68.509 155.536 67.805 155.536C67.197 155.536 66.573 155.76 66.573 156.368C66.573 156.96 67.165 157.12 68.237 157.376C69.373 157.648 70.717 158.16 70.717 159.664C70.717 161.536 69.197 162.224 67.517 162.224C66.333 162.224 65.101 161.776 64.365 160.96L65.629 159.776C66.045 160.32 66.765 160.736 67.597 160.736C68.157 160.736 68.829 160.512 68.829 159.824C68.829 159.184 68.237 158.992 67.069 158.72C65.933 158.448 64.797 157.984 64.797 156.544C64.797 154.832 66.333 154.096 67.853 154.096C68.957 154.096 70.109 154.48 70.733 155.264ZM77.8424 155.264L76.5944 156.368C76.2584 155.92 75.6184 155.536 74.9144 155.536C74.3064 155.536 73.6824 155.76 73.6824 156.368C73.6824 156.96 74.2744 157.12 75.3464 157.376C76.4824 157.648 77.8264 158.16 77.8264 159.664C77.8264 161.536 76.3064 162.224 74.6264 162.224C73.4424 162.224 72.2104 161.776 71.4744 160.96L72.7384 159.776C73.1544 160.32 73.8744 160.736 74.7064 160.736C75.2664 160.736 75.9384 160.512 75.9384 159.824C75.9384 159.184 75.3464 158.992 74.1784 158.72C73.0424 158.448 71.9064 157.984 71.9064 156.544C71.9064 154.832 73.4424 154.096 74.9624 154.096C76.0664 154.096 77.2184 154.48 77.8424 155.264Z" fill="#0077C5"/>
<rect x="237" y="138" width="80" height="36" rx="4" fill="#0077C5"/>
<path d="M252.919 162L257.847 150.672H259.591L264.471 162H262.167L261.111 159.408H256.199L255.175 162H252.919ZM256.887 157.68H260.407L258.663 153.072L256.887 157.68ZM272.056 155.296L270.744 156.448C270.44 156.016 269.784 155.696 269.16 155.696C267.752 155.696 267.048 156.96 267.048 158.16C267.048 159.36 267.768 160.624 269.224 160.624C269.816 160.624 270.472 160.384 270.84 159.936L272.04 161.152C271.4 161.84 270.344 162.224 269.208 162.224C266.936 162.224 265.048 160.72 265.048 158.16C265.048 155.664 266.904 154.096 269.16 154.096C270.28 154.096 271.448 154.544 272.056 155.296ZM273.548 155.856H272.204V154.32H273.548V152.096H275.436V154.32H277.356V155.856H275.436V159.424C275.436 160.112 275.596 160.608 276.444 160.608C276.7 160.608 277.036 160.56 277.26 160.448L277.324 161.952C276.988 162.08 276.476 162.16 276.044 162.16C274.012 162.16 273.548 160.912 273.548 159.44V155.856ZM278.778 162V154.32H280.698V162H278.778ZM278.506 151.712C278.506 151.104 279.018 150.56 279.722 150.56C280.426 150.56 280.97 151.056 280.97 151.712C280.97 152.368 280.426 152.864 279.722 152.864C279.018 152.864 278.506 152.32 278.506 151.712ZM282.579 158.128C282.579 155.712 284.435 154.096 286.755 154.096C289.075 154.096 290.931 155.712 290.931 158.128C290.931 160.544 289.075 162.224 286.755 162.224C284.435 162.224 282.579 160.544 282.579 158.128ZM284.531 158.128C284.531 159.328 285.235 160.624 286.755 160.624C288.275 160.624 288.979 159.328 288.979 158.128C288.979 156.928 288.275 155.664 286.755 155.664C285.235 155.664 284.531 156.928 284.531 158.128ZM292.793 162V154.32H294.617V155.552H294.649C294.985 154.784 295.897 154.096 297.033 154.096C299.033 154.096 299.865 155.632 299.865 157.2V162H297.945V157.744C297.945 156.832 297.737 155.696 296.505 155.696C295.289 155.696 294.713 156.752 294.713 157.776V162H292.793Z" fill="white"/>
<g filter="url(#filter0_d_68_4778)">
<rect x="3" y="3" width="333" height="190" rx="11" stroke="url(#paint0_angular_68_4778)" stroke-width="2"/>
</g>
</g>
<defs>
<filter id="filter0_d_68_4778" x="-22" y="-16" width="383" height="240" filterUnits="userSpaceOnUse" color-interpolation-filters="sRGB">
<feFlood flood-opacity="0" result="BackgroundImageFix"/>
<feColorMatrix in="SourceAlpha" type="matrix" values="0 0 0 0 0 0 0 0 0 0 0 0 0 0 0 0 0 0 127 0" result="hardAlpha"/>
<feOffset dy="6"/>
<feGaussianBlur stdDeviation="12"/>
<feColorMatrix type="matrix" values="0 0 0 0 0 0 0 0 0 0 0 0 0 0 0 0 0 0 0.2 0"/>
<feBlend mode="normal" in2="BackgroundImageFix" result="effect1_dropShadow_68_4778"/>
<feBlend mode="normal" in="SourceGraphic" in2="effect1_dropShadow_68_4778" result="shape"/>
</filter>
<radialGradient id="paint0_angular_68_4778" cx="0" cy="0" r="1" gradientUnits="userSpaceOnUse" gradientTransform="translate(118.319 56.8571) rotate(45.0072) scale(227.862 264.787)">
<stop offset="0.111699" stop-color="#236CFF"/>
<stop offset="0.588904" stop-color="#38E8F6"/>
<stop offset="0.889986" stop-color="#5DABFF"/>
</radialGradient>
<clipPath id="clip0_68_4778">
<rect width="339" height="196" fill="white"/>
</clipPath>
</defs>
</svg>
