<?xml version="1.0" encoding="utf-8"?>
<!-- Generator: Adobe Illustrator 26.3.1, SVG Export Plug-In . SVG Version: 6.00 Build 0)  -->
<svg version="1.1" id="Layer_1" xmlns="http://www.w3.org/2000/svg" xmlns:xlink="http://www.w3.org/1999/xlink" x="0px" y="0px"
	 viewBox="0 0 254 100" style="enable-background:new 0 0 254 100;" xml:space="preserve">
<style type="text/css">
	.st0{clip-path:url(#SVGID_00000145774009575541512080000012721677990899798445_);}
	.st1{fill:#FFFFFF;}
	.st2{clip-path:url(#SVGID_00000003067859632294676960000000532846404526210449_);}
	.st3{fill:#FFFFFF;stroke:#C5CED4;stroke-width:2;stroke-miterlimit:10;}
	.st4{display:none;fill:none;stroke:#205EA3;stroke-width:2;}
	.st5{display:none;fill:#205EA3;}
	.st6{clip-path:url(#SVGID_00000129928448509981122750000018107980611973208235_);}
	.st7{clip-path:url(#SVGID_00000125593690470626948080000015533272028964691085_);fill:#C3CED5;}
	.st8{clip-path:url(#SVGID_00000093164508150254739690000008952821531232731836_);}
	.st9{fill:#F0F4F6;}
	.st10{fill:#C3CED5;}
</style>
<g>
	<defs>
		<rect id="SVGID_1_" width="255" height="100"/>
	</defs>
	<clipPath id="SVGID_00000075154791581890900760000000349128369343885238_">
		<use xlink:href="#SVGID_1_"  style="overflow:visible;"/>
	</clipPath>
	<g style="clip-path:url(#SVGID_00000075154791581890900760000000349128369343885238_);">
		<rect x="-986" class="st1" width="1241" height="100"/>
		<g>
			<defs>
				<rect id="SVGID_00000040570405377819629410000016268927052991653052_" x="-986" width="1241" height="60"/>
			</defs>
			<clipPath id="SVGID_00000177477621096983571360000015119802733500484524_">
				<use xlink:href="#SVGID_00000040570405377819629410000016268927052991653052_"  style="overflow:visible;"/>
			</clipPath>
			<g style="clip-path:url(#SVGID_00000177477621096983571360000015119802733500484524_);">
				<rect x="-986" y="-52.8" class="st3" width="1241" height="112.8"/>
				<path class="st4" d="M145,19h90c1.7,0,3,1.3,3,3v16c0,1.7-1.3,3-3,3h-90c-1.7,0-3-1.3-3-3V22C142,20.3,143.3,19,145,19z"/>
				<path class="st5" d="M150,34v-8.5h1.5v7.2h3.6V34H150z M156.1,34v-5.8h1.4V34H156.1z M155.9,26.3c0-0.5,0.4-0.9,0.9-0.9
					s0.9,0.4,0.9,0.9c0,0.5-0.4,0.9-0.9,0.9S155.9,26.7,155.9,26.3z M160.8,34l-2.3-5.8h1.6l1.5,4.2h0l1.5-4.2h1.5l-2.3,5.8H160.8z
					 M166.6,30.5h3c0-0.7-0.4-1.4-1.4-1.4C167.3,29.2,166.6,29.7,166.6,30.5z M170.9,31.2c0,0.1,0,0.3,0,0.4h-4.4
					c0.1,0.8,0.8,1.4,1.6,1.4c0.7,0,1.2-0.3,1.5-0.7l1,0.8c-0.6,0.8-1.4,1.2-2.5,1.2c-1.8,0-3.1-1.1-3.1-3c0-1.9,1.3-3.1,3-3.1
					C169.8,28.1,170.9,29.1,170.9,31.2z M175.5,29.4h-1v-1.2h1v-1.7h1.4v1.7h1.4v1.2h-1.4v2.7c0,0.5,0.1,0.9,0.8,0.9
					c0.2,0,0.4,0,0.6-0.1l0,1.1c-0.3,0.1-0.6,0.2-1,0.2c-1.5,0-1.9-0.9-1.9-2V29.4z M183,34v-0.7h0c-0.3,0.5-1,0.9-1.8,0.9
					c-0.9,0-2.2-0.4-2.2-1.8c0-1.7,2.2-2,4-2v-0.1c0-0.7-0.6-1.1-1.3-1.1c-0.6,0-1.2,0.3-1.6,0.7l-0.7-0.9c0.6-0.6,1.6-0.9,2.4-0.9
					c2.1,0,2.6,1.3,2.6,2.4V34H183z M183,31.6v-0.2h-0.3c-0.9,0-2.2,0.1-2.2,1c0,0.6,0.5,0.7,1,0.7C182.4,33.1,183,32.5,183,31.6z
					 M185.1,34l2.3-3.1l-2.1-2.7h1.7l1.2,1.8l1.3-1.8h1.7l-2.1,2.7l2.4,3.1h-1.8l-1.5-2.1l-1.5,2.1H185.1z M199,34v-0.7h0
					c-0.3,0.5-1,0.9-1.8,0.9c-0.9,0-2.2-0.4-2.2-1.8c0-1.7,2.2-2,4-2v-0.1c0-0.7-0.6-1.1-1.3-1.1c-0.6,0-1.2,0.3-1.6,0.7l-0.7-0.9
					c0.6-0.6,1.6-0.9,2.4-0.9c2.1,0,2.6,1.3,2.6,2.4V34H199z M199,31.6v-0.2h-0.3c-0.9,0-2.2,0.1-2.2,1c0,0.6,0.5,0.7,1,0.7
					C198.5,33.1,199,32.5,199,31.6z M207.9,24.9V34h-1.4v-0.9h0c-0.4,0.7-1.2,1-2,1c-1.8,0-2.8-1.4-2.8-3.1c0-1.7,1.2-3,2.8-3
					c1.1,0,1.6,0.5,1.9,0.9h0v-4H207.9z M203.2,31.1c0,0.9,0.5,1.9,1.7,1.9c1.1,0,1.7-0.9,1.7-1.8c0-0.9-0.6-1.9-1.7-1.9
					C203.7,29.2,203.2,30.2,203.2,31.1z M211.1,34l-2.3-5.8h1.6l1.5,4.2h0l1.5-4.2h1.5l-2.3,5.8H211.1z M215.8,34v-5.8h1.4V34H215.8
					z M215.6,26.3c0-0.5,0.4-0.9,0.9-0.9s0.9,0.4,0.9,0.9c0,0.5-0.4,0.9-0.9,0.9S215.6,26.7,215.6,26.3z M223.9,29l-1,0.9
					c-0.2-0.3-0.7-0.6-1.2-0.6c-1.1,0-1.6,0.9-1.6,1.8c0,0.9,0.5,1.8,1.6,1.8c0.4,0,0.9-0.2,1.2-0.5l0.9,0.9
					c-0.5,0.5-1.3,0.8-2.1,0.8c-1.7,0-3.1-1.1-3.1-3c0-1.9,1.4-3,3.1-3C222.6,28.1,223.5,28.4,223.9,29z M226,30.5h3
					c0-0.7-0.4-1.4-1.4-1.4C226.7,29.2,226,29.7,226,30.5z M230.4,31.2c0,0.1,0,0.3,0,0.4H226c0.1,0.8,0.8,1.4,1.6,1.4
					c0.7,0,1.2-0.3,1.5-0.7l1,0.8c-0.6,0.8-1.4,1.2-2.5,1.2c-1.8,0-3.1-1.1-3.1-3c0-1.9,1.3-3.1,3-3.1
					C229.2,28.1,230.4,29.1,230.4,31.2z"/>
			</g>
		</g>
		<g>
			<defs>
				<polygon id="SVGID_00000061438100206164867580000011098667754884407967_" points="1,1 2,1 1,2 				"/>
			</defs>
			<defs>
				<polygon id="SVGID_00000075860279943465873140000015430794005179814325_" points="-1,-1 -2,-1 -1,-2 				"/>
			</defs>
			<clipPath id="SVGID_00000139975364676221541710000007333733995960616096_">
				<use xlink:href="#SVGID_00000061438100206164867580000011098667754884407967_"  style="overflow:visible;"/>
			</clipPath>
			
				<clipPath id="SVGID_00000183209429676121756830000017456488091896221827_" style="clip-path:url(#SVGID_00000139975364676221541710000007333733995960616096_);">
				<use xlink:href="#SVGID_00000075860279943465873140000015430794005179814325_"  style="overflow:visible;"/>
			</clipPath>
			<path style="clip-path:url(#SVGID_00000183209429676121756830000017456488091896221827_);fill:#C3CED5;" d="M255,59H-986v2H255
				V59z"/>
		</g>
		<g>
			<defs>
				<rect id="SVGID_00000068668370152849143500000010037300612805184172_" x="-986" y="60" width="1241" height="40"/>
			</defs>
			<clipPath id="SVGID_00000073719705447704966530000009009554936588888753_">
				<use xlink:href="#SVGID_00000068668370152849143500000010037300612805184172_"  style="overflow:visible;"/>
			</clipPath>
			<g style="clip-path:url(#SVGID_00000073719705447704966530000009009554936588888753_);">
				<rect x="-986" y="60" class="st1" width="1241" height="40"/>
				<path class="st9" d="M33.6,93c0.3-0.7,1-1.1,1.8-1.1h24.8l-3.6,7c-0.3,0.7-1,1.1-1.8,1.1H30L33.6,93z"/>
				<path class="st9" d="M115.2,84.2c0.3-0.7,1-1.1,1.8-1.1h24.8l-3.7,7.3c-0.3,0.7-1,1.1-1.8,1.1h-24.8L115.2,84.2z"/>
				<path class="st9" d="M136.3,93c0.3-0.7,1-1.1,1.8-1.1h24.8l-3.6,7c-0.3,0.7-1,1.1-1.8,1.1h-24.8L136.3,93z"/>
				<path class="st9" d="M187.7,93c0.3-0.7,1-1.1,1.8-1.1h24.8l-3.6,7c-0.3,0.7-1,1.1-1.8,1.1H184L187.7,93z"/>
				<path class="st9" d="M239,93c0.3-0.7,1-1.1,1.8-1.1h24.8l-3.6,7c-0.3,0.7-1,1.1-1.8,1.1h-24.8L239,93z"/>
				<path class="st9" d="M85,93c0.3-0.7,1-1.1,1.8-1.1h24.8l-3.6,7c-0.3,0.7-1,1.1-1.8,1.1H81.3L85,93z"/>
				<path class="st9" d="M145.4,76.8c0.3-0.7,1-1.1,1.8-1.1h24.8l-3.6,7c-0.3,0.7-1,1.1-1.8,1.1h-24.8L145.4,76.8z"/>
				<path class="st9" d="M175.6,68.7c0.3-0.7,1-1.1,1.8-1.1h24.8l-3.6,7c-0.3,0.7-1,1.1-1.8,1.1h-24.8L175.6,68.7z"/>
				<path class="st9" d="M205.8,60.6c0.3-0.7,1-1.1,1.8-1.1h24.8l-3.6,7c-0.3,0.7-1,1.1-1.8,1.1h-24.8L205.8,60.6z"/>
				<path class="st9" d="M63.9,84.9c0.3-0.7,1-1.1,1.8-1.1h24.8l-3.6,7c-0.3,0.7-1,1.1-1.8,1.1H60.2L63.9,84.9z"/>
				<path class="st9" d="M12.6,84.9c0.3-0.7,1-1.1,1.8-1.1h24.8l-3.6,7c-0.3,0.7-1,1.1-1.8,1.1H9L12.6,84.9z"/>
				<path class="st9" d="M166.5,84.9c0.3-0.7,1-1.1,1.8-1.1h24.8l-3.6,7c-0.3,0.7-1,1.1-1.8,1.1h-24.8L166.5,84.9z"/>
				<path class="st9" d="M217.9,84.9c0.3-0.7,1-1.1,1.8-1.1h24.8l-3.6,7c-0.3,0.7-1,1.1-1.8,1.1h-24.8L217.9,84.9z"/>
				<path class="st9" d="M42.7,76.8c0.3-0.7,1-1.1,1.8-1.1h24.8l-3.6,7c-0.3,0.7-1,1.1-1.8,1.1H39.1L42.7,76.8z"/>
				<path class="st9" d="M72.9,68.7c0.3-0.7,1-1.1,1.8-1.1h24.8l-3.6,7c-0.3,0.7-1,1.1-1.8,1.1H69.3L72.9,68.7z"/>
				<path class="st9" d="M103.1,60.6c0.3-0.7,1-1.1,1.8-1.1h24.8l-3.6,7c-0.3,0.7-1,1.1-1.8,1.1H99.5L103.1,60.6z"/>
				<path class="st9" d="M94.1,76.8c0.3-0.7,1-1.1,1.8-1.1h24.8l-3.6,7c-0.3,0.7-1,1.1-1.8,1.1H90.4L94.1,76.8z"/>
				<path class="st9" d="M196.7,76.8c0.3-0.7,1-1.1,1.8-1.1h24.8l-3.6,7c-0.3,0.7-1,1.1-1.8,1.1h-24.8L196.7,76.8z"/>
				<path class="st9" d="M248.1,76.8c0.3-0.7,1-1.1,1.8-1.1h24.8l-3.6,7c-0.3,0.7-1,1.1-1.8,1.1h-24.8L248.1,76.8z"/>
				<path class="st9" d="M124.3,68.7c0.3-0.7,1-1.1,1.8-1.1h24.8l-3.6,7c-0.3,0.7-1,1.1-1.8,1.1h-24.8L124.3,68.7z"/>
				<path class="st9" d="M226.9,68.7c0.3-0.7,1-1.1,1.8-1.1h24.8l-3.6,7c-0.3,0.7-1,1.1-1.8,1.1h-24.8L226.9,68.7z"/>
				<path class="st9" d="M154.5,60.6c0.3-0.7,1-1.1,1.8-1.1H181l-3.6,7c-0.3,0.7-1,1.1-1.8,1.1h-24.8L154.5,60.6z"/>
				<path class="st9" d="M257.1,60.6c0.3-0.7,1-1.1,1.8-1.1h24.8l-3.6,7c-0.3,0.7-1,1.1-1.8,1.1h-24.8L257.1,60.6z"/>
				<rect x="-986" y="99" class="st10" width="1241" height="1"/>
			</g>
		</g>
	</g>
</g>
</svg>
