<svg width="859" height="100" viewBox="0 0 859 100" fill="none" xmlns="http://www.w3.org/2000/svg">
<g clip-path="url(#clip0_1_41917)">
<rect width="1241" height="100" fill="white"/>
<g clip-path="url(#clip1_1_41917)">
<rect width="1241" height="60" fill="white"/>
<rect x="21" y="19" width="124" height="22" rx="3" stroke="url(#paint0_angular_1_41917)" stroke-width="2"/>
<rect x="20" y="18" width="126" height="24" rx="4" fill="white"/>
<path d="M28 25.6667H29V26.6667C29 26.8435 29.0702 27.0131 29.1953 27.1381C29.3203 27.2631 29.4899 27.3334 29.6667 27.3334C29.8435 27.3334 30.013 27.2631 30.1381 27.1381C30.2631 27.0131 30.3333 26.8435 30.3333 26.6667V25.6667H31.3333C31.5101 25.6667 31.6797 25.5964 31.8047 25.4714C31.9298 25.3464 32 25.1768 32 25C32 24.8232 31.9298 24.6536 31.8047 24.5286C31.6797 24.4036 31.5101 24.3334 31.3333 24.3334H30.3333V23.3334C30.3333 23.1565 30.2631 22.987 30.1381 22.8619C30.013 22.7369 29.8435 22.6667 29.6667 22.6667C29.4899 22.6667 29.3203 22.7369 29.1953 22.8619C29.0702 22.987 29 23.1565 29 23.3334V24.3334H28C27.8232 24.3334 27.6536 24.4036 27.5286 24.5286C27.4036 24.6536 27.3333 24.8232 27.3333 25C27.3333 25.1768 27.4036 25.3464 27.5286 25.4714C27.6536 25.5964 27.8232 25.6667 28 25.6667Z" fill="#2B3135"/>
<path d="M38.6667 32H38V31.3334C38 31.1565 37.9298 30.987 37.8047 30.8619C37.6797 30.7369 37.5101 30.6667 37.3333 30.6667C37.1565 30.6667 36.987 30.7369 36.8619 30.8619C36.7369 30.987 36.6667 31.1565 36.6667 31.3334V32H36C35.8232 32 35.6536 32.0703 35.5286 32.1953C35.4036 32.3203 35.3333 32.4899 35.3333 32.6667C35.3333 32.8435 35.4036 33.0131 35.5286 33.1381C35.6536 33.2631 35.8232 33.3334 36 33.3334H36.6667V34C36.6667 34.1768 36.7369 34.3464 36.8619 34.4714C36.987 34.5964 37.1565 34.6667 37.3333 34.6667C37.5101 34.6667 37.6797 34.5964 37.8047 34.4714C37.9298 34.3464 38 34.1768 38 34V33.3334H38.6667C38.8435 33.3334 39.0131 33.2631 39.1381 33.1381C39.2631 33.0131 39.3333 32.8435 39.3333 32.6667C39.3333 32.4899 39.2631 32.3203 39.1381 32.1953C39.0131 32.0703 38.8435 32 38.6667 32Z" fill="#2B3135"/>
<path d="M38 26.6667C38.3682 26.6667 38.6667 26.3682 38.6667 26C38.6667 25.6318 38.3682 25.3334 38 25.3334C37.6318 25.3334 37.3333 25.6318 37.3333 26C37.3333 26.3682 37.6318 26.6667 38 26.6667Z" fill="#2B3135"/>
<path d="M36.0947 26.8483L35.1521 25.9056C34.9016 25.6563 34.5625 25.5163 34.2091 25.5163C33.8556 25.5163 33.5165 25.6563 33.2661 25.9056L25.7241 33.4476C25.6002 33.5715 25.5019 33.7185 25.4349 33.8803C25.3678 34.0421 25.3333 34.2155 25.3333 34.3906C25.3333 34.5658 25.3678 34.7392 25.4349 34.901C25.5019 35.0628 25.6002 35.2098 25.7241 35.3336L26.6667 36.2763C26.9168 36.5263 27.2558 36.6667 27.6094 36.6667C27.9629 36.6667 28.302 36.5263 28.5521 36.2763L36.0947 28.7336C36.3447 28.4836 36.4851 28.1445 36.4851 27.791C36.4851 27.4374 36.3447 27.0983 36.0947 26.8483ZM27.6094 35.3336L26.6667 34.391L27.6074 33.4503L28.5501 34.393L27.6094 35.3336ZM29.4927 33.4503L28.5501 32.5076L32.3261 28.7336L33.2687 29.677L29.4927 33.4503ZM34.2121 28.7336L33.7401 28.2603L33.2667 27.7883L34.2074 26.8483L35.1501 27.791L34.2121 28.7336Z" fill="#2B3135"/>
<path d="M45.2251 34V25.504H50.8531V26.824H46.7371V28.984H50.6371V30.256H46.7371V32.656H51.0691V34H45.2251ZM51.6013 34L53.9413 30.94L51.8653 28.24H53.5933L54.8413 30.028L56.1253 28.24H57.7813L55.7173 30.94L58.0693 34H56.3173L54.8173 31.9L53.3053 34H51.6013ZM58.9226 28.24H60.3026V29.044H60.3386C60.6266 28.588 61.2746 28.072 62.3306 28.072C63.9746 28.072 65.1266 29.392 65.1266 31.096C65.1266 32.776 64.0466 34.168 62.2946 34.168C61.4906 34.168 60.7586 33.808 60.3866 33.232H60.3626V36.88H58.9226V28.24ZM63.6626 31.096C63.6626 30.196 63.1226 29.248 62.0066 29.248C60.9506 29.248 60.3146 30.22 60.3146 31.12C60.3146 32.02 60.9506 32.968 62.0066 32.968C63.1226 32.968 63.6626 31.996 63.6626 31.096ZM66.5403 34V24.928H67.9803V34H66.5403ZM73.3033 34V33.268H73.2673C72.9793 33.772 72.2953 34.144 71.4793 34.144C70.5553 34.144 69.3193 33.7 69.3193 32.356C69.3193 30.64 71.4793 30.4 73.2793 30.4V30.256C73.2793 29.548 72.6793 29.2 71.9593 29.2C71.3473 29.2 70.7593 29.488 70.3873 29.86L69.6433 28.984C70.2913 28.384 71.2033 28.072 72.0793 28.072C74.1433 28.072 74.6473 29.344 74.6473 30.496V34H73.3033ZM73.2793 31.576V31.372H72.9553C72.0433 31.372 70.7593 31.48 70.7593 32.332C70.7593 32.884 71.2753 33.052 71.7673 33.052C72.7513 33.052 73.2793 32.488 73.2793 31.576ZM76.3489 34V28.24H77.7889V34H76.3489ZM76.1449 26.284C76.1449 25.828 76.5289 25.42 77.0569 25.42C77.5849 25.42 77.9929 25.792 77.9929 26.284C77.9929 26.776 77.5849 27.148 77.0569 27.148C76.5289 27.148 76.1449 26.74 76.1449 26.284ZM79.5359 34V28.24H80.9039V29.164H80.9279C81.1799 28.588 81.8639 28.072 82.7159 28.072C84.2159 28.072 84.8399 29.224 84.8399 30.4V34H83.3999V30.808C83.3999 30.124 83.2439 29.272 82.3199 29.272C81.4079 29.272 80.9759 30.064 80.9759 30.832V34H79.5359ZM96.3963 28.072C97.8963 28.072 98.5203 29.224 98.5203 30.4V34H97.0803V30.808C97.0803 30.124 96.9243 29.272 96.0003 29.272C95.1003 29.272 94.7283 30.112 94.7283 30.856V34H93.2883V30.52C93.2883 29.812 92.9523 29.272 92.2203 29.272C91.3563 29.272 90.9603 30.064 90.9603 30.832V34H89.5203V28.24H90.8883V29.164H90.9123C91.1643 28.6 91.7763 28.072 92.7003 28.072C93.5883 28.072 94.1763 28.516 94.5003 29.164C94.8843 28.468 95.5323 28.072 96.3963 28.072ZM101.804 34L99.332 28.24H100.928L102.536 32.428H102.56L103.988 28.24H105.488L102.764 35.236C102.356 36.28 101.852 36.88 100.58 36.88C100.34 36.88 100.088 36.856 99.836 36.796L99.956 35.548C100.148 35.608 100.34 35.632 100.496 35.632C101.108 35.632 101.276 35.332 101.516 34.732L101.804 34ZM109.528 29.392H108.52V28.24H109.528V26.572H110.944V28.24H112.384V29.392H110.944V32.068C110.944 32.584 111.064 32.956 111.7 32.956C111.892 32.956 112.144 32.92 112.312 32.836L112.36 33.964C112.108 34.06 111.724 34.12 111.4 34.12C109.876 34.12 109.528 33.184 109.528 32.08V29.392ZM117.003 34V33.268H116.967C116.679 33.772 115.995 34.144 115.179 34.144C114.255 34.144 113.019 33.7 113.019 32.356C113.019 30.64 115.179 30.4 116.979 30.4V30.256C116.979 29.548 116.379 29.2 115.659 29.2C115.047 29.2 114.459 29.488 114.087 29.86L113.343 28.984C113.991 28.384 114.903 28.072 115.779 28.072C117.843 28.072 118.347 29.344 118.347 30.496V34H117.003ZM116.979 31.576V31.372H116.655C115.743 31.372 114.459 31.48 114.459 32.332C114.459 32.884 114.975 33.052 115.467 33.052C116.451 33.052 116.979 32.488 116.979 31.576ZM119.148 34L121.488 30.94L119.412 28.24H121.14L122.388 30.028L123.672 28.24H125.328L123.264 30.94L125.616 34H123.864L122.364 31.9L120.852 34H119.148ZM127.456 30.544H130.408C130.408 29.8 129.988 29.152 129.052 29.152C128.2 29.152 127.516 29.74 127.456 30.544ZM131.848 31.192C131.848 31.324 131.848 31.444 131.836 31.576H127.456C127.516 32.392 128.26 32.992 129.1 32.992C129.82 32.992 130.3 32.704 130.624 32.248L131.584 33.016C131.02 33.784 130.204 34.168 129.112 34.168C127.336 34.168 126.016 33.028 126.016 31.156C126.016 29.296 127.324 28.072 129.064 28.072C130.672 28.072 131.848 29.116 131.848 31.192ZM137.335 28.948L136.399 29.776C136.147 29.44 135.667 29.152 135.139 29.152C134.683 29.152 134.215 29.32 134.215 29.776C134.215 30.22 134.659 30.34 135.463 30.532C136.315 30.736 137.323 31.12 137.323 32.248C137.323 33.652 136.183 34.168 134.923 34.168C134.035 34.168 133.111 33.832 132.559 33.22L133.507 32.332C133.819 32.74 134.359 33.052 134.983 33.052C135.403 33.052 135.907 32.884 135.907 32.368C135.907 31.888 135.463 31.744 134.587 31.54C133.735 31.336 132.883 30.988 132.883 29.908C132.883 28.624 134.035 28.072 135.175 28.072C136.003 28.072 136.867 28.36 137.335 28.948Z" fill="#2B3135"/>
<path d="M165.646 26.124L164.68 27.132C164.092 26.488 163.126 26.054 161.992 26.054C159.668 26.054 158.212 27.86 158.212 30.03C158.212 32.242 159.668 34.006 162.034 34.006C162.958 34.006 163.77 33.824 164.344 33.516V30.758H162.146V29.582H165.716V34.384C164.68 34.944 163.448 35.252 161.992 35.252C158.898 35.252 156.7 33.082 156.7 30.03C156.7 26.936 158.968 24.836 161.978 24.836C163.546 24.836 164.834 25.34 165.646 26.124ZM168.94 31.094H172.888C172.86 30.044 172.244 29.218 171.026 29.218C169.892 29.218 169.024 30.058 168.94 31.094ZM174.218 31.626C174.218 31.766 174.218 31.92 174.204 32.074H168.94C168.982 33.208 169.934 34.09 171.096 34.09C171.992 34.09 172.65 33.642 173.028 33.082L173.952 33.824C173.238 34.748 172.272 35.182 171.096 35.182C169.08 35.182 167.596 33.782 167.596 31.696C167.596 29.624 169.08 28.182 171.026 28.182C172.986 28.182 174.218 29.512 174.218 31.626ZM179.304 28.364V29.442H177.54V32.9C177.54 33.698 177.82 34.02 178.478 34.02C178.716 34.02 179.024 33.964 179.248 33.852L179.29 34.93C178.982 35.042 178.576 35.112 178.17 35.112C176.924 35.112 176.238 34.412 176.238 33.04V29.442H174.964V28.364H176.238V26.46H177.54V28.364H179.304ZM188.293 30.884V30.702C188.293 29.722 187.635 29.246 186.655 29.246C185.913 29.246 185.213 29.568 184.765 30.016L184.065 29.176C184.709 28.56 185.703 28.182 186.781 28.182C188.685 28.182 189.553 29.316 189.553 30.786V33.684C189.553 34.132 189.581 34.678 189.651 35H188.461C188.391 34.706 188.349 34.356 188.349 34.048H188.307C187.831 34.762 187.075 35.168 186.081 35.168C185.031 35.168 183.673 34.65 183.673 33.124C183.673 31.122 186.053 30.884 188.293 30.884ZM188.293 31.836H187.971C186.669 31.836 185.017 31.976 185.017 33.096C185.017 33.88 185.717 34.132 186.375 34.132C187.607 34.132 188.293 33.306 188.293 32.186V31.836ZM191.695 28.364H192.941C192.969 28.7 192.997 29.176 192.997 29.456H193.039C193.361 28.742 194.243 28.182 195.195 28.182C196.903 28.182 197.673 29.4 197.673 30.884V35H196.357V31.318C196.357 30.24 196.063 29.288 194.845 29.288C193.809 29.288 193.067 30.156 193.067 31.472V35H191.751V29.792C191.751 29.442 191.737 28.798 191.695 28.364ZM204.624 32.564L203.63 35H202.09L206.388 25.088H207.648L211.904 35H210.336L209.328 32.564H204.624ZM206.976 26.698L205.114 31.346H208.824L206.976 26.698ZM214.563 25.088V35H213.177V25.088H214.563ZM219.637 31.024V32.144H216.389V31.024H219.637ZM222.708 34.006V38.36H221.392V28.364H222.68V29.4H222.722C223.156 28.7 224.024 28.182 225.116 28.182C227.09 28.182 228.434 29.708 228.434 31.668C228.434 33.614 227.132 35.182 225.088 35.182C224.15 35.182 223.24 34.748 222.75 34.006H222.708ZM227.076 31.668C227.076 30.422 226.306 29.274 224.864 29.274C223.52 29.274 222.624 30.408 222.624 31.682C222.624 32.956 223.52 34.076 224.864 34.076C226.306 34.076 227.076 32.914 227.076 31.668ZM236.985 31.668C236.985 33.712 235.431 35.182 233.401 35.182C231.371 35.182 229.831 33.712 229.831 31.668C229.831 29.624 231.371 28.182 233.401 28.182C235.431 28.182 236.985 29.624 236.985 31.668ZM235.613 31.668C235.613 30.408 234.829 29.274 233.401 29.274C231.987 29.274 231.189 30.408 231.189 31.668C231.189 32.928 231.987 34.076 233.401 34.076C234.829 34.076 235.613 32.928 235.613 31.668ZM237.872 28.364H239.3L240.798 33.432H240.826L242.408 28.364H243.794L245.404 33.432H245.432L246.93 28.364H248.316L246.118 35H244.746L243.108 30.016H243.08L241.456 35H240.084L237.872 28.364ZM250.548 31.094H254.496C254.468 30.044 253.852 29.218 252.634 29.218C251.5 29.218 250.632 30.058 250.548 31.094ZM255.826 31.626C255.826 31.766 255.826 31.92 255.812 32.074H250.548C250.59 33.208 251.542 34.09 252.704 34.09C253.6 34.09 254.258 33.642 254.636 33.082L255.56 33.824C254.846 34.748 253.88 35.182 252.704 35.182C250.688 35.182 249.204 33.782 249.204 31.696C249.204 29.624 250.688 28.182 252.634 28.182C254.594 28.182 255.826 29.512 255.826 31.626ZM257.663 29.792C257.663 29.442 257.649 28.798 257.607 28.364H258.853C258.881 28.7 258.909 29.204 258.909 29.484H258.951C259.315 28.714 260.085 28.182 260.981 28.182C261.163 28.182 261.345 28.196 261.499 28.238L261.443 29.456C261.275 29.414 261.051 29.386 260.841 29.386C259.581 29.386 258.979 30.408 258.979 31.514V35H257.663V29.792ZM263.399 31.094H267.347C267.319 30.044 266.703 29.218 265.485 29.218C264.351 29.218 263.483 30.058 263.399 31.094ZM268.677 31.626C268.677 31.766 268.677 31.92 268.663 32.074H263.399C263.441 33.208 264.393 34.09 265.555 34.09C266.451 34.09 267.109 33.642 267.487 33.082L268.411 33.824C267.697 34.748 266.731 35.182 265.555 35.182C263.539 35.182 262.055 33.782 262.055 31.696C262.055 29.624 263.539 28.182 265.485 28.182C267.445 28.182 268.677 29.512 268.677 31.626ZM275.807 33.95C275.303 34.748 274.351 35.182 273.413 35.182C271.369 35.182 270.067 33.614 270.067 31.668C270.067 29.708 271.411 28.182 273.399 28.182C274.477 28.182 275.303 28.714 275.765 29.358H275.793V24.416H277.109V35H275.835V33.95H275.807ZM271.439 31.668C271.439 32.914 272.195 34.076 273.637 34.076C274.981 34.076 275.877 32.956 275.877 31.682C275.877 30.408 274.981 29.274 273.637 29.274C272.195 29.274 271.439 30.422 271.439 31.668ZM289.622 31.668C289.622 33.712 288.068 35.182 286.038 35.182C284.008 35.182 282.468 33.712 282.468 31.668C282.468 29.624 284.008 28.182 286.038 28.182C288.068 28.182 289.622 29.624 289.622 31.668ZM288.25 31.668C288.25 30.408 287.466 29.274 286.038 29.274C284.624 29.274 283.826 30.408 283.826 31.668C283.826 32.928 284.624 34.076 286.038 34.076C287.466 34.076 288.25 32.928 288.25 31.668ZM297.229 28.364L294.569 35H293.141L290.439 28.364H291.895L293.841 33.586H293.869L295.829 28.364H297.229ZM299.411 31.094H303.359C303.331 30.044 302.715 29.218 301.497 29.218C300.363 29.218 299.495 30.058 299.411 31.094ZM304.689 31.626C304.689 31.766 304.689 31.92 304.675 32.074H299.411C299.453 33.208 300.405 34.09 301.567 34.09C302.463 34.09 303.121 33.642 303.499 33.082L304.423 33.824C303.709 34.748 302.743 35.182 301.567 35.182C299.551 35.182 298.067 33.782 298.067 31.696C298.067 29.624 299.551 28.182 301.497 28.182C303.457 28.182 304.689 29.512 304.689 31.626ZM306.527 29.792C306.527 29.442 306.513 28.798 306.471 28.364H307.717C307.745 28.7 307.773 29.204 307.773 29.484H307.815C308.179 28.714 308.949 28.182 309.845 28.182C310.027 28.182 310.209 28.196 310.363 28.238L310.307 29.456C310.139 29.414 309.915 29.386 309.705 29.386C308.445 29.386 307.843 30.408 307.843 31.514V35H306.527V29.792ZM317.381 28.364L314.721 35H313.293L310.591 28.364H312.047L313.993 33.586H314.021L315.981 28.364H317.381ZM319.984 28.364V35H318.668V28.364H319.984ZM320.208 25.97C320.208 26.446 319.802 26.81 319.326 26.81C318.85 26.81 318.458 26.432 318.458 25.97C318.458 25.494 318.85 25.116 319.326 25.116C319.802 25.116 320.208 25.48 320.208 25.97ZM323.187 31.094H327.135C327.107 30.044 326.491 29.218 325.273 29.218C324.139 29.218 323.271 30.058 323.187 31.094ZM328.465 31.626C328.465 31.766 328.465 31.92 328.451 32.074H323.187C323.229 33.208 324.181 34.09 325.343 34.09C326.239 34.09 326.897 33.642 327.275 33.082L328.199 33.824C327.485 34.748 326.519 35.182 325.343 35.182C323.327 35.182 321.843 33.782 321.843 31.696C321.843 29.624 323.327 28.182 325.273 28.182C327.233 28.182 328.465 29.512 328.465 31.626ZM329.364 28.364H330.792L332.29 33.432H332.318L333.9 28.364H335.286L336.896 33.432H336.924L338.422 28.364H339.808L337.61 35H336.238L334.6 30.016H334.572L332.948 35H331.576L329.364 28.364ZM351.35 31.668C351.35 33.712 349.796 35.182 347.766 35.182C345.736 35.182 344.196 33.712 344.196 31.668C344.196 29.624 345.736 28.182 347.766 28.182C349.796 28.182 351.35 29.624 351.35 31.668ZM349.978 31.668C349.978 30.408 349.194 29.274 347.766 29.274C346.352 29.274 345.554 30.408 345.554 31.668C345.554 32.928 346.352 34.076 347.766 34.076C349.194 34.076 349.978 32.928 349.978 31.668ZM356.297 28.364V29.442H354.757V35H353.441V29.442H352.125V28.364H353.441V26.978C353.441 25.424 354.127 24.248 355.919 24.248C356.227 24.248 356.493 24.276 356.745 24.346L356.591 25.48C356.395 25.424 356.185 25.382 355.933 25.382C354.939 25.382 354.757 26.166 354.757 26.978V28.364H356.297ZM361.813 28.364L363.871 33.572H363.899L365.733 28.364H367.133L363.913 36.568C363.479 37.674 362.919 38.36 361.617 38.36C361.337 38.36 361.043 38.332 360.749 38.262L360.875 37.1C361.085 37.17 361.323 37.212 361.533 37.212C362.219 37.212 362.485 36.82 362.765 36.106L363.185 35L360.343 28.364H361.813ZM375.125 31.668C375.125 33.712 373.571 35.182 371.541 35.182C369.511 35.182 367.971 33.712 367.971 31.668C367.971 29.624 369.511 28.182 371.541 28.182C373.571 28.182 375.125 29.624 375.125 31.668ZM373.753 31.668C373.753 30.408 372.969 29.274 371.541 29.274C370.127 29.274 369.329 30.408 369.329 31.668C369.329 32.928 370.127 34.076 371.541 34.076C372.969 34.076 373.753 32.928 373.753 31.668ZM382.872 35H381.626C381.598 34.664 381.57 34.188 381.57 33.908H381.542C381.206 34.608 380.338 35.182 379.372 35.182C377.664 35.182 376.894 33.964 376.894 32.48V28.364H378.21V32.032C378.21 33.124 378.504 34.076 379.722 34.076C380.772 34.076 381.5 33.208 381.5 31.892V28.364H382.816V33.572C382.816 33.922 382.83 34.566 382.872 35ZM385.099 29.792C385.099 29.442 385.085 28.798 385.043 28.364H386.289C386.317 28.7 386.345 29.204 386.345 29.484H386.387C386.751 28.714 387.521 28.182 388.417 28.182C388.599 28.182 388.781 28.196 388.935 28.238L388.879 29.456C388.711 29.414 388.487 29.386 388.277 29.386C387.017 29.386 386.415 30.408 386.415 31.514V35H385.099V29.792ZM393.671 29.792C393.671 29.442 393.657 28.798 393.615 28.364H394.861C394.889 28.7 394.917 29.204 394.917 29.484H394.959C395.323 28.714 396.093 28.182 396.989 28.182C397.171 28.182 397.353 28.196 397.507 28.238L397.451 29.456C397.283 29.414 397.059 29.386 396.849 29.386C395.589 29.386 394.987 30.408 394.987 31.514V35H393.671V29.792ZM399.407 31.094H403.355C403.327 30.044 402.711 29.218 401.493 29.218C400.359 29.218 399.491 30.058 399.407 31.094ZM404.685 31.626C404.685 31.766 404.685 31.92 404.671 32.074H399.407C399.449 33.208 400.401 34.09 401.563 34.09C402.459 34.09 403.117 33.642 403.495 33.082L404.419 33.824C403.705 34.748 402.739 35.182 401.563 35.182C399.547 35.182 398.063 33.782 398.063 31.696C398.063 29.624 399.547 28.182 401.493 28.182C403.453 28.182 404.685 29.512 404.685 31.626ZM409.645 28.364V29.442H408.105V35H406.789V29.442H405.473V28.364H406.789V26.978C406.789 25.424 407.475 24.248 409.267 24.248C409.575 24.248 409.841 24.276 410.093 24.346L409.939 25.48C409.743 25.424 409.533 25.382 409.281 25.382C408.287 25.382 408.105 26.166 408.105 26.978V28.364H409.645ZM416.779 35H415.533C415.505 34.664 415.477 34.188 415.477 33.908H415.449C415.113 34.608 414.245 35.182 413.279 35.182C411.571 35.182 410.801 33.964 410.801 32.48V28.364H412.117V32.032C412.117 33.124 412.411 34.076 413.629 34.076C414.679 34.076 415.407 33.208 415.407 31.892V28.364H416.723V33.572C416.723 33.922 416.737 34.566 416.779 35ZM418.949 28.364H420.195C420.223 28.7 420.251 29.176 420.251 29.456H420.293C420.615 28.742 421.497 28.182 422.449 28.182C424.157 28.182 424.927 29.4 424.927 30.884V35H423.611V31.318C423.611 30.24 423.317 29.288 422.099 29.288C421.063 29.288 420.321 30.156 420.321 31.472V35H419.005V29.792C419.005 29.442 418.991 28.798 418.949 28.364ZM432.446 33.95C431.942 34.748 430.99 35.182 430.052 35.182C428.008 35.182 426.706 33.614 426.706 31.668C426.706 29.708 428.05 28.182 430.038 28.182C431.116 28.182 431.942 28.714 432.404 29.358H432.432V24.416H433.748V35H432.474V33.95H432.446ZM428.078 31.668C428.078 32.914 428.834 34.076 430.276 34.076C431.62 34.076 432.516 32.956 432.516 31.682C432.516 30.408 431.62 29.274 430.276 29.274C428.834 29.274 428.078 30.422 428.078 31.668Z" fill="#393A3D"/>
</g>
<path d="M1241 59H0V61H1241V59Z" fill="#C3CED5" mask="url(#path-1-inside-1_1_41917)"/>
<g clip-path="url(#clip2_1_41917)">
<rect width="1241" height="40" transform="translate(0 60)" fill="white"/>
<path d="M40.94 77.77L38 69.66C37.9529 69.5057 37.8692 69.3651 37.756 69.2502C37.6429 69.1353 37.5035 69.0494 37.35 69C37.1927 68.9583 37.0276 68.9557 36.869 68.9923C36.7104 69.0288 36.5631 69.1036 36.44 69.21L36 69.6C34.44 71 32.63 71.13 30.55 71.34C29.0874 71.4277 27.6422 71.7033 26.25 72.16C25.2659 72.5213 24.3548 73.0565 23.56 73.74L23.35 73.91C23.1976 74.0414 23.0884 74.2158 23.0367 74.4102C22.9849 74.6047 22.9931 74.8102 23.06 75L26 83.12L28.59 90.34C28.6581 90.5286 28.7812 90.6923 28.9435 90.81C29.1058 90.9277 29.2996 90.9939 29.5 91C29.616 90.9999 29.731 90.9796 29.84 90.94C30.0892 90.8497 30.2924 90.6642 30.4049 90.4242C30.5175 90.1842 30.5301 89.9093 30.44 89.66L28.09 83.1C29.64 81.83 31.41 81.64 33.45 81.44C35.68 81.21 38.2 80.96 40.45 79.04L40.65 78.87C40.8044 78.7378 40.9148 78.5618 40.9667 78.3653C41.0185 78.1687 41.0092 77.9611 40.94 77.77V77.77ZM30.75 73.33C31.53 73.25 32.33 73.17 33.12 73.02L34.18 76.02C33.42 76.16 32.65 76.24 31.89 76.32C31.13 76.4 30.44 76.47 29.73 76.59L28.67 73.59C29.34 73.48 30 73.4 30.75 73.33ZM26.33 78.21C27.29 77.5117 28.3992 77.0462 29.57 76.85L30.63 79.85C29.4688 80.0664 28.3633 80.5154 27.38 81.17L26.33 78.21ZM35.58 79.14L34.52 76.14C35.6824 75.9219 36.7882 75.4694 37.77 74.81L38.82 77.75C37.8641 78.4612 36.7541 78.9374 35.58 79.14V79.14Z" fill="#3C4348"/>
<path d="M54.544 88H50.384L48.832 83.856H48.384L47.68 88H44.112L46.112 76.672H50.768C53.248 76.672 54.816 77.808 54.816 79.808C54.816 81.664 53.872 82.928 52.336 83.376L54.544 88ZM49.568 81.504C50.544 81.504 51.136 81.184 51.136 80.464C51.136 79.808 50.64 79.6 49.856 79.6H49.168L48.832 81.504H49.568ZM59.6861 84.816L59.7341 84.544H59.5261C58.4701 84.544 57.5741 84.768 57.5741 85.44C57.5741 85.92 57.9581 86.016 58.3101 86.016C59.0141 86.016 59.5581 85.52 59.6861 84.816ZM62.5021 86.704C62.4221 87.168 62.3901 87.728 62.3901 88H59.3181C59.3181 87.856 59.3341 87.44 59.3501 87.232H59.3181C58.6941 87.936 57.8941 88.224 56.9501 88.224C55.7661 88.224 54.4381 87.584 54.4381 86C54.4381 83.408 56.9821 82.72 59.8301 82.72C59.8461 82.64 59.8461 82.576 59.8461 82.544C59.8461 82.112 59.4301 81.888 58.8381 81.888C58.1661 81.888 57.4941 82.176 56.9661 82.624L55.3981 80.832C56.4381 79.856 58.0381 79.328 59.3181 79.328C61.8621 79.328 63.1741 80.432 63.1741 82.288C63.1741 82.704 63.1261 83.152 63.0461 83.616L62.5021 86.704ZM71.6684 80.448L69.6364 82.672C69.4924 82.464 69.0924 82.224 68.5644 82.224C67.4924 82.224 66.7884 83.04 66.7884 84.016C66.7884 84.656 67.2204 85.248 68.1484 85.248C68.6764 85.248 69.1404 85.008 69.3804 84.768L70.8044 87.184C69.9564 87.856 68.9004 88.256 67.4924 88.256C65.0124 88.256 63.3484 86.784 63.3484 84.496C63.3484 81.728 65.4604 79.328 68.5484 79.328C69.8284 79.328 71.0444 79.696 71.6684 80.448ZM79.7949 84.624H74.0669C74.0509 84.672 74.0509 84.704 74.0509 84.736C74.0509 85.44 74.9149 85.632 75.4269 85.632C75.9549 85.632 76.4989 85.456 76.8989 85.072L79.3149 86.736C78.2109 87.856 76.7069 88.256 75.1869 88.256C72.7869 88.256 70.7709 86.976 70.7709 84.432C70.7709 81.568 72.9309 79.328 76.0349 79.328C78.4989 79.328 80.0189 80.768 80.0189 83.088C80.0189 83.552 79.9389 84.16 79.7949 84.624ZM76.8989 82.72C76.9149 82.656 76.9149 82.576 76.9149 82.528C76.9149 82 76.4989 81.648 75.7949 81.648C74.9149 81.648 74.3709 82.304 74.2589 82.72H76.8989ZM93.956 88H90.356L91.62 81.44H91.524L88.18 88H85.572L84.564 81.44H84.484L83.508 88H80.052L82.052 76.672H86.772L87.764 82.88H87.844L90.788 76.672H95.956L93.956 88ZM100.067 88.256C97.5069 88.256 95.4909 86.944 95.4909 84.496C95.4909 81.664 97.3949 79.328 100.707 79.328C103.331 79.328 105.347 80.64 105.347 83.088C105.347 85.92 103.443 88.256 100.067 88.256ZM101.859 83.472C101.859 82.784 101.427 82.256 100.595 82.256C99.6189 82.256 98.9789 83.104 98.9789 84.096C98.9789 84.8 99.4269 85.312 100.227 85.312C101.251 85.312 101.859 84.48 101.859 83.472ZM108.805 88.208C106.597 88.208 105.413 86.608 105.413 84.608C105.413 81.744 107.397 79.392 110.101 79.392C110.917 79.392 111.845 79.744 112.245 80.32H112.277L113.045 75.904H116.613L114.485 88H111.269L111.429 87.104H111.397C110.917 87.744 109.989 88.208 108.805 88.208ZM108.901 84.096C108.901 84.784 109.349 85.312 110.181 85.312C111.157 85.312 111.813 84.464 111.813 83.472C111.813 82.768 111.349 82.256 110.549 82.256C109.525 82.256 108.901 83.088 108.901 84.096ZM124.844 84.624H119.116C119.1 84.672 119.1 84.704 119.1 84.736C119.1 85.44 119.964 85.632 120.476 85.632C121.004 85.632 121.548 85.456 121.948 85.072L124.364 86.736C123.26 87.856 121.756 88.256 120.236 88.256C117.836 88.256 115.82 86.976 115.82 84.432C115.82 81.568 117.98 79.328 121.084 79.328C123.548 79.328 125.068 80.768 125.068 83.088C125.068 83.552 124.988 84.16 124.844 84.624ZM121.948 82.72C121.964 82.656 121.964 82.576 121.964 82.528C121.964 82 121.548 81.648 120.844 81.648C119.964 81.648 119.42 82.304 119.308 82.72H121.948Z" fill="#3C4348"/>
<rect x="158" y="70" width="36" height="20" rx="10" fill="#3C4348"/>
<g filter="url(#filter0_dd_1_41917)">
<path d="M184 89C188.971 89 193 84.9706 193 80C193 75.0294 188.971 71 184 71C179.029 71 175 75.0294 175 80C175 84.9706 179.029 89 184 89Z" fill="white"/>
</g>
<path d="M209.8 87H206.52L208.38 76.5L205.38 78.46L204.16 75.98L209.22 72.84H212.3L209.8 87Z" fill="#3C4348"/>
<path d="M221.958 87H219.718L220.376 83.22C220.418 83.024 220.446 82.8 220.446 82.632C220.446 82.114 220.208 81.694 219.522 81.694C218.71 81.694 218.192 82.394 218.052 83.248L217.38 87H215.14L217.002 76.416H219.256L218.458 80.938H218.486C218.878 80.364 219.62 79.846 220.558 79.846C222.112 79.846 222.784 80.826 222.784 81.96C222.784 82.212 222.77 82.478 222.714 82.716L221.958 87Z" fill="#3C4348"/>
<path d="M233.8 78.48C235.6 78.48 236.58 77.78 236.58 76.54C236.58 75.68 235.96 75.14 234.98 75.14C233.94 75.14 233.2 75.66 232.78 76.54L230.1 75.46C231.08 73.4 233.06 72.46 235.24 72.46C237.58 72.46 239.84 73.62 239.84 76.22C239.84 78.2 238.36 79.26 237.04 79.58V79.62C238.38 80 239.22 81.16 239.22 82.56C239.22 85.74 236.54 87.38 233.58 87.38C230.98 87.38 229 86.14 228.38 83.78L231.42 82.96C231.7 84.02 232.52 84.6 233.7 84.6C235 84.6 235.9 83.88 235.9 82.72C235.9 81.32 234.68 80.88 233.26 80.88H232.38L232.78 78.48H233.8ZM246.831 75.64L246.311 77.96C246.671 77.88 247.231 77.82 247.651 77.82C249.751 77.82 252.131 78.88 252.131 81.98C252.131 85.7 249.191 87.38 246.511 87.38C243.831 87.38 241.851 86.02 241.231 83.98L244.231 83C244.531 83.94 245.371 84.58 246.451 84.58C247.851 84.58 248.811 83.7 248.811 82.3C248.811 80.82 247.631 80.26 246.271 80.26C245.231 80.26 243.871 80.56 242.791 80.96L244.511 72.84H252.871L252.351 75.64H246.831Z" fill="#3C4348"/>
<path d="M255.106 81.47C255.176 81.12 255.274 80.476 255.316 80.028H257.458C257.444 80.252 257.374 80.756 257.346 81.036H257.374C257.78 80.434 258.48 79.846 259.488 79.846C260.58 79.846 261.252 80.35 261.504 81.078C262.036 80.35 262.778 79.846 263.814 79.846C265.424 79.846 266.124 80.91 266.124 82.044C266.124 82.268 266.11 82.492 266.068 82.702L265.298 87H263.058L263.716 83.22C263.758 83.024 263.786 82.814 263.786 82.632C263.786 82.1 263.534 81.68 262.876 81.68C262.092 81.68 261.602 82.45 261.462 83.248L260.804 87H258.55L259.25 83.01C259.278 82.87 259.292 82.73 259.292 82.618C259.292 82.072 259.026 81.68 258.452 81.68C257.696 81.68 257.192 82.38 257.052 83.22L256.38 87H254.14L255.106 81.47Z" fill="#3C4348"/>
<path d="M276.508 78.3L271.132 87.564L270.22 87.204L275.596 77.928L276.508 78.3ZM282.768 87H281.352L282.552 80.22L280.632 81.6L279.96 80.52L282.9 78.504H284.268L282.768 87ZM291.509 87H290.105L290.657 83.832C290.693 83.64 290.717 83.448 290.717 83.256C290.717 82.74 290.489 82.284 289.769 82.284C288.857 82.284 288.329 83.064 288.185 83.868L287.633 87H286.229L287.825 77.928H289.241L288.509 82.056H288.533C288.845 81.552 289.457 81.084 290.309 81.084C291.581 81.084 292.193 81.9 292.193 82.872C292.193 83.052 292.181 83.232 292.145 83.412L291.509 87ZM299.128 79.764L298.72 81.624C298.948 81.564 299.32 81.516 299.62 81.516C300.808 81.516 302.224 82.2 302.224 84.024C302.224 86.184 300.64 87.216 299.044 87.216C297.616 87.216 296.56 86.46 296.224 85.512L297.508 84.984C297.712 85.584 298.264 85.992 298.996 85.992C300.136 85.992 300.772 85.212 300.772 84.18C300.772 83.124 299.944 82.668 299.092 82.668C298.48 82.668 297.76 82.872 297.184 83.184L298.108 78.504H302.644L302.392 79.764H299.128ZM306.453 79.764L306.045 81.624C306.273 81.564 306.645 81.516 306.945 81.516C308.133 81.516 309.549 82.2 309.549 84.024C309.549 86.184 307.965 87.216 306.369 87.216C304.941 87.216 303.885 86.46 303.549 85.512L304.833 84.984C305.037 85.584 305.589 85.992 306.321 85.992C307.461 85.992 308.097 85.212 308.097 84.18C308.097 83.124 307.269 82.668 306.417 82.668C305.805 82.668 305.085 82.872 304.509 83.184L305.433 78.504H309.969L309.717 79.764H306.453ZM311.677 82.476C311.737 82.176 311.821 81.624 311.857 81.24H313.177C313.165 81.408 313.105 81.888 313.069 82.14H313.093C313.441 81.6 313.993 81.084 314.869 81.084C315.817 81.084 316.417 81.564 316.597 82.212C317.089 81.516 317.761 81.084 318.637 81.084C319.969 81.084 320.569 81.9 320.569 82.872C320.569 83.052 320.557 83.232 320.521 83.412L319.885 87H318.481L319.033 83.832C319.069 83.64 319.093 83.448 319.093 83.256C319.093 82.74 318.865 82.272 318.133 82.272C317.233 82.272 316.717 83.112 316.585 83.856L316.033 87H314.617L315.229 83.52C315.253 83.4 315.265 83.292 315.265 83.196C315.265 82.656 314.989 82.272 314.377 82.272C313.513 82.272 312.985 83.064 312.853 83.832L312.289 87H310.885L311.677 82.476Z" fill="#5D686F"/>
<rect x="354" y="68" width="480" height="8" rx="4" fill="#DFDFD8"/>
<rect x="354" y="68" width="170.39" height="8" rx="4" fill="url(#paint1_linear_1_41917)"/>
<path d="M426.886 68H428.886L426.886 76H424.886L426.886 68Z" fill="white"/>
<path d="M632.274 68H634.274L632.274 76H630.274L632.274 68Z" fill="white"/>
<path d="M761.063 68H763.063L761.063 76H759.063L761.063 68Z" fill="white"/>
<path opacity="0.8" d="M363.456 92H361.992L363.216 85.148H363.18L359.352 92H358.32L356.94 85.148H356.916L355.704 92H354.3L355.8 83.504H358.104L359.256 89.588H359.28L362.604 83.504H364.944L363.456 92ZM371.555 86.24L367.475 93.248C366.887 94.28 366.383 94.88 365.267 94.88C365.027 94.88 364.775 94.856 364.535 94.796L364.715 93.572C364.895 93.632 365.087 93.656 365.243 93.656C365.771 93.656 365.999 93.356 366.347 92.756L366.779 92.012L365.483 86.24H366.995L367.739 90.464H367.763L370.067 86.24H371.555ZM375.765 92H374.361L375.369 86.24H376.785L375.765 92ZM377.253 84.26C377.253 84.728 376.881 85.136 376.401 85.136C375.945 85.136 375.561 84.836 375.561 84.308C375.561 83.804 375.981 83.432 376.437 83.432C376.893 83.432 377.253 83.756 377.253 84.26ZM379.745 87.14H379.769C380.165 86.516 380.789 86.084 381.641 86.084C382.913 86.084 383.525 86.9 383.525 87.872C383.525 88.052 383.513 88.232 383.477 88.412L382.841 92H381.437L381.989 88.832C382.025 88.64 382.049 88.448 382.049 88.256C382.049 87.74 381.821 87.284 381.101 87.284C380.189 87.284 379.661 88.064 379.529 88.832L378.965 92H377.561L378.353 87.476C378.413 87.176 378.497 86.624 378.533 86.24H379.853C379.841 86.408 379.781 86.876 379.745 87.14ZM389.236 82.868L388.936 84.068C388.792 84.02 388.648 83.984 388.444 83.984C387.664 83.984 387.412 84.704 387.304 85.292L387.136 86.24H388.492L388.288 87.368H386.956L386.14 92H384.772L385.588 87.368H384.496L384.688 86.24H385.756L385.924 85.364C386.164 84.092 386.788 82.784 388.528 82.784C388.828 82.784 389.032 82.808 389.236 82.868ZM391.303 92.156C389.695 92.156 388.519 91.136 388.519 89.648C388.519 87.764 389.887 86.084 391.999 86.084C393.619 86.084 394.795 87.092 394.795 88.58C394.795 90.5 393.427 92.156 391.303 92.156ZM393.379 88.724C393.379 87.872 392.815 87.236 391.903 87.236C390.703 87.236 389.911 88.292 389.911 89.504C389.911 90.368 390.451 90.992 391.375 90.992C392.587 90.992 393.379 89.948 393.379 88.724Z" fill="#5D686F"/>
<path opacity="0.8" d="M433.739 84.8H429.959L429.539 87.152H433.091L432.875 88.4H429.323L428.687 92H427.211L428.711 83.504H433.967L433.739 84.8ZM438.957 89.564H434.685C434.673 89.624 434.673 89.66 434.673 89.696C434.673 90.452 435.333 91.016 436.185 91.016C436.917 91.016 437.421 90.716 437.829 90.26L438.633 91.016C437.925 91.784 437.061 92.168 436.029 92.168C434.469 92.168 433.329 91.232 433.329 89.612C433.329 87.632 434.745 86.084 436.701 86.084C438.081 86.084 439.101 86.864 439.101 88.388C439.101 88.64 439.053 89.168 438.957 89.564ZM437.805 88.556C437.817 88.448 437.829 88.352 437.829 88.256C437.829 87.632 437.361 87.14 436.569 87.14C435.585 87.14 434.949 87.932 434.817 88.556H437.805ZM445.311 87.164L446.031 82.928H447.447L445.839 92H444.507L444.651 91.088H444.615C444.159 91.76 443.391 92.144 442.539 92.144C441.063 92.144 440.103 91.136 440.103 89.66C440.103 87.68 441.423 86.084 443.271 86.084C444.315 86.084 444.951 86.504 445.287 87.164H445.311ZM441.543 89.492C441.543 90.332 442.047 90.992 442.959 90.992C444.087 90.992 444.975 89.948 444.975 88.724C444.975 87.848 444.399 87.224 443.511 87.224C442.323 87.224 441.543 88.232 441.543 89.492ZM453.336 89.564H449.064C449.052 89.624 449.052 89.66 449.052 89.696C449.052 90.452 449.712 91.016 450.564 91.016C451.296 91.016 451.8 90.716 452.208 90.26L453.012 91.016C452.304 91.784 451.44 92.168 450.408 92.168C448.848 92.168 447.708 91.232 447.708 89.612C447.708 87.632 449.124 86.084 451.08 86.084C452.46 86.084 453.48 86.864 453.48 88.388C453.48 88.64 453.432 89.168 453.336 89.564ZM452.184 88.556C452.196 88.448 452.208 88.352 452.208 88.256C452.208 87.632 451.74 87.14 450.948 87.14C449.964 87.14 449.328 87.932 449.196 88.556H452.184ZM456.57 87.2H456.594C456.99 86.54 457.53 86.084 458.286 86.084C458.394 86.084 458.538 86.096 458.634 86.12L458.442 87.428C458.262 87.38 458.142 87.368 458.01 87.368C456.714 87.368 456.39 88.496 456.318 88.916L455.778 92H454.374L455.178 87.476C455.238 87.176 455.322 86.624 455.358 86.24H456.678C456.666 86.408 456.606 86.936 456.57 87.2ZM462.367 88.352C462.403 88.16 462.403 88.076 462.403 87.98C462.403 87.428 462.031 87.2 461.335 87.2C460.771 87.2 460.135 87.44 459.667 87.776L459.127 86.828C459.775 86.36 460.663 86.084 461.539 86.084C462.643 86.084 463.771 86.516 463.771 87.824C463.771 87.968 463.747 88.208 463.723 88.364L463.303 90.704C463.231 91.148 463.159 91.688 463.159 92H461.863C461.863 91.784 461.887 91.556 461.935 91.316H461.911C461.467 91.844 460.843 92.12 460.039 92.12C459.235 92.12 458.227 91.784 458.227 90.596C458.227 88.7 460.471 88.352 462.367 88.352ZM462.235 89.36H462.067C460.987 89.36 459.583 89.48 459.583 90.368C459.583 90.92 460.051 91.088 460.519 91.088C461.395 91.088 462.019 90.476 462.163 89.72L462.235 89.36ZM466.208 92H464.804L466.4 82.928H467.816L466.208 92Z" fill="#5D686F"/>
<path opacity="0.8" d="M639.213 84.392L638.133 85.256C637.809 84.752 637.257 84.512 636.657 84.512C636.045 84.512 635.097 84.86 635.097 85.82C635.097 86.42 635.553 86.72 636.273 86.984C637.749 87.524 638.589 88.208 638.589 89.504C638.589 91.448 636.897 92.216 635.301 92.216C634.185 92.216 632.973 91.784 632.373 90.836L633.573 90.008C633.885 90.572 634.593 90.968 635.373 90.968C636.165 90.968 637.029 90.608 637.029 89.6C637.029 88.82 636.321 88.46 635.493 88.16C634.473 87.788 633.597 87.248 633.597 85.928C633.597 84.224 635.145 83.288 636.813 83.288C637.665 83.288 638.697 83.66 639.213 84.392ZM640.549 87.38H639.529L639.733 86.24H640.729L641.017 84.56H642.409L642.121 86.24H643.417L643.213 87.38H641.941L641.437 90.092C641.413 90.212 641.401 90.332 641.401 90.428C641.401 90.848 641.677 90.98 642.085 90.98C642.277 90.98 642.469 90.944 642.625 90.896L642.541 91.964C642.301 92.06 641.941 92.12 641.665 92.12C640.453 92.12 639.985 91.58 639.985 90.788C639.985 90.572 640.009 90.284 640.057 90.056L640.549 87.38ZM647.663 88.352C647.699 88.16 647.699 88.076 647.699 87.98C647.699 87.428 647.327 87.2 646.631 87.2C646.067 87.2 645.431 87.44 644.963 87.776L644.423 86.828C645.071 86.36 645.959 86.084 646.835 86.084C647.939 86.084 649.067 86.516 649.067 87.824C649.067 87.968 649.043 88.208 649.019 88.364L648.599 90.704C648.527 91.148 648.455 91.688 648.455 92H647.159C647.159 91.784 647.183 91.556 647.231 91.316H647.207C646.763 91.844 646.139 92.12 645.335 92.12C644.531 92.12 643.523 91.784 643.523 90.596C643.523 88.7 645.767 88.352 647.663 88.352ZM647.531 89.36H647.363C646.283 89.36 644.879 89.48 644.879 90.368C644.879 90.92 645.347 91.088 645.815 91.088C646.691 91.088 647.315 90.476 647.459 89.72L647.531 89.36ZM650.979 87.38H649.959L650.163 86.24H651.159L651.447 84.56H652.839L652.551 86.24H653.847L653.643 87.38H652.371L651.867 90.092C651.843 90.212 651.831 90.332 651.831 90.428C651.831 90.848 652.107 90.98 652.515 90.98C652.707 90.98 652.899 90.944 653.055 90.896L652.971 91.964C652.731 92.06 652.371 92.12 652.095 92.12C650.883 92.12 650.415 91.58 650.415 90.788C650.415 90.572 650.439 90.284 650.487 90.056L650.979 87.38ZM659.761 89.564H655.489C655.477 89.624 655.477 89.66 655.477 89.696C655.477 90.452 656.137 91.016 656.989 91.016C657.721 91.016 658.225 90.716 658.633 90.26L659.437 91.016C658.729 91.784 657.865 92.168 656.833 92.168C655.273 92.168 654.133 91.232 654.133 89.612C654.133 87.632 655.549 86.084 657.505 86.084C658.885 86.084 659.905 86.864 659.905 88.388C659.905 88.64 659.857 89.168 659.761 89.564ZM658.609 88.556C658.621 88.448 658.633 88.352 658.633 88.256C658.633 87.632 658.165 87.14 657.373 87.14C656.389 87.14 655.753 87.932 655.621 88.556H658.609Z" fill="#5D686F"/>
<path opacity="0.8" d="M766.105 88.208L767.869 92H766.201L764.593 88.376H763.465L762.841 92H761.389L762.889 83.504H765.409C767.269 83.504 768.337 84.332 768.337 85.7C768.337 87.056 767.461 87.908 766.105 88.208ZM764.785 87.164C766.069 87.164 766.813 86.756 766.813 85.856C766.813 85.016 766.177 84.752 765.181 84.752H764.113L763.681 87.164H764.785ZM774.388 89.564H770.116C770.104 89.624 770.104 89.66 770.104 89.696C770.104 90.452 770.764 91.016 771.616 91.016C772.348 91.016 772.852 90.716 773.26 90.26L774.064 91.016C773.356 91.784 772.492 92.168 771.46 92.168C769.9 92.168 768.76 91.232 768.76 89.612C768.76 87.632 770.176 86.084 772.132 86.084C773.512 86.084 774.532 86.864 774.532 88.388C774.532 88.64 774.484 89.168 774.388 89.564ZM773.236 88.556C773.248 88.448 773.26 88.352 773.26 88.256C773.26 87.632 772.792 87.14 772 87.14C771.016 87.14 770.38 87.932 770.248 88.556H773.236ZM781.618 86.24L778.198 92H776.686L775.558 86.24H777.034L777.706 90.464H777.73L780.13 86.24H781.618ZM782.889 92H781.485L782.493 86.24H783.909L782.889 92ZM784.377 84.26C784.377 84.728 784.005 85.136 783.525 85.136C783.069 85.136 782.685 84.836 782.685 84.308C782.685 83.804 783.105 83.432 783.561 83.432C784.017 83.432 784.377 83.756 784.377 84.26ZM790.384 89.564H786.112C786.1 89.624 786.1 89.66 786.1 89.696C786.1 90.452 786.76 91.016 787.612 91.016C788.344 91.016 788.848 90.716 789.256 90.26L790.06 91.016C789.352 91.784 788.488 92.168 787.456 92.168C785.896 92.168 784.756 91.232 784.756 89.612C784.756 87.632 786.172 86.084 788.128 86.084C789.508 86.084 790.528 86.864 790.528 88.388C790.528 88.64 790.48 89.168 790.384 89.564ZM789.232 88.556C789.244 88.448 789.256 88.352 789.256 88.256C789.256 87.632 788.788 87.14 787.996 87.14C787.012 87.14 786.376 87.932 786.244 88.556H789.232ZM801.046 86.24L797.914 92H796.474L795.958 87.932H795.934L793.786 92H792.346L791.554 86.24H793.03L793.426 90.38H793.45L795.514 86.24H796.99L797.458 90.38H797.482L799.57 86.24H801.046Z" fill="#5D686F"/>
<rect width="1241" height="1" transform="matrix(1 0 0 -1 0 100)" fill="#C3CED5"/>
</g>
</g>
<defs>
<filter id="filter0_dd_1_41917" x="165" y="66" width="38" height="38" filterUnits="userSpaceOnUse" color-interpolation-filters="sRGB">
<feFlood flood-opacity="0" result="BackgroundImageFix"/>
<feColorMatrix in="SourceAlpha" type="matrix" values="0 0 0 0 0 0 0 0 0 0 0 0 0 0 0 0 0 0 127 0" result="hardAlpha"/>
<feOffset dy="2"/>
<feGaussianBlur stdDeviation="1"/>
<feColorMatrix type="matrix" values="0 0 0 0 0 0 0 0 0 0 0 0 0 0 0 0 0 0 0.3 0"/>
<feBlend mode="normal" in2="BackgroundImageFix" result="effect1_dropShadow_1_41917"/>
<feColorMatrix in="SourceAlpha" type="matrix" values="0 0 0 0 0 0 0 0 0 0 0 0 0 0 0 0 0 0 127 0" result="hardAlpha"/>
<feOffset dy="5"/>
<feGaussianBlur stdDeviation="5"/>
<feColorMatrix type="matrix" values="0 0 0 0 0 0 0 0 0 0 0 0 0 0 0 0 0 0 0.1 0"/>
<feBlend mode="normal" in2="effect1_dropShadow_1_41917" result="effect2_dropShadow_1_41917"/>
<feBlend mode="normal" in="SourceGraphic" in2="effect2_dropShadow_1_41917" result="shape"/>
</filter>
<radialGradient id="paint0_angular_1_41917" cx="0" cy="0" r="1" gradientUnits="userSpaceOnUse" gradientTransform="translate(101.786 30.639) rotate(163.337) scale(45.1016 28.113)">
<stop offset="0.239269" stop-color="#236CFF"/>
<stop offset="0.385749" stop-color="#3492EF"/>
<stop offset="0.572169" stop-color="#00D0E0"/>
<stop offset="0.8279" stop-color="#236CFF"/>
</radialGradient>
<linearGradient id="paint1_linear_1_41917" x1="354" y1="72" x2="521.727" y2="72" gradientUnits="userSpaceOnUse">
<stop stop-color="#50FBD4"/>
<stop offset="1" stop-color="#00A286"/>
</linearGradient>
<clipPath id="clip0_1_41917">
<rect width="860" height="100" fill="white"/>
</clipPath>
<clipPath id="clip1_1_41917">
<path d="M0 0H1241V60H0V0Z" fill="white"/>
</clipPath>
<clipPath id="clip2_1_41917">
<rect width="1241" height="40" fill="white" transform="translate(0 60)"/>
</clipPath>
</defs>
</svg>
