<svg width="254" height="100" viewBox="0 0 254 100" fill="none" xmlns="http://www.w3.org/2000/svg">
<g clip-path="url(#clip0_1_41917)">
<rect width="1241" height="100" transform="translate(-986)" fill="white"/>
<g clip-path="url(#clip1_1_41917)">
<rect width="1241" height="60" transform="translate(-986)" fill="white"/>
<rect x="142" y="19" width="96" height="22" rx="3" stroke="#205EA3" stroke-width="2"/>
<path d="M150.026 34V25.504H151.538V32.656H155.15V34H150.026ZM156.107 34V28.24H157.547V34H156.107ZM155.903 26.284C155.903 25.828 156.287 25.42 156.815 25.42C157.343 25.42 157.751 25.792 157.751 26.284C157.751 26.776 157.343 27.148 156.815 27.148C156.287 27.148 155.903 26.74 155.903 26.284ZM160.758 34L158.43 28.24H160.002L161.514 32.44H161.538L163.062 28.24H164.586L162.294 34H160.758ZM166.55 30.544H169.502C169.502 29.8 169.082 29.152 168.146 29.152C167.294 29.152 166.61 29.74 166.55 30.544ZM170.942 31.192C170.942 31.324 170.942 31.444 170.93 31.576H166.55C166.61 32.392 167.354 32.992 168.194 32.992C168.914 32.992 169.394 32.704 169.718 32.248L170.678 33.016C170.114 33.784 169.298 34.168 168.206 34.168C166.43 34.168 165.11 33.028 165.11 31.156C165.11 29.296 166.418 28.072 168.158 28.072C169.766 28.072 170.942 29.116 170.942 31.192ZM175.517 29.392H174.509V28.24H175.517V26.572H176.933V28.24H178.373V29.392H176.933V32.068C176.933 32.584 177.053 32.956 177.689 32.956C177.881 32.956 178.133 32.92 178.301 32.836L178.349 33.964C178.097 34.06 177.713 34.12 177.389 34.12C175.865 34.12 175.517 33.184 175.517 32.08V29.392ZM182.991 34V33.268H182.955C182.667 33.772 181.983 34.144 181.167 34.144C180.243 34.144 179.007 33.7 179.007 32.356C179.007 30.64 181.167 30.4 182.967 30.4V30.256C182.967 29.548 182.367 29.2 181.647 29.2C181.035 29.2 180.447 29.488 180.075 29.86L179.331 28.984C179.979 28.384 180.891 28.072 181.767 28.072C183.831 28.072 184.335 29.344 184.335 30.496V34H182.991ZM182.967 31.576V31.372H182.643C181.731 31.372 180.447 31.48 180.447 32.332C180.447 32.884 180.963 33.052 181.455 33.052C182.439 33.052 182.967 32.488 182.967 31.576ZM185.136 34L187.476 30.94L185.4 28.24H187.128L188.376 30.028L189.66 28.24H191.316L189.252 30.94L191.604 34H189.852L188.352 31.9L186.84 34H185.136ZM199.034 34V33.268H198.998C198.71 33.772 198.026 34.144 197.21 34.144C196.286 34.144 195.05 33.7 195.05 32.356C195.05 30.64 197.21 30.4 199.01 30.4V30.256C199.01 29.548 198.41 29.2 197.69 29.2C197.078 29.2 196.49 29.488 196.118 29.86L195.374 28.984C196.022 28.384 196.934 28.072 197.81 28.072C199.874 28.072 200.378 29.344 200.378 30.496V34H199.034ZM199.01 31.576V31.372H198.686C197.774 31.372 196.49 31.48 196.49 32.332C196.49 32.884 197.006 33.052 197.498 33.052C198.482 33.052 199.01 32.488 199.01 31.576ZM207.911 24.928V34H206.543V33.136H206.519C206.123 33.796 205.343 34.168 204.539 34.168C202.787 34.168 201.707 32.776 201.707 31.096C201.707 29.392 202.859 28.072 204.503 28.072C205.559 28.072 206.135 28.6 206.435 28.972H206.471V24.928H207.911ZM203.171 31.096C203.171 31.996 203.711 32.968 204.827 32.968C205.883 32.968 206.519 32.02 206.519 31.12C206.519 30.22 205.883 29.248 204.827 29.248C203.711 29.248 203.171 30.196 203.171 31.096ZM211.125 34L208.797 28.24H210.369L211.881 32.44H211.905L213.429 28.24H214.953L212.661 34H211.125ZM215.837 34V28.24H217.277V34H215.837ZM215.633 26.284C215.633 25.828 216.017 25.42 216.545 25.42C217.073 25.42 217.481 25.792 217.481 26.284C217.481 26.776 217.073 27.148 216.545 27.148C216.017 27.148 215.633 26.74 215.633 26.284ZM223.944 28.972L222.96 29.836C222.732 29.512 222.24 29.272 221.772 29.272C220.716 29.272 220.188 30.22 220.188 31.12C220.188 32.02 220.728 32.968 221.82 32.968C222.264 32.968 222.756 32.788 223.032 32.452L223.932 33.364C223.452 33.88 222.66 34.168 221.808 34.168C220.104 34.168 218.688 33.04 218.688 31.12C218.688 29.248 220.08 28.072 221.772 28.072C222.612 28.072 223.488 28.408 223.944 28.972ZM225.988 30.544H228.94C228.94 29.8 228.52 29.152 227.584 29.152C226.732 29.152 226.048 29.74 225.988 30.544ZM230.38 31.192C230.38 31.324 230.38 31.444 230.368 31.576H225.988C226.048 32.392 226.792 32.992 227.632 32.992C228.352 32.992 228.832 32.704 229.156 32.248L230.116 33.016C229.552 33.784 228.736 34.168 227.644 34.168C225.868 34.168 224.548 33.028 224.548 31.156C224.548 29.296 225.856 28.072 227.596 28.072C229.204 28.072 230.38 29.116 230.38 31.192Z" fill="#205EA3"/>
</g>
<path d="M255 59H-986V61H255V59Z" fill="#C3CED5" mask="url(#path-1-inside-1_1_41917)"/>
<g clip-path="url(#clip2_1_41917)">
<rect width="1241" height="40" transform="translate(-986 60)" fill="white"/>
<path d="M33.6482 92.9855C33.9925 92.3235 34.6765 91.9082 35.4226 91.9082H60.2019L56.5537 98.9237C56.2095 99.5856 55.5254 100.001 54.7793 100.001H30L33.6482 92.9855Z" fill="#F0F4F6"/>
<path d="M115.202 84.2463C115.541 83.5682 116.233 83.1396 116.991 83.1396H141.748L138.092 90.4629C137.753 91.1411 137.061 91.5696 136.303 91.5696H111.546L115.202 84.2463Z" fill="#F0F4F6"/>
<path d="M136.335 92.9855C136.68 92.3235 137.364 91.9082 138.11 91.9082H162.889L159.241 98.9237C158.897 99.5856 158.213 100.001 157.466 100.001H132.687L136.335 92.9855Z" fill="#F0F4F6"/>
<path d="M187.678 92.9855C188.023 92.3235 188.707 91.9082 189.453 91.9082H214.232L210.584 98.9237C210.24 99.5856 209.556 100.001 208.809 100.001H184.03L187.678 92.9855Z" fill="#F0F4F6"/>
<path d="M239.02 92.9855C239.365 92.3235 240.049 91.9082 240.795 91.9082H265.574L261.926 98.9237C261.582 99.5856 260.898 100.001 260.151 100.001H235.372L239.02 92.9855Z" fill="#F0F4F6"/>
<path d="M84.9912 92.9855C85.3355 92.3235 86.0196 91.9082 86.7657 91.9082H111.545L107.897 98.9237C107.552 99.5856 106.868 100.001 106.122 100.001H81.343L84.9912 92.9855Z" fill="#F0F4F6"/>
<path d="M145.395 76.798C145.739 76.136 146.423 75.7207 147.169 75.7207H171.949L168.3 82.7362C167.956 83.3981 167.272 83.8134 166.526 83.8134H141.747L145.395 76.798Z" fill="#F0F4F6"/>
<path d="M175.597 68.7052C175.941 68.0432 176.625 67.6279 177.371 67.6279H202.151L198.502 74.6434C198.158 75.3053 197.474 75.7206 196.728 75.7206H171.949L175.597 68.7052Z" fill="#F0F4F6"/>
<path d="M205.802 60.6124C206.146 59.9505 206.83 59.5352 207.576 59.5352H232.356L228.707 66.5506C228.363 67.2126 227.679 67.6279 226.933 67.6279H202.154L205.802 60.6124Z" fill="#F0F4F6"/>
<path d="M63.8514 84.8917C64.1956 84.2298 64.8797 83.8145 65.6258 83.8145H90.4051L86.7568 90.8299C86.4126 91.4919 85.7285 91.9072 84.9824 91.9072H60.2031L63.8514 84.8917Z" fill="#F0F4F6"/>
<path d="M12.6482 84.8917C12.9925 84.2298 13.6765 83.8145 14.4226 83.8145H39.2019L35.5537 90.8299C35.2095 91.4919 34.5254 91.9072 33.7793 91.9072H9L12.6482 84.8917Z" fill="#F0F4F6"/>
<path d="M166.535 84.8917C166.879 84.2298 167.563 83.8145 168.309 83.8145H193.089L189.441 90.8299C189.096 91.4919 188.412 91.9072 187.666 91.9072H162.887L166.535 84.8917Z" fill="#F0F4F6"/>
<path d="M217.879 84.8917C218.223 84.2298 218.907 83.8145 219.654 83.8145H244.433L240.785 90.8299C240.44 91.4919 239.756 91.9072 239.01 91.9072H214.231L217.879 84.8917Z" fill="#F0F4F6"/>
<path d="M42.7122 76.798C43.0564 76.136 43.7405 75.7207 44.4866 75.7207H69.2659L65.6177 82.7362C65.2734 83.3981 64.5894 83.8134 63.8433 83.8134H39.064L42.7122 76.798Z" fill="#F0F4F6"/>
<path d="M72.9118 68.7052C73.256 68.0432 73.9401 67.6279 74.6862 67.6279H99.4655L95.8173 74.6434C95.473 75.3053 94.7889 75.7206 94.0428 75.7206H69.2635L72.9118 68.7052Z" fill="#F0F4F6"/>
<path d="M103.113 60.6124C103.457 59.9505 104.141 59.5352 104.887 59.5352H129.666L126.018 66.5506C125.674 67.2126 124.99 67.6279 124.244 67.6279H99.4644L103.113 60.6124Z" fill="#F0F4F6"/>
<path d="M94.0508 76.798C94.395 76.136 95.0791 75.7207 95.8252 75.7207H120.605L116.956 82.7362C116.612 83.3981 115.928 83.8134 115.182 83.8134H90.4026L94.0508 76.798Z" fill="#F0F4F6"/>
<path d="M196.738 76.798C197.082 76.136 197.766 75.7207 198.512 75.7207H223.292L219.643 82.7362C219.299 83.3981 218.615 83.8134 217.869 83.8134H193.09L196.738 76.798Z" fill="#F0F4F6"/>
<path d="M248.082 76.798C248.426 76.136 249.11 75.7207 249.856 75.7207H274.636L270.988 82.7362C270.643 83.3981 269.959 83.8134 269.213 83.8134H244.434L248.082 76.798Z" fill="#F0F4F6"/>
<path d="M124.254 68.7052C124.598 68.0432 125.282 67.6279 126.028 67.6279H150.808L147.159 74.6434C146.815 75.3053 146.131 75.7206 145.385 75.7206H120.606L124.254 68.7052Z" fill="#F0F4F6"/>
<path d="M226.941 68.7052C227.285 68.0432 227.969 67.6279 228.715 67.6279H253.495L249.846 74.6434C249.502 75.3053 248.818 75.7206 248.072 75.7206H223.293L226.941 68.7052Z" fill="#F0F4F6"/>
<path d="M154.458 60.6124C154.802 59.9505 155.486 59.5352 156.232 59.5352H181.012L177.363 66.5506C177.019 67.2126 176.335 67.6279 175.589 67.6279H150.81L154.458 60.6124Z" fill="#F0F4F6"/>
<path d="M257.141 60.6124C257.485 59.9505 258.169 59.5352 258.915 59.5352H283.694L280.046 66.5506C279.702 67.2126 279.018 67.6279 278.272 67.6279H253.492L257.141 60.6124Z" fill="#F0F4F6"/>
<rect width="1241" height="1" transform="matrix(1 0 0 -1 -986 100)" fill="#C3CED5"/>
</g>
</g>
<defs>
<clipPath id="clip0_1_41917">
<rect width="255" height="100" fill="white"/>
</clipPath>
<clipPath id="clip1_1_41917">
<path d="M-986 0H255V60H-986V0Z" fill="white"/>
</clipPath>
<clipPath id="clip2_1_41917">
<rect width="1241" height="40" fill="white" transform="translate(-986 60)"/>
</clipPath>
</defs>
</svg>
