<svg width="102" height="28" viewBox="0 0 102 28" fill="none" xmlns="http://www.w3.org/2000/svg">
<g clip-path="url(#clip0_1_16023)">
<path d="M14 28C21.732 28 28 21.732 28 14C28 6.26803 21.732 0 14 0C6.26803 0 0 6.26803 0 14C0 21.732 6.26803 28 14 28Z" fill="#D52B1E"/>
<path d="M10.8763 19.1333C9.26791 17.9729 7.72166 16.7347 6.24078 15.4218C5.69632 16.6164 5.20791 17.8391 4.77545 19.0898C7.13678 21.0933 10.2946 23.3893 12.4599 24.6804C15.2692 17.4067 19.6528 12.6622 23.8466 9.35199C23.3083 8.21332 22.5772 7.18045 21.6968 6.29999C17.2261 9.72845 13.5177 14.1089 10.8763 19.1333Z" fill="white"/>
<path d="M31.9639 20.1382V18.4052H33.479V15.8977H35.607V18.4052H37.7723V20.1382H35.607V24.1608C35.607 24.9355 35.7874 25.4955 36.7425 25.4955C37.0319 25.4955 37.4115 25.4426 37.6635 25.315L37.735 27.0106C37.3554 27.1537 36.7799 27.2439 36.2915 27.2439C33.9985 27.2439 33.4759 25.8377 33.4759 24.1764V20.1382H31.9639Z" fill="black"/>
<path d="M47.1928 27.0666H45.1362V25.6759H45.0989C44.7194 26.5409 43.6927 27.3186 42.4109 27.3186C40.1554 27.3186 39.2158 25.5857 39.2158 23.8186V18.4053H41.3812V23.2057C41.3812 24.2355 41.6145 25.5142 43.0052 25.5142C44.3772 25.5142 45.0274 24.3226 45.0274 23.1684V18.4053H47.1928V27.0666Z" fill="black"/>
<path d="M49.4325 18.2435H51.5073V19.6871H51.5446C52.0146 18.6947 52.9353 17.9915 54.0712 17.9915C54.2326 17.9915 54.4506 18.0102 54.5938 18.0445V20.0293C54.3045 19.9578 54.1239 19.9391 53.9246 19.9391C51.9772 19.9391 51.5978 21.6347 51.5978 22.2662V26.9049H49.4325V18.2435Z" fill="black"/>
<path d="M58.1657 13.4246V19.5068H58.2184C58.6697 18.9468 59.5344 18.1534 61.1243 18.1534C63.5977 18.1534 65.3276 20.1384 65.3276 22.7019C65.3276 25.2281 63.7036 27.3219 61.0683 27.3219C59.8583 27.3219 58.6851 26.7619 58.091 25.7694H58.0537V27.0699H55.9971V13.4277H58.1657V13.4246ZM60.6357 19.9206C59.0491 19.9206 58.091 21.3828 58.091 22.7361C58.091 24.0894 59.0463 25.5144 60.6357 25.5144C62.3129 25.5144 63.1249 24.0521 63.1249 22.6988C63.1277 21.3454 62.3157 19.9206 60.6357 19.9206Z" fill="black"/>
<path d="M70.9766 18.1533C73.5932 18.1533 75.6871 19.9764 75.6871 22.7018C75.6871 25.4271 73.5932 27.3218 70.9766 27.3218C68.3605 27.3218 66.2665 25.4271 66.2665 22.7018C66.2665 19.9764 68.3605 18.1533 70.9766 18.1533ZM70.9766 25.5142C72.6911 25.5142 73.4845 24.052 73.4845 22.6987C73.4845 21.3453 72.6911 19.9204 70.9766 19.9204C69.2625 19.9204 68.4692 21.3453 68.4692 22.6987C68.4692 24.052 69.2625 25.5142 70.9766 25.5142Z" fill="black"/>
<path d="M76.1348 20.1382V18.4052H77.6496V15.8977H79.7776V18.4052H81.9429V20.1382H79.7776V24.1608C79.7776 24.9355 79.9582 25.4955 80.9134 25.4955C81.2028 25.4955 81.5822 25.4426 81.8342 25.315L81.9056 27.0106C81.5262 27.1537 80.9508 27.2439 80.4622 27.2439C78.1694 27.2439 77.6468 25.8377 77.6468 24.1764V20.1382H76.1348Z" fill="black"/>
<path d="M89.0737 25.9653H89.021C88.5884 26.7244 87.5589 27.2813 86.333 27.2813C84.9423 27.2813 83.085 26.6124 83.085 24.5933C83.085 22.0142 86.333 21.6533 89.0396 21.6533V21.4355C89.0396 20.3715 88.1376 19.8489 87.0549 19.8489C86.1337 19.8489 85.2503 20.2813 84.6903 20.8413L83.5703 19.5253C84.5442 18.6231 85.9162 18.1533 87.2322 18.1533C90.337 18.1533 91.093 20.0667 91.093 21.7995V27.0698H89.0709V25.9653H89.0737ZM89.0364 23.1155H88.5482C87.1762 23.1155 85.247 23.2773 85.247 24.5591C85.247 25.3898 86.0217 25.6418 86.7623 25.6418C88.243 25.6418 89.0364 24.7924 89.0364 23.4235V23.1155Z" fill="black"/>
<path d="M95.2279 22.4653L92.1073 18.4053H94.7052L96.5812 21.0933L98.5132 18.4053H101.002L97.8972 22.4653L101.435 27.0667H98.7993L96.5439 23.9089L94.2698 27.0667H91.7059L95.2279 22.4653Z" fill="black"/>
<path d="M55.6889 6.49915C55.6889 8.69561 57.4468 10.3009 59.6808 10.3009C61.9142 10.3009 63.6754 8.69874 63.6754 6.49915V1.45605H61.5101V6.24094C61.5101 7.42628 60.7168 8.21961 59.6742 8.21961C58.6289 8.21961 57.8388 7.42628 57.8388 6.24094V1.45605H55.6768L55.6889 6.49915Z" fill="black"/>
<path d="M69.4553 3.48138H72.0379V10.1267H74.1999V3.48138H76.7792V1.45605H69.4553V3.48138Z" fill="black"/>
<path d="M68.0586 1.45911H65.8965V10.1298H68.0586V1.45911Z" fill="black"/>
<path d="M46.9521 3.48138H49.5347V10.1267H51.6968V3.48138H54.276V1.45605H46.9521V3.48138Z" fill="black"/>
<path d="M35.6065 1.45911H33.4443V10.1298H35.6065V5.796V1.45911Z" fill="black"/>
<path d="M45.8145 5.08349C45.8145 2.88707 44.0536 1.28174 41.8199 1.28174C39.5861 1.28174 37.8252 2.88396 37.8252 5.08349V10.1266H39.9874V5.34175C39.9874 4.1564 40.7807 3.36307 41.823 3.36307C42.8652 3.36307 43.6585 4.1564 43.6585 5.34175V10.1266H45.8207L45.8145 5.08349Z" fill="black"/>
</g>
<defs>
<clipPath id="clip0_1_16023">
<rect width="101.453" height="28" fill="white"/>
</clipPath>
</defs>
</svg>
