<svg width="476" height="116" viewBox="0 0 476 116" fill="none" xmlns="http://www.w3.org/2000/svg">
<path d="M64.2502 34V9.928H67.6162V19.992H79.7882V9.928H83.1882V34H79.7882V22.984H67.6162V34H64.2502ZM105.17 25.908C105.17 30.872 101.396 34.442 96.4657 34.442C91.5357 34.442 87.7957 30.872 87.7957 25.908C87.7957 20.944 91.5357 17.442 96.4657 17.442C101.396 17.442 105.17 20.944 105.17 25.908ZM101.838 25.908C101.838 22.848 99.9337 20.094 96.4657 20.094C93.0317 20.094 91.0937 22.848 91.0937 25.908C91.0937 28.968 93.0317 31.756 96.4657 31.756C99.9337 31.756 101.838 28.968 101.838 25.908ZM107.324 17.884H110.792L114.43 30.192H114.498L118.34 17.884H121.706L125.616 30.192H125.684L129.322 17.884H132.688L127.35 34H124.018L120.04 21.896H119.972L116.028 34H112.696L107.324 17.884ZM157.999 20.094L155.687 21.964C155.007 20.91 153.511 20.128 151.981 20.128C148.649 20.128 146.711 22.848 146.711 25.942C146.711 29.002 148.649 31.756 152.015 31.756C153.647 31.756 155.041 31.076 155.891 29.988L158.033 31.926C156.673 33.49 154.599 34.442 152.015 34.442C147.051 34.442 143.345 31.076 143.345 25.942C143.345 20.876 147.017 17.442 151.947 17.442C154.225 17.442 156.673 18.36 157.999 20.094ZM177.519 25.908C177.519 30.872 173.745 34.442 168.815 34.442C163.885 34.442 160.145 30.872 160.145 25.908C160.145 20.944 163.885 17.442 168.815 17.442C173.745 17.442 177.519 20.944 177.519 25.908ZM174.187 25.908C174.187 22.848 172.283 20.094 168.815 20.094C165.381 20.094 163.443 22.848 163.443 25.908C163.443 28.968 165.381 31.756 168.815 31.756C172.283 31.756 174.187 28.968 174.187 25.908ZM181.815 17.884H184.841C184.909 18.7 184.977 19.856 184.977 20.536H185.079C185.861 18.802 188.003 17.442 190.315 17.442C194.463 17.442 196.333 20.4 196.333 24.004V34H193.137V25.058C193.137 22.44 192.423 20.128 189.465 20.128C186.949 20.128 185.147 22.236 185.147 25.432V34H181.951V21.352C181.951 20.502 181.917 18.938 181.815 17.884ZM209.322 17.884V20.502H205.582V34H202.386V20.502H199.19V17.884H202.386V14.518C202.386 10.744 204.052 7.888 208.404 7.888C209.152 7.888 209.798 7.956 210.41 8.126L210.036 10.88C209.56 10.744 209.05 10.642 208.438 10.642C206.024 10.642 205.582 12.546 205.582 14.518V17.884H209.322ZM215.496 17.884V34H212.3V17.884H215.496ZM216.04 12.07C216.04 13.226 215.054 14.11 213.898 14.11C212.742 14.11 211.79 13.192 211.79 12.07C211.79 10.914 212.742 9.996 213.898 9.996C215.054 9.996 216.04 10.88 216.04 12.07ZM233.917 31.45C232.693 33.388 230.381 34.442 228.103 34.442C223.139 34.442 219.977 30.634 219.977 25.908C219.977 21.148 223.241 17.442 228.069 17.442C230.687 17.442 232.693 18.734 233.815 20.298H233.883V8.296H237.079V34H233.985V31.45H233.917ZM223.309 25.908C223.309 28.934 225.145 31.756 228.647 31.756C231.911 31.756 234.087 29.036 234.087 25.942C234.087 22.848 231.911 20.094 228.647 20.094C225.145 20.094 223.309 22.882 223.309 25.908ZM244.857 24.514H254.445C254.377 21.964 252.881 19.958 249.923 19.958C247.169 19.958 245.061 21.998 244.857 24.514ZM257.675 25.806C257.675 26.146 257.675 26.52 257.641 26.894H244.857C244.959 29.648 247.271 31.79 250.093 31.79C252.269 31.79 253.867 30.702 254.785 29.342L257.029 31.144C255.295 33.388 252.949 34.442 250.093 34.442C245.197 34.442 241.593 31.042 241.593 25.976C241.593 20.944 245.197 17.442 249.923 17.442C254.683 17.442 257.675 20.672 257.675 25.806ZM262.001 17.884H265.027C265.095 18.7 265.163 19.856 265.163 20.536H265.265C266.047 18.802 268.189 17.442 270.501 17.442C274.649 17.442 276.519 20.4 276.519 24.004V34H273.323V25.058C273.323 22.44 272.609 20.128 269.651 20.128C267.135 20.128 265.333 22.236 265.333 25.432V34H262.137V21.352C262.137 20.502 262.103 18.938 262.001 17.884ZM289.814 17.884V20.502H285.53V28.9C285.53 30.838 286.21 31.62 287.808 31.62C288.386 31.62 289.134 31.484 289.678 31.212L289.78 33.83C289.032 34.102 288.046 34.272 287.06 34.272C284.034 34.272 282.368 32.572 282.368 29.24V20.502H279.274V17.884H282.368V13.26H285.53V17.884H289.814ZM311.645 24.004V23.562C311.645 21.182 310.047 20.026 307.667 20.026C305.865 20.026 304.165 20.808 303.077 21.896L301.377 19.856C302.941 18.36 305.355 17.442 307.973 17.442C312.597 17.442 314.705 20.196 314.705 23.766V30.804C314.705 31.892 314.773 33.218 314.943 34H312.053C311.883 33.286 311.781 32.436 311.781 31.688H311.679C310.523 33.422 308.687 34.408 306.273 34.408C303.723 34.408 300.425 33.15 300.425 29.444C300.425 24.582 306.205 24.004 311.645 24.004ZM311.645 26.316H310.863C307.701 26.316 303.689 26.656 303.689 29.376C303.689 31.28 305.389 31.892 306.987 31.892C309.979 31.892 311.645 29.886 311.645 27.166V26.316ZM320.043 21.352C320.043 20.502 320.009 18.938 319.907 17.884H322.933C323.001 18.7 323.069 19.924 323.069 20.604H323.171C324.055 18.734 325.925 17.442 328.101 17.442C328.543 17.442 328.985 17.476 329.359 17.578L329.223 20.536C328.815 20.434 328.271 20.366 327.761 20.366C324.701 20.366 323.239 22.848 323.239 25.534V34H320.043V21.352ZM333.974 24.514H343.562C343.494 21.964 341.998 19.958 339.04 19.958C336.286 19.958 334.178 21.998 333.974 24.514ZM346.792 25.806C346.792 26.146 346.792 26.52 346.758 26.894H333.974C334.076 29.648 336.388 31.79 339.21 31.79C341.386 31.79 342.984 30.702 343.902 29.342L346.146 31.144C344.412 33.388 342.066 34.442 339.21 34.442C334.314 34.442 330.71 31.042 330.71 25.976C330.71 20.944 334.314 17.442 339.04 17.442C343.8 17.442 346.792 20.672 346.792 25.806ZM360.876 17.884L365.874 30.532H365.942L370.396 17.884H373.796L365.976 37.808C364.922 40.494 363.562 42.16 360.4 42.16C359.72 42.16 359.006 42.092 358.292 41.922L358.598 39.1C359.108 39.27 359.686 39.372 360.196 39.372C361.862 39.372 362.508 38.42 363.188 36.686L364.208 34L357.306 17.884H360.876ZM393.207 25.908C393.207 30.872 389.433 34.442 384.503 34.442C379.573 34.442 375.833 30.872 375.833 25.908C375.833 20.944 379.573 17.442 384.503 17.442C389.433 17.442 393.207 20.944 393.207 25.908ZM389.875 25.908C389.875 22.848 387.971 20.094 384.503 20.094C381.069 20.094 379.131 22.848 379.131 25.908C379.131 28.968 381.069 31.756 384.503 31.756C387.971 31.756 389.875 28.968 389.875 25.908ZM412.021 34H408.995C408.927 33.184 408.859 32.028 408.859 31.348H408.791C407.975 33.048 405.867 34.442 403.521 34.442C399.373 34.442 397.503 31.484 397.503 27.88V17.884H400.699V26.792C400.699 29.444 401.413 31.756 404.371 31.756C406.921 31.756 408.689 29.648 408.689 26.452V17.884H411.885V30.532C411.885 31.382 411.919 32.946 412.021 34ZM77.1148 75.45C75.8908 77.388 73.5788 78.442 71.3008 78.442C66.3368 78.442 63.1748 74.634 63.1748 69.908C63.1748 65.148 66.4388 61.442 71.2668 61.442C73.8848 61.442 75.8908 62.734 77.0128 64.298H77.0808V52.296H80.2768V78H77.1828V75.45H77.1148ZM66.5068 69.908C66.5068 72.934 68.3428 75.756 71.8448 75.756C75.1088 75.756 77.2848 73.036 77.2848 69.942C77.2848 66.848 75.1088 64.094 71.8448 64.094C68.3428 64.094 66.5068 66.882 66.5068 69.908ZM102.165 69.908C102.165 74.872 98.3908 78.442 93.4608 78.442C88.5308 78.442 84.7908 74.872 84.7908 69.908C84.7908 64.944 88.5308 61.442 93.4608 61.442C98.3908 61.442 102.165 64.944 102.165 69.908ZM98.8328 69.908C98.8328 66.848 96.9288 64.094 93.4608 64.094C90.0268 64.094 88.0888 66.848 88.0888 69.908C88.0888 72.968 90.0268 75.756 93.4608 75.756C96.9288 75.756 98.8328 72.968 98.8328 69.908ZM109.827 61.884V78H106.631V61.884H109.827ZM110.371 56.07C110.371 57.226 109.385 58.11 108.229 58.11C107.073 58.11 106.121 57.192 106.121 56.07C106.121 54.914 107.073 53.996 108.229 53.996C109.385 53.996 110.371 54.88 110.371 56.07ZM115.26 61.884H118.286C118.354 62.7 118.422 63.856 118.422 64.536H118.524C119.306 62.802 121.448 61.442 123.76 61.442C127.908 61.442 129.778 64.4 129.778 68.004V78H126.582V69.058C126.582 66.44 125.868 64.128 122.91 64.128C120.394 64.128 118.592 66.236 118.592 69.432V78H115.396V65.352C115.396 64.502 115.362 62.938 115.26 61.884ZM134.403 83.236L136.443 80.754C137.837 82.318 140.115 83.372 142.325 83.372C146.575 83.372 148.003 80.754 148.003 77.422V75.348H147.935C146.745 77.15 144.535 78.136 142.257 78.136C137.327 78.136 134.131 74.464 134.131 69.84C134.131 65.216 137.293 61.442 142.223 61.442C144.535 61.442 146.813 62.462 148.037 64.468H148.105V61.884H151.199V77.184C151.199 81.876 148.989 86.16 142.291 86.16C139.503 86.16 136.409 85.072 134.403 83.236ZM137.429 69.772C137.429 72.73 139.401 75.45 142.767 75.45C146.065 75.45 148.241 72.968 148.241 69.772C148.241 66.712 146.031 64.094 142.767 64.094C139.401 64.094 137.429 66.678 137.429 69.772ZM166.289 61.884L171.287 74.532H171.355L175.809 61.884H179.209L171.389 81.808C170.335 84.494 168.975 86.16 165.813 86.16C165.133 86.16 164.419 86.092 163.705 85.922L164.011 83.1C164.521 83.27 165.099 83.372 165.609 83.372C167.275 83.372 167.921 82.42 168.601 80.686L169.621 78L162.719 61.884H166.289ZM198.62 69.908C198.62 74.872 194.846 78.442 189.916 78.442C184.986 78.442 181.246 74.872 181.246 69.908C181.246 64.944 184.986 61.442 189.916 61.442C194.846 61.442 198.62 64.944 198.62 69.908ZM195.288 69.908C195.288 66.848 193.384 64.094 189.916 64.094C186.482 64.094 184.544 66.848 184.544 69.908C184.544 72.968 186.482 75.756 189.916 75.756C193.384 75.756 195.288 72.968 195.288 69.908ZM217.434 78H214.408C214.34 77.184 214.272 76.028 214.272 75.348H214.204C213.388 77.048 211.28 78.442 208.934 78.442C204.786 78.442 202.916 75.484 202.916 71.88V61.884H206.112V70.792C206.112 73.444 206.826 75.756 209.784 75.756C212.334 75.756 214.102 73.648 214.102 70.452V61.884H217.298V74.532C217.298 75.382 217.332 76.946 217.434 78ZM222.841 65.352C222.841 64.502 222.807 62.938 222.705 61.884H225.731C225.799 62.7 225.867 63.924 225.867 64.604H225.969C226.853 62.734 228.723 61.442 230.899 61.442C231.341 61.442 231.783 61.476 232.157 61.578L232.021 64.536C231.613 64.434 231.069 64.366 230.559 64.366C227.499 64.366 226.037 66.848 226.037 69.534V78H222.841V65.352ZM259.979 69.908C259.979 74.872 256.205 78.442 251.275 78.442C246.345 78.442 242.605 74.872 242.605 69.908C242.605 64.944 246.345 61.442 251.275 61.442C256.205 61.442 259.979 64.944 259.979 69.908ZM256.647 69.908C256.647 66.848 254.743 64.094 251.275 64.094C247.841 64.094 245.903 66.848 245.903 69.908C245.903 72.968 247.841 75.756 251.275 75.756C254.743 75.756 256.647 72.968 256.647 69.908ZM262.133 61.884H265.601L269.239 74.192H269.307L273.149 61.884H276.515L280.425 74.192H280.493L284.131 61.884H287.497L282.159 78H278.827L274.849 65.896H274.781L270.837 78H267.505L262.133 61.884ZM290.572 61.884H293.598C293.666 62.7 293.734 63.856 293.734 64.536H293.836C294.618 62.802 296.76 61.442 299.072 61.442C303.22 61.442 305.09 64.4 305.09 68.004V78H301.894V69.058C301.894 66.44 301.18 64.128 298.222 64.128C295.706 64.128 293.904 66.236 293.904 69.432V78H290.708V65.352C290.708 64.502 290.674 62.938 290.572 61.884ZM326.885 61.884V64.502H322.601V72.9C322.601 74.838 323.281 75.62 324.879 75.62C325.457 75.62 326.205 75.484 326.749 75.212L326.851 77.83C326.103 78.102 325.117 78.272 324.131 78.272C321.105 78.272 319.439 76.572 319.439 73.24V64.502H316.345V61.884H319.439V57.26H322.601V61.884H326.885ZM340.217 68.004V67.562C340.217 65.182 338.619 64.026 336.239 64.026C334.437 64.026 332.737 64.808 331.649 65.896L329.949 63.856C331.513 62.36 333.927 61.442 336.545 61.442C341.169 61.442 343.277 64.196 343.277 67.766V74.804C343.277 75.892 343.345 77.218 343.515 78H340.625C340.455 77.286 340.353 76.436 340.353 75.688H340.251C339.095 77.422 337.259 78.408 334.845 78.408C332.295 78.408 328.997 77.15 328.997 73.444C328.997 68.582 334.777 68.004 340.217 68.004ZM340.217 70.316H339.435C336.273 70.316 332.261 70.656 332.261 73.376C332.261 75.28 333.961 75.892 335.559 75.892C338.551 75.892 340.217 73.886 340.217 71.166V70.316ZM346.098 78L352.558 69.534L346.676 61.884H350.62L354.564 67.426L358.542 61.884H362.282L356.468 69.5L362.962 78H358.984L354.496 71.71L349.94 78H346.098ZM367.858 68.514H377.446C377.378 65.964 375.882 63.958 372.924 63.958C370.17 63.958 368.062 65.998 367.858 68.514ZM380.676 69.806C380.676 70.146 380.676 70.52 380.642 70.894H367.858C367.96 73.648 370.272 75.79 373.094 75.79C375.27 75.79 376.868 74.702 377.786 73.342L380.03 75.144C378.296 77.388 375.95 78.442 373.094 78.442C368.198 78.442 364.594 75.042 364.594 69.976C364.594 64.944 368.198 61.442 372.924 61.442C377.684 61.442 380.676 64.672 380.676 69.806ZM396.052 64.094L393.842 65.964C393.128 64.808 391.734 63.958 390.102 63.958C388.64 63.958 387.11 64.536 387.11 66.066C387.11 67.426 388.334 67.936 390.782 68.48C393.842 69.16 396.188 70.418 396.188 73.24C396.188 77.048 393.026 78.442 389.762 78.442C387.314 78.442 384.798 77.49 383.268 75.552L385.546 73.614C386.396 74.872 388.028 75.858 389.83 75.858C391.428 75.858 393.026 75.28 393.026 73.512C393.026 72.016 391.564 71.472 388.81 70.826C386.668 70.316 384.118 69.398 384.118 66.372C384.118 62.904 387.144 61.442 390.204 61.442C392.482 61.442 394.896 62.36 396.052 64.094ZM407.725 69.976V71.166H404.529V69.534C404.529 67.154 405.447 65.896 407.011 64.468L408.269 63.278C409.255 62.428 410.003 61.476 410.003 59.912C410.003 57.736 408.473 56.342 406.297 56.342C404.053 56.342 402.591 58.008 402.387 60.082L399.123 59.708C399.701 55.798 402.659 53.418 406.501 53.418C410.275 53.418 413.403 55.628 413.403 59.708C413.403 62.598 412.077 63.89 410.139 65.522C408.303 67.086 407.725 67.732 407.725 69.976ZM408.575 75.96C408.575 77.15 407.589 78.204 406.297 78.204C405.039 78.204 404.019 77.184 404.019 75.994C404.019 74.77 405.005 73.75 406.297 73.75C407.589 73.75 408.575 74.736 408.575 75.96Z" fill="#3C4348"/>
<path d="M1.59625 98.672L4.39625 108.416H4.42825L7.26025 98.672H8.63625L11.4683 108.416H11.5003L14.2683 98.672H15.4843L12.1403 110H10.7963L7.94825 100.272H7.91625L5.06825 110H3.72425L0.38025 98.672H1.59625ZM17.173 105.68H22.277C22.213 104.272 21.349 103.232 19.797 103.232C18.341 103.232 17.269 104.4 17.173 105.68ZM23.381 106.032C23.381 106.176 23.381 106.352 23.365 106.544H17.157C17.189 108.048 18.357 109.264 19.893 109.264C21.013 109.264 21.877 108.64 22.293 107.968L23.109 108.608C22.229 109.728 21.125 110.192 19.893 110.192C17.669 110.192 16.021 108.512 16.021 106.256C16.021 104 17.669 102.32 19.797 102.32C22.149 102.32 23.381 103.984 23.381 106.032ZM27.1613 98.672L25.8653 102.432H24.9533L26.0253 98.672H27.1613ZM30.3881 97.904V110H29.3001V97.904H30.3881ZM34.4194 97.904V110H33.3314V97.904H34.4194ZM46.1466 103.664L45.3146 104.288C44.9946 103.664 44.3066 103.232 43.4746 103.232C42.6906 103.232 41.8906 103.568 41.8906 104.4C41.8906 105.104 42.4506 105.424 43.6826 105.68C45.4426 106.048 46.2746 106.704 46.2746 107.872C46.2746 109.584 44.8346 110.192 43.4586 110.192C42.3226 110.192 41.1866 109.744 40.4986 108.736L41.3626 108.096C41.7466 108.752 42.5626 109.264 43.4426 109.264C44.3706 109.264 45.2026 108.928 45.2026 107.952C45.2026 107.168 44.4186 106.848 42.9946 106.512C42.1146 106.304 40.8506 105.92 40.8506 104.496C40.8506 102.976 42.1626 102.32 43.5226 102.32C44.5626 102.32 45.6666 102.816 46.1466 103.664ZM49.56 103.744H49.592C49.992 102.88 51.048 102.32 52.104 102.32C54.008 102.32 54.952 103.552 54.952 105.408V110H53.864V105.856C53.864 104.288 53.4 103.232 51.832 103.232C50.68 103.232 49.56 104.16 49.56 106.16V110H48.472V97.904H49.56V103.744ZM65.2081 106.256C65.2081 108.512 63.5441 110.192 61.2081 110.192C58.8881 110.192 57.2241 108.512 57.2241 106.256C57.2241 104 58.8881 102.32 61.2081 102.32C63.5441 102.32 65.2081 104 65.2081 106.256ZM64.0561 106.256C64.0561 104.576 62.9521 103.232 61.2081 103.232C59.4801 103.232 58.3761 104.576 58.3761 106.256C58.3761 107.936 59.4801 109.264 61.2081 109.264C62.9521 109.264 64.0561 107.936 64.0561 106.256ZM66.5254 102.512H67.6934L69.5014 108.592H69.5334L71.5494 102.512H72.6054L74.6534 108.592H74.6854L76.4774 102.512H77.6294L75.2614 110H74.0774L72.0774 103.936H72.0454L70.0774 110H68.8934L66.5254 102.512ZM90.9269 106.256C90.9269 108.512 89.2629 110.192 86.9269 110.192C84.6069 110.192 82.9429 108.512 82.9429 106.256C82.9429 104 84.6069 102.32 86.9269 102.32C89.2629 102.32 90.9269 104 90.9269 106.256ZM89.7749 106.256C89.7749 104.576 88.6709 103.232 86.9269 103.232C85.1989 103.232 84.0949 104.576 84.0949 106.256C84.0949 107.936 85.1989 109.264 86.9269 109.264C88.6709 109.264 89.7749 107.936 89.7749 106.256ZM99.7481 110H98.7081C98.6761 109.6 98.6441 109.04 98.6441 108.72H98.6121C98.1961 109.584 97.1081 110.192 96.0521 110.192C94.1481 110.192 93.2041 108.96 93.2041 107.104V102.512H94.2921V106.656C94.2921 108.224 94.7561 109.28 96.3241 109.28C97.4761 109.28 98.5961 108.352 98.5961 106.352V102.512H99.6841V108.352C99.6841 108.752 99.7001 109.488 99.7481 110ZM102.565 104.16C102.565 103.76 102.549 103.024 102.501 102.512H103.541C103.573 102.912 103.605 103.472 103.605 103.792H103.637C104.053 102.928 104.981 102.32 106.037 102.32C106.309 102.32 106.533 102.336 106.757 102.4L106.613 103.424C106.485 103.376 106.133 103.328 105.845 103.328C104.693 103.328 103.653 104.16 103.653 106.16V110H102.565V104.16ZM112.939 105.68H118.043C117.979 104.272 117.115 103.232 115.563 103.232C114.107 103.232 113.035 104.4 112.939 105.68ZM119.147 106.032C119.147 106.176 119.147 106.352 119.131 106.544H112.923C112.955 108.048 114.123 109.264 115.659 109.264C116.779 109.264 117.643 108.64 118.059 107.968L118.875 108.608C117.995 109.728 116.891 110.192 115.659 110.192C113.435 110.192 111.787 108.512 111.787 106.256C111.787 104 113.435 102.32 115.563 102.32C117.915 102.32 119.147 103.984 119.147 106.032ZM120.209 110L123.153 106.128L120.385 102.512H121.777L123.825 105.36L125.873 102.512H127.185L124.465 106.08L127.441 110H126.033L123.809 106.88L121.521 110H120.209ZM130.231 108.736V113.84H129.143V102.512H130.231V103.808H130.279C130.903 102.832 132.023 102.32 133.095 102.32C135.431 102.32 136.967 104.048 136.967 106.256C136.967 108.464 135.431 110.192 133.095 110.192C132.023 110.192 130.903 109.664 130.279 108.736H130.231ZM135.815 106.256C135.815 104.592 134.791 103.232 132.983 103.232C131.303 103.232 130.103 104.544 130.103 106.256C130.103 107.968 131.303 109.264 132.983 109.264C134.791 109.264 135.815 107.92 135.815 106.256ZM139.907 105.68H145.011C144.947 104.272 144.083 103.232 142.531 103.232C141.075 103.232 140.003 104.4 139.907 105.68ZM146.115 106.032C146.115 106.176 146.115 106.352 146.099 106.544H139.891C139.923 108.048 141.091 109.264 142.627 109.264C143.747 109.264 144.611 108.64 145.027 107.968L145.843 108.608C144.963 109.728 143.859 110.192 142.627 110.192C140.403 110.192 138.755 108.512 138.755 106.256C138.755 104 140.403 102.32 142.531 102.32C144.883 102.32 146.115 103.984 146.115 106.032ZM148.456 104.16C148.456 103.76 148.44 103.024 148.392 102.512H149.432C149.464 102.912 149.496 103.472 149.496 103.792H149.528C149.944 102.928 150.872 102.32 151.928 102.32C152.2 102.32 152.424 102.336 152.648 102.4L152.504 103.424C152.376 103.376 152.024 103.328 151.736 103.328C150.584 103.328 149.544 104.16 149.544 106.16V110H148.456V104.16ZM157.41 102.512V103.424H155.298V107.792C155.298 108.912 155.762 109.168 156.418 109.168C156.722 109.168 157.074 109.072 157.362 108.928L157.41 109.872C157.026 110.016 156.626 110.096 156.13 110.096C155.33 110.096 154.21 109.744 154.21 108.096V103.424H152.658V102.512H154.21V100.4H155.298V102.512H157.41ZM164.232 103.744H164.264C164.664 102.88 165.72 102.32 166.776 102.32C168.68 102.32 169.624 103.552 169.624 105.408V110H168.536V105.856C168.536 104.288 168.072 103.232 166.504 103.232C165.352 103.232 164.232 104.16 164.232 106.16V110H163.144V97.904H164.232V103.744ZM173.048 105.68H178.152C178.088 104.272 177.224 103.232 175.672 103.232C174.216 103.232 173.144 104.4 173.048 105.68ZM179.256 106.032C179.256 106.176 179.256 106.352 179.24 106.544H173.032C173.064 108.048 174.232 109.264 175.768 109.264C176.888 109.264 177.752 108.64 178.168 107.968L178.984 108.608C178.104 109.728 177 110.192 175.768 110.192C173.544 110.192 171.896 108.512 171.896 106.256C171.896 104 173.544 102.32 175.672 102.32C178.024 102.32 179.256 103.984 179.256 106.032ZM182.716 97.904V110H181.628V97.904H182.716ZM186.716 108.736V113.84H185.628V102.512H186.716V103.808H186.764C187.388 102.832 188.508 102.32 189.58 102.32C191.916 102.32 193.452 104.048 193.452 106.256C193.452 108.464 191.916 110.192 189.58 110.192C188.508 110.192 187.388 109.664 186.764 108.736H186.716ZM192.3 106.256C192.3 104.592 191.276 103.232 189.468 103.232C187.788 103.232 186.588 104.544 186.588 106.256C186.588 107.968 187.788 109.264 189.468 109.264C191.276 109.264 192.3 107.92 192.3 106.256ZM207.224 106.256C207.224 108.512 205.56 110.192 203.224 110.192C200.904 110.192 199.24 108.512 199.24 106.256C199.24 104 200.904 102.32 203.224 102.32C205.56 102.32 207.224 104 207.224 106.256ZM206.072 106.256C206.072 104.576 204.968 103.232 203.224 103.232C201.496 103.232 200.392 104.576 200.392 106.256C200.392 107.936 201.496 109.264 203.224 109.264C204.968 109.264 206.072 107.936 206.072 106.256ZM210.653 108.736V113.84H209.565V102.512H210.653V103.808H210.701C211.325 102.832 212.445 102.32 213.517 102.32C215.853 102.32 217.389 104.048 217.389 106.256C217.389 108.464 215.853 110.192 213.517 110.192C212.445 110.192 211.325 109.664 210.701 108.736H210.653ZM216.237 106.256C216.237 104.592 215.213 103.232 213.405 103.232C211.725 103.232 210.525 104.544 210.525 106.256C210.525 107.968 211.725 109.264 213.405 109.264C215.213 109.264 216.237 107.92 216.237 106.256ZM223.097 102.512V103.424H220.985V107.792C220.985 108.912 221.449 109.168 222.105 109.168C222.409 109.168 222.761 109.072 223.049 108.928L223.097 109.872C222.713 110.016 222.313 110.096 221.817 110.096C221.017 110.096 219.897 109.744 219.897 108.096V103.424H218.345V102.512H219.897V100.4H220.985V102.512H223.097ZM225.903 102.512V110H224.815V102.512H225.903ZM226.127 99.632C226.127 100.08 225.743 100.4 225.359 100.4C224.975 100.4 224.591 100.08 224.591 99.632C224.591 99.184 224.975 98.864 225.359 98.864C225.743 98.864 226.127 99.184 226.127 99.632ZM236.239 106.256C236.239 108.512 234.575 110.192 232.239 110.192C229.919 110.192 228.255 108.512 228.255 106.256C228.255 104 229.919 102.32 232.239 102.32C234.575 102.32 236.239 104 236.239 106.256ZM235.087 106.256C235.087 104.576 233.983 103.232 232.239 103.232C230.511 103.232 229.407 104.576 229.407 106.256C229.407 107.936 230.511 109.264 232.239 109.264C233.983 109.264 235.087 107.936 235.087 106.256ZM238.517 102.512H239.557C239.589 102.912 239.621 103.472 239.621 103.792H239.653C240.069 102.928 241.157 102.32 242.213 102.32C244.117 102.32 245.061 103.552 245.061 105.408V110H243.973V105.856C243.973 104.288 243.509 103.232 241.941 103.232C240.789 103.232 239.669 104.16 239.669 106.16V110H238.581V104.16C238.581 103.76 238.565 103.024 238.517 102.512ZM252.694 103.664L251.862 104.288C251.542 103.664 250.854 103.232 250.022 103.232C249.238 103.232 248.438 103.568 248.438 104.4C248.438 105.104 248.998 105.424 250.23 105.68C251.99 106.048 252.822 106.704 252.822 107.872C252.822 109.584 251.382 110.192 250.006 110.192C248.87 110.192 247.734 109.744 247.046 108.736L247.91 108.096C248.294 108.752 249.11 109.264 249.99 109.264C250.918 109.264 251.75 108.928 251.75 107.952C251.75 107.168 250.966 106.848 249.542 106.512C248.662 106.304 247.398 105.92 247.398 104.496C247.398 102.976 248.71 102.32 250.07 102.32C251.11 102.32 252.214 102.816 252.694 103.664ZM263.707 105.408V105.168C263.707 103.872 263.003 103.232 261.707 103.232C260.827 103.232 260.011 103.584 259.483 104.112L258.875 103.392C259.483 102.784 260.539 102.32 261.819 102.32C263.435 102.32 264.731 103.216 264.731 105.04V108.32C264.731 108.896 264.779 109.584 264.859 110H263.883C263.819 109.632 263.771 109.184 263.771 108.784H263.739C263.051 109.776 262.219 110.192 261.019 110.192C259.883 110.192 258.427 109.584 258.427 107.92C258.427 105.616 260.971 105.408 263.707 105.408ZM263.707 106.256H263.387C261.611 106.256 259.547 106.448 259.547 107.872C259.547 108.944 260.459 109.296 261.307 109.296C262.843 109.296 263.707 108.144 263.707 106.816V106.256ZM267.47 102.512H268.51C268.542 102.912 268.574 103.472 268.574 103.792H268.606C269.022 102.928 270.11 102.32 271.166 102.32C273.07 102.32 274.014 103.552 274.014 105.408V110H272.926V105.856C272.926 104.288 272.462 103.232 270.894 103.232C269.742 103.232 268.622 104.16 268.622 106.16V110H267.534V104.16C267.534 103.76 267.518 103.024 267.47 102.512ZM282.991 108.736C282.351 109.68 281.231 110.192 280.159 110.192C277.823 110.192 276.287 108.464 276.287 106.256C276.287 104.048 277.823 102.32 280.159 102.32C281.231 102.32 282.351 102.832 282.991 103.808H283.023V97.904H284.111V110H283.023V108.736H282.991ZM277.439 106.256C277.439 107.92 278.463 109.264 280.271 109.264C281.951 109.264 283.151 107.968 283.151 106.256C283.151 104.544 281.951 103.232 280.271 103.232C278.463 103.232 277.439 104.592 277.439 106.256ZM292.09 103.792C292.522 102.928 293.482 102.32 294.554 102.32C295.37 102.32 296.362 102.624 296.858 103.904C297.37 102.88 298.282 102.32 299.482 102.32C301.386 102.32 302.33 103.552 302.33 105.408V110H301.242V105.856C301.242 104.288 300.714 103.232 299.306 103.232C297.738 103.232 297.178 104.624 297.178 106.016V110H296.09V105.632C296.09 104.176 295.738 103.232 294.282 103.232C293.242 103.232 292.106 104.16 292.106 106.16V110H291.018V104.16C291.018 103.76 291.002 103.024 290.954 102.512H291.994C292.026 102.912 292.058 103.472 292.058 103.792H292.09ZM309.863 105.408V105.168C309.863 103.872 309.159 103.232 307.863 103.232C306.983 103.232 306.167 103.584 305.639 104.112L305.031 103.392C305.639 102.784 306.695 102.32 307.975 102.32C309.591 102.32 310.887 103.216 310.887 105.04V108.32C310.887 108.896 310.935 109.584 311.015 110H310.039C309.975 109.632 309.927 109.184 309.927 108.784H309.895C309.207 109.776 308.375 110.192 307.175 110.192C306.039 110.192 304.583 109.584 304.583 107.92C304.583 105.616 307.127 105.408 309.863 105.408ZM309.863 106.256H309.543C307.767 106.256 305.703 106.448 305.703 107.872C305.703 108.944 306.615 109.296 307.463 109.296C308.999 109.296 309.863 108.144 309.863 106.816V106.256ZM314.81 97.904V105.888H314.858L318.314 102.512H319.882L316.106 105.936L320.266 110H318.666L314.858 106.064H314.81V110H313.722V97.904H314.81ZM322.173 105.68H327.277C327.213 104.272 326.349 103.232 324.797 103.232C323.341 103.232 322.269 104.4 322.173 105.68ZM328.381 106.032C328.381 106.176 328.381 106.352 328.365 106.544H322.157C322.189 108.048 323.357 109.264 324.893 109.264C326.013 109.264 326.877 108.64 327.293 107.968L328.109 108.608C327.229 109.728 326.125 110.192 324.893 110.192C322.669 110.192 321.021 108.512 321.021 106.256C321.021 104 322.669 102.32 324.797 102.32C327.149 102.32 328.381 103.984 328.381 106.032ZM339.441 105.408V105.168C339.441 103.872 338.737 103.232 337.441 103.232C336.561 103.232 335.745 103.584 335.217 104.112L334.609 103.392C335.217 102.784 336.273 102.32 337.553 102.32C339.169 102.32 340.465 103.216 340.465 105.04V108.32C340.465 108.896 340.513 109.584 340.593 110H339.617C339.553 109.632 339.505 109.184 339.505 108.784H339.473C338.785 109.776 337.953 110.192 336.753 110.192C335.617 110.192 334.161 109.584 334.161 107.92C334.161 105.616 336.705 105.408 339.441 105.408ZM339.441 106.256H339.121C337.345 106.256 335.281 106.448 335.281 107.872C335.281 108.944 336.193 109.296 337.041 109.296C338.577 109.296 339.441 108.144 339.441 106.816V106.256ZM347.268 104.16C347.268 103.76 347.252 103.024 347.204 102.512H348.244C348.276 102.912 348.308 103.472 348.308 103.792H348.34C348.756 102.928 349.684 102.32 350.74 102.32C351.012 102.32 351.236 102.336 351.46 102.4L351.316 103.424C351.188 103.376 350.836 103.328 350.548 103.328C349.396 103.328 348.356 104.16 348.356 106.16V110H347.268V104.16ZM353.361 105.68H358.465C358.401 104.272 357.537 103.232 355.985 103.232C354.529 103.232 353.457 104.4 353.361 105.68ZM359.569 106.032C359.569 106.176 359.569 106.352 359.553 106.544H353.345C353.377 108.048 354.545 109.264 356.081 109.264C357.201 109.264 358.065 108.64 358.481 107.968L359.297 108.608C358.417 109.728 357.313 110.192 356.081 110.192C353.857 110.192 352.209 108.512 352.209 106.256C352.209 104 353.857 102.32 355.985 102.32C358.337 102.32 359.569 103.984 359.569 106.032ZM368.149 103.616L367.301 104.224C366.949 103.648 366.197 103.232 365.381 103.232C363.637 103.232 362.517 104.544 362.517 106.256C362.517 107.952 363.621 109.264 365.365 109.264C366.309 109.264 366.965 108.864 367.397 108.288L368.213 108.896C367.573 109.68 366.661 110.192 365.365 110.192C362.949 110.192 361.365 108.512 361.365 106.256C361.365 104 362.949 102.32 365.365 102.32C366.373 102.32 367.509 102.752 368.149 103.616ZM377.349 106.256C377.349 108.512 375.685 110.192 373.349 110.192C371.029 110.192 369.365 108.512 369.365 106.256C369.365 104 371.029 102.32 373.349 102.32C375.685 102.32 377.349 104 377.349 106.256ZM376.197 106.256C376.197 104.576 375.093 103.232 373.349 103.232C371.621 103.232 370.517 104.576 370.517 106.256C370.517 107.936 371.621 109.264 373.349 109.264C375.093 109.264 376.197 107.936 376.197 106.256ZM380.762 103.792C381.194 102.928 382.154 102.32 383.226 102.32C384.042 102.32 385.034 102.624 385.53 103.904C386.042 102.88 386.954 102.32 388.154 102.32C390.058 102.32 391.002 103.552 391.002 105.408V110H389.914V105.856C389.914 104.288 389.386 103.232 387.978 103.232C386.41 103.232 385.85 104.624 385.85 106.016V110H384.762V105.632C384.762 104.176 384.41 103.232 382.954 103.232C381.914 103.232 380.778 104.16 380.778 106.16V110H379.69V104.16C379.69 103.76 379.674 103.024 379.626 102.512H380.666C380.698 102.912 380.73 103.472 380.73 103.792H380.762ZM394.887 103.792C395.319 102.928 396.279 102.32 397.351 102.32C398.167 102.32 399.159 102.624 399.655 103.904C400.167 102.88 401.079 102.32 402.279 102.32C404.183 102.32 405.127 103.552 405.127 105.408V110H404.039V105.856C404.039 104.288 403.511 103.232 402.103 103.232C400.535 103.232 399.975 104.624 399.975 106.016V110H398.887V105.632C398.887 104.176 398.535 103.232 397.079 103.232C396.039 103.232 394.903 104.16 394.903 106.16V110H393.815V104.16C393.815 103.76 393.799 103.024 393.751 102.512H394.791C394.823 102.912 394.855 103.472 394.855 103.792H394.887ZM408.548 105.68H413.652C413.588 104.272 412.724 103.232 411.172 103.232C409.716 103.232 408.644 104.4 408.548 105.68ZM414.756 106.032C414.756 106.176 414.756 106.352 414.74 106.544H408.532C408.564 108.048 409.732 109.264 411.268 109.264C412.388 109.264 413.252 108.64 413.668 107.968L414.484 108.608C413.604 109.728 412.5 110.192 411.268 110.192C409.044 110.192 407.396 108.512 407.396 106.256C407.396 104 409.044 102.32 411.172 102.32C413.524 102.32 414.756 103.984 414.756 106.032ZM417.032 102.512H418.072C418.104 102.912 418.136 103.472 418.136 103.792H418.168C418.584 102.928 419.672 102.32 420.728 102.32C422.632 102.32 423.576 103.552 423.576 105.408V110H422.488V105.856C422.488 104.288 422.024 103.232 420.456 103.232C419.304 103.232 418.184 104.16 418.184 106.16V110H417.096V104.16C417.096 103.76 417.08 103.024 417.032 102.512ZM432.553 108.736C431.913 109.68 430.793 110.192 429.721 110.192C427.385 110.192 425.849 108.464 425.849 106.256C425.849 104.048 427.385 102.32 429.721 102.32C430.793 102.32 431.913 102.832 432.553 103.808H432.585V97.904H433.673V110H432.585V108.736H432.553ZM427.001 106.256C427.001 107.92 428.025 109.264 429.833 109.264C431.513 109.264 432.713 107.968 432.713 106.256C432.713 104.544 431.513 103.232 429.833 103.232C428.025 103.232 427.001 104.592 427.001 106.256ZM441.301 105.408V105.168C441.301 103.872 440.597 103.232 439.301 103.232C438.421 103.232 437.605 103.584 437.077 104.112L436.469 103.392C437.077 102.784 438.133 102.32 439.413 102.32C441.029 102.32 442.325 103.216 442.325 105.04V108.32C442.325 108.896 442.373 109.584 442.453 110H441.477C441.413 109.632 441.365 109.184 441.365 108.784H441.333C440.645 109.776 439.813 110.192 438.613 110.192C437.477 110.192 436.021 109.584 436.021 107.92C436.021 105.616 438.565 105.408 441.301 105.408ZM441.301 106.256H440.981C439.205 106.256 437.141 106.448 437.141 107.872C437.141 108.944 438.053 109.296 438.901 109.296C440.437 109.296 441.301 108.144 441.301 106.816V106.256ZM448.347 102.512V103.424H446.235V107.792C446.235 108.912 446.699 109.168 447.355 109.168C447.659 109.168 448.011 109.072 448.299 108.928L448.347 109.872C447.963 110.016 447.563 110.096 447.067 110.096C446.267 110.096 445.147 109.744 445.147 108.096V103.424H443.595V102.512H445.147V100.4H446.235V102.512H448.347ZM451.153 102.512V110H450.065V102.512H451.153ZM451.377 99.632C451.377 100.08 450.993 100.4 450.609 100.4C450.225 100.4 449.841 100.08 449.841 99.632C449.841 99.184 450.225 98.864 450.609 98.864C450.993 98.864 451.377 99.184 451.377 99.632ZM461.489 106.256C461.489 108.512 459.825 110.192 457.489 110.192C455.169 110.192 453.505 108.512 453.505 106.256C453.505 104 455.169 102.32 457.489 102.32C459.825 102.32 461.489 104 461.489 106.256ZM460.337 106.256C460.337 104.576 459.233 103.232 457.489 103.232C455.761 103.232 454.657 104.576 454.657 106.256C454.657 107.936 455.761 109.264 457.489 109.264C459.233 109.264 460.337 107.936 460.337 106.256ZM463.767 102.512H464.807C464.839 102.912 464.871 103.472 464.871 103.792H464.903C465.319 102.928 466.407 102.32 467.463 102.32C469.367 102.32 470.311 103.552 470.311 105.408V110H469.223V105.856C469.223 104.288 468.759 103.232 467.191 103.232C466.039 103.232 464.919 104.16 464.919 106.16V110H463.831V104.16C463.831 103.76 463.815 103.024 463.767 102.512ZM474.632 109.232C474.632 109.68 474.28 110.096 473.768 110.096C473.256 110.096 472.904 109.68 472.904 109.232C472.904 108.784 473.256 108.368 473.768 108.368C474.28 108.368 474.632 108.784 474.632 109.232Z" fill="#5D686F"/>
</svg>
