<svg width="335" height="297" viewBox="0 0 335 297" fill="none" xmlns="http://www.w3.org/2000/svg">
<rect y="15" width="335" height="267" rx="8" fill="white"/>
<rect x="0.5" y="15.5" width="334" height="266" rx="7.5" stroke="#BABEC5"/>
<path fill-rule="evenodd" clip-rule="evenodd" d="M29.2504 43.1296C29.0081 43.1296 28.763 43.0778 28.5301 42.9745L23.8412 40.8769L24.5025 39.3851L29.1915 41.4826C29.2389 41.5044 29.285 41.499 29.327 41.469C29.369 41.4377 29.388 41.3969 29.3825 41.3452L28.8445 36.215L30.4613 36.0448L30.9979 41.1723C31.0643 41.808 30.796 42.4123 30.281 42.7894C29.9722 43.0152 29.6134 43.1295 29.2504 43.1296ZM32.5435 44.8501C32.8506 45.0773 33.2087 45.196 33.5719 45.1991L33.5719 45.1964C33.8145 45.1984 34.0602 45.1501 34.2942 45.0473L39.0006 42.9893L38.3519 41.4919L33.6454 43.5499C33.5978 43.5713 33.5518 43.5655 33.51 43.5352C33.4683 43.5049 33.4497 43.4625 33.4555 43.4108L34.0353 38.2881L32.4201 38.1043L31.8403 43.2271C31.7685 43.8635 32.0317 44.4701 32.5435 44.8501ZM35.0457 53.1624L31.6457 49.3005C31.2244 48.8218 31.0919 48.1727 31.2951 47.566C31.497 46.9593 31.9901 46.5213 32.6146 46.3934L37.6449 45.3652L37.9682 46.9661L32.9379 47.9943C32.8863 48.0048 32.8535 48.0344 32.8368 48.0846C32.8201 48.1348 32.8292 48.1785 32.8641 48.2183L36.2642 52.0801L35.0457 53.1624ZM25.5411 53.4354L24.1361 52.6134L26.7196 48.1585C27.0402 47.6057 27.612 47.2771 28.2489 47.2795C28.8858 47.2819 29.4551 47.6148 29.7715 48.17L32.3214 52.6442L30.9103 53.4556L28.3604 48.9813C28.3092 48.8913 28.1778 48.8895 28.126 48.9805L25.5424 53.4354L25.5411 53.4354ZM22.6041 48.747L23.8012 49.8528L23.8012 49.8555L27.2758 46.0606C27.7064 45.5888 27.8502 44.9437 27.6601 44.3332C27.4701 43.7228 26.9857 43.2752 26.3637 43.1352L21.3544 42.0092L21 43.6035L26.0093 44.7268C26.0593 44.7382 26.0929 44.7698 26.1086 44.819C26.1243 44.8696 26.1144 44.9144 26.0787 44.9521L22.6041 48.747Z" fill="#236CFF"/>
<path d="M51.094 50V41.628H48.056V40.088H55.896V41.628H52.858V50H51.094ZM59.7972 50V49.146H59.7552C59.4192 49.734 58.6212 50.168 57.6692 50.168C56.5912 50.168 55.1492 49.65 55.1492 48.082C55.1492 46.08 57.6692 45.8 59.7692 45.8V45.632C59.7692 44.806 59.0692 44.4 58.2292 44.4C57.5152 44.4 56.8292 44.736 56.3952 45.17L55.5272 44.148C56.2832 43.448 57.3472 43.084 58.3692 43.084C60.7772 43.084 61.3652 44.568 61.3652 45.912V50H59.7972ZM59.7692 47.172V46.934H59.3912C58.3272 46.934 56.8292 47.06 56.8292 48.054C56.8292 48.698 57.4312 48.894 58.0052 48.894C59.1532 48.894 59.7692 48.236 59.7692 47.172ZM62.3005 50L65.0305 46.43L62.6085 43.28H64.6245L66.0805 45.366L67.5785 43.28H69.5105L67.1025 46.43L69.8465 50H67.8025L66.0525 47.55L64.2885 50H62.3005ZM75.728 50L73.39 43.28H75.21L76.61 48.096H76.638L78.08 43.28H79.872L81.328 48.096H81.356L82.784 43.28H84.534L82.21 50H80.502L78.976 45.296H78.948L77.436 50H75.728ZM85.5939 50V43.28H87.2039V44.4H87.2319C87.5959 43.63 88.3099 43.084 89.1919 43.084C89.3179 43.084 89.4859 43.098 89.5979 43.126V44.666C89.3739 44.61 89.2339 44.596 89.0799 44.596C87.5679 44.596 87.2739 45.912 87.2739 46.402V50H85.5939ZM90.7215 50V43.28H92.4015V50H90.7215ZM90.4835 40.998C90.4835 40.466 90.9315 39.99 91.5475 39.99C92.1635 39.99 92.6395 40.424 92.6395 40.998C92.6395 41.572 92.1635 42.006 91.5475 42.006C90.9315 42.006 90.4835 41.53 90.4835 40.998ZM94.6496 44.624H93.4736V43.28H94.6496V41.334H96.3016V43.28H97.9816V44.624H96.3016V47.746C96.3016 48.348 96.4416 48.782 97.1836 48.782C97.4076 48.782 97.7016 48.74 97.8976 48.642L97.9536 49.958C97.6596 50.07 97.2116 50.14 96.8336 50.14C95.0556 50.14 94.6496 49.048 94.6496 47.76V44.624ZM100.485 45.968H103.929C103.929 45.1 103.439 44.344 102.347 44.344C101.353 44.344 100.555 45.03 100.485 45.968ZM105.609 46.724C105.609 46.878 105.609 47.018 105.595 47.172H100.485C100.555 48.124 101.423 48.824 102.403 48.824C103.243 48.824 103.803 48.488 104.181 47.956L105.301 48.852C104.643 49.748 103.691 50.196 102.417 50.196C100.345 50.196 98.8055 48.866 98.8055 46.682C98.8055 44.512 100.331 43.084 102.361 43.084C104.237 43.084 105.609 44.302 105.609 46.724ZM110.149 45.842V47.27H106.789V45.842H110.149ZM111.329 46.612C111.329 44.498 112.953 43.084 114.983 43.084C117.013 43.084 118.637 44.498 118.637 46.612C118.637 48.726 117.013 50.196 114.983 50.196C112.953 50.196 111.329 48.726 111.329 46.612ZM113.037 46.612C113.037 47.662 113.653 48.796 114.983 48.796C116.313 48.796 116.929 47.662 116.929 46.612C116.929 45.562 116.313 44.456 114.983 44.456C113.653 44.456 113.037 45.562 113.037 46.612ZM120.532 50V44.624H119.258V43.28H120.532V42.286C120.532 40.676 121.162 39.248 123.248 39.248C123.612 39.248 123.85 39.276 124.102 39.346L123.99 40.774C123.808 40.718 123.584 40.676 123.346 40.676C122.38 40.676 122.212 41.516 122.212 42.188V43.28H123.766V44.624H122.212V50H120.532ZM124.77 50V44.624H123.496V43.28H124.77V42.286C124.77 40.676 125.4 39.248 127.486 39.248C127.85 39.248 128.088 39.276 128.34 39.346L128.228 40.774C128.046 40.718 127.822 40.676 127.584 40.676C126.618 40.676 126.45 41.516 126.45 42.188V43.28H128.004V44.624H126.45V50H124.77ZM133.817 44.106L132.725 45.072C132.431 44.68 131.871 44.344 131.255 44.344C130.723 44.344 130.177 44.54 130.177 45.072C130.177 45.59 130.695 45.73 131.633 45.954C132.627 46.192 133.803 46.64 133.803 47.956C133.803 49.594 132.473 50.196 131.003 50.196C129.967 50.196 128.889 49.804 128.245 49.09L129.351 48.054C129.715 48.53 130.345 48.894 131.073 48.894C131.563 48.894 132.151 48.698 132.151 48.096C132.151 47.536 131.633 47.368 130.611 47.13C129.617 46.892 128.623 46.486 128.623 45.226C128.623 43.728 129.967 43.084 131.297 43.084C132.263 43.084 133.271 43.42 133.817 44.106Z" fill="#393A3D"/>
<path d="M305 42.3352C305.736 42.3363 306.334 41.7403 306.335 41.0039C306.336 40.2675 305.74 39.6697 305.004 39.6686C304.268 39.6675 303.67 40.2635 303.669 40.9999C303.668 41.7363 304.264 42.3341 305 42.3352Z" fill="#6B6C72"/>
<path d="M305 46.3352C305.736 46.3363 306.334 45.7403 306.335 45.0039C306.336 44.2675 305.74 43.6697 305.004 43.6686C304.268 43.6675 303.67 44.2635 303.669 44.9999C303.668 45.7363 304.264 46.3341 305 46.3352Z" fill="#6B6C72"/>
<path d="M305 50.3352C305.736 50.3363 306.334 49.7403 306.335 49.0039C306.336 48.2675 305.74 47.6697 305.004 47.6686C304.268 47.6675 303.67 48.2635 303.669 48.9999C303.668 49.7363 304.264 50.3341 305 50.3352Z" fill="#6B6C72"/>
<g clip-path="url(#clip0_14_5906)">
<path d="M25.344 84.064V94H23.76V84.064H20.128V82.672H28.976V84.064H25.344ZM33.5941 89.296V89.088C33.5941 87.968 32.8421 87.424 31.7221 87.424C30.8741 87.424 30.0741 87.792 29.5621 88.304L28.7621 87.344C29.4981 86.64 30.6341 86.208 31.8661 86.208C34.0421 86.208 35.0341 87.504 35.0341 89.184V92.496C35.0341 93.008 35.0661 93.632 35.1461 94H33.7861C33.7061 93.664 33.6581 93.264 33.6581 92.912H33.6101C33.0661 93.728 32.2021 94.192 31.0661 94.192C29.8661 94.192 28.3141 93.6 28.3141 91.856C28.3141 89.568 31.0341 89.296 33.5941 89.296ZM33.5941 90.384H33.2261C31.7381 90.384 29.8501 90.544 29.8501 91.824C29.8501 92.72 30.6501 93.008 31.4021 93.008C32.8101 93.008 33.5941 92.064 33.5941 90.784V90.384ZM36.362 94L39.402 90.016L36.634 86.416H38.49L40.346 89.024L42.218 86.416H43.978L41.242 90L44.298 94H42.426L40.314 91.04L38.17 94H36.362ZM48.6459 86.416H50.2779L51.9899 92.208H52.0219L53.8299 86.416H55.4139L57.2539 92.208H57.2859L58.9979 86.416H60.5819L58.0699 94H56.5019L54.6299 88.304H54.5979L52.7419 94H51.1739L48.6459 86.416ZM62.0929 88.048C62.0929 87.648 62.0769 86.912 62.0289 86.416H63.4529C63.4849 86.8 63.5169 87.376 63.5169 87.696H63.5649C63.9809 86.816 64.8609 86.208 65.8849 86.208C66.0929 86.208 66.3009 86.224 66.4769 86.272L66.4129 87.664C66.2209 87.616 65.9649 87.584 65.7249 87.584C64.2849 87.584 63.5969 88.752 63.5969 90.016V94H62.0929V88.048ZM69.4098 86.416V94H67.9058V86.416H69.4098ZM69.6658 83.68C69.6658 84.224 69.2018 84.64 68.6578 84.64C68.1138 84.64 67.6658 84.208 67.6658 83.68C67.6658 83.136 68.1138 82.704 68.6578 82.704C69.2018 82.704 69.6658 83.12 69.6658 83.68ZM75.7424 86.416V87.648H73.7264V91.6C73.7264 92.512 74.0464 92.88 74.7984 92.88C75.0704 92.88 75.4224 92.816 75.6784 92.688L75.7264 93.92C75.3744 94.048 74.9104 94.128 74.4464 94.128C73.0224 94.128 72.2384 93.328 72.2384 91.76V87.648H70.7824V86.416H72.2384V84.24H73.7264V86.416H75.7424ZM78.336 89.536H82.848C82.816 88.336 82.112 87.392 80.72 87.392C79.424 87.392 78.432 88.352 78.336 89.536ZM84.368 90.144C84.368 90.304 84.368 90.48 84.352 90.656H78.336C78.384 91.952 79.472 92.96 80.8 92.96C81.824 92.96 82.576 92.448 83.008 91.808L84.064 92.656C83.248 93.712 82.144 94.208 80.8 94.208C78.496 94.208 76.8 92.608 76.8 90.224C76.8 87.856 78.496 86.208 80.72 86.208C82.96 86.208 84.368 87.728 84.368 90.144ZM89.5879 89.456V90.736H85.8759V89.456H89.5879ZM99.2729 90.192C99.2729 92.528 97.4969 94.208 95.1769 94.208C92.8569 94.208 91.0969 92.528 91.0969 90.192C91.0969 87.856 92.8569 86.208 95.1769 86.208C97.4969 86.208 99.2729 87.856 99.2729 90.192ZM97.7049 90.192C97.7049 88.752 96.8089 87.456 95.1769 87.456C93.5609 87.456 92.6489 88.752 92.6489 90.192C92.6489 91.632 93.5609 92.944 95.1769 92.944C96.8089 92.944 97.7049 91.632 97.7049 90.192ZM104.927 86.416V87.648H103.167V94H101.663V87.648H100.159V86.416H101.663V84.832C101.663 83.056 102.447 81.712 104.495 81.712C104.847 81.712 105.151 81.744 105.439 81.824L105.263 83.12C105.039 83.056 104.799 83.008 104.511 83.008C103.375 83.008 103.167 83.904 103.167 84.832V86.416H104.927ZM109.536 86.416V87.648H107.776V94H106.272V87.648H104.768V86.416H106.272V84.832C106.272 83.056 107.056 81.712 109.104 81.712C109.456 81.712 109.76 81.744 110.048 81.824L109.872 83.12C109.648 83.056 109.408 83.008 109.12 83.008C107.984 83.008 107.776 83.904 107.776 84.832V86.416H109.536ZM116.057 87.456L115.017 88.336C114.681 87.792 114.025 87.392 113.257 87.392C112.569 87.392 111.849 87.664 111.849 88.384C111.849 89.024 112.425 89.264 113.577 89.52C115.017 89.84 116.121 90.432 116.121 91.76C116.121 93.552 114.633 94.208 113.097 94.208C111.945 94.208 110.761 93.76 110.041 92.848L111.113 91.936C111.513 92.528 112.281 92.992 113.129 92.992C113.881 92.992 114.633 92.72 114.633 91.888C114.633 91.184 113.945 90.928 112.649 90.624C111.641 90.384 110.441 89.952 110.441 88.528C110.441 86.896 111.865 86.208 113.305 86.208C114.377 86.208 115.513 86.64 116.057 87.456ZM126.75 89.296V89.088C126.75 87.968 125.998 87.424 124.878 87.424C124.03 87.424 123.23 87.792 122.718 88.304L121.918 87.344C122.654 86.64 123.79 86.208 125.022 86.208C127.198 86.208 128.19 87.504 128.19 89.184V92.496C128.19 93.008 128.222 93.632 128.302 94H126.942C126.862 93.664 126.814 93.264 126.814 92.912H126.766C126.222 93.728 125.358 94.192 124.222 94.192C123.022 94.192 121.47 93.6 121.47 91.856C121.47 89.568 124.19 89.296 126.75 89.296ZM126.75 90.384H126.382C124.894 90.384 123.006 90.544 123.006 91.824C123.006 92.72 123.806 93.008 124.558 93.008C125.966 93.008 126.75 92.064 126.75 90.784V90.384ZM130.702 88.048C130.702 87.648 130.686 86.912 130.638 86.416H132.062C132.094 86.8 132.126 87.376 132.126 87.696H132.174C132.59 86.816 133.47 86.208 134.494 86.208C134.702 86.208 134.91 86.224 135.086 86.272L135.022 87.664C134.83 87.616 134.574 87.584 134.334 87.584C132.894 87.584 132.206 88.752 132.206 90.016V94H130.702V88.048ZM137.258 89.536H141.77C141.738 88.336 141.034 87.392 139.642 87.392C138.346 87.392 137.354 88.352 137.258 89.536ZM143.29 90.144C143.29 90.304 143.29 90.48 143.274 90.656H137.258C137.306 91.952 138.394 92.96 139.722 92.96C140.746 92.96 141.498 92.448 141.93 91.808L142.986 92.656C142.17 93.712 141.066 94.208 139.722 94.208C137.418 94.208 135.722 92.608 135.722 90.224C135.722 87.856 137.418 86.208 139.642 86.208C141.882 86.208 143.29 87.728 143.29 90.144ZM155.438 92.8C154.862 93.712 153.774 94.208 152.702 94.208C150.366 94.208 148.878 92.416 148.878 90.192C148.878 87.952 150.414 86.208 152.686 86.208C153.918 86.208 154.862 86.816 155.39 87.552H155.422V81.904H156.926V94H155.47V92.8H155.438ZM150.446 90.192C150.446 91.616 151.31 92.944 152.958 92.944C154.494 92.944 155.518 91.664 155.518 90.208C155.518 88.752 154.494 87.456 152.958 87.456C151.31 87.456 150.446 88.768 150.446 90.192ZM160.586 89.536H165.098C165.066 88.336 164.362 87.392 162.97 87.392C161.674 87.392 160.682 88.352 160.586 89.536ZM166.618 90.144C166.618 90.304 166.618 90.48 166.602 90.656H160.586C160.634 91.952 161.722 92.96 163.05 92.96C164.074 92.96 164.826 92.448 165.258 91.808L166.314 92.656C165.498 93.712 164.394 94.208 163.05 94.208C160.746 94.208 159.05 92.608 159.05 90.224C159.05 87.856 160.746 86.208 162.97 86.208C165.21 86.208 166.618 87.728 166.618 90.144ZM174.766 92.8C174.19 93.712 173.102 94.208 172.03 94.208C169.694 94.208 168.206 92.416 168.206 90.192C168.206 87.952 169.742 86.208 172.014 86.208C173.246 86.208 174.19 86.816 174.718 87.552H174.75V81.904H176.254V94H174.798V92.8H174.766ZM169.774 90.192C169.774 91.616 170.638 92.944 172.286 92.944C173.822 92.944 174.846 91.664 174.846 90.208C174.846 88.752 173.822 87.456 172.286 87.456C170.638 87.456 169.774 88.768 169.774 90.192ZM185.642 94H184.218C184.186 93.616 184.154 93.072 184.154 92.752H184.122C183.738 93.552 182.746 94.208 181.642 94.208C179.69 94.208 178.81 92.816 178.81 91.12V86.416H180.314V90.608C180.314 91.856 180.65 92.944 182.042 92.944C183.242 92.944 184.074 91.952 184.074 90.448V86.416H185.578V92.368C185.578 92.768 185.594 93.504 185.642 94ZM194.587 87.456L193.499 88.336C193.179 87.84 192.475 87.472 191.755 87.472C190.187 87.472 189.275 88.752 189.275 90.208C189.275 91.648 190.187 92.944 191.771 92.944C192.539 92.944 193.195 92.624 193.595 92.112L194.603 93.024C193.963 93.76 192.987 94.208 191.771 94.208C189.435 94.208 187.691 92.624 187.691 90.208C187.691 87.824 189.419 86.208 191.739 86.208C192.811 86.208 193.963 86.64 194.587 87.456ZM199.805 86.416V87.648H197.789V91.6C197.789 92.512 198.109 92.88 198.861 92.88C199.133 92.88 199.485 92.816 199.741 92.688L199.789 93.92C199.437 94.048 198.973 94.128 198.509 94.128C197.085 94.128 196.301 93.328 196.301 91.76V87.648H194.845V86.416H196.301V84.24H197.789V86.416H199.805ZM202.879 86.416V94H201.375V86.416H202.879ZM203.135 83.68C203.135 84.224 202.671 84.64 202.127 84.64C201.583 84.64 201.135 84.208 201.135 83.68C201.135 83.136 201.583 82.704 202.127 82.704C202.671 82.704 203.135 83.12 203.135 83.68ZM213.179 90.192C213.179 92.528 211.403 94.208 209.083 94.208C206.763 94.208 205.003 92.528 205.003 90.192C205.003 87.856 206.763 86.208 209.083 86.208C211.403 86.208 213.179 87.856 213.179 90.192ZM211.611 90.192C211.611 88.752 210.715 87.456 209.083 87.456C207.467 87.456 206.555 88.752 206.555 90.192C206.555 91.632 207.467 92.944 209.083 92.944C210.715 92.944 211.611 91.632 211.611 90.192ZM215.201 86.416H216.625C216.657 86.8 216.689 87.344 216.689 87.664H216.737C217.105 86.848 218.113 86.208 219.201 86.208C221.153 86.208 222.033 87.6 222.033 89.296V94H220.529V89.792C220.529 88.56 220.193 87.472 218.801 87.472C217.617 87.472 216.769 88.464 216.769 89.968V94H215.265V88.048C215.265 87.648 215.249 86.912 215.201 86.416ZM229.713 87.456L228.673 88.336C228.337 87.792 227.681 87.392 226.913 87.392C226.225 87.392 225.505 87.664 225.505 88.384C225.505 89.024 226.081 89.264 227.233 89.52C228.673 89.84 229.777 90.432 229.777 91.76C229.777 93.552 228.289 94.208 226.753 94.208C225.601 94.208 224.417 93.76 223.697 92.848L224.769 91.936C225.169 92.528 225.937 92.992 226.785 92.992C227.537 92.992 228.289 92.72 228.289 91.888C228.289 91.184 227.601 90.928 226.305 90.624C225.297 90.384 224.097 89.952 224.097 88.528C224.097 86.896 225.521 86.208 226.961 86.208C228.033 86.208 229.169 86.64 229.713 87.456ZM239.399 86.416V87.648H237.383V91.6C237.383 92.512 237.703 92.88 238.455 92.88C238.727 92.88 239.079 92.816 239.335 92.688L239.383 93.92C239.031 94.048 238.567 94.128 238.103 94.128C236.679 94.128 235.895 93.328 235.895 91.76V87.648H234.439V86.416H235.895V84.24H237.383V86.416H239.399ZM242.488 87.568H242.52C242.872 86.816 243.832 86.208 244.92 86.208C246.872 86.208 247.752 87.6 247.752 89.296V94H246.248V89.808C246.248 88.576 245.928 87.488 244.536 87.488C243.352 87.488 242.488 88.48 242.488 89.984V94H240.984V81.904H242.488V87.568ZM255.016 89.296V89.088C255.016 87.968 254.264 87.424 253.144 87.424C252.296 87.424 251.496 87.792 250.984 88.304L250.184 87.344C250.92 86.64 252.056 86.208 253.288 86.208C255.464 86.208 256.456 87.504 256.456 89.184V92.496C256.456 93.008 256.488 93.632 256.568 94H255.208C255.128 93.664 255.08 93.264 255.08 92.912H255.032C254.488 93.728 253.624 94.192 252.488 94.192C251.288 94.192 249.736 93.6 249.736 91.856C249.736 89.568 252.456 89.296 255.016 89.296ZM255.016 90.384H254.648C253.16 90.384 251.272 90.544 251.272 91.824C251.272 92.72 252.072 93.008 252.824 93.008C254.232 93.008 255.016 92.064 255.016 90.784V90.384ZM262.524 86.416V87.648H260.508V91.6C260.508 92.512 260.828 92.88 261.58 92.88C261.852 92.88 262.204 92.816 262.46 92.688L262.508 93.92C262.156 94.048 261.692 94.128 261.228 94.128C259.804 94.128 259.02 93.328 259.02 91.76V87.648H257.564V86.416H259.02V84.24H260.508V86.416H262.524ZM269.613 81.904V94H268.109V81.904H269.613ZM279.914 90.192C279.914 92.528 278.138 94.208 275.818 94.208C273.498 94.208 271.738 92.528 271.738 90.192C271.738 87.856 273.498 86.208 275.818 86.208C278.138 86.208 279.914 87.856 279.914 90.192ZM278.346 90.192C278.346 88.752 277.45 87.456 275.818 87.456C274.202 87.456 273.289 88.752 273.289 90.192C273.289 91.632 274.202 92.944 275.818 92.944C277.45 92.944 278.346 91.632 278.346 90.192ZM280.927 86.416H282.559L284.271 92.208H284.303L286.111 86.416H287.695L289.535 92.208H289.567L291.279 86.416H292.863L290.351 94H288.783L286.911 88.304H286.879L285.023 94H283.455L280.927 86.416ZM295.414 89.536H299.926C299.894 88.336 299.19 87.392 297.798 87.392C296.502 87.392 295.51 88.352 295.414 89.536ZM301.446 90.144C301.446 90.304 301.446 90.48 301.43 90.656H295.414C295.462 91.952 296.55 92.96 297.878 92.96C298.902 92.96 299.654 92.448 300.086 91.808L301.142 92.656C300.326 93.712 299.222 94.208 297.878 94.208C295.574 94.208 293.878 92.608 293.878 90.224C293.878 87.856 295.574 86.208 297.798 86.208C300.038 86.208 301.446 87.728 301.446 90.144ZM303.546 88.048C303.546 87.648 303.53 86.912 303.482 86.416H304.906C304.938 86.8 304.97 87.376 304.97 87.696H305.018C305.434 86.816 306.314 86.208 307.338 86.208C307.546 86.208 307.754 86.224 307.93 86.272L307.866 87.664C307.674 87.616 307.418 87.584 307.178 87.584C305.738 87.584 305.05 88.752 305.05 90.016V94H303.546V88.048ZM21.824 110.416L24.176 116.368H24.208L26.304 110.416H27.904L24.224 119.792C23.728 121.056 23.088 121.84 21.6 121.84C21.28 121.84 20.944 121.808 20.608 121.728L20.752 120.4C20.992 120.48 21.264 120.528 21.504 120.528C22.288 120.528 22.592 120.08 22.912 119.264L23.392 118L20.144 110.416H21.824ZM37.0385 114.192C37.0385 116.528 35.2625 118.208 32.9425 118.208C30.6225 118.208 28.8625 116.528 28.8625 114.192C28.8625 111.856 30.6225 110.208 32.9425 110.208C35.2625 110.208 37.0385 111.856 37.0385 114.192ZM35.4705 114.192C35.4705 112.752 34.5745 111.456 32.9425 111.456C31.3265 111.456 30.4145 112.752 30.4145 114.192C30.4145 115.632 31.3265 116.944 32.9425 116.944C34.5745 116.944 35.4705 115.632 35.4705 114.192ZM45.8921 118H44.4681C44.4361 117.616 44.4041 117.072 44.4041 116.752H44.3721C43.9881 117.552 42.9961 118.208 41.8921 118.208C39.9401 118.208 39.0601 116.816 39.0601 115.12V110.416H40.5641V114.608C40.5641 115.856 40.9001 116.944 42.2921 116.944C43.4921 116.944 44.3241 115.952 44.3241 114.448V110.416H45.8281V116.368C45.8281 116.768 45.8441 117.504 45.8921 118ZM48.4366 112.048C48.4366 111.648 48.4206 110.912 48.3726 110.416H49.7966C49.8286 110.8 49.8606 111.376 49.8606 111.696H49.9086C50.3246 110.816 51.2046 110.208 52.2286 110.208C52.4366 110.208 52.6446 110.224 52.8206 110.272L52.7566 111.664C52.5646 111.616 52.3086 111.584 52.0686 111.584C50.6286 111.584 49.9406 112.752 49.9406 114.016V118H48.4366V112.048ZM61.9455 110.416V111.648H59.9295V115.6C59.9295 116.512 60.2495 116.88 61.0015 116.88C61.2735 116.88 61.6255 116.816 61.8815 116.688L61.9295 117.92C61.5775 118.048 61.1135 118.128 60.6495 118.128C59.2255 118.128 58.4415 117.328 58.4415 115.76V111.648H56.9855V110.416H58.4415V108.24H59.9295V110.416H61.9455ZM68.2191 113.296V113.088C68.2191 111.968 67.4671 111.424 66.3471 111.424C65.4991 111.424 64.6991 111.792 64.1871 112.304L63.3871 111.344C64.1231 110.64 65.2591 110.208 66.4911 110.208C68.6671 110.208 69.6591 111.504 69.6591 113.184V116.496C69.6591 117.008 69.6911 117.632 69.7711 118H68.4111C68.3311 117.664 68.2831 117.264 68.2831 116.912H68.2351C67.6911 117.728 66.8271 118.192 65.6911 118.192C64.4911 118.192 62.9391 117.6 62.9391 115.856C62.9391 113.568 65.6591 113.296 68.2191 113.296ZM68.2191 114.384H67.8511C66.3631 114.384 64.4751 114.544 64.4751 115.824C64.4751 116.72 65.2751 117.008 66.0271 117.008C67.4351 117.008 68.2191 116.064 68.2191 114.784V114.384ZM70.987 118L74.027 114.016L71.259 110.416H73.115L74.971 113.024L76.843 110.416H78.603L75.867 114L78.923 118H77.051L74.939 115.04L72.795 118H70.987ZM85.0629 113.296V113.088C85.0629 111.968 84.3109 111.424 83.1909 111.424C82.3429 111.424 81.5429 111.792 81.0309 112.304L80.2309 111.344C80.9669 110.64 82.1029 110.208 83.3349 110.208C85.5109 110.208 86.5029 111.504 86.5029 113.184V116.496C86.5029 117.008 86.5349 117.632 86.6149 118H85.2549C85.1749 117.664 85.1269 117.264 85.1269 116.912H85.0789C84.5349 117.728 83.6709 118.192 82.5349 118.192C81.3349 118.192 79.7829 117.6 79.7829 115.856C79.7829 113.568 82.5029 113.296 85.0629 113.296ZM85.0629 114.384H84.6949C83.2069 114.384 81.3189 114.544 81.3189 115.824C81.3189 116.72 82.1189 117.008 82.8709 117.008C84.2789 117.008 85.0629 116.064 85.0629 114.784V114.384ZM90.5348 116.8H90.5028V118H89.0468V105.904H90.5508V111.552H90.5988C91.1108 110.816 92.0548 110.208 93.3028 110.208C95.5588 110.208 97.0948 111.952 97.0948 114.192C97.0948 116.416 95.6068 118.208 93.2708 118.208C92.1988 118.208 91.1268 117.712 90.5348 116.8ZM95.5428 114.192C95.5428 112.768 94.6628 111.456 93.0148 111.456C91.4788 111.456 90.4548 112.752 90.4548 114.208C90.4548 115.664 91.4788 116.944 93.0148 116.944C94.6628 116.944 95.5428 115.616 95.5428 114.192ZM100.723 105.904V118H99.2186V105.904H100.723ZM104.383 113.536H108.895C108.863 112.336 108.159 111.392 106.767 111.392C105.471 111.392 104.479 112.352 104.383 113.536ZM110.415 114.144C110.415 114.304 110.415 114.48 110.399 114.656H104.383C104.431 115.952 105.519 116.96 106.847 116.96C107.871 116.96 108.623 116.448 109.055 115.808L110.111 116.656C109.295 117.712 108.191 118.208 106.847 118.208C104.543 118.208 102.847 116.608 102.847 114.224C102.847 111.856 104.543 110.208 106.767 110.208C109.007 110.208 110.415 111.728 110.415 114.144ZM118.035 110.416V118H116.531V110.416H118.035ZM118.291 107.68C118.291 108.224 117.827 108.64 117.283 108.64C116.739 108.64 116.291 108.208 116.291 107.68C116.291 107.136 116.739 106.704 117.283 106.704C117.827 106.704 118.291 107.12 118.291 107.68ZM120.591 110.416H122.015C122.047 110.8 122.079 111.344 122.079 111.664H122.127C122.495 110.848 123.503 110.208 124.591 110.208C126.543 110.208 127.423 111.6 127.423 113.296V118H125.919V113.792C125.919 112.56 125.583 111.472 124.191 111.472C123.007 111.472 122.159 112.464 122.159 113.968V118H120.655V112.048C120.655 111.648 120.639 110.912 120.591 110.416ZM136.368 111.456L135.28 112.336C134.96 111.84 134.256 111.472 133.536 111.472C131.968 111.472 131.056 112.752 131.056 114.208C131.056 115.648 131.968 116.944 133.552 116.944C134.32 116.944 134.976 116.624 135.376 116.112L136.384 117.024C135.744 117.76 134.768 118.208 133.552 118.208C131.216 118.208 129.472 116.624 129.472 114.208C129.472 111.824 131.2 110.208 133.52 110.208C134.592 110.208 135.744 110.64 136.368 111.456ZM145.554 114.192C145.554 116.528 143.778 118.208 141.458 118.208C139.138 118.208 137.378 116.528 137.378 114.192C137.378 111.856 139.138 110.208 141.458 110.208C143.778 110.208 145.554 111.856 145.554 114.192ZM143.986 114.192C143.986 112.752 143.09 111.456 141.458 111.456C139.842 111.456 138.93 112.752 138.93 114.192C138.93 115.632 139.842 116.944 141.458 116.944C143.09 116.944 143.986 115.632 143.986 114.192ZM149.112 111.664C149.496 110.864 150.376 110.208 151.528 110.208C152.536 110.208 153.416 110.656 153.88 111.728C154.392 110.752 155.384 110.208 156.456 110.208C158.408 110.208 159.288 111.6 159.288 113.296V118H157.784V113.792C157.784 112.56 157.416 111.472 156.104 111.472C154.728 111.472 154.184 112.72 154.184 113.904V118H152.68V113.488C152.68 112.304 152.28 111.472 151.08 111.472C149.976 111.472 149.144 112.464 149.144 113.968V118H147.64V112.048C147.64 111.648 147.624 110.912 147.576 110.416H149C149.032 110.8 149.064 111.344 149.064 111.664H149.112ZM162.867 113.536H167.379C167.347 112.336 166.643 111.392 165.251 111.392C163.955 111.392 162.963 112.352 162.867 113.536ZM168.899 114.144C168.899 114.304 168.899 114.48 168.883 114.656H162.867C162.915 115.952 164.003 116.96 165.331 116.96C166.355 116.96 167.107 116.448 167.539 115.808L168.595 116.656C167.779 117.712 166.675 118.208 165.331 118.208C163.027 118.208 161.331 116.608 161.331 114.224C161.331 111.856 163.027 110.208 165.251 110.208C167.491 110.208 168.899 111.728 168.899 114.144ZM172.855 116.128L171.527 120.128H170.247L171.351 116.128H172.855ZM178.671 112.048C178.671 111.648 178.655 110.912 178.607 110.416H180.031C180.063 110.8 180.095 111.376 180.095 111.696H180.143C180.559 110.816 181.439 110.208 182.463 110.208C182.671 110.208 182.879 110.224 183.055 110.272L182.991 111.664C182.799 111.616 182.543 111.584 182.303 111.584C180.863 111.584 180.175 112.752 180.175 114.016V118H178.671V112.048ZM185.227 113.536H189.739C189.707 112.336 189.003 111.392 187.611 111.392C186.315 111.392 185.323 112.352 185.227 113.536ZM191.259 114.144C191.259 114.304 191.259 114.48 191.243 114.656H185.227C185.275 115.952 186.363 116.96 187.691 116.96C188.715 116.96 189.467 116.448 189.899 115.808L190.955 116.656C190.139 117.712 189.035 118.208 187.691 118.208C185.387 118.208 183.691 116.608 183.691 114.224C183.691 111.856 185.387 110.208 187.611 110.208C189.851 110.208 191.259 111.728 191.259 114.144ZM199.407 116.8C198.831 117.712 197.743 118.208 196.671 118.208C194.335 118.208 192.847 116.416 192.847 114.192C192.847 111.952 194.383 110.208 196.655 110.208C197.887 110.208 198.831 110.816 199.359 111.552H199.391V105.904H200.895V118H199.439V116.8H199.407ZM194.414 114.192C194.414 115.616 195.279 116.944 196.927 116.944C198.463 116.944 199.487 115.664 199.487 114.208C199.487 112.752 198.463 111.456 196.927 111.456C195.279 111.456 194.414 112.768 194.414 114.192ZM210.283 118H208.859C208.827 117.616 208.795 117.072 208.795 116.752H208.763C208.379 117.552 207.387 118.208 206.283 118.208C204.331 118.208 203.451 116.816 203.451 115.12V110.416H204.955V114.608C204.955 115.856 205.291 116.944 206.683 116.944C207.883 116.944 208.715 115.952 208.715 114.448V110.416H210.219V116.368C210.219 116.768 210.235 117.504 210.283 118ZM219.227 111.456L218.139 112.336C217.819 111.84 217.115 111.472 216.395 111.472C214.827 111.472 213.915 112.752 213.915 114.208C213.915 115.648 214.827 116.944 216.411 116.944C217.179 116.944 217.835 116.624 218.235 116.112L219.243 117.024C218.603 117.76 217.627 118.208 216.411 118.208C214.075 118.208 212.331 116.624 212.331 114.208C212.331 111.824 214.059 110.208 216.379 110.208C217.451 110.208 218.603 110.64 219.227 111.456ZM222.254 110.416V118H220.75V110.416H222.254ZM222.51 107.68C222.51 108.224 222.046 108.64 221.502 108.64C220.958 108.64 220.51 108.208 220.51 107.68C220.51 107.136 220.958 106.704 221.502 106.704C222.046 106.704 222.51 107.12 222.51 107.68ZM224.81 110.416H226.234C226.266 110.8 226.298 111.344 226.298 111.664H226.346C226.714 110.848 227.722 110.208 228.81 110.208C230.762 110.208 231.642 111.6 231.642 113.296V118H230.138V113.792C230.138 112.56 229.802 111.472 228.41 111.472C227.226 111.472 226.378 112.464 226.378 113.968V118H224.874V112.048C224.874 111.648 224.858 110.912 224.81 110.416ZM233.819 120.464L234.779 119.296C235.435 120.032 236.507 120.528 237.547 120.528C239.547 120.528 240.219 119.296 240.219 117.728V116.752H240.187C239.627 117.6 238.587 118.064 237.515 118.064C235.195 118.064 233.691 116.336 233.691 114.16C233.691 111.984 235.179 110.208 237.499 110.208C238.587 110.208 239.659 110.688 240.235 111.632H240.267V110.416H241.723V117.616C241.723 119.824 240.683 121.84 237.531 121.84C236.219 121.84 234.763 121.328 233.819 120.464ZM235.243 114.128C235.243 115.52 236.171 116.8 237.755 116.8C239.307 116.8 240.331 115.632 240.331 114.128C240.331 112.688 239.291 111.456 237.755 111.456C236.171 111.456 235.243 112.672 235.243 114.128ZM252.008 110.416V111.648H249.992V115.6C249.992 116.512 250.312 116.88 251.064 116.88C251.336 116.88 251.688 116.816 251.944 116.688L251.992 117.92C251.64 118.048 251.176 118.128 250.712 118.128C249.288 118.128 248.504 117.328 248.504 115.76V111.648H247.048V110.416H248.504V108.24H249.992V110.416H252.008ZM255.098 111.568H255.13C255.482 110.816 256.442 110.208 257.53 110.208C259.482 110.208 260.362 111.6 260.362 113.296V118H258.858V113.808C258.858 112.576 258.538 111.488 257.146 111.488C255.962 111.488 255.098 112.48 255.098 113.984V118H253.594V105.904H255.098V111.568ZM263.945 113.536H268.457C268.425 112.336 267.721 111.392 266.329 111.392C265.033 111.392 264.041 112.352 263.945 113.536ZM269.977 114.144C269.977 114.304 269.977 114.48 269.961 114.656H263.945C263.993 115.952 265.081 116.96 266.409 116.96C267.433 116.96 268.185 116.448 268.617 115.808L269.673 116.656C268.857 117.712 267.753 118.208 266.409 118.208C264.105 118.208 262.409 116.608 262.409 114.224C262.409 111.856 264.105 110.208 266.329 110.208C268.569 110.208 269.977 111.728 269.977 114.144ZM26.016 137.296V137.088C26.016 135.968 25.264 135.424 24.144 135.424C23.296 135.424 22.496 135.792 21.984 136.304L21.184 135.344C21.92 134.64 23.056 134.208 24.288 134.208C26.464 134.208 27.456 135.504 27.456 137.184V140.496C27.456 141.008 27.488 141.632 27.568 142H26.208C26.128 141.664 26.08 141.264 26.08 140.912H26.032C25.488 141.728 24.624 142.192 23.488 142.192C22.288 142.192 20.736 141.6 20.736 139.856C20.736 137.568 23.456 137.296 26.016 137.296ZM26.016 138.384H25.648C24.16 138.384 22.272 138.544 22.272 139.824C22.272 140.72 23.072 141.008 23.824 141.008C25.232 141.008 26.016 140.064 26.016 138.784V138.384ZM31.4399 135.664C31.8239 134.864 32.7039 134.208 33.8559 134.208C34.8639 134.208 35.7439 134.656 36.2079 135.728C36.7199 134.752 37.7119 134.208 38.7839 134.208C40.7359 134.208 41.6159 135.6 41.6159 137.296V142H40.1119V137.792C40.1119 136.56 39.7439 135.472 38.4319 135.472C37.0559 135.472 36.5119 136.72 36.5119 137.904V142H35.0079V137.488C35.0079 136.304 34.6079 135.472 33.4079 135.472C32.3039 135.472 31.4719 136.464 31.4719 137.968V142H29.9679V136.048C29.9679 135.648 29.9519 134.912 29.9039 134.416H31.3279C31.3599 134.8 31.3919 135.344 31.3919 135.664H31.4399ZM51.8354 138.192C51.8354 140.528 50.0594 142.208 47.7394 142.208C45.4194 142.208 43.6594 140.528 43.6594 138.192C43.6594 135.856 45.4194 134.208 47.7394 134.208C50.0594 134.208 51.8354 135.856 51.8354 138.192ZM50.2674 138.192C50.2674 136.752 49.3714 135.456 47.7394 135.456C46.1234 135.456 45.2114 136.752 45.2114 138.192C45.2114 139.632 46.1234 140.944 47.7394 140.944C49.3714 140.944 50.2674 139.632 50.2674 138.192ZM60.689 142H59.265C59.233 141.616 59.201 141.072 59.201 140.752H59.169C58.785 141.552 57.793 142.208 56.689 142.208C54.737 142.208 53.857 140.816 53.857 139.12V134.416H55.361V138.608C55.361 139.856 55.697 140.944 57.089 140.944C58.289 140.944 59.121 139.952 59.121 138.448V134.416H60.625V140.368C60.625 140.768 60.641 141.504 60.689 142ZM63.1695 134.416H64.5935C64.6255 134.8 64.6575 135.344 64.6575 135.664H64.7055C65.0735 134.848 66.0815 134.208 67.1695 134.208C69.1215 134.208 70.0015 135.6 70.0015 137.296V142H68.4975V137.792C68.4975 136.56 68.1615 135.472 66.7695 135.472C65.5855 135.472 64.7375 136.464 64.7375 137.968V142H63.2335V136.048C63.2335 135.648 63.2175 134.912 63.1695 134.416ZM76.258 134.416V135.648H74.242V139.6C74.242 140.512 74.562 140.88 75.314 140.88C75.586 140.88 75.938 140.816 76.194 140.688L76.242 141.92C75.89 142.048 75.426 142.128 74.962 142.128C73.538 142.128 72.754 141.328 72.754 139.76V135.648H71.298V134.416H72.754V132.24H74.242V134.416H76.258ZM89.4916 138.192C89.4916 140.528 87.7156 142.208 85.3956 142.208C83.0756 142.208 81.3156 140.528 81.3156 138.192C81.3156 135.856 83.0756 134.208 85.3956 134.208C87.7156 134.208 89.4916 135.856 89.4916 138.192ZM87.9236 138.192C87.9236 136.752 87.0276 135.456 85.3956 135.456C83.7796 135.456 82.8676 136.752 82.8676 138.192C82.8676 139.632 83.7796 140.944 85.3956 140.944C87.0276 140.944 87.9236 139.632 87.9236 138.192ZM95.1453 134.416V135.648H93.3853V142H91.8813V135.648H90.3773V134.416H91.8813V132.832C91.8813 131.056 92.6653 129.712 94.7133 129.712C95.0653 129.712 95.3693 129.744 95.6573 129.824L95.4813 131.12C95.2573 131.056 95.0173 131.008 94.7293 131.008C93.5933 131.008 93.3853 131.904 93.3853 132.832V134.416H95.1453ZM102.441 134.416V142H100.937V134.416H102.441ZM102.697 131.68C102.697 132.224 102.233 132.64 101.689 132.64C101.145 132.64 100.697 132.208 100.697 131.68C100.697 131.136 101.145 130.704 101.689 130.704C102.233 130.704 102.697 131.12 102.697 131.68ZM104.998 134.416H106.422C106.454 134.8 106.486 135.344 106.486 135.664H106.534C106.902 134.848 107.91 134.208 108.998 134.208C110.95 134.208 111.83 135.6 111.83 137.296V142H110.326V137.792C110.326 136.56 109.99 135.472 108.598 135.472C107.414 135.472 106.566 136.464 106.566 137.968V142H105.062V136.048C105.062 135.648 105.046 134.912 104.998 134.416ZM120.774 135.456L119.686 136.336C119.366 135.84 118.662 135.472 117.942 135.472C116.374 135.472 115.462 136.752 115.462 138.208C115.462 139.648 116.374 140.944 117.958 140.944C118.726 140.944 119.382 140.624 119.782 140.112L120.79 141.024C120.15 141.76 119.174 142.208 117.958 142.208C115.622 142.208 113.878 140.624 113.878 138.208C113.878 135.824 115.606 134.208 117.926 134.208C118.998 134.208 120.15 134.64 120.774 135.456ZM129.96 138.192C129.96 140.528 128.184 142.208 125.864 142.208C123.544 142.208 121.784 140.528 121.784 138.192C121.784 135.856 123.544 134.208 125.864 134.208C128.184 134.208 129.96 135.856 129.96 138.192ZM128.392 138.192C128.392 136.752 127.496 135.456 125.864 135.456C124.248 135.456 123.336 136.752 123.336 138.192C123.336 139.632 124.248 140.944 125.864 140.944C127.496 140.944 128.392 139.632 128.392 138.192ZM133.518 135.664C133.902 134.864 134.782 134.208 135.934 134.208C136.942 134.208 137.822 134.656 138.286 135.728C138.798 134.752 139.79 134.208 140.862 134.208C142.814 134.208 143.694 135.6 143.694 137.296V142H142.19V137.792C142.19 136.56 141.822 135.472 140.51 135.472C139.134 135.472 138.59 136.72 138.59 137.904V142H137.086V137.488C137.086 136.304 136.686 135.472 135.486 135.472C134.382 135.472 133.55 136.464 133.55 137.968V142H132.046V136.048C132.046 135.648 132.03 134.912 131.982 134.416H133.406C133.438 134.8 133.47 135.344 133.47 135.664H133.518ZM147.274 137.536H151.786C151.754 136.336 151.05 135.392 149.658 135.392C148.362 135.392 147.37 136.352 147.274 137.536ZM153.306 138.144C153.306 138.304 153.306 138.48 153.29 138.656H147.274C147.322 139.952 148.41 140.96 149.738 140.96C150.762 140.96 151.514 140.448 151.946 139.808L153.002 140.656C152.186 141.712 151.082 142.208 149.738 142.208C147.434 142.208 145.738 140.608 145.738 138.224C145.738 135.856 147.434 134.208 149.658 134.208C151.898 134.208 153.306 135.728 153.306 138.144ZM164.541 135.456L163.501 136.336C163.165 135.792 162.509 135.392 161.741 135.392C161.053 135.392 160.333 135.664 160.333 136.384C160.333 137.024 160.909 137.264 162.061 137.52C163.501 137.84 164.605 138.432 164.605 139.76C164.605 141.552 163.117 142.208 161.581 142.208C160.429 142.208 159.245 141.76 158.525 140.848L159.597 139.936C159.997 140.528 160.765 140.992 161.613 140.992C162.365 140.992 163.117 140.72 163.117 139.888C163.117 139.184 162.429 138.928 161.133 138.624C160.125 138.384 158.925 137.952 158.925 136.528C158.925 134.896 160.349 134.208 161.789 134.208C162.861 134.208 163.997 134.64 164.541 135.456ZM173.283 142H171.859C171.827 141.616 171.795 141.072 171.795 140.752H171.763C171.379 141.552 170.387 142.208 169.283 142.208C167.331 142.208 166.451 140.816 166.451 139.12V134.416H167.955V138.608C167.955 139.856 168.291 140.944 169.683 140.944C170.883 140.944 171.715 139.952 171.715 138.448V134.416H173.219V140.368C173.219 140.768 173.235 141.504 173.283 142ZM177.347 140.8H177.315V142H175.859V129.904H177.363V135.552H177.411C177.923 134.816 178.867 134.208 180.115 134.208C182.371 134.208 183.907 135.952 183.907 138.192C183.907 140.416 182.419 142.208 180.083 142.208C179.011 142.208 177.939 141.712 177.347 140.8ZM182.355 138.192C182.355 136.768 181.475 135.456 179.827 135.456C178.291 135.456 177.267 136.752 177.267 138.208C177.267 139.664 178.291 140.944 179.827 140.944C181.475 140.944 182.355 139.616 182.355 138.192ZM184.207 145.744L184.367 144.464C184.559 144.512 184.799 144.544 184.975 144.544C185.887 144.544 186.031 143.84 186.031 142.928V134.416H187.535V142.976C187.535 144.496 187.071 145.84 185.071 145.84C184.799 145.84 184.447 145.792 184.207 145.744ZM187.791 131.68C187.791 132.224 187.327 132.64 186.783 132.64C186.223 132.64 185.775 132.208 185.775 131.68C185.775 131.136 186.223 130.704 186.783 130.704C187.327 130.704 187.791 131.12 187.791 131.68ZM191.195 137.536H195.707C195.675 136.336 194.971 135.392 193.579 135.392C192.283 135.392 191.291 136.352 191.195 137.536ZM197.227 138.144C197.227 138.304 197.227 138.48 197.211 138.656H191.195C191.243 139.952 192.331 140.96 193.659 140.96C194.683 140.96 195.435 140.448 195.867 139.808L196.923 140.656C196.107 141.712 195.003 142.208 193.659 142.208C191.355 142.208 189.659 140.608 189.659 138.224C189.659 135.856 191.355 134.208 193.579 134.208C195.819 134.208 197.227 135.728 197.227 138.144ZM205.727 135.456L204.639 136.336C204.319 135.84 203.615 135.472 202.895 135.472C201.327 135.472 200.415 136.752 200.415 138.208C200.415 139.648 201.327 140.944 202.911 140.944C203.679 140.944 204.335 140.624 204.735 140.112L205.743 141.024C205.103 141.76 204.127 142.208 202.911 142.208C200.575 142.208 198.831 140.624 198.831 138.208C198.831 135.824 200.559 134.208 202.879 134.208C203.951 134.208 205.103 134.64 205.727 135.456ZM210.946 134.416V135.648H208.93V139.6C208.93 140.512 209.25 140.88 210.002 140.88C210.274 140.88 210.626 140.816 210.882 140.688L210.93 141.92C210.578 142.048 210.114 142.128 209.65 142.128C208.226 142.128 207.442 141.328 207.442 139.76V135.648H205.986V134.416H207.442V132.24H208.93V134.416H210.946ZM220.211 134.416V135.648H218.195V139.6C218.195 140.512 218.515 140.88 219.267 140.88C219.539 140.88 219.891 140.816 220.147 140.688L220.195 141.92C219.843 142.048 219.379 142.128 218.915 142.128C217.491 142.128 216.707 141.328 216.707 139.76V135.648H215.251V134.416H216.707V132.24H218.195V134.416H220.211ZM229.445 138.192C229.445 140.528 227.669 142.208 225.349 142.208C223.029 142.208 221.269 140.528 221.269 138.192C221.269 135.856 223.029 134.208 225.349 134.208C227.669 134.208 229.445 135.856 229.445 138.192ZM227.877 138.192C227.877 136.752 226.981 135.456 225.349 135.456C223.733 135.456 222.821 136.752 222.821 138.192C222.821 139.632 223.733 140.944 225.349 140.944C226.981 140.944 227.877 139.632 227.877 138.192ZM239.242 134.416V135.648H237.226V139.6C237.226 140.512 237.546 140.88 238.298 140.88C238.57 140.88 238.922 140.816 239.178 140.688L239.226 141.92C238.874 142.048 238.41 142.128 237.946 142.128C236.522 142.128 235.738 141.328 235.738 139.76V135.648H234.282V134.416H235.738V132.24H237.226V134.416H239.242ZM245.516 137.296V137.088C245.516 135.968 244.764 135.424 243.644 135.424C242.796 135.424 241.996 135.792 241.484 136.304L240.684 135.344C241.42 134.64 242.556 134.208 243.788 134.208C245.964 134.208 246.956 135.504 246.956 137.184V140.496C246.956 141.008 246.988 141.632 247.068 142H245.708C245.628 141.664 245.58 141.264 245.58 140.912H245.532C244.988 141.728 244.124 142.192 242.988 142.192C241.788 142.192 240.236 141.6 240.236 139.856C240.236 137.568 242.956 137.296 245.516 137.296ZM245.516 138.384H245.148C243.66 138.384 241.772 138.544 241.772 139.824C241.772 140.72 242.572 141.008 243.324 141.008C244.732 141.008 245.516 140.064 245.516 138.784V138.384ZM248.284 142L251.324 138.016L248.556 134.416H250.412L252.268 137.024L254.14 134.416H255.9L253.164 138L256.22 142H254.348L252.236 139.04L250.092 142H248.284ZM262.36 137.296V137.088C262.36 135.968 261.608 135.424 260.488 135.424C259.64 135.424 258.84 135.792 258.328 136.304L257.528 135.344C258.264 134.64 259.4 134.208 260.632 134.208C262.808 134.208 263.8 135.504 263.8 137.184V140.496C263.8 141.008 263.832 141.632 263.912 142H262.552C262.472 141.664 262.424 141.264 262.424 140.912H262.376C261.832 141.728 260.968 142.192 259.832 142.192C258.632 142.192 257.08 141.6 257.08 139.856C257.08 137.568 259.8 137.296 262.36 137.296ZM262.36 138.384H261.992C260.504 138.384 258.616 138.544 258.616 139.824C258.616 140.72 259.416 141.008 260.168 141.008C261.576 141.008 262.36 140.064 262.36 138.784V138.384ZM269.867 134.416V135.648H267.851V139.6C267.851 140.512 268.171 140.88 268.923 140.88C269.195 140.88 269.547 140.816 269.803 140.688L269.851 141.92C269.499 142.048 269.035 142.128 268.571 142.128C267.147 142.128 266.363 141.328 266.363 139.76V135.648H264.907V134.416H266.363V132.24H267.851V134.416H269.867ZM272.941 134.416V142H271.437V134.416H272.941ZM273.197 131.68C273.197 132.224 272.733 132.64 272.189 132.64C271.645 132.64 271.197 132.208 271.197 131.68C271.197 131.136 271.645 130.704 272.189 130.704C272.733 130.704 273.197 131.12 273.197 131.68ZM283.242 138.192C283.242 140.528 281.466 142.208 279.146 142.208C276.826 142.208 275.066 140.528 275.066 138.192C275.066 135.856 276.826 134.208 279.146 134.208C281.466 134.208 283.242 135.856 283.242 138.192ZM281.674 138.192C281.674 136.752 280.778 135.456 279.146 135.456C277.53 135.456 276.618 136.752 276.618 138.192C276.618 139.632 277.53 140.944 279.146 140.944C280.778 140.944 281.674 139.632 281.674 138.192ZM285.263 134.416H286.687C286.719 134.8 286.751 135.344 286.751 135.664H286.799C287.167 134.848 288.175 134.208 289.263 134.208C291.215 134.208 292.095 135.6 292.095 137.296V142H290.591V137.792C290.591 136.56 290.255 135.472 288.863 135.472C287.679 135.472 286.831 136.464 286.831 137.968V142H285.327V136.048C285.327 135.648 285.311 134.912 285.263 134.416ZM296.496 141.04C296.496 141.6 296.032 142.096 295.424 142.096C294.832 142.096 294.352 141.616 294.352 141.056C294.352 140.48 294.816 140 295.424 140C296.032 140 296.496 140.464 296.496 141.04Z" fill="#393A3D"/>
</g>
<rect width="295" height="1" transform="translate(20 169)" fill="#8D9096"/>
<path d="M21.092 193V183.088H22.856V191.432H27.07V193H21.092ZM29.2003 188.968H32.6443C32.6443 188.1 32.1543 187.344 31.0623 187.344C30.0683 187.344 29.2703 188.03 29.2003 188.968ZM34.3243 189.724C34.3243 189.878 34.3243 190.018 34.3103 190.172H29.2003C29.2703 191.124 30.1383 191.824 31.1183 191.824C31.9583 191.824 32.5183 191.488 32.8963 190.956L34.0163 191.852C33.3583 192.748 32.4063 193.196 31.1323 193.196C29.0603 193.196 27.5203 191.866 27.5203 189.682C27.5203 187.512 29.0463 186.084 31.0763 186.084C32.9523 186.084 34.3243 187.302 34.3243 189.724ZM40.0413 193V192.146H39.9993C39.6633 192.734 38.8653 193.168 37.9133 193.168C36.8353 193.168 35.3933 192.65 35.3933 191.082C35.3933 189.08 37.9133 188.8 40.0133 188.8V188.632C40.0133 187.806 39.3133 187.4 38.4733 187.4C37.7593 187.4 37.0733 187.736 36.6393 188.17L35.7713 187.148C36.5273 186.448 37.5913 186.084 38.6133 186.084C41.0213 186.084 41.6093 187.568 41.6093 188.912V193H40.0413ZM40.0133 190.172V189.934H39.6353C38.5713 189.934 37.0733 190.06 37.0733 191.054C37.0733 191.698 37.6753 191.894 38.2493 191.894C39.3973 191.894 40.0133 191.236 40.0133 190.172ZM43.5666 193V186.28H45.1766V187.4H45.2046C45.5686 186.63 46.2826 186.084 47.1646 186.084C47.2906 186.084 47.4586 186.098 47.5706 186.126V187.666C47.3466 187.61 47.2066 187.596 47.0526 187.596C45.5406 187.596 45.2466 188.912 45.2466 189.402V193H43.5666ZM48.6662 193V186.28H50.2622V187.358H50.2902C50.5842 186.686 51.3822 186.084 52.3762 186.084C54.1262 186.084 54.8542 187.428 54.8542 188.8V193H53.1742V189.276C53.1742 188.478 52.9922 187.484 51.9142 187.484C50.8502 187.484 50.3462 188.408 50.3462 189.304V193H48.6662ZM68.3366 186.084C70.0866 186.084 70.8146 187.428 70.8146 188.8V193H69.1346V189.276C69.1346 188.478 68.9526 187.484 67.8746 187.484C66.8246 187.484 66.3906 188.464 66.3906 189.332V193H64.7106V188.94C64.7106 188.114 64.3186 187.484 63.4646 187.484C62.4566 187.484 61.9946 188.408 61.9946 189.304V193H60.3146V186.28H61.9106V187.358H61.9386C62.2326 186.7 62.9466 186.084 64.0246 186.084C65.0606 186.084 65.7466 186.602 66.1246 187.358C66.5726 186.546 67.3286 186.084 68.3366 186.084ZM72.3777 189.612C72.3777 187.498 74.0017 186.084 76.0317 186.084C78.0617 186.084 79.6857 187.498 79.6857 189.612C79.6857 191.726 78.0617 193.196 76.0317 193.196C74.0017 193.196 72.3777 191.726 72.3777 189.612ZM74.0857 189.612C74.0857 190.662 74.7017 191.796 76.0317 191.796C77.3617 191.796 77.9777 190.662 77.9777 189.612C77.9777 188.562 77.3617 187.456 76.0317 187.456C74.7017 187.456 74.0857 188.562 74.0857 189.612ZM81.3146 193V186.28H82.9246V187.4H82.9526C83.3166 186.63 84.0306 186.084 84.9126 186.084C85.0386 186.084 85.2066 186.098 85.3186 186.126V187.666C85.0946 187.61 84.9546 187.596 84.8006 187.596C83.2886 187.596 82.9946 188.912 82.9946 189.402V193H81.3146ZM87.4562 188.968H90.9002C90.9002 188.1 90.4102 187.344 89.3182 187.344C88.3242 187.344 87.5262 188.03 87.4562 188.968ZM92.5802 189.724C92.5802 189.878 92.5802 190.018 92.5662 190.172H87.4562C87.5262 191.124 88.3942 191.824 89.3742 191.824C90.2142 191.824 90.7742 191.488 91.1522 190.956L92.2722 191.852C91.6142 192.748 90.6622 193.196 89.3882 193.196C87.3162 193.196 85.7762 191.866 85.7762 189.682C85.7762 187.512 87.3022 186.084 89.3322 186.084C91.2082 186.084 92.5802 187.302 92.5802 189.724Z" fill="#393A3D"/>
<rect x="20" y="214" width="121" height="20" rx="4" fill="#EBF9FF"/>
<path d="M25.036 229V222.28H26.716V229H25.036ZM24.798 219.998C24.798 219.466 25.246 218.99 25.862 218.99C26.478 218.99 26.954 219.424 26.954 219.998C26.954 220.572 26.478 221.006 25.862 221.006C25.246 221.006 24.798 220.53 24.798 219.998ZM28.7541 229V222.28H30.3641V223.4H30.3921C30.7561 222.63 31.4701 222.084 32.3521 222.084C32.4781 222.084 32.6461 222.098 32.7581 222.126V223.666C32.5341 223.61 32.3941 223.596 32.2401 223.596C30.7281 223.596 30.4341 224.912 30.4341 225.402V229H28.7541ZM38.6277 223.106L37.5357 224.072C37.2417 223.68 36.6817 223.344 36.0657 223.344C35.5337 223.344 34.9877 223.54 34.9877 224.072C34.9877 224.59 35.5057 224.73 36.4437 224.954C37.4377 225.192 38.6137 225.64 38.6137 226.956C38.6137 228.594 37.2837 229.196 35.8137 229.196C34.7777 229.196 33.6997 228.804 33.0557 228.09L34.1617 227.054C34.5257 227.53 35.1557 227.894 35.8837 227.894C36.3737 227.894 36.9617 227.698 36.9617 227.096C36.9617 226.536 36.4437 226.368 35.4217 226.13C34.4277 225.892 33.4337 225.486 33.4337 224.226C33.4337 222.728 34.7777 222.084 36.1077 222.084C37.0737 222.084 38.0817 222.42 38.6277 223.106ZM39.7664 228.02C39.7664 227.418 40.2704 226.928 40.8864 226.928C41.4884 226.928 42.0064 227.39 42.0064 227.992C42.0064 228.594 41.5024 229.084 40.8864 229.084C40.2984 229.084 39.7664 228.622 39.7664 228.02ZM49.4511 223.134L48.3031 224.142C48.0371 223.764 47.4631 223.484 46.9171 223.484C45.6851 223.484 45.0691 224.59 45.0691 225.64C45.0691 226.69 45.6991 227.796 46.9731 227.796C47.4911 227.796 48.0651 227.586 48.3871 227.194L49.4371 228.258C48.8771 228.86 47.9531 229.196 46.9591 229.196C44.9711 229.196 43.3191 227.88 43.3191 225.64C43.3191 223.456 44.9431 222.084 46.9171 222.084C47.8971 222.084 48.9191 222.476 49.4511 223.134ZM50.1551 225.612C50.1551 223.498 51.7791 222.084 53.8091 222.084C55.8391 222.084 57.4631 223.498 57.4631 225.612C57.4631 227.726 55.8391 229.196 53.8091 229.196C51.7791 229.196 50.1551 227.726 50.1551 225.612ZM51.8631 225.612C51.8631 226.662 52.4791 227.796 53.8091 227.796C55.1391 227.796 55.7551 226.662 55.7551 225.612C55.7551 224.562 55.1391 223.456 53.8091 223.456C52.4791 223.456 51.8631 224.562 51.8631 225.612ZM67.114 222.084C68.864 222.084 69.592 223.428 69.592 224.8V229H67.912V225.276C67.912 224.478 67.73 223.484 66.652 223.484C65.602 223.484 65.168 224.464 65.168 225.332V229H63.488V224.94C63.488 224.114 63.096 223.484 62.242 223.484C61.234 223.484 60.772 224.408 60.772 225.304V229H59.092V222.28H60.688V223.358H60.716C61.01 222.7 61.724 222.084 62.802 222.084C63.838 222.084 64.524 222.602 64.902 223.358C65.35 222.546 66.106 222.084 67.114 222.084ZM75.9431 218.836L71.5751 229.672L70.4131 229.252L74.7811 218.388L75.9431 218.836ZM78.3745 229L76.0365 222.28H77.8565L79.2565 227.096H79.2845L80.7265 222.28H82.5185L83.9745 227.096H84.0025L85.4305 222.28H87.1805L84.8565 229H83.1485L81.6225 224.296H81.5945L80.0825 229H78.3745ZM88.2404 229V222.28H89.8504V223.4H89.8784C90.2424 222.63 90.9564 222.084 91.8384 222.084C91.9644 222.084 92.1324 222.098 92.2444 222.126V223.666C92.0204 223.61 91.8804 223.596 91.7264 223.596C90.2144 223.596 89.9204 224.912 89.9204 225.402V229H88.2404ZM93.368 229V222.28H95.048V229H93.368ZM93.13 219.998C93.13 219.466 93.578 218.99 94.194 218.99C94.81 218.99 95.286 219.424 95.286 219.998C95.286 220.572 94.81 221.006 94.194 221.006C93.578 221.006 93.13 220.53 93.13 219.998ZM97.2961 223.624H96.1201V222.28H97.2961V220.334H98.9481V222.28H100.628V223.624H98.9481V226.746C98.9481 227.348 99.0881 227.782 99.8301 227.782C100.054 227.782 100.348 227.74 100.544 227.642L100.6 228.958C100.306 229.07 99.8581 229.14 99.4801 229.14C97.7021 229.14 97.2961 228.048 97.2961 226.76V223.624ZM103.132 224.968H106.576C106.576 224.1 106.086 223.344 104.994 223.344C104 223.344 103.202 224.03 103.132 224.968ZM108.256 225.724C108.256 225.878 108.256 226.018 108.242 226.172H103.132C103.202 227.124 104.07 227.824 105.05 227.824C105.89 227.824 106.45 227.488 106.828 226.956L107.948 227.852C107.29 228.748 106.338 229.196 105.064 229.196C102.992 229.196 101.452 227.866 101.452 225.682C101.452 223.512 102.978 222.084 105.008 222.084C106.884 222.084 108.256 223.302 108.256 225.724ZM112.795 224.842V226.27H109.435V224.842H112.795ZM113.975 225.612C113.975 223.498 115.599 222.084 117.629 222.084C119.659 222.084 121.283 223.498 121.283 225.612C121.283 227.726 119.659 229.196 117.629 229.196C115.599 229.196 113.975 227.726 113.975 225.612ZM115.683 225.612C115.683 226.662 116.299 227.796 117.629 227.796C118.959 227.796 119.575 226.662 119.575 225.612C119.575 224.562 118.959 223.456 117.629 223.456C116.299 223.456 115.683 224.562 115.683 225.612ZM123.178 229V223.624H121.904V222.28H123.178V221.286C123.178 219.676 123.808 218.248 125.894 218.248C126.258 218.248 126.496 218.276 126.748 218.346L126.636 219.774C126.454 219.718 126.23 219.676 125.992 219.676C125.026 219.676 124.858 220.516 124.858 221.188V222.28H126.412V223.624H124.858V229H123.178ZM127.417 229V223.624H126.143V222.28H127.417V221.286C127.417 219.676 128.047 218.248 130.133 218.248C130.497 218.248 130.735 218.276 130.987 218.346L130.875 219.774C130.693 219.718 130.469 219.676 130.231 219.676C129.265 219.676 129.097 220.516 129.097 221.188V222.28H130.651V223.624H129.097V229H127.417ZM136.464 223.106L135.372 224.072C135.078 223.68 134.518 223.344 133.902 223.344C133.37 223.344 132.824 223.54 132.824 224.072C132.824 224.59 133.342 224.73 134.28 224.954C135.274 225.192 136.45 225.64 136.45 226.956C136.45 228.594 135.12 229.196 133.65 229.196C132.614 229.196 131.536 228.804 130.892 228.09L131.998 227.054C132.362 227.53 132.992 227.894 133.72 227.894C134.21 227.894 134.798 227.698 134.798 227.096C134.798 226.536 134.28 226.368 133.258 226.13C132.264 225.892 131.27 225.486 131.27 224.226C131.27 222.728 132.614 222.084 133.944 222.084C134.91 222.084 135.918 222.42 136.464 223.106Z" fill="#0077C5"/>
<rect x="149" y="214" width="166" height="20" rx="4" fill="#EBF9FF"/>
<path d="M154.036 218.416H155.716V223.134H155.758C156.108 222.7 156.78 222.084 158.012 222.084C159.93 222.084 161.274 223.624 161.274 225.612C161.274 227.572 160.014 229.196 157.97 229.196C157.032 229.196 156.122 228.762 155.66 227.992H155.632V229H154.036V218.416ZM159.566 225.612C159.566 224.562 158.936 223.456 157.634 223.456C156.402 223.456 155.66 224.59 155.66 225.64C155.66 226.69 156.402 227.796 157.634 227.796C158.936 227.796 159.566 226.662 159.566 225.612ZM162.923 229V218.416H164.603V229H162.923ZM166.249 225.612C166.249 223.498 167.873 222.084 169.903 222.084C171.933 222.084 173.557 223.498 173.557 225.612C173.557 227.726 171.933 229.196 169.903 229.196C167.873 229.196 166.249 227.726 166.249 225.612ZM167.957 225.612C167.957 226.662 168.573 227.796 169.903 227.796C171.233 227.796 171.849 226.662 171.849 225.612C171.849 224.562 171.233 223.456 169.903 223.456C168.573 223.456 167.957 224.562 167.957 225.612ZM180.422 222.28H182.018V228.398C182.018 230.82 180.842 232.36 178.224 232.36C177.132 232.36 175.76 231.968 174.892 231.254L175.858 229.952C176.502 230.568 177.37 230.904 178.21 230.904C179.834 230.904 180.338 229.924 180.338 228.594V228.104H180.31C179.82 228.762 179.036 229.112 178.112 229.112C176.096 229.112 174.794 227.516 174.794 225.612C174.794 223.666 176.054 222.084 178.084 222.084C179.022 222.084 179.904 222.476 180.394 223.288H180.422V222.28ZM178.434 223.456C177.216 223.456 176.502 224.408 176.502 225.598C176.502 226.662 177.216 227.726 178.42 227.726C179.666 227.726 180.422 226.718 180.422 225.598C180.422 224.436 179.652 223.456 178.434 223.456ZM183.723 228.02C183.723 227.418 184.227 226.928 184.843 226.928C185.445 226.928 185.963 227.39 185.963 227.992C185.963 228.594 185.459 229.084 184.843 229.084C184.255 229.084 183.723 228.622 183.723 228.02ZM187.878 223.624H186.702V222.28H187.878V220.334H189.53V222.28H191.21V223.624H189.53V226.746C189.53 227.348 189.67 227.782 190.412 227.782C190.636 227.782 190.93 227.74 191.126 227.642L191.182 228.958C190.888 229.07 190.44 229.14 190.062 229.14C188.284 229.14 187.878 228.048 187.878 226.76V223.624ZM198.558 222.28V229H196.962V227.922H196.934C196.64 228.594 195.842 229.196 194.848 229.196C193.098 229.196 192.37 227.852 192.37 226.48V222.28H194.05V226.004C194.05 226.802 194.232 227.796 195.31 227.796C196.374 227.796 196.878 226.872 196.878 225.976V222.28H198.558ZM200.574 229V222.28H202.184V223.4H202.212C202.576 222.63 203.29 222.084 204.172 222.084C204.298 222.084 204.466 222.098 204.578 222.126V223.666C204.354 223.61 204.214 223.596 204.06 223.596C202.548 223.596 202.254 224.912 202.254 225.402V229H200.574ZM205.702 218.416H207.382V223.134H207.424C207.774 222.7 208.446 222.084 209.678 222.084C211.596 222.084 212.94 223.624 212.94 225.612C212.94 227.572 211.68 229.196 209.636 229.196C208.698 229.196 207.788 228.762 207.326 227.992H207.298V229H205.702V218.416ZM211.232 225.612C211.232 224.562 210.602 223.456 209.3 223.456C208.068 223.456 207.326 224.59 207.326 225.64C207.326 226.69 208.068 227.796 209.3 227.796C210.602 227.796 211.232 226.662 211.232 225.612ZM214.169 225.612C214.169 223.498 215.793 222.084 217.823 222.084C219.853 222.084 221.477 223.498 221.477 225.612C221.477 227.726 219.853 229.196 217.823 229.196C215.793 229.196 214.169 227.726 214.169 225.612ZM215.877 225.612C215.877 226.662 216.493 227.796 217.823 227.796C219.153 227.796 219.769 226.662 219.769 225.612C219.769 224.562 219.153 223.456 217.823 223.456C216.493 223.456 215.877 224.562 215.877 225.612ZM223.316 223.624H222.14V222.28H223.316V220.334H224.968V222.28H226.648V223.624H224.968V226.746C224.968 227.348 225.108 227.782 225.85 227.782C226.074 227.782 226.368 227.74 226.564 227.642L226.62 228.958C226.326 229.07 225.878 229.14 225.5 229.14C223.722 229.14 223.316 228.048 223.316 226.76V223.624ZM232.035 229V228.146H231.993C231.657 228.734 230.859 229.168 229.907 229.168C228.829 229.168 227.387 228.65 227.387 227.082C227.387 225.08 229.907 224.8 232.007 224.8V224.632C232.007 223.806 231.307 223.4 230.467 223.4C229.753 223.4 229.067 223.736 228.633 224.17L227.765 223.148C228.521 222.448 229.585 222.084 230.607 222.084C233.015 222.084 233.603 223.568 233.603 224.912V229H232.035ZM232.007 226.172V225.934H231.629C230.565 225.934 229.067 226.06 229.067 227.054C229.067 227.698 229.669 227.894 230.243 227.894C231.391 227.894 232.007 227.236 232.007 226.172ZM234.539 229L237.269 225.43L234.847 222.28H236.863L238.319 224.366L239.817 222.28H241.749L239.341 225.43L242.085 229H240.041L238.291 226.55L236.527 229H234.539ZM242.772 228.02C242.772 227.418 243.276 226.928 243.892 226.928C244.494 226.928 245.012 227.39 245.012 227.992C245.012 228.594 244.508 229.084 243.892 229.084C243.304 229.084 242.772 228.622 242.772 228.02ZM246.745 229V222.28H248.425V229H246.745ZM246.507 219.998C246.507 219.466 246.955 218.99 247.571 218.99C248.187 218.99 248.663 219.424 248.663 219.998C248.663 220.572 248.187 221.006 247.571 221.006C246.955 221.006 246.507 220.53 246.507 219.998ZM250.463 229V222.28H252.059V223.358H252.087C252.381 222.686 253.179 222.084 254.173 222.084C255.923 222.084 256.651 223.428 256.651 224.8V229H254.971V225.276C254.971 224.478 254.789 223.484 253.711 223.484C252.647 223.484 252.143 224.408 252.143 225.304V229H250.463ZM258.822 223.624H257.646V222.28H258.822V220.334H260.474V222.28H262.154V223.624H260.474V226.746C260.474 227.348 260.614 227.782 261.356 227.782C261.58 227.782 261.874 227.74 262.07 227.642L262.126 228.958C261.832 229.07 261.384 229.14 261.006 229.14C259.228 229.14 258.822 228.048 258.822 226.76V223.624ZM269.501 222.28V229H267.905V227.922H267.877C267.583 228.594 266.785 229.196 265.791 229.196C264.041 229.196 263.313 227.852 263.313 226.48V222.28H264.993V226.004C264.993 226.802 265.175 227.796 266.253 227.796C267.317 227.796 267.821 226.872 267.821 225.976V222.28H269.501ZM271.546 229V222.28H273.226V229H271.546ZM271.308 219.998C271.308 219.466 271.756 218.99 272.372 218.99C272.988 218.99 273.464 219.424 273.464 219.998C273.464 220.572 272.988 221.006 272.372 221.006C271.756 221.006 271.308 220.53 271.308 219.998ZM275.474 223.624H274.298V222.28H275.474V220.334H277.126V222.28H278.806V223.624H277.126V226.746C277.126 227.348 277.266 227.782 278.008 227.782C278.232 227.782 278.526 227.74 278.722 227.642L278.778 228.958C278.484 229.07 278.036 229.14 277.658 229.14C275.88 229.14 275.474 228.048 275.474 226.76V223.624ZM279.714 228.02C279.714 227.418 280.218 226.928 280.834 226.928C281.436 226.928 281.954 227.39 281.954 227.992C281.954 228.594 281.45 229.084 280.834 229.084C280.246 229.084 279.714 228.622 279.714 228.02ZM289.398 223.134L288.25 224.142C287.984 223.764 287.41 223.484 286.864 223.484C285.632 223.484 285.016 224.59 285.016 225.64C285.016 226.69 285.646 227.796 286.92 227.796C287.438 227.796 288.012 227.586 288.334 227.194L289.384 228.258C288.824 228.86 287.9 229.196 286.906 229.196C284.918 229.196 283.266 227.88 283.266 225.64C283.266 223.456 284.89 222.084 286.864 222.084C287.844 222.084 288.866 222.476 289.398 223.134ZM290.102 225.612C290.102 223.498 291.726 222.084 293.756 222.084C295.786 222.084 297.41 223.498 297.41 225.612C297.41 227.726 295.786 229.196 293.756 229.196C291.726 229.196 290.102 227.726 290.102 225.612ZM291.81 225.612C291.81 226.662 292.426 227.796 293.756 227.796C295.086 227.796 295.702 226.662 295.702 225.612C295.702 224.562 295.086 223.456 293.756 223.456C292.426 223.456 291.81 224.562 291.81 225.612ZM307.061 222.084C308.811 222.084 309.539 223.428 309.539 224.8V229H307.859V225.276C307.859 224.478 307.677 223.484 306.599 223.484C305.549 223.484 305.115 224.464 305.115 225.332V229H303.435V224.94C303.435 224.114 303.043 223.484 302.189 223.484C301.181 223.484 300.719 224.408 300.719 225.304V229H299.039V222.28H300.635V223.358H300.663C300.957 222.7 301.671 222.084 302.749 222.084C303.785 222.084 304.471 222.602 304.849 223.358C305.297 222.546 306.053 222.084 307.061 222.084Z" fill="#0077C5"/>
<rect x="20" y="242" width="184" height="20" rx="4" fill="#EBF9FF"/>
<path d="M25.036 257V250.28H26.716V257H25.036ZM24.798 247.998C24.798 247.466 25.246 246.99 25.862 246.99C26.478 246.99 26.954 247.424 26.954 247.998C26.954 248.572 26.478 249.006 25.862 249.006C25.246 249.006 24.798 248.53 24.798 247.998ZM28.7541 257V250.28H30.3501V251.358H30.3781C30.6721 250.686 31.4701 250.084 32.4641 250.084C34.2141 250.084 34.9421 251.428 34.9421 252.8V257H33.2621V253.276C33.2621 252.478 33.0801 251.484 32.0021 251.484C30.9381 251.484 30.4341 252.408 30.4341 253.304V257H28.7541ZM38.6105 257L35.8945 250.28H37.7285L39.4925 255.18H39.5205L41.2985 250.28H43.0765L40.4025 257H38.6105ZM45.3683 252.968H48.8123C48.8123 252.1 48.3223 251.344 47.2303 251.344C46.2363 251.344 45.4383 252.03 45.3683 252.968ZM50.4923 253.724C50.4923 253.878 50.4923 254.018 50.4783 254.172H45.3683C45.4383 255.124 46.3063 255.824 47.2863 255.824C48.1263 255.824 48.6863 255.488 49.0643 254.956L50.1843 255.852C49.5263 256.748 48.5743 257.196 47.3003 257.196C45.2283 257.196 43.6883 255.866 43.6883 253.682C43.6883 251.512 45.2143 250.084 47.2443 250.084C49.1203 250.084 50.4923 251.302 50.4923 253.724ZM56.8933 251.106L55.8013 252.072C55.5073 251.68 54.9473 251.344 54.3313 251.344C53.7993 251.344 53.2533 251.54 53.2533 252.072C53.2533 252.59 53.7713 252.73 54.7093 252.954C55.7033 253.192 56.8793 253.64 56.8793 254.956C56.8793 256.594 55.5493 257.196 54.0793 257.196C53.0433 257.196 51.9653 256.804 51.3213 256.09L52.4273 255.054C52.7913 255.53 53.4213 255.894 54.1493 255.894C54.6393 255.894 55.2273 255.698 55.2273 255.096C55.2273 254.536 54.7093 254.368 53.6873 254.13C52.6933 253.892 51.6993 253.486 51.6993 252.226C51.6993 250.728 53.0433 250.084 54.3733 250.084C55.3393 250.084 56.3473 250.42 56.8933 251.106ZM58.55 251.624H57.374V250.28H58.55V248.334H60.202V250.28H61.882V251.624H60.202V254.746C60.202 255.348 60.342 255.782 61.084 255.782C61.308 255.782 61.602 255.74 61.798 255.642L61.854 256.958C61.56 257.07 61.112 257.14 60.734 257.14C58.956 257.14 58.55 256.048 58.55 254.76V251.624ZM62.7058 253.612C62.7058 251.498 64.3298 250.084 66.3598 250.084C68.3898 250.084 70.0138 251.498 70.0138 253.612C70.0138 255.726 68.3898 257.196 66.3598 257.196C64.3298 257.196 62.7058 255.726 62.7058 253.612ZM64.4138 253.612C64.4138 254.662 65.0298 255.796 66.3598 255.796C67.6898 255.796 68.3058 254.662 68.3058 253.612C68.3058 252.562 67.6898 251.456 66.3598 251.456C65.0298 251.456 64.4138 252.562 64.4138 253.612ZM71.6428 250.28H73.2528V251.218H73.2948C73.6308 250.686 74.3868 250.084 75.6188 250.084C77.5368 250.084 78.8808 251.624 78.8808 253.612C78.8808 255.572 77.6208 257.196 75.5768 257.196C74.6388 257.196 73.7848 256.776 73.3508 256.104H73.3228V260.36H71.6428V250.28ZM77.1728 253.612C77.1728 252.562 76.5428 251.456 75.2408 251.456C74.0088 251.456 73.2668 252.59 73.2668 253.64C73.2668 254.69 74.0088 255.796 75.2408 255.796C76.5428 255.796 77.1728 254.662 77.1728 253.612ZM81.7901 252.968H85.2341C85.2341 252.1 84.7441 251.344 83.6521 251.344C82.6581 251.344 81.8601 252.03 81.7901 252.968ZM86.9141 253.724C86.9141 253.878 86.9141 254.018 86.9001 254.172H81.7901C81.8601 255.124 82.7281 255.824 83.7081 255.824C84.5481 255.824 85.1081 255.488 85.4861 254.956L86.6061 255.852C85.9481 256.748 84.9961 257.196 83.7221 257.196C81.6501 257.196 80.1101 255.866 80.1101 253.682C80.1101 251.512 81.6361 250.084 83.6661 250.084C85.5421 250.084 86.9141 251.302 86.9141 253.724ZM95.3732 246.416V257H93.7772V255.992H93.7492C93.2872 256.762 92.3772 257.196 91.4392 257.196C89.3952 257.196 88.1352 255.572 88.1352 253.612C88.1352 251.624 89.4792 250.084 91.3972 250.084C92.6292 250.084 93.3012 250.7 93.6512 251.134H93.6932V246.416H95.3732ZM89.8432 253.612C89.8432 254.662 90.4732 255.796 91.7752 255.796C93.0072 255.796 93.7492 254.69 93.7492 253.64C93.7492 252.59 93.0072 251.456 91.7752 251.456C90.4732 251.456 89.8432 252.562 89.8432 253.612ZM97.4423 257V250.28H99.1223V257H97.4423ZM97.2043 247.998C97.2043 247.466 97.6523 246.99 98.2683 246.99C98.8843 246.99 99.3603 247.424 99.3603 247.998C99.3603 248.572 98.8843 249.006 98.2683 249.006C97.6523 249.006 97.2043 248.53 97.2043 247.998ZM105.332 257V256.146H105.29C104.954 256.734 104.156 257.168 103.204 257.168C102.126 257.168 100.684 256.65 100.684 255.082C100.684 253.08 103.204 252.8 105.304 252.8V252.632C105.304 251.806 104.604 251.4 103.764 251.4C103.05 251.4 102.364 251.736 101.93 252.17L101.062 251.148C101.818 250.448 102.882 250.084 103.904 250.084C106.312 250.084 106.9 251.568 106.9 252.912V257H105.332ZM105.304 254.172V253.934H104.926C103.862 253.934 102.364 254.06 102.364 255.054C102.364 255.698 102.966 255.894 103.54 255.894C104.688 255.894 105.304 255.236 105.304 254.172ZM108.55 256.02C108.55 255.418 109.054 254.928 109.67 254.928C110.272 254.928 110.79 255.39 110.79 255.992C110.79 256.594 110.286 257.084 109.67 257.084C109.082 257.084 108.55 256.622 108.55 256.02ZM118.234 251.134L117.086 252.142C116.82 251.764 116.246 251.484 115.7 251.484C114.468 251.484 113.852 252.59 113.852 253.64C113.852 254.69 114.482 255.796 115.756 255.796C116.274 255.796 116.848 255.586 117.17 255.194L118.22 256.258C117.66 256.86 116.736 257.196 115.742 257.196C113.754 257.196 112.102 255.88 112.102 253.64C112.102 251.456 113.726 250.084 115.7 250.084C116.68 250.084 117.702 250.476 118.234 251.134ZM118.938 253.612C118.938 251.498 120.562 250.084 122.592 250.084C124.622 250.084 126.246 251.498 126.246 253.612C126.246 255.726 124.622 257.196 122.592 257.196C120.562 257.196 118.938 255.726 118.938 253.612ZM120.646 253.612C120.646 254.662 121.262 255.796 122.592 255.796C123.922 255.796 124.538 254.662 124.538 253.612C124.538 252.562 123.922 251.456 122.592 251.456C121.262 251.456 120.646 252.562 120.646 253.612ZM135.897 250.084C137.647 250.084 138.375 251.428 138.375 252.8V257H136.695V253.276C136.695 252.478 136.513 251.484 135.435 251.484C134.385 251.484 133.951 252.464 133.951 253.332V257H132.271V252.94C132.271 252.114 131.879 251.484 131.025 251.484C130.017 251.484 129.555 252.408 129.555 253.304V257H127.875V250.28H129.471V251.358H129.499C129.793 250.7 130.507 250.084 131.585 250.084C132.621 250.084 133.307 250.602 133.685 251.358C134.133 250.546 134.889 250.084 135.897 250.084ZM144.726 246.836L140.358 257.672L139.196 257.252L143.564 246.388L144.726 246.836ZM147.158 257L144.82 250.28H146.64L148.04 255.096H148.068L149.51 250.28H151.302L152.758 255.096H152.786L154.214 250.28H155.964L153.64 257H151.932L150.406 252.296H150.378L148.866 257H147.158ZM157.024 257V250.28H158.634V251.4H158.662C159.026 250.63 159.74 250.084 160.622 250.084C160.748 250.084 160.916 250.098 161.028 250.126V251.666C160.804 251.61 160.664 251.596 160.51 251.596C158.998 251.596 158.704 252.912 158.704 253.402V257H157.024ZM162.151 257V250.28H163.831V257H162.151ZM161.913 247.998C161.913 247.466 162.361 246.99 162.977 246.99C163.593 246.99 164.069 247.424 164.069 247.998C164.069 248.572 163.593 249.006 162.977 249.006C162.361 249.006 161.913 248.53 161.913 247.998ZM166.079 251.624H164.903V250.28H166.079V248.334H167.731V250.28H169.411V251.624H167.731V254.746C167.731 255.348 167.871 255.782 168.613 255.782C168.837 255.782 169.131 255.74 169.327 255.642L169.383 256.958C169.089 257.07 168.641 257.14 168.263 257.14C166.485 257.14 166.079 256.048 166.079 254.76V251.624ZM171.915 252.968H175.359C175.359 252.1 174.869 251.344 173.777 251.344C172.783 251.344 171.985 252.03 171.915 252.968ZM177.039 253.724C177.039 253.878 177.039 254.018 177.025 254.172H171.915C171.985 255.124 172.853 255.824 173.833 255.824C174.673 255.824 175.233 255.488 175.611 254.956L176.731 255.852C176.073 256.748 175.121 257.196 173.847 257.196C171.775 257.196 170.235 255.866 170.235 253.682C170.235 251.512 171.761 250.084 173.791 250.084C175.667 250.084 177.039 251.302 177.039 253.724ZM181.578 252.842V254.27H178.218V252.842H181.578ZM182.759 253.612C182.759 251.498 184.383 250.084 186.413 250.084C188.443 250.084 190.067 251.498 190.067 253.612C190.067 255.726 188.443 257.196 186.413 257.196C184.383 257.196 182.759 255.726 182.759 253.612ZM184.467 253.612C184.467 254.662 185.083 255.796 186.413 255.796C187.743 255.796 188.359 254.662 188.359 253.612C188.359 252.562 187.743 251.456 186.413 251.456C185.083 251.456 184.467 252.562 184.467 253.612ZM191.962 257V251.624H190.688V250.28H191.962V249.286C191.962 247.676 192.592 246.248 194.678 246.248C195.042 246.248 195.28 246.276 195.532 246.346L195.42 247.774C195.238 247.718 195.014 247.676 194.776 247.676C193.81 247.676 193.642 248.516 193.642 249.188V250.28H195.196V251.624H193.642V257H191.962ZM196.2 257V251.624H194.926V250.28H196.2V249.286C196.2 247.676 196.83 246.248 198.916 246.248C199.28 246.248 199.518 246.276 199.77 246.346L199.658 247.774C199.476 247.718 199.252 247.676 199.014 247.676C198.048 247.676 197.88 248.516 197.88 249.188V250.28H199.434V251.624H197.88V257H196.2Z" fill="#0077C5"/>
<rect x="212" y="242" width="64" height="20" rx="4" fill="#EBF9FF"/>
<path d="M216.868 252.044H219.948V248.964H221.376V252.044H224.456V253.472H221.376V256.552H219.948V253.472H216.868V252.044ZM228.292 252.506V251.162H228.74C229.734 251.162 230.854 250.882 230.854 249.664C230.854 248.768 230.126 248.236 229.286 248.236C228.474 248.236 227.9 248.754 227.704 249.51L226.122 249.104C226.472 247.774 227.774 246.836 229.356 246.836C231.092 246.836 232.548 247.774 232.548 249.552C232.548 250.616 231.848 251.526 230.77 251.792V251.82C231.974 252.058 232.814 252.982 232.814 254.2C232.814 256.258 231.036 257.252 229.356 257.252C227.69 257.252 226.29 256.566 225.758 254.914L227.326 254.424C227.564 255.208 228.25 255.824 229.3 255.824C230.168 255.824 231.12 255.376 231.12 254.186C231.12 252.898 229.762 252.506 228.712 252.506H228.292ZM246.399 250.084C248.149 250.084 248.877 251.428 248.877 252.8V257H247.197V253.276C247.197 252.478 247.015 251.484 245.937 251.484C244.887 251.484 244.453 252.464 244.453 253.332V257H242.773V252.94C242.773 252.114 242.381 251.484 241.527 251.484C240.519 251.484 240.057 252.408 240.057 253.304V257H238.377V250.28H239.973V251.358H240.001C240.295 250.7 241.009 250.084 242.087 250.084C243.123 250.084 243.809 250.602 244.187 251.358C244.635 250.546 245.391 250.084 246.399 250.084ZM250.44 253.612C250.44 251.498 252.064 250.084 254.094 250.084C256.124 250.084 257.748 251.498 257.748 253.612C257.748 255.726 256.124 257.196 254.094 257.196C252.064 257.196 250.44 255.726 250.44 253.612ZM252.148 253.612C252.148 254.662 252.764 255.796 254.094 255.796C255.424 255.796 256.04 254.662 256.04 253.612C256.04 252.562 255.424 251.456 254.094 251.456C252.764 251.456 252.148 252.562 252.148 253.612ZM259.377 257V250.28H260.987V251.4H261.015C261.379 250.63 262.093 250.084 262.975 250.084C263.101 250.084 263.269 250.098 263.381 250.126V251.666C263.157 251.61 263.017 251.596 262.863 251.596C261.351 251.596 261.057 252.912 261.057 253.402V257H259.377ZM265.519 252.968H268.963C268.963 252.1 268.473 251.344 267.381 251.344C266.387 251.344 265.589 252.03 265.519 252.968ZM270.643 253.724C270.643 253.878 270.643 254.018 270.629 254.172H265.519C265.589 255.124 266.457 255.824 267.437 255.824C268.277 255.824 268.837 255.488 269.215 254.956L270.335 255.852C269.677 256.748 268.725 257.196 267.451 257.196C265.379 257.196 263.839 255.866 263.839 253.682C263.839 251.512 265.365 250.084 267.395 250.084C269.271 250.084 270.643 251.302 270.643 253.724Z" fill="#0077C5"/>
<path d="M309.96 183.213C309.806 182.853 309.549 182.546 309.222 182.33C308.895 182.115 308.512 182 308.12 182H299C298.823 182 298.654 182.07 298.529 182.195C298.404 182.32 298.333 182.49 298.333 182.667V189.333C298.333 189.51 298.404 189.68 298.529 189.805C298.654 189.93 298.823 190 299 190H302.02L305.153 193.76C305.216 193.835 305.295 193.896 305.383 193.937C305.472 193.979 305.569 194 305.667 194C305.771 194.001 305.874 193.976 305.967 193.927C306.479 193.669 306.895 193.252 307.152 192.74C307.409 192.227 307.493 191.645 307.393 191.08L307.207 190H309.667C310.197 190 310.706 189.789 311.081 189.414C311.456 189.039 311.667 188.53 311.667 188V187.673C311.669 187.359 311.605 187.048 311.48 186.76L309.96 183.213ZM301.667 188.667H299.667V183.333H301.667V188.667ZM310.333 188C310.333 188.177 310.263 188.346 310.138 188.471C310.013 188.596 309.843 188.667 309.667 188.667H306.413C306.315 188.665 306.218 188.685 306.129 188.726C306.04 188.766 305.96 188.826 305.897 188.9C305.833 188.975 305.787 189.062 305.761 189.157C305.735 189.251 305.73 189.35 305.747 189.447L306.08 191.313C306.114 191.509 306.103 191.711 306.049 191.902C305.995 192.094 305.898 192.271 305.767 192.42L303 189.093V183.333H308.12C308.251 183.333 308.379 183.372 308.488 183.444C308.597 183.517 308.682 183.62 308.733 183.74L310.253 187.28C310.306 187.404 310.333 187.538 310.333 187.673V188Z" fill="#6B6C72"/>
<path d="M285.667 186H283.207L283.393 184.92C283.493 184.355 283.409 183.773 283.152 183.26C282.895 182.747 282.479 182.331 281.967 182.073C281.832 182.005 281.679 181.984 281.531 182.015C281.383 182.045 281.25 182.124 281.153 182.24L278.02 186H275C274.823 186 274.654 186.07 274.529 186.195C274.404 186.32 274.333 186.49 274.333 186.667V193.333C274.333 193.51 274.404 193.68 274.529 193.805C274.654 193.93 274.823 194 275 194H284.12C284.512 194 284.895 193.885 285.222 193.67C285.549 193.454 285.806 193.147 285.96 192.787L287.48 189.24C287.605 188.952 287.669 188.641 287.667 188.327V188C287.667 187.469 287.456 186.961 287.081 186.586C286.706 186.211 286.197 186 285.667 186ZM277.667 192.667H275.667V187.333H277.667V192.667ZM286.333 188.327C286.333 188.462 286.306 188.595 286.253 188.72L284.733 192.26C284.682 192.38 284.597 192.483 284.488 192.556C284.379 192.628 284.251 192.666 284.12 192.667H279V186.907L281.773 183.573C281.903 183.721 281.998 183.896 282.052 184.085C282.107 184.274 282.118 184.473 282.087 184.667L281.753 186.533C281.737 186.63 281.741 186.729 281.767 186.823C281.793 186.918 281.84 187.005 281.904 187.08C281.967 187.154 282.046 187.214 282.136 187.254C282.225 187.295 282.322 187.315 282.42 187.313H285.667C285.843 187.313 286.013 187.384 286.138 187.509C286.263 187.634 286.333 187.803 286.333 187.98V188.327Z" fill="#6B6C72"/>
<path d="M257 190C256.868 190 256.739 190.039 256.63 190.112C256.52 190.186 256.435 190.29 256.384 190.412C256.334 190.533 256.32 190.667 256.346 190.797C256.372 190.926 256.435 191.045 256.529 191.138C256.622 191.231 256.741 191.295 256.87 191.321C256.999 191.346 257.133 191.333 257.255 191.283C257.377 191.232 257.481 191.147 257.554 191.037C257.628 190.927 257.667 190.799 257.667 190.667C257.667 190.49 257.596 190.32 257.471 190.195C257.346 190.07 257.177 190 257 190Z" fill="#6B6C72"/>
<path d="M259 186.667C258.999 186.137 258.788 185.628 258.413 185.254C258.038 184.879 257.53 184.668 257 184.667C256.555 184.668 256.124 184.818 255.774 185.092C255.424 185.366 255.175 185.749 255.067 186.18C255.042 186.266 255.035 186.356 255.045 186.444C255.056 186.533 255.084 186.619 255.129 186.696C255.173 186.774 255.232 186.842 255.304 186.896C255.375 186.95 255.456 186.989 255.542 187.011C255.629 187.033 255.719 187.038 255.807 187.024C255.896 187.011 255.98 186.98 256.056 186.933C256.133 186.886 256.198 186.824 256.25 186.752C256.302 186.679 256.339 186.597 256.358 186.509C256.395 186.366 256.478 186.239 256.594 186.147C256.71 186.055 256.852 186.004 257 186C257.176 186.001 257.345 186.072 257.47 186.196C257.595 186.321 257.666 186.49 257.667 186.667C257.667 186.675 257.671 186.683 257.671 186.691C257.671 186.7 257.667 186.707 257.667 186.715C257.667 186.777 257.649 186.838 257.617 186.89C257.584 186.943 257.538 186.986 257.483 187.013L256.701 187.403C256.591 187.458 256.497 187.543 256.432 187.649C256.367 187.755 256.333 187.876 256.333 188V188.667C256.333 188.843 256.404 189.013 256.529 189.138C256.654 189.263 256.823 189.333 257 189.333C257.177 189.333 257.346 189.263 257.471 189.138C257.596 189.013 257.667 188.843 257.667 188.667V188.411L258.079 188.206C258.362 188.063 258.598 187.844 258.761 187.572C258.924 187.301 259.007 186.989 259 186.673V186.667Z" fill="#6B6C72"/>
<path d="M261.721 183.293C261.105 182.671 260.371 182.178 259.562 181.841C258.754 181.505 257.886 181.332 257.011 181.333H257C255.232 181.332 253.536 182.033 252.284 183.282C251.033 184.531 250.329 186.227 250.328 187.995C250.327 189.763 251.028 191.459 252.277 192.71C253.526 193.962 255.221 194.665 256.989 194.667H257C258.318 194.667 259.606 194.276 260.702 193.545C261.797 192.813 262.652 191.773 263.157 190.556C263.662 189.339 263.796 188 263.54 186.707C263.284 185.414 262.652 184.227 261.721 183.293ZM260.765 191.777C260.272 192.272 259.685 192.664 259.038 192.932C258.392 193.199 257.699 193.335 257 193.333H256.991C255.577 193.332 254.221 192.769 253.221 191.768C252.222 190.767 251.661 189.41 251.662 187.996C251.663 186.581 252.226 185.225 253.227 184.226C254.229 183.226 255.586 182.666 257 182.667H257.008C258.063 182.668 259.093 182.983 259.969 183.57C260.846 184.157 261.528 184.991 261.93 185.966C262.332 186.942 262.436 188.014 262.229 189.048C262.022 190.082 261.512 191.032 260.765 191.777Z" fill="#6B6C72"/>
<defs>
<clipPath id="clip0_14_5906">
<rect width="295" height="72" fill="white" transform="translate(20 76)"/>
</clipPath>
</defs>
</svg>
